<svg xmlns="http://www.w3.org/2000/svg" xmlns:xlink="http://www.w3.org/1999/xlink" id="Capa_1" x="0px" y="0px" viewBox="0 0 700 96.4" style="enable-background:new 0 0 700 96.4;" xml:space="preserve"><style type="text/css">	.st0{fill:none;stroke:#000000;stroke-width:4;}	.st1{fill:#FF0000;}</style><g>	<g>		<path class="st0" d="M13,21.2c7-1.3,12.7-2.2,17.3-2.7c4.5-0.4,8.1-0.7,10.7-0.6c2.6,0,5,0.3,7.1,0.7c2,0.9,3.7,1.9,5,2.8   c1.3,0.9,2.5,2.1,3.7,3.5c1.2,1.4,1.9,3,2.2,4.9c0.3,1.9-0.1,4-1.1,6.3c-1,2.3-3,4.9-6.1,7.7c4.2,2.2,7.1,4.5,8.9,7   c1.8,2.5,2.7,5,2.9,7.4c0.2,2.4-0.2,4.8-1.1,7c-0.9,2.2-2,4.2-3.2,5.9c-1.2,1.7-2.8,3.5-4.9,5.6c0,0.1-0.4,0.3-1,0.6   c-0.6,0.4-1.8,0.8-3.6,1.3c-1.8,0.5-4.2,1-7.2,1.3c-3,0.3-6.9,0.5-11.7,0.5c-4.8,0-10.5-0.4-17.2-1.2L13,21.2z M43.6,58   c-0.1-0.5-0.3-1.1-0.7-1.7c-0.4-0.7-1-1.2-1.8-1.6c-0.8-0.4-2-0.5-3.5-0.4c-1.5,0.1-3.5,0.8-5.8,1.9l1,7.8   c2.7,0.2,4.8,0.1,6.4-0.4c1.5-0.5,2.6-1.1,3.3-1.8c0.7-0.7,1.1-1.7,1.4-3C43.7,58.8,43.7,58.5,43.6,58z M39.3,35.4   c-0.4-0.5-1.1-0.9-2-1c-1-0.2-2.5,0.1-4.5,0.9l-0.3,7.8c1.5,0.2,2.8,0.1,3.8-0.4c1-0.5,1.7-1.1,2.2-1.9c0.5-0.7,1-1.7,1.3-2.9   C39.9,36.8,39.7,35.9,39.3,35.4z"></path>		<path class="st0" d="M107.8,20.6c0.3,7.6,0.5,13.7,0.6,18.3c0.1,4.6,0.2,8.2,0.3,10.6c0,2.5,0.1,4.1,0.1,4.9v1.2   c0,3-0.2,5.9-0.7,8.7c-0.5,2.8-1.4,5.3-2.7,7.5c-1.3,2.3-3.1,4.2-5.4,5.8c-2.3,1.6-5.1,2.7-8.4,3.4c-5.2,1-9.6,1.1-13.3,0.3   c-3.7-0.8-6.8-2.3-9.2-4.5c-2.4-2.2-4.2-4.9-5.2-8.3c-1.1-3.3-1.6-7-1.5-11c0,0,0-0.3,0-0.7c0-0.5,0-1.5,0.1-3.1   c0-1.6,0.1-3.8,0.1-6.7c0-2.9,0.1-6.7,0.3-11.5c0.1-4.8,0.3-10.7,0.5-17.5l21.3,3.7l-1.9,34.9c-0.2,1.3-0.2,2.4,0,3.4   c0.2,1,0.5,1.7,0.7,2.2c0.2,0.4,0.4,0.7,0.4,0.7c0.5,0.5,1.1,0.9,1.7,1c0.6,0.1,1.4-0.5,2.2-1.8c0,0,0.2-0.4,0.4-0.9   c0.2-0.6,0.5-1.6,0.7-3c0.2-1.4,0.3-3.2,0.2-5.3l-1.6-28.5L107.8,20.6z"></path>		<path class="st0" d="M112.5,21.7l41.1-3L151.3,38l-18.7,0.7l-0.8,5.8l15.6-1l1,15.6l-15.7,1l-0.7,19l-19,0.4L112.5,21.7z"></path>		<path class="st0" d="M179.7,14.4l37.5,57.1l-23.3,8.8l-6.2-10.4L172,70.5l-3,11.1l-22.4-7.3L179.7,14.4z M175.9,58.6l8.8-1.6   L181,47L175.9,58.6z"></path>		<path class="st0" d="M216.5,21.2l22.4-3.1l-1.9,41.8l18.2-3.8L256,77l-39,3.9L216.5,21.2z"></path>		<path class="st0" d="M302.6,73.2c-1.8,1.8-4,3.3-6.5,4.7c-2.6,1.3-5.3,2.4-8.2,3c-2.9,0.7-5.9,1-9,1c-3.1-0.1-6.1-0.6-8.9-1.6   c-2.9-1-5.5-2.6-7.8-4.6s-4.3-4.8-5.8-8.1c-1.7-3.7-2.7-7.4-3-11.1c-0.3-3.7-0.1-7.2,0.7-10.6c0.8-3.4,2.1-6.6,3.9-9.6   c1.8-3,3.9-5.8,6.5-8.2c2.5-2.5,5.4-4.6,8.5-6.4c3.1-1.8,6.5-3.1,10.1-4.1c3.4-0.8,6.5-1.1,9.5-0.8c2.9,0.3,5.6,1,8,2.1   c2.4,1.1,4.4,2.4,6.1,4c1.7,1.6,2.9,3.1,3.8,4.7c1.5,3,2.7,6.3,3.5,10.1c0.8,3.7,0.9,7.6,0.5,11.6c-0.4,4-1.5,8.1-3.4,12.2   C309,65.6,306.2,69.5,302.6,73.2z M292.7,41.5c-0.7-1.6-1.8-2.7-3.2-3.4c-1.4-0.7-2.8-1-4.4-0.9c-1.6,0.1-3.2,0.6-4.8,1.4   c-1.6,0.8-3.1,2-4.5,3.4c-1.3,1.5-2.4,3.2-3.3,5.3c-0.9,2.1-1.3,4.4-1.3,6.9c-0.1,2.4,0.3,4.3,1,5.8c0.7,1.5,1.6,2.6,2.8,3.3   c1.1,0.7,2.4,1.1,3.8,1.2c1.4,0.1,2.9-0.1,4.3-0.6c1.4-0.5,2.7-1.2,4-2.2c1.2-1,2.3-2.1,3.1-3.4c1.2-1.9,2.1-3.7,2.7-5.4   c0.6-1.7,0.9-3.2,1-4.6c0.1-1.4,0.1-2.7-0.2-3.8C293.5,43.4,293.2,42.4,292.7,41.5z"></path>		<path class="st0" d="M336.6,21.2c7-1.3,12.7-2.2,17.3-2.7c4.5-0.4,8.1-0.7,10.7-0.6c2.6,0,5,0.3,7.1,0.7c2,0.9,3.7,1.9,5,2.8   c1.3,0.9,2.5,2.1,3.7,3.5c1.2,1.4,1.9,3,2.2,4.9c0.3,1.9-0.1,4-1.1,6.3c-1,2.3-3,4.9-6.1,7.7c4.2,2.2,7.1,4.5,8.9,7   c1.8,2.5,2.7,5,2.9,7.4c0.2,2.4-0.2,4.8-1.1,7c-0.9,2.2-2,4.2-3.2,5.9c-1.2,1.7-2.8,3.5-4.9,5.6c-0.1,0.1-0.4,0.3-1,0.6   s-1.8,0.8-3.6,1.3c-1.8,0.5-4.2,1-7.2,1.3c-3,0.3-6.9,0.5-11.7,0.5c-4.8,0-10.5-0.4-17.2-1.2L336.6,21.2z M367.2,58   c-0.1-0.5-0.3-1.1-0.7-1.7c-0.4-0.7-1-1.2-1.8-1.6c-0.8-0.4-2-0.5-3.5-0.4c-1.5,0.1-3.5,0.8-5.8,1.9l1,7.8   c2.7,0.2,4.8,0.1,6.4-0.4c1.5-0.5,2.6-1.1,3.3-1.8c0.7-0.7,1.1-1.7,1.4-3C367.3,58.8,367.2,58.5,367.2,58z M362.9,35.4   c-0.4-0.5-1.1-0.9-2-1c-1-0.2-2.5,0.1-4.5,0.9l-0.3,7.8c1.5,0.2,2.8,0.1,3.8-0.4c1-0.5,1.7-1.1,2.2-1.9c0.5-0.7,1-1.7,1.3-2.9   C363.4,36.8,363.2,35.9,362.9,35.4z"></path>		<path class="st0" d="M431.3,20.6c0.3,7.6,0.5,13.7,0.6,18.3c0.1,4.6,0.2,8.2,0.3,10.6c0,2.5,0.1,4.1,0.1,4.9v1.2   c0,3-0.2,5.9-0.7,8.7c-0.5,2.8-1.4,5.3-2.7,7.5c-1.3,2.3-3.1,4.2-5.4,5.8c-2.3,1.6-5.1,2.7-8.4,3.4c-5.2,1-9.6,1.1-13.3,0.3   c-3.7-0.8-6.8-2.3-9.2-4.5c-2.4-2.2-4.2-4.9-5.2-8.3c-1.1-3.3-1.6-7-1.5-11c0,0,0-0.3,0-0.7c0-0.5,0-1.5,0.1-3.1   c0-1.6,0.1-3.8,0.1-6.7c0-2.9,0.1-6.7,0.3-11.5c0.1-4.8,0.3-10.7,0.5-17.5l21.3,3.7l-1.9,34.9c-0.2,1.3-0.2,2.4,0,3.4   c0.2,1,0.5,1.7,0.7,2.2c0.2,0.4,0.4,0.7,0.4,0.7c0.5,0.5,1.1,0.9,1.7,1c0.6,0.1,1.4-0.5,2.2-1.8c0,0,0.2-0.4,0.4-0.9   c0.2-0.6,0.5-1.6,0.7-3c0.2-1.4,0.3-3.2,0.2-5.3l-1.6-28.5L431.3,20.6z"></path>		<path class="st0" d="M484.7,68.7l-11.5,13l-18.1-13.3l-0.2,12.7l-18-1.9l-1.2-58c9.4-1.1,18.5-2.1,27.2-2.9   c4.7-0.5,8.5-0.1,11.6,1c3.1,1.2,5.5,2.9,7.1,5.2c1.6,2.3,2.5,4.9,2.8,7.9c0.2,3-0.2,6.1-1.3,9.2c-1.1,3.1-2.8,6.2-5.2,9.2   c-2.4,3-5.3,5.5-8.7,7.7L484.7,68.7z M454,37.8l-0.7,11.9c1.8-0.4,3.3-1,4.6-1.7c1.3-0.7,2.4-1.5,3.3-2.4c0.9-0.8,1.6-1.6,2-2.4   c0.5-0.8,0.8-1.4,0.9-1.8c0,0,0-0.3,0.1-0.8c0-0.5,0-1.1-0.2-1.8c-0.2-0.7-0.6-1.3-1.3-1.7c-0.7-0.5-1.7-0.7-3.1-0.7   C458.3,36.4,456.4,36.9,454,37.8z"></path>		<path class="st0" d="M526.7,42.4c-0.7-1.7-1.8-2.9-3.3-3.7c-1.5-0.8-3.2-1.2-5.1-1.2c-1.8,0-3.7,0.4-5.7,1.2   c-2,0.8-3.8,1.9-5.4,3.3c-1.6,1.4-3,3.2-4.1,5.3c-1.1,2.1-1.6,4.4-1.6,7.1c0,2.4,0.3,4.4,1.2,5.8c0.8,1.5,1.9,2.5,3.1,3.2   c1.3,0.6,2.7,0.9,4.2,0.9c1.5-0.1,3-0.4,4.5-1.1c1.5-0.7,2.8-1.6,4.1-2.7c1.2-1.1,2.1-2.4,2.7-3.8l-10.6,2l1.2-12l32.4-4.1   c0.4,3.1,0.3,6.2-0.4,9.3c-0.7,3-1.7,5.8-3,8.4c-1.3,2.5-2.6,4.8-4,6.8c-1.4,2-2.5,3.5-3.5,4.6c-0.9,1-1.4,1.6-1.5,1.7   c-1.8,1.8-4,3.3-6.5,4.7c-2.6,1.3-5.3,2.4-8.2,3c-2.9,0.7-5.9,1-9.1,0.9c-3.1-0.1-6.1-0.6-8.9-1.6c-2.8-1-5.4-2.6-7.8-4.6   c-2.4-2.1-4.3-4.8-5.8-8.1c-1.7-3.7-2.7-7.4-2.9-11.1c-0.2-3.7,0.1-7.3,0.9-10.7c0.8-3.4,2.2-6.7,4.1-9.8c1.9-3.1,4.1-5.8,6.7-8.3   c2.6-2.5,5.5-4.5,8.7-6.3c3.2-1.7,6.6-3,10.2-3.7c0.1,0,0.6-0.1,1.6-0.2c1-0.1,2.4-0.1,4.2,0c1.8,0.1,3.9,0.5,6.2,1.1   c2.3,0.6,4.8,1.7,7.4,3.1c2.7,1.5,5.3,3.5,8,6.1L526.7,42.4z"></path>		<path class="st0" d="M589.6,20.6c0.3,7.6,0.5,13.7,0.6,18.3c0.1,4.6,0.2,8.2,0.3,10.6c0,2.5,0.1,4.1,0.1,4.9v1.2   c0,3-0.2,5.9-0.7,8.7c-0.5,2.8-1.4,5.3-2.7,7.5c-1.3,2.3-3.1,4.2-5.4,5.8c-2.3,1.6-5.1,2.7-8.4,3.4c-5.2,1-9.6,1.1-13.3,0.3   c-3.7-0.8-6.8-2.3-9.2-4.5c-2.4-2.2-4.2-4.9-5.2-8.3c-1.1-3.3-1.6-7-1.5-11c0,0,0-0.3,0-0.7c0-0.5,0-1.5,0.1-3.1   c0-1.6,0.1-3.8,0.1-6.7c0-2.9,0.1-6.7,0.3-11.5c0.1-4.8,0.3-10.7,0.5-17.5l21.3,3.7l-1.9,34.9c-0.2,1.3-0.2,2.4,0,3.4   c0.2,1,0.5,1.7,0.7,2.2c0.2,0.4,0.4,0.7,0.4,0.7c0.5,0.5,1.1,0.9,1.7,1c0.6,0.1,1.4-0.5,2.2-1.8c0,0,0.2-0.4,0.4-0.9   c0.2-0.6,0.5-1.6,0.7-3c0.2-1.4,0.3-3.2,0.2-5.3l-1.6-28.5L589.6,20.6z"></path>		<path class="st0" d="M594.1,21.8l41-3l-2.3,18.8l-18.7,0.8l-0.1,3.6l13.5-1l-1.6,13l-12.4,1l-0.1,4.1l21.3-2l-0.4,20.5l-39.8,2.2   L594.1,21.8z"></path>		<path class="st0" d="M687,68.7l-11.5,13l-18.1-13.3l-0.2,12.7l-18-1.9l-1.2-58c9.4-1.1,18.5-2.1,27.2-2.9c4.7-0.5,8.5-0.1,11.6,1   c3.1,1.2,5.5,2.9,7.1,5.2c1.6,2.3,2.5,4.9,2.8,7.9c0.2,3-0.2,6.1-1.3,9.2c-1.1,3.1-2.8,6.2-5.2,9.2c-2.4,3-5.3,5.5-8.7,7.7   L687,68.7z M656.3,37.8l-0.7,11.9c1.8-0.4,3.3-1,4.6-1.7c1.3-0.7,2.4-1.5,3.3-2.4c0.9-0.8,1.6-1.6,2-2.4c0.5-0.8,0.8-1.4,0.9-1.8   c0,0,0-0.3,0.1-0.8c0-0.5,0-1.1-0.2-1.8c-0.2-0.7-0.6-1.3-1.3-1.7c-0.7-0.5-1.7-0.7-3.1-0.7C660.5,36.4,658.6,36.9,656.3,37.8z"></path>		<path class="st0" d="M88.4,17.6l7.4-5.6c0.3-0.3,0.4-0.9,0.1-1.1l-5.4-3.6c-0.3-0.2-0.6,0.1-0.7,0.5l-1.9,9.1   C87.6,17.4,88,17.9,88.4,17.6z"></path>	</g>	<g>		<path d="M13,21.2c7-1.3,12.7-2.2,17.3-2.7c4.5-0.4,8.1-0.7,10.7-0.6c2.6,0,5,0.3,7.1,0.7c2,0.9,3.7,1.9,5,2.8   c1.3,0.9,2.5,2.1,3.7,3.5c1.2,1.4,1.9,3,2.2,4.9c0.3,1.9-0.1,4-1.1,6.3c-1,2.3-3,4.9-6.1,7.7c4.2,2.2,7.1,4.5,8.9,7   c1.8,2.5,2.7,5,2.9,7.4c0.2,2.4-0.2,4.8-1.1,7c-0.9,2.2-2,4.2-3.2,5.9c-1.2,1.7-2.8,3.5-4.9,5.6c0,0.1-0.4,0.3-1,0.6   c-0.6,0.4-1.8,0.8-3.6,1.3c-1.8,0.5-4.2,1-7.2,1.3c-3,0.3-6.9,0.5-11.7,0.5c-4.8,0-10.5-0.4-17.2-1.2L13,21.2z M43.6,58   c-0.1-0.5-0.3-1.1-0.7-1.7c-0.4-0.7-1-1.2-1.8-1.6c-0.8-0.4-2-0.5-3.5-0.4c-1.5,0.1-3.5,0.8-5.8,1.9l1,7.8   c2.7,0.2,4.8,0.1,6.4-0.4c1.5-0.5,2.6-1.1,3.3-1.8c0.7-0.7,1.1-1.7,1.4-3C43.7,58.8,43.7,58.5,43.6,58z M39.3,35.4   c-0.4-0.5-1.1-0.9-2-1c-1-0.2-2.5,0.1-4.5,0.9l-0.3,7.8c1.5,0.2,2.8,0.1,3.8-0.4c1-0.5,1.7-1.1,2.2-1.9c0.5-0.7,1-1.7,1.3-2.9   C39.9,36.8,39.7,35.9,39.3,35.4z"></path>		<path d="M107.8,20.6c0.3,7.6,0.5,13.7,0.6,18.3c0.1,4.6,0.2,8.2,0.3,10.6c0,2.5,0.1,4.1,0.1,4.9v1.2c0,3-0.2,5.9-0.7,8.7   c-0.5,2.8-1.4,5.3-2.7,7.5c-1.3,2.3-3.1,4.2-5.4,5.8c-2.3,1.6-5.1,2.7-8.4,3.4c-5.2,1-9.6,1.1-13.3,0.3c-3.7-0.8-6.8-2.3-9.2-4.5   c-2.4-2.2-4.2-4.9-5.2-8.3c-1.1-3.3-1.6-7-1.5-11c0,0,0-0.3,0-0.7c0-0.5,0-1.5,0.1-3.1c0-1.6,0.1-3.8,0.1-6.7   c0-2.9,0.1-6.7,0.3-11.5c0.1-4.8,0.3-10.7,0.5-17.5l21.3,3.7l-1.9,34.9c-0.2,1.3-0.2,2.4,0,3.4c0.2,1,0.5,1.7,0.7,2.2   c0.2,0.4,0.4,0.7,0.4,0.7c0.5,0.5,1.1,0.9,1.7,1c0.6,0.1,1.4-0.5,2.2-1.8c0,0,0.2-0.4,0.4-0.9c0.2-0.6,0.5-1.6,0.7-3   c0.2-1.4,0.3-3.2,0.2-5.3l-1.6-28.5L107.8,20.6z"></path>		<path d="M112.5,21.7l41.1-3L151.3,38l-18.7,0.7l-0.8,5.8l15.6-1l1,15.6l-15.7,1l-0.7,19l-19,0.4L112.5,21.7z"></path>		<path d="M179.7,14.4l37.5,57.1l-23.3,8.8l-6.2-10.4L172,70.5l-3,11.1l-22.4-7.3L179.7,14.4z M175.9,58.6l8.8-1.6L181,47   L175.9,58.6z"></path>		<path d="M216.5,21.2l22.4-3.1l-1.9,41.8l18.2-3.8L256,77l-39,3.9L216.5,21.2z"></path>		<path d="M302.6,73.2c-1.8,1.8-4,3.3-6.5,4.7c-2.6,1.3-5.3,2.4-8.2,3c-2.9,0.7-5.9,1-9,1c-3.1-0.1-6.1-0.6-8.9-1.6   c-2.9-1-5.5-2.6-7.8-4.6s-4.3-4.8-5.8-8.1c-1.7-3.7-2.7-7.4-3-11.1c-0.3-3.7-0.1-7.2,0.7-10.6c0.8-3.4,2.1-6.6,3.9-9.6   c1.8-3,3.9-5.8,6.5-8.2c2.5-2.5,5.4-4.6,8.5-6.4c3.1-1.8,6.5-3.1,10.1-4.1c3.4-0.8,6.5-1.1,9.5-0.8c2.9,0.3,5.6,1,8,2.1   c2.4,1.1,4.4,2.4,6.1,4c1.7,1.6,2.9,3.1,3.8,4.7c1.5,3,2.7,6.3,3.5,10.1c0.8,3.7,0.9,7.6,0.5,11.6c-0.4,4-1.5,8.1-3.4,12.2   C309,65.6,306.2,69.5,302.6,73.2z M292.7,41.5c-0.7-1.6-1.8-2.7-3.2-3.4c-1.4-0.7-2.8-1-4.4-0.9c-1.6,0.1-3.2,0.6-4.8,1.4   c-1.6,0.8-3.1,2-4.5,3.4c-1.3,1.5-2.4,3.2-3.3,5.3c-0.9,2.1-1.3,4.4-1.3,6.9c-0.1,2.4,0.3,4.3,1,5.8c0.7,1.5,1.6,2.6,2.8,3.3   c1.1,0.7,2.4,1.1,3.8,1.2c1.4,0.1,2.9-0.1,4.3-0.6c1.4-0.5,2.7-1.2,4-2.2c1.2-1,2.3-2.1,3.1-3.4c1.2-1.9,2.1-3.7,2.7-5.4   c0.6-1.7,0.9-3.2,1-4.6c0.1-1.4,0.1-2.7-0.2-3.8C293.5,43.4,293.2,42.4,292.7,41.5z"></path>		<path d="M336.6,21.2c7-1.3,12.7-2.2,17.3-2.7c4.5-0.4,8.1-0.7,10.7-0.6c2.6,0,5,0.3,7.1,0.7c2,0.9,3.7,1.9,5,2.8   c1.3,0.9,2.5,2.1,3.7,3.5c1.2,1.4,1.9,3,2.2,4.9c0.3,1.9-0.1,4-1.1,6.3c-1,2.3-3,4.9-6.1,7.7c4.2,2.2,7.1,4.5,8.9,7   c1.8,2.5,2.7,5,2.9,7.4c0.2,2.4-0.2,4.8-1.1,7c-0.9,2.2-2,4.2-3.2,5.9c-1.2,1.7-2.8,3.5-4.9,5.6c-0.1,0.1-0.4,0.3-1,0.6   s-1.8,0.8-3.6,1.3c-1.8,0.5-4.2,1-7.2,1.3c-3,0.3-6.9,0.5-11.7,0.5c-4.8,0-10.5-0.4-17.2-1.2L336.6,21.2z M367.2,58   c-0.1-0.5-0.3-1.1-0.7-1.7c-0.4-0.7-1-1.2-1.8-1.6c-0.8-0.4-2-0.5-3.5-0.4c-1.5,0.1-3.5,0.8-5.8,1.9l1,7.8   c2.7,0.2,4.8,0.1,6.4-0.4c1.5-0.5,2.6-1.1,3.3-1.8c0.7-0.7,1.1-1.7,1.4-3C367.3,58.8,367.2,58.5,367.2,58z M362.9,35.4   c-0.4-0.5-1.1-0.9-2-1c-1-0.2-2.5,0.1-4.5,0.9l-0.3,7.8c1.5,0.2,2.8,0.1,3.8-0.4c1-0.5,1.7-1.1,2.2-1.9c0.5-0.7,1-1.7,1.3-2.9   C363.4,36.8,363.2,35.9,362.9,35.4z"></path>		<path d="M431.3,20.6c0.3,7.6,0.5,13.7,0.6,18.3c0.1,4.6,0.2,8.2,0.3,10.6c0,2.5,0.1,4.1,0.1,4.9v1.2c0,3-0.2,5.9-0.7,8.7   c-0.5,2.8-1.4,5.3-2.7,7.5c-1.3,2.3-3.1,4.2-5.4,5.8c-2.3,1.6-5.1,2.7-8.4,3.4c-5.2,1-9.6,1.1-13.3,0.3c-3.7-0.8-6.8-2.3-9.2-4.5   c-2.4-2.2-4.2-4.9-5.2-8.3c-1.1-3.3-1.6-7-1.5-11c0,0,0-0.3,0-0.7c0-0.5,0-1.5,0.1-3.1c0-1.6,0.1-3.8,0.1-6.7   c0-2.9,0.1-6.7,0.3-11.5c0.1-4.8,0.3-10.7,0.5-17.5l21.3,3.7l-1.9,34.9c-0.2,1.3-0.2,2.4,0,3.4c0.2,1,0.5,1.7,0.7,2.2   c0.2,0.4,0.4,0.7,0.4,0.7c0.5,0.5,1.1,0.9,1.7,1c0.6,0.1,1.4-0.5,2.2-1.8c0,0,0.2-0.4,0.4-0.9c0.2-0.6,0.5-1.6,0.7-3   c0.2-1.4,0.3-3.2,0.2-5.3l-1.6-28.5L431.3,20.6z"></path>		<path d="M484.7,68.7l-11.5,13l-18.1-13.3l-0.2,12.7l-18-1.9l-1.2-58c9.4-1.1,18.5-2.1,27.2-2.9c4.7-0.5,8.5-0.1,11.6,1   c3.1,1.2,5.5,2.9,7.1,5.2c1.6,2.3,2.5,4.9,2.8,7.9c0.2,3-0.2,6.1-1.3,9.2c-1.1,3.1-2.8,6.2-5.2,9.2c-2.4,3-5.3,5.5-8.7,7.7   L484.7,68.7z M454,37.8l-0.7,11.9c1.8-0.4,3.3-1,4.6-1.7c1.3-0.7,2.4-1.5,3.3-2.4c0.9-0.8,1.6-1.6,2-2.4c0.5-0.8,0.8-1.4,0.9-1.8   c0,0,0-0.3,0.1-0.8c0-0.5,0-1.1-0.2-1.8c-0.2-0.7-0.6-1.3-1.3-1.7c-0.7-0.5-1.7-0.7-3.1-0.7C458.3,36.4,456.4,36.9,454,37.8z"></path>		<path d="M526.7,42.4c-0.7-1.7-1.8-2.9-3.3-3.7c-1.5-0.8-3.2-1.2-5.1-1.2c-1.8,0-3.7,0.4-5.7,1.2c-2,0.8-3.8,1.9-5.4,3.3   c-1.6,1.4-3,3.2-4.1,5.3c-1.1,2.1-1.6,4.4-1.6,7.1c0,2.4,0.3,4.4,1.2,5.8c0.8,1.5,1.9,2.5,3.1,3.2c1.3,0.6,2.7,0.9,4.2,0.9   c1.5-0.1,3-0.4,4.5-1.1c1.5-0.7,2.8-1.6,4.1-2.7c1.2-1.1,2.1-2.4,2.7-3.8l-10.6,2l1.2-12l32.4-4.1c0.4,3.1,0.3,6.2-0.4,9.3   c-0.7,3-1.7,5.8-3,8.4c-1.3,2.5-2.6,4.8-4,6.8c-1.4,2-2.5,3.5-3.5,4.6c-0.9,1-1.4,1.6-1.5,1.7c-1.8,1.8-4,3.3-6.5,4.7   c-2.6,1.3-5.3,2.4-8.2,3c-2.9,0.7-5.9,1-9.1,0.9c-3.1-0.1-6.1-0.6-8.9-1.6c-2.8-1-5.4-2.6-7.8-4.6c-2.4-2.1-4.3-4.8-5.8-8.1   c-1.7-3.7-2.7-7.4-2.9-11.1c-0.2-3.7,0.1-7.3,0.9-10.7c0.8-3.4,2.2-6.7,4.1-9.8c1.9-3.1,4.1-5.8,6.7-8.3c2.6-2.5,5.5-4.5,8.7-6.3   c3.2-1.7,6.6-3,10.2-3.7c0.1,0,0.6-0.1,1.6-0.2c1-0.1,2.4-0.1,4.2,0c1.8,0.1,3.9,0.5,6.2,1.1c2.3,0.6,4.8,1.7,7.4,3.1   c2.7,1.5,5.3,3.5,8,6.1L526.7,42.4z"></path>		<path d="M589.6,20.6c0.3,7.6,0.5,13.7,0.6,18.3c0.1,4.6,0.2,8.2,0.3,10.6c0,2.5,0.1,4.1,0.1,4.9v1.2c0,3-0.2,5.9-0.7,8.7   c-0.5,2.8-1.4,5.3-2.7,7.5c-1.3,2.3-3.1,4.2-5.4,5.8c-2.3,1.6-5.1,2.7-8.4,3.4c-5.2,1-9.6,1.1-13.3,0.3c-3.7-0.8-6.8-2.3-9.2-4.5   c-2.4-2.2-4.2-4.9-5.2-8.3c-1.1-3.3-1.6-7-1.5-11c0,0,0-0.3,0-0.7c0-0.5,0-1.5,0.1-3.1c0-1.6,0.1-3.8,0.1-6.7   c0-2.9,0.1-6.7,0.3-11.5c0.1-4.8,0.3-10.7,0.5-17.5l21.3,3.7l-1.9,34.9c-0.2,1.3-0.2,2.4,0,3.4c0.2,1,0.5,1.7,0.7,2.2   c0.2,0.4,0.4,0.7,0.4,0.7c0.5,0.5,1.1,0.9,1.7,1c0.6,0.1,1.4-0.5,2.2-1.8c0,0,0.2-0.4,0.4-0.9c0.2-0.6,0.5-1.6,0.7-3   c0.2-1.4,0.3-3.2,0.2-5.3l-1.6-28.5L589.6,20.6z"></path>		<path d="M594.1,21.8l41-3l-2.3,18.8l-18.7,0.8l-0.1,3.6l13.5-1l-1.6,13l-12.4,1l-0.1,4.1l21.3-2l-0.4,20.5l-39.8,2.2L594.1,21.8z"></path>		<path d="M687,68.7l-11.5,13l-18.1-13.3l-0.2,12.7l-18-1.9l-1.2-58c9.4-1.1,18.5-2.1,27.2-2.9c4.7-0.5,8.5-0.1,11.6,1   c3.1,1.2,5.5,2.9,7.1,5.2c1.6,2.3,2.5,4.9,2.8,7.9c0.2,3-0.2,6.1-1.3,9.2c-1.1,3.1-2.8,6.2-5.2,9.2c-2.4,3-5.3,5.5-8.7,7.7   L687,68.7z M656.3,37.8l-0.7,11.9c1.8-0.4,3.3-1,4.6-1.7c1.3-0.7,2.4-1.5,3.3-2.4c0.9-0.8,1.6-1.6,2-2.4c0.5-0.8,0.8-1.4,0.9-1.8   c0,0,0-0.3,0.1-0.8c0-0.5,0-1.1-0.2-1.8c-0.2-0.7-0.6-1.3-1.3-1.7c-0.7-0.5-1.7-0.7-3.1-0.7C660.5,36.4,658.6,36.9,656.3,37.8z"></path>		<path class="st1" d="M88.4,17.6l7.4-5.6c0.3-0.3,0.4-0.9,0.1-1.1l-5.4-3.6c-0.3-0.2-0.6,0.1-0.7,0.5l-1.9,9.1   C87.6,17.4,88,17.9,88.4,17.6z"></path>	</g>	<g>		<path class="st1" d="M13,21.2c7-1.3,12.7-2.2,17.3-2.7c4.5-0.4,8.1-0.7,10.7-0.6c2.6,0,5,0.3,7.1,0.7c2,0.9,3.7,1.9,5,2.8   c1.3,0.9,2.5,2.1,3.7,3.5c1.2,1.4,1.9,3,2.2,4.9c0.3,1.9-0.1,4-1.1,6.3c-1,2.3-3,4.9-6.1,7.7c4.2,2.2,7.1,4.5,8.9,7   c1.8,2.5,2.7,5,2.9,7.4c0.2,2.4-0.2,4.8-1.1,7c-0.9,2.2-2,4.2-3.2,5.9c-1.2,1.7-2.8,3.5-4.9,5.6c0,0.1-0.4,0.3-1,0.6   c-0.6,0.4-1.8,0.8-3.6,1.3c-1.8,0.5-4.2,1-7.2,1.3c-3,0.3-6.9,0.5-11.7,0.5c-4.8,0-10.5-0.4-17.2-1.2L13,21.2z M43.6,58   c-0.1-0.5-0.3-1.1-0.7-1.7c-0.4-0.7-1-1.2-1.8-1.6c-0.8-0.4-2-0.5-3.5-0.4c-1.5,0.1-3.5,0.8-5.8,1.9l1,7.8   c2.7,0.2,4.8,0.1,6.4-0.4c1.5-0.5,2.6-1.1,3.3-1.8c0.7-0.7,1.1-1.7,1.4-3C43.7,58.8,43.7,58.5,43.6,58z M39.3,35.4   c-0.4-0.5-1.1-0.9-2-1c-1-0.2-2.5,0.1-4.5,0.9l-0.3,7.8c1.5,0.2,2.8,0.1,3.8-0.4c1-0.5,1.7-1.1,2.2-1.9c0.5-0.7,1-1.7,1.3-2.9   C39.9,36.8,39.7,35.9,39.3,35.4z"></path>		<path class="st1" d="M107.8,20.6c0.3,7.6,0.5,13.7,0.6,18.3c0.1,4.6,0.2,8.2,0.3,10.6c0,2.5,0.1,4.1,0.1,4.9v1.2   c0,3-0.2,5.9-0.7,8.7c-0.5,2.8-1.4,5.3-2.7,7.5c-1.3,2.3-3.1,4.2-5.4,5.8c-2.3,1.6-5.1,2.7-8.4,3.4c-5.2,1-9.6,1.1-13.3,0.3   c-3.7-0.8-6.8-2.3-9.2-4.5c-2.4-2.2-4.2-4.9-5.2-8.3c-1.1-3.3-1.6-7-1.5-11c0,0,0-0.3,0-0.7c0-0.5,0-1.5,0.1-3.1   c0-1.6,0.1-3.8,0.1-6.7c0-2.9,0.1-6.7,0.3-11.5c0.1-4.8,0.3-10.7,0.5-17.5l21.3,3.7l-1.9,34.9c-0.2,1.3-0.2,2.4,0,3.4   c0.2,1,0.5,1.7,0.7,2.2c0.2,0.4,0.4,0.7,0.4,0.7c0.5,0.5,1.1,0.9,1.7,1c0.6,0.1,1.4-0.5,2.2-1.8c0,0,0.2-0.4,0.4-0.9   c0.2-0.6,0.5-1.6,0.7-3c0.2-1.4,0.3-3.2,0.2-5.3l-1.6-28.5L107.8,20.6z"></path>		<path class="st1" d="M112.5,21.7l41.1-3L151.3,38l-18.7,0.7l-0.8,5.8l15.6-1l1,15.6l-15.7,1l-0.7,19l-19,0.4L112.5,21.7z"></path>		<path class="st1" d="M179.7,14.4l37.5,57.1l-23.3,8.8l-6.2-10.4L172,70.5l-3,11.1l-22.4-7.3L179.7,14.4z M175.9,58.6l8.8-1.6   L181,47L175.9,58.6z"></path>		<path class="st1" d="M216.5,21.2l22.4-3.1l-1.9,41.8l18.2-3.8L256,77l-39,3.9L216.5,21.2z"></path>		<path class="st1" d="M302.6,73.2c-1.8,1.8-4,3.3-6.5,4.7c-2.6,1.3-5.3,2.4-8.2,3c-2.9,0.7-5.9,1-9,1c-3.1-0.1-6.1-0.6-8.9-1.6   c-2.9-1-5.5-2.6-7.8-4.6s-4.3-4.8-5.8-8.1c-1.7-3.7-2.7-7.4-3-11.1c-0.3-3.7-0.1-7.2,0.7-10.6c0.8-3.4,2.1-6.6,3.9-9.6   c1.8-3,3.9-5.8,6.5-8.2c2.5-2.5,5.4-4.6,8.5-6.4c3.1-1.8,6.5-3.1,10.1-4.1c3.4-0.8,6.5-1.1,9.5-0.8c2.9,0.3,5.6,1,8,2.1   c2.4,1.1,4.4,2.4,6.1,4c1.7,1.6,2.9,3.1,3.8,4.7c1.5,3,2.7,6.3,3.5,10.1c0.8,3.7,0.9,7.6,0.5,11.6c-0.4,4-1.5,8.1-3.4,12.2   C309,65.6,306.2,69.5,302.6,73.2z M292.7,41.5c-0.7-1.6-1.8-2.7-3.2-3.4c-1.4-0.7-2.8-1-4.4-0.9c-1.6,0.1-3.2,0.6-4.8,1.4   c-1.6,0.8-3.1,2-4.5,3.4c-1.3,1.5-2.4,3.2-3.3,5.3c-0.9,2.1-1.3,4.4-1.3,6.9c-0.1,2.4,0.3,4.3,1,5.8c0.7,1.5,1.6,2.6,2.8,3.3   c1.1,0.7,2.4,1.1,3.8,1.2c1.4,0.1,2.9-0.1,4.3-0.6c1.4-0.5,2.7-1.2,4-2.2c1.2-1,2.3-2.1,3.1-3.4c1.2-1.9,2.1-3.7,2.7-5.4   c0.6-1.7,0.9-3.2,1-4.6c0.1-1.4,0.1-2.7-0.2-3.8C293.5,43.4,293.2,42.4,292.7,41.5z"></path>		<path class="st1" d="M336.6,21.2c7-1.3,12.7-2.2,17.3-2.7c4.5-0.4,8.1-0.7,10.7-0.6c2.6,0,5,0.3,7.1,0.7c2,0.9,3.7,1.9,5,2.8   c1.3,0.9,2.5,2.1,3.7,3.5c1.2,1.4,1.9,3,2.2,4.9c0.3,1.9-0.1,4-1.1,6.3c-1,2.3-3,4.9-6.1,7.7c4.2,2.2,7.1,4.5,8.9,7   c1.8,2.5,2.7,5,2.9,7.4c0.2,2.4-0.2,4.8-1.1,7c-0.9,2.2-2,4.2-3.2,5.9c-1.2,1.7-2.8,3.5-4.9,5.6c-0.1,0.1-0.4,0.3-1,0.6   s-1.8,0.8-3.6,1.3c-1.8,0.5-4.2,1-7.2,1.3c-3,0.3-6.9,0.5-11.7,0.5c-4.8,0-10.5-0.4-17.2-1.2L336.6,21.2z M367.2,58   c-0.1-0.5-0.3-1.1-0.7-1.7c-0.4-0.7-1-1.2-1.8-1.6c-0.8-0.4-2-0.5-3.5-0.4c-1.5,0.1-3.5,0.8-5.8,1.9l1,7.8   c2.7,0.2,4.8,0.1,6.4-0.4c1.5-0.5,2.6-1.1,3.3-1.8c0.7-0.7,1.1-1.7,1.4-3C367.3,58.8,367.2,58.5,367.2,58z M362.9,35.4   c-0.4-0.5-1.1-0.9-2-1c-1-0.2-2.5,0.1-4.5,0.9l-0.3,7.8c1.5,0.2,2.8,0.1,3.8-0.4c1-0.5,1.7-1.1,2.2-1.9c0.5-0.7,1-1.7,1.3-2.9   C363.4,36.8,363.2,35.9,362.9,35.4z"></path>		<path class="st1" d="M431.3,20.6c0.3,7.6,0.5,13.7,0.6,18.3c0.1,4.6,0.2,8.2,0.3,10.6c0,2.5,0.1,4.1,0.1,4.9v1.2   c0,3-0.2,5.9-0.7,8.7c-0.5,2.8-1.4,5.3-2.7,7.5c-1.3,2.3-3.1,4.2-5.4,5.8c-2.3,1.6-5.1,2.7-8.4,3.4c-5.2,1-9.6,1.1-13.3,0.3   c-3.7-0.8-6.8-2.3-9.2-4.5c-2.4-2.2-4.2-4.9-5.2-8.3c-1.1-3.3-1.6-7-1.5-11c0,0,0-0.3,0-0.7c0-0.5,0-1.5,0.1-3.1   c0-1.6,0.1-3.8,0.1-6.7c0-2.9,0.1-6.7,0.3-11.5c0.1-4.8,0.3-10.7,0.5-17.5l21.3,3.7l-1.9,34.9c-0.2,1.3-0.2,2.4,0,3.4   c0.2,1,0.5,1.7,0.7,2.2c0.2,0.4,0.4,0.7,0.4,0.7c0.5,0.5,1.1,0.9,1.7,1c0.6,0.1,1.4-0.5,2.2-1.8c0,0,0.2-0.4,0.4-0.9   c0.2-0.6,0.5-1.6,0.7-3c0.2-1.4,0.3-3.2,0.2-5.3l-1.6-28.5L431.3,20.6z"></path>		<path class="st1" d="M484.7,68.7l-11.5,13l-18.1-13.3l-0.2,12.7l-18-1.9l-1.2-58c9.4-1.1,18.5-2.1,27.2-2.9   c4.7-0.5,8.5-0.1,11.6,1c3.1,1.2,5.5,2.9,7.1,5.2c1.6,2.3,2.5,4.9,2.8,7.9c0.2,3-0.2,6.1-1.3,9.2c-1.1,3.1-2.8,6.2-5.2,9.2   c-2.4,3-5.3,5.5-8.7,7.7L484.7,68.7z M454,37.8l-0.7,11.9c1.8-0.4,3.3-1,4.6-1.7c1.3-0.7,2.4-1.5,3.3-2.4c0.9-0.8,1.6-1.6,2-2.4   c0.5-0.8,0.8-1.4,0.9-1.8c0,0,0-0.3,0.1-0.8c0-0.5,0-1.1-0.2-1.8c-0.2-0.7-0.6-1.3-1.3-1.7c-0.7-0.5-1.7-0.7-3.1-0.7   C458.3,36.4,456.4,36.9,454,37.8z"></path>		<path class="st1" d="M526.7,42.4c-0.7-1.7-1.8-2.9-3.3-3.7c-1.5-0.8-3.2-1.2-5.1-1.2c-1.8,0-3.7,0.4-5.7,1.2   c-2,0.8-3.8,1.9-5.4,3.3c-1.6,1.4-3,3.2-4.1,5.3c-1.1,2.1-1.6,4.4-1.6,7.1c0,2.4,0.3,4.4,1.2,5.8c0.8,1.5,1.9,2.5,3.1,3.2   c1.3,0.6,2.7,0.9,4.2,0.9c1.5-0.1,3-0.4,4.5-1.1c1.5-0.7,2.8-1.6,4.1-2.7c1.2-1.1,2.1-2.4,2.7-3.8l-10.6,2l1.2-12l32.4-4.1   c0.4,3.1,0.3,6.2-0.4,9.3c-0.7,3-1.7,5.8-3,8.4c-1.3,2.5-2.6,4.8-4,6.8c-1.4,2-2.5,3.5-3.5,4.6c-0.9,1-1.4,1.6-1.5,1.7   c-1.8,1.8-4,3.3-6.5,4.7c-2.6,1.3-5.3,2.4-8.2,3c-2.9,0.7-5.9,1-9.1,0.9c-3.1-0.1-6.1-0.6-8.9-1.6c-2.8-1-5.4-2.6-7.8-4.6   c-2.4-2.1-4.3-4.8-5.8-8.1c-1.7-3.7-2.7-7.4-2.9-11.1c-0.2-3.7,0.1-7.3,0.9-10.7c0.8-3.4,2.2-6.7,4.1-9.8c1.9-3.1,4.1-5.8,6.7-8.3   c2.6-2.5,5.5-4.5,8.7-6.3c3.2-1.7,6.6-3,10.2-3.7c0.1,0,0.6-0.1,1.6-0.2c1-0.1,2.4-0.1,4.2,0c1.8,0.1,3.9,0.5,6.2,1.1   c2.3,0.6,4.8,1.7,7.4,3.1c2.7,1.5,5.3,3.5,8,6.1L526.7,42.4z"></path>		<path class="st1" d="M589.6,20.6c0.3,7.6,0.5,13.7,0.6,18.3c0.1,4.6,0.2,8.2,0.3,10.6c0,2.5,0.1,4.1,0.1,4.9v1.2   c0,3-0.2,5.9-0.7,8.7c-0.5,2.8-1.4,5.3-2.7,7.5c-1.3,2.3-3.1,4.2-5.4,5.8c-2.3,1.6-5.1,2.7-8.4,3.4c-5.2,1-9.6,1.1-13.3,0.3   c-3.7-0.8-6.8-2.3-9.2-4.5c-2.4-2.2-4.2-4.9-5.2-8.3c-1.1-3.3-1.6-7-1.5-11c0,0,0-0.3,0-0.7c0-0.5,0-1.5,0.1-3.1   c0-1.6,0.1-3.8,0.1-6.7c0-2.9,0.1-6.7,0.3-11.5c0.1-4.8,0.3-10.7,0.5-17.5l21.3,3.7l-1.9,34.9c-0.2,1.3-0.2,2.4,0,3.4   c0.2,1,0.5,1.7,0.7,2.2c0.2,0.4,0.4,0.7,0.4,0.7c0.5,0.5,1.1,0.9,1.7,1c0.6,0.1,1.4-0.5,2.2-1.8c0,0,0.2-0.4,0.4-0.9   c0.2-0.6,0.5-1.6,0.7-3c0.2-1.4,0.3-3.2,0.2-5.3l-1.6-28.5L589.6,20.6z"></path>		<path class="st1" d="M594.1,21.8l41-3l-2.3,18.8l-18.7,0.8l-0.1,3.6l13.5-1l-1.6,13l-12.4,1l-0.1,4.1l21.3-2l-0.4,20.5l-39.8,2.2   L594.1,21.8z"></path>		<path class="st1" d="M687,68.7l-11.5,13l-18.1-13.3l-0.2,12.7l-18-1.9l-1.2-58c9.4-1.1,18.5-2.1,27.2-2.9c4.7-0.5,8.5-0.1,11.6,1   c3.1,1.2,5.5,2.9,7.1,5.2c1.6,2.3,2.5,4.9,2.8,7.9c0.2,3-0.2,6.1-1.3,9.2c-1.1,3.1-2.8,6.2-5.2,9.2c-2.4,3-5.3,5.5-8.7,7.7   L687,68.7z M656.3,37.8l-0.7,11.9c1.8-0.4,3.3-1,4.6-1.7c1.3-0.7,2.4-1.5,3.3-2.4c0.9-0.8,1.6-1.6,2-2.4c0.5-0.8,0.8-1.4,0.9-1.8   c0,0,0-0.3,0.1-0.8c0-0.5,0-1.1-0.2-1.8c-0.2-0.7-0.6-1.3-1.3-1.7c-0.7-0.5-1.7-0.7-3.1-0.7C660.5,36.4,658.6,36.9,656.3,37.8z"></path>		<path class="st1" d="M88.4,17.6l7.4-5.6c0.3-0.3,0.4-0.9,0.1-1.1l-5.4-3.6c-0.3-0.2-0.6,0.1-0.7,0.5l-1.9,9.1   C87.6,17.4,88,17.9,88.4,17.6z"></path>	</g></g></svg>