<svg xmlns="http://www.w3.org/2000/svg" xmlns:xlink="http://www.w3.org/1999/xlink" id="Capa_1" x="0px" y="0px" viewBox="0 0 1338.8 154.8" style="enable-background:new 0 0 1338.8 154.8;" xml:space="preserve"><style type="text/css">	.st0{fill:#FF0000;}	.st1{fill:none;stroke:#1D1D1B;}</style><g>	<g>		<g>			<path class="st0" d="M600.4,35.4l57.3-4.1l-3.2,27l-26.1,1l-1.1,8.1L649,66l1.5,21.8l-21.9,1.3l-1,26.5l-26.4,0.6L600.4,35.4z"></path>			<path class="st0" d="M694.1,25.2l52.4,79.6l-32.6,12.3l-8.7-14.5l-21.8,0.7l-4.3,15.6L648,108.8L694.1,25.2z M688.8,87l12.3-2.2    L696,70.7L688.8,87z"></path>			<path class="st0" d="M763.2,26.1l25.4,32L813,32.8l25.4,69.9l-25,20.4l-11.3-33.7l-14.1,24.7L771,88L761,118.7L736.8,103    L763.2,26.1z"></path>			<path class="st0" d="M868.3,30.5l-4.3,83.9l-27.3,3.1l1-83.4L868.3,30.5z"></path>			<path class="st0" d="M875.5,34.7l31.2-4.4L904,88.7l25.4-5.3l1.2,29.1l-54.4,5.5L875.5,34.7z"></path>			<path class="st0" d="M964.9,30.5l-4.3,83.9l-27.3,3.1l1-83.4L964.9,30.5z"></path>			<path class="st0" d="M1008.8,25.2l52.4,79.6l-32.6,12.3l-8.7-14.5l-21.8,0.7l-4.3,15.6l-31.2-10.2L1008.8,25.2z M1003.5,87    l12.3-2.2l-5.2-14.1L1003.5,87z"></path>			<path class="st0" d="M1127.8,101l-16.1,18.1l-25.2-18.6l-0.3,17.7l-25.1-2.6l-1.7-81c13.1-1.5,25.8-2.9,38-4    c6.5-0.7,11.9-0.2,16.2,1.5c4.3,1.7,7.6,4.1,9.9,7.2c2.2,3.1,3.5,6.8,3.8,11c0.3,4.2-0.3,8.5-1.8,12.9c-1.5,4.4-3.9,8.7-7.2,12.8    c-3.3,4.1-7.3,7.7-12.2,10.8L1127.8,101z M1084.9,57.9l-1,16.6c2.5-0.6,4.6-1.3,6.5-2.4c1.8-1,3.4-2.1,4.6-3.3    c1.2-1.2,2.2-2.3,2.9-3.4c0.7-1.1,1.1-1.9,1.2-2.5c0-0.1,0-0.4,0.1-1.1c0.1-0.7,0-1.5-0.3-2.5c-0.2-1-0.8-1.8-1.8-2.4    c-0.9-0.7-2.4-1-4.3-0.9C1090.9,55.9,1088.3,56.6,1084.9,57.9z"></path>			<path class="st0" d="M1129.1,35.5l57.2-4.3l-3.2,26.2l-26,1.1l-0.1,5l18.9-1.3l-2.2,18.1l-17.3,1.3l-0.2,5.7l29.7-2.8l-0.5,28.6    l-55.5,3L1129.1,35.5z"></path>			<path class="st0" d="M1230.6,63.7c2.1,1,4.3,2.1,6.6,3.3c2.2,1.2,4.3,2.8,6.1,4.6c1.8,1.8,3.4,4,4.6,6.5c1.2,2.5,1.9,5.5,2,9    c0.2,4.9-0.6,9.2-2.4,13c-1.8,3.8-4.3,6.9-7.6,9.5c-3.3,2.6-7.2,4.6-11.8,6c-4.6,1.4-9.5,2.2-14.7,2.4c-2.4,0.1-4.9-0.1-7.5-0.4    c-2.6-0.3-5.1-0.8-7.6-1.4c-2.5-0.6-4.9-1.4-7.3-2.2c-2.4-0.9-4.6-1.8-6.6-2.7l7.9-22.2c1,0.4,2.3,1,3.7,1.6    c1.5,0.7,3,1.3,4.7,1.8c1.7,0.6,3.4,1,5.2,1.5c1.8,0.4,3.6,0.6,5.3,0.5c2.6-0.1,4.7-0.6,6.5-1.3c1.8-0.8,2.6-2,2.5-3.8    c-0.1-1.2-0.7-2.1-1.8-2.7c-1.1-0.6-2.5-1.2-4.1-1.9c-1-0.3-2.4-0.7-4.1-1.1c-1.7-0.5-3.5-1.1-5.4-2c-1.9-0.8-3.9-1.8-5.9-3    c-2-1.2-3.8-2.6-5.4-4.3c-1.6-1.7-3-3.6-4-5.8c-1.1-2.2-1.6-4.7-1.7-7.5c-0.1-4.8,0.7-9.1,2.5-12.9c1.8-3.8,4.3-7,7.4-9.6    c3.1-2.7,6.7-4.7,10.9-6.1c4.1-1.4,8.6-2.2,13.3-2.4c4.4-0.2,8.7,0,13,0.7c4.3,0.7,8.3,1.7,12,3.3l-6.1,24    c-2.8-1.2-5.3-2.2-7.6-3c-2.3-0.8-4.9-1.4-8-1.8c-0.9-0.1-2.1-0.2-3.6-0.2c-1.5,0-2.9,0.2-4.3,0.5c-1.4,0.3-2.6,0.8-3.7,1.5    c-1,0.7-1.6,1.7-1.7,2.9c0,0.6,0.3,1,0.8,1.3c0.5,0.3,1.1,0.6,1.9,0.7c0.7,0.2,1.5,0.3,2.2,0.4c0.8,0.1,1.4,0.2,1.9,0.3    c2,0.4,4.1,0.9,6.4,1.5C1227,62.4,1228.8,63,1230.6,63.7z"></path>		</g>		<g>			<path class="st0" d="M171.5,47L154,68.5c-3.6-3.8-6.8-6.2-9.4-7.3c-2.7-1.1-5-1.3-7-0.8s-3.6,1.7-4.9,3.5    c-1.3,1.8-2.4,3.6-3.2,5.4c-0.8,1.8-1.5,4.2-2.2,7.2c0,0.1,0.2,1,0.4,2.6c0.3,1.6,1,3.4,2.1,5.3c1.1,1.9,2.7,3.4,4.7,4.3    s4.8,0.8,8.3-0.4s7.8-4.2,13-8.9l19.5,20.8c-1,1.9-2.7,3.9-5.2,5.9s-5.4,3.8-8.8,5.5c-3.4,1.7-7.1,3.1-11.2,4.2    c-4.1,1.1-8.2,1.7-12.4,1.9c-4.2,0.2-8.4-0.3-12.5-1.3c-4.1-1-7.9-2.9-11.3-5.6c-5-3.9-8.7-8.1-11.1-12.8    c-2.4-4.7-3.8-9.5-4.3-14.4s-0.1-9.9,1.2-14.8s3-9.6,5.2-13.9s4.9-8.2,7.9-11.7s6.1-6.2,9.2-8.3c2.7-1.5,5.2-2.5,7.5-3.2    s5.1-1.2,8.2-1.5c3.1-0.3,6.6,0,10.3,0.9c3.7,0.9,7.6,2.6,11.6,5C163.5,38.6,167.5,42.2,171.5,47z"></path>			<path class="st0" d="M238.4,106.2c-2.4,2.4-5.3,4.5-8.8,6.3s-7.1,3.2-11.1,4.1c-3.9,0.9-8,1.4-12.1,1.3s-8.2-0.8-12-2.2    s-7.4-3.4-10.6-6.2s-5.8-6.4-7.8-10.9c-2.3-5-3.6-10-4.1-14.9c-0.4-4.9-0.1-9.7,0.9-14.2c1.1-4.6,2.8-8.9,5.2-13s5.3-7.8,8.7-11    s7.2-6.2,11.4-8.5c4.2-2.4,8.8-4.2,13.6-5.5c4.5-1.1,8.8-1.5,12.8-1s7.6,1.4,10.8,2.8c3.2,1.5,5.9,3.2,8.1,5.3s3.9,4.2,5.1,6.3    c2.1,4,3.6,8.5,4.6,13.5s1.3,10.3,0.7,15.6c-0.6,5.4-2.1,10.8-4.6,16.3C247,96,243.3,101.2,238.4,106.2z M225.1,63.6    c-1-2.1-2.4-3.7-4.2-4.6s-3.8-1.3-5.9-1.2c-2.1,0.1-4.3,0.8-6.5,1.8s-4.2,2.6-6,4.6c-1.8,2-3.3,4.3-4.4,7.2s-1.8,5.9-1.8,9.3    c-0.1,3.2,0.4,5.8,1.4,7.8s2.2,3.5,3.7,4.4c1.5,1,3.2,1.5,5.1,1.6s3.9-0.2,5.8-0.8s3.7-1.7,5.4-2.9c1.7-1.3,3.1-2.8,4.2-4.6    c1.7-2.6,2.9-5,3.6-7.2c0.8-2.2,1.2-4.3,1.4-6.2s0.1-3.6-0.2-5.1C226.2,66.2,225.7,64.8,225.1,63.6z"></path>			<path class="st0" d="M272,27.9l24.5,30.9l23.6-24.4l24.5,67.4l-24.1,19.7L309.6,89L296,112.8l-16.4-25.2l-9.7,29.6l-23.3-15.1    L272,27.9z"></path>			<path class="st0" d="M342.4,36.3c9.4-1.8,17.1-3,23.2-3.6s10.9-0.9,14.5-0.8c3.5,0,6.7,0.3,9.5,1c2.7,1.3,5,2.5,6.7,3.8    s3.4,2.8,5,4.7s2.5,4.1,2.9,6.6s-0.1,5.3-1.5,8.5s-4.1,6.6-8.1,10.4c5.6,2.9,9.6,6.1,12,9.4c2.4,3.4,3.7,6.7,3.9,9.9    c0.2,3.3-0.3,6.4-1.5,9.4s-2.7,5.6-4.3,7.9c-1.6,2.3-3.8,4.8-6.5,7.5c-0.1,0.1-0.5,0.3-1.4,0.8c-0.8,0.5-2.5,1.1-4.9,1.8    c-2.4,0.7-5.7,1.3-9.8,1.8s-9.3,0.7-15.8,0.7s-14.2-0.6-23.1-1.6L342.4,36.3z M383.6,85.8c-0.1-0.7-0.4-1.4-0.9-2.3    s-1.3-1.6-2.5-2.2s-2.7-0.7-4.8-0.5s-4.6,1.1-7.9,2.6l1.3,10.5c3.7,0.3,6.5,0.2,8.5-0.5s3.5-1.5,4.4-2.4c0.9-1,1.5-2.3,1.9-4.1    C383.7,86.9,383.7,86.5,383.6,85.8z M377.8,55.4c-0.5-0.7-1.4-1.2-2.8-1.4c-1.3-0.2-3.3,0.2-6,1.2l-0.4,10.5    c2.1,0.3,3.8,0.2,5-0.6c1.3-0.7,2.3-1.5,3-2.5s1.3-2.3,1.8-4C378.5,57.2,378.3,56.1,377.8,55.4z"></path>			<path class="st0" d="M472,106.2c-2.4,2.4-5.3,4.5-8.8,6.3s-7.1,3.2-11,4.1s-8,1.4-12.1,1.3c-4.2-0.1-8.2-0.8-12-2.2    s-7.4-3.4-10.5-6.2c-3.2-2.8-5.8-6.4-7.8-10.9c-2.3-5-3.6-10-4-14.9s-0.1-9.7,1-14.2s2.8-8.9,5.2-13c2.4-4.1,5.3-7.8,8.7-11    c3.4-3.3,7.2-6.2,11.5-8.5c4.2-2.4,8.8-4.2,13.5-5.5c4.5-1.1,8.8-1.5,12.8-1s7.5,1.4,10.8,2.8c3.2,1.5,5.9,3.2,8.1,5.3    s3.9,4.2,5,6.3c2.1,4,3.6,8.5,4.6,13.5s1.3,10.3,0.7,15.6c-0.6,5.4-2.1,10.8-4.5,16.3C480.6,96,476.9,101.2,472,106.2z     M458.7,63.6c-1-2.1-2.4-3.7-4.2-4.6s-3.8-1.3-6-1.2s-4.3,0.8-6.5,1.8s-4.2,2.6-6,4.6c-1.8,2-3.3,4.3-4.5,7.2s-1.8,5.9-1.8,9.3    c-0.1,3.2,0.4,5.8,1.4,7.8s2.2,3.5,3.7,4.4c1.5,1,3.2,1.5,5.1,1.6s3.9-0.2,5.8-0.8s3.7-1.7,5.4-2.9c1.7-1.3,3.1-2.8,4.2-4.6    c1.7-2.6,2.9-5,3.6-7.2s1.2-4.3,1.4-6.2c0.2-1.9,0.1-3.6-0.2-5.1C459.8,66.2,459.3,64.8,458.7,63.6z"></path>			<path class="st0" d="M526.7,64.2c2.1,0.9,4.2,2,6.4,3.2s4.1,2.7,5.9,4.4s3.2,3.8,4.4,6.2c1.2,2.4,1.8,5.3,2,8.7    c0.2,4.7-0.6,8.9-2.3,12.6c-1.7,3.6-4.2,6.7-7.3,9.2c-3.2,2.5-7,4.4-11.4,5.8c-4.4,1.4-9.1,2.2-14.2,2.3    c-2.3,0.1-4.7-0.1-7.2-0.3c-2.5-0.3-4.9-0.8-7.3-1.3s-4.7-1.3-7-2.2s-4.4-1.7-6.4-2.7l7.6-21.4c1,0.4,2.2,0.9,3.6,1.6    c1.4,0.6,2.9,1.2,4.5,1.8s3.3,1,5,1.4s3.4,0.6,5.1,0.5c2.5-0.1,4.5-0.6,6.2-1.3s2.5-2,2.5-3.7c-0.1-1.1-0.6-2-1.8-2.6    c-1.2-0.6-2.4-1.2-4-1.8c-1-0.3-2.3-0.6-4-1.1s-3.4-1.1-5.2-1.9s-3.8-1.8-5.6-2.9c-1.9-1.1-3.6-2.5-5.2-4.1s-2.9-3.4-3.9-5.6    c-1-2.1-1.6-4.5-1.6-7.2c-0.1-4.7,0.7-8.8,2.4-12.5c1.7-3.6,4.1-6.7,7.1-9.3s6.5-4.5,10.5-5.9s8.3-2.2,12.8-2.3    c4.2-0.2,8.4,0,12.5,0.7s8,1.7,11.6,3.2l-5.9,23.1c-2.7-1.1-5.1-2.1-7.3-2.8c-2.2-0.8-4.8-1.3-7.7-1.8c-0.9-0.1-2-0.2-3.5-0.2    c-1.4,0-2.8,0.2-4.1,0.5c-1.3,0.3-2.5,0.8-3.5,1.5s-1.5,1.6-1.6,2.8c0,0.5,0.2,1,0.8,1.2s1.1,0.5,1.8,0.7    c0.7,0.2,1.4,0.3,2.1,0.4c0.7,0.1,1.3,0.2,1.8,0.2c1.9,0.4,4,0.9,6.2,1.4C523.2,62.9,525,63.5,526.7,64.2z"></path>		</g>	</g>	<g>		<g>			<path class="st1" d="M600.4,35.4l57.3-4.1l-3.2,27l-26.1,1l-1.1,8.1L649,66l1.5,21.8l-21.9,1.3l-1,26.5l-26.4,0.6L600.4,35.4z"></path>			<path class="st1" d="M694.1,25.2l52.4,79.6l-32.6,12.3l-8.7-14.5l-21.8,0.7l-4.3,15.6L648,108.8L694.1,25.2z M688.8,87l12.3-2.2    L696,70.7L688.8,87z"></path>			<path class="st1" d="M763.2,26.1l25.4,32L813,32.8l25.4,69.9l-25,20.4l-11.3-33.7l-14.1,24.7L771,88L761,118.7L736.8,103    L763.2,26.1z"></path>			<path class="st1" d="M868.3,30.5l-4.3,83.9l-27.3,3.1l1-83.4L868.3,30.5z"></path>			<path class="st1" d="M875.5,34.7l31.2-4.4L904,88.7l25.4-5.3l1.2,29.1l-54.4,5.5L875.5,34.7z"></path>			<path class="st1" d="M964.9,30.5l-4.3,83.9l-27.3,3.1l1-83.4L964.9,30.5z"></path>			<path class="st1" d="M1008.8,25.2l52.4,79.6l-32.6,12.3l-8.7-14.5l-21.8,0.7l-4.3,15.6l-31.2-10.2L1008.8,25.2z M1003.5,87    l12.3-2.2l-5.2-14.1L1003.5,87z"></path>			<path class="st1" d="M1127.8,101l-16.1,18.1l-25.2-18.6l-0.3,17.7l-25.1-2.6l-1.7-81c13.1-1.5,25.8-2.9,38-4    c6.5-0.7,11.9-0.2,16.2,1.5c4.3,1.7,7.6,4.1,9.9,7.2c2.2,3.1,3.5,6.8,3.8,11c0.3,4.2-0.3,8.5-1.8,12.9c-1.5,4.4-3.9,8.7-7.2,12.8    c-3.3,4.1-7.3,7.7-12.2,10.8L1127.8,101z M1084.9,57.9l-1,16.6c2.5-0.6,4.6-1.3,6.5-2.4c1.8-1,3.4-2.1,4.6-3.3    c1.2-1.2,2.2-2.3,2.9-3.4c0.7-1.1,1.1-1.9,1.2-2.5c0-0.1,0-0.4,0.1-1.1c0.1-0.7,0-1.5-0.3-2.5c-0.2-1-0.8-1.8-1.8-2.4    c-0.9-0.7-2.4-1-4.3-0.9C1090.9,55.9,1088.3,56.6,1084.9,57.9z"></path>			<path class="st1" d="M1129.1,35.5l57.2-4.3l-3.2,26.2l-26,1.1l-0.1,5l18.9-1.3l-2.2,18.1l-17.3,1.3l-0.2,5.7l29.7-2.8l-0.5,28.6    l-55.5,3L1129.1,35.5z"></path>			<path class="st1" d="M1230.6,63.7c2.1,1,4.3,2.1,6.6,3.3c2.2,1.2,4.3,2.8,6.1,4.6c1.8,1.8,3.4,4,4.6,6.5c1.2,2.5,1.9,5.5,2,9    c0.2,4.9-0.6,9.2-2.4,13c-1.8,3.8-4.3,6.9-7.6,9.5c-3.3,2.6-7.2,4.6-11.8,6c-4.6,1.4-9.5,2.2-14.7,2.4c-2.4,0.1-4.9-0.1-7.5-0.4    c-2.6-0.3-5.1-0.8-7.6-1.4c-2.5-0.6-4.9-1.4-7.3-2.2c-2.4-0.9-4.6-1.8-6.6-2.7l7.9-22.2c1,0.4,2.3,1,3.7,1.6    c1.5,0.7,3,1.3,4.7,1.8c1.7,0.6,3.4,1,5.2,1.5c1.8,0.4,3.6,0.6,5.3,0.5c2.6-0.1,4.7-0.6,6.5-1.3c1.8-0.8,2.6-2,2.5-3.8    c-0.1-1.2-0.7-2.1-1.8-2.7c-1.1-0.6-2.5-1.2-4.1-1.9c-1-0.3-2.4-0.7-4.1-1.1c-1.7-0.5-3.5-1.1-5.4-2c-1.9-0.8-3.9-1.8-5.9-3    c-2-1.2-3.8-2.6-5.4-4.3c-1.6-1.7-3-3.6-4-5.8c-1.1-2.2-1.6-4.7-1.7-7.5c-0.1-4.8,0.7-9.1,2.5-12.9c1.8-3.8,4.3-7,7.4-9.6    c3.1-2.7,6.7-4.7,10.9-6.1c4.1-1.4,8.6-2.2,13.3-2.4c4.4-0.2,8.7,0,13,0.7c4.3,0.7,8.3,1.7,12,3.3l-6.1,24    c-2.8-1.2-5.3-2.2-7.6-3c-2.3-0.8-4.9-1.4-8-1.8c-0.9-0.1-2.1-0.2-3.6-0.2c-1.5,0-2.9,0.2-4.3,0.5c-1.4,0.3-2.6,0.8-3.7,1.5    c-1,0.7-1.6,1.7-1.7,2.9c0,0.6,0.3,1,0.8,1.3c0.5,0.3,1.1,0.6,1.9,0.7c0.7,0.2,1.5,0.3,2.2,0.4c0.8,0.1,1.4,0.2,1.9,0.3    c2,0.4,4.1,0.9,6.4,1.5C1227,62.4,1228.8,63,1230.6,63.7z"></path>		</g>		<g>			<path class="st1" d="M171.5,47L154,68.5c-3.6-3.8-6.8-6.2-9.4-7.3c-2.7-1.1-5-1.3-7-0.8s-3.6,1.7-4.9,3.5    c-1.3,1.8-2.4,3.6-3.2,5.4c-0.8,1.8-1.5,4.2-2.2,7.2c0,0.1,0.2,1,0.4,2.6c0.3,1.6,1,3.4,2.1,5.3c1.1,1.9,2.7,3.4,4.7,4.3    s4.8,0.8,8.3-0.4s7.8-4.2,13-8.9l19.5,20.8c-1,1.9-2.7,3.9-5.2,5.9s-5.4,3.8-8.8,5.5c-3.4,1.7-7.1,3.1-11.2,4.2    c-4.1,1.1-8.2,1.7-12.4,1.9c-4.2,0.2-8.4-0.3-12.5-1.3c-4.1-1-7.9-2.9-11.3-5.6c-5-3.9-8.7-8.1-11.1-12.8    c-2.4-4.7-3.8-9.5-4.3-14.4s-0.1-9.9,1.2-14.8s3-9.6,5.2-13.9s4.9-8.2,7.9-11.7s6.1-6.2,9.2-8.3c2.7-1.5,5.2-2.5,7.5-3.2    s5.1-1.2,8.2-1.5c3.1-0.3,6.6,0,10.3,0.9c3.7,0.9,7.6,2.6,11.6,5C163.5,38.6,167.5,42.2,171.5,47z"></path>			<path class="st1" d="M238.4,106.2c-2.4,2.4-5.3,4.5-8.8,6.3s-7.1,3.2-11.1,4.1c-3.9,0.9-8,1.4-12.1,1.3s-8.2-0.8-12-2.2    s-7.4-3.4-10.6-6.2s-5.8-6.4-7.8-10.9c-2.3-5-3.6-10-4.1-14.9c-0.4-4.9-0.1-9.7,0.9-14.2c1.1-4.6,2.8-8.9,5.2-13s5.3-7.8,8.7-11    s7.2-6.2,11.4-8.5c4.2-2.4,8.8-4.2,13.6-5.5c4.5-1.1,8.8-1.5,12.8-1s7.6,1.4,10.8,2.8c3.2,1.5,5.9,3.2,8.1,5.3s3.9,4.2,5.1,6.3    c2.1,4,3.6,8.5,4.6,13.5s1.3,10.3,0.7,15.6c-0.6,5.4-2.1,10.8-4.6,16.3C247,96,243.3,101.2,238.4,106.2z M225.1,63.6    c-1-2.1-2.4-3.7-4.2-4.6s-3.8-1.3-5.9-1.2c-2.1,0.1-4.3,0.8-6.5,1.8s-4.2,2.6-6,4.6c-1.8,2-3.3,4.3-4.4,7.2s-1.8,5.9-1.8,9.3    c-0.1,3.2,0.4,5.8,1.4,7.8s2.2,3.5,3.7,4.4c1.5,1,3.2,1.5,5.1,1.6s3.9-0.2,5.8-0.8s3.7-1.7,5.4-2.9c1.7-1.3,3.1-2.8,4.2-4.6    c1.7-2.6,2.9-5,3.6-7.2c0.8-2.2,1.2-4.3,1.4-6.2s0.1-3.6-0.2-5.1C226.2,66.2,225.7,64.8,225.1,63.6z"></path>			<path class="st1" d="M272,27.9l24.5,30.9l23.6-24.4l24.5,67.4l-24.1,19.7L309.6,89L296,112.8l-16.4-25.2l-9.7,29.6l-23.3-15.1    L272,27.9z"></path>			<path class="st1" d="M342.4,36.3c9.4-1.8,17.1-3,23.2-3.6s10.9-0.9,14.5-0.8c3.5,0,6.7,0.3,9.5,1c2.7,1.3,5,2.5,6.7,3.8    s3.4,2.8,5,4.7s2.5,4.1,2.9,6.6s-0.1,5.3-1.5,8.5s-4.1,6.6-8.1,10.4c5.6,2.9,9.6,6.1,12,9.4c2.4,3.4,3.7,6.7,3.9,9.9    c0.2,3.3-0.3,6.4-1.5,9.4s-2.7,5.6-4.3,7.9c-1.6,2.3-3.8,4.8-6.5,7.5c-0.1,0.1-0.5,0.3-1.4,0.8c-0.8,0.5-2.5,1.1-4.9,1.8    c-2.4,0.7-5.7,1.3-9.8,1.8s-9.3,0.7-15.8,0.7s-14.2-0.6-23.1-1.6L342.4,36.3z M383.6,85.8c-0.1-0.7-0.4-1.4-0.9-2.3    s-1.3-1.6-2.5-2.2s-2.7-0.7-4.8-0.5s-4.6,1.1-7.9,2.6l1.3,10.5c3.7,0.3,6.5,0.2,8.5-0.5s3.5-1.5,4.4-2.4c0.9-1,1.5-2.3,1.9-4.1    C383.7,86.9,383.7,86.5,383.6,85.8z M377.8,55.4c-0.5-0.7-1.4-1.2-2.8-1.4c-1.3-0.2-3.3,0.2-6,1.2l-0.4,10.5    c2.1,0.3,3.8,0.2,5-0.6c1.3-0.7,2.3-1.5,3-2.5s1.3-2.3,1.8-4C378.5,57.2,378.3,56.1,377.8,55.4z"></path>			<path class="st1" d="M472,106.2c-2.4,2.4-5.3,4.5-8.8,6.3s-7.1,3.2-11,4.1s-8,1.4-12.1,1.3c-4.2-0.1-8.2-0.8-12-2.2    s-7.4-3.4-10.5-6.2c-3.2-2.8-5.8-6.4-7.8-10.9c-2.3-5-3.6-10-4-14.9s-0.1-9.7,1-14.2s2.8-8.9,5.2-13c2.4-4.1,5.3-7.8,8.7-11    c3.4-3.3,7.2-6.2,11.5-8.5c4.2-2.4,8.8-4.2,13.5-5.5c4.5-1.1,8.8-1.5,12.8-1s7.5,1.4,10.8,2.8c3.2,1.5,5.9,3.2,8.1,5.3    s3.9,4.2,5,6.3c2.1,4,3.6,8.5,4.6,13.5s1.3,10.3,0.7,15.6c-0.6,5.4-2.1,10.8-4.5,16.3C480.6,96,476.9,101.2,472,106.2z     M458.7,63.6c-1-2.1-2.4-3.7-4.2-4.6s-3.8-1.3-6-1.2s-4.3,0.8-6.5,1.8s-4.2,2.6-6,4.6c-1.8,2-3.3,4.3-4.5,7.2s-1.8,5.9-1.8,9.3    c-0.1,3.2,0.4,5.8,1.4,7.8s2.2,3.5,3.7,4.4c1.5,1,3.2,1.5,5.1,1.6s3.9-0.2,5.8-0.8s3.7-1.7,5.4-2.9c1.7-1.3,3.1-2.8,4.2-4.6    c1.7-2.6,2.9-5,3.6-7.2s1.2-4.3,1.4-6.2c0.2-1.9,0.1-3.6-0.2-5.1C459.8,66.2,459.3,64.8,458.7,63.6z"></path>			<path class="st1" d="M526.7,64.2c2.1,0.9,4.2,2,6.4,3.2s4.1,2.7,5.9,4.4s3.2,3.8,4.4,6.2c1.2,2.4,1.8,5.3,2,8.7    c0.2,4.7-0.6,8.9-2.3,12.6c-1.7,3.6-4.2,6.7-7.3,9.2c-3.2,2.5-7,4.4-11.4,5.8c-4.4,1.4-9.1,2.2-14.2,2.3    c-2.3,0.1-4.7-0.1-7.2-0.3c-2.5-0.3-4.9-0.8-7.3-1.3s-4.7-1.3-7-2.2s-4.4-1.7-6.4-2.7l7.6-21.4c1,0.4,2.2,0.9,3.6,1.6    c1.4,0.6,2.9,1.2,4.5,1.8s3.3,1,5,1.4s3.4,0.6,5.1,0.5c2.5-0.1,4.5-0.6,6.2-1.3s2.5-2,2.5-3.7c-0.1-1.1-0.6-2-1.8-2.6    c-1.2-0.6-2.4-1.2-4-1.8c-1-0.3-2.3-0.6-4-1.1s-3.4-1.1-5.2-1.9s-3.8-1.8-5.6-2.9c-1.9-1.1-3.6-2.5-5.2-4.1s-2.9-3.4-3.9-5.6    c-1-2.1-1.6-4.5-1.6-7.2c-0.1-4.7,0.7-8.8,2.4-12.5c1.7-3.6,4.1-6.7,7.1-9.3s6.5-4.5,10.5-5.9s8.3-2.2,12.8-2.3    c4.2-0.2,8.4,0,12.5,0.7s8,1.7,11.6,3.2l-5.9,23.1c-2.7-1.1-5.1-2.1-7.3-2.8c-2.2-0.8-4.8-1.3-7.7-1.8c-0.9-0.1-2-0.2-3.5-0.2    c-1.4,0-2.8,0.2-4.1,0.5c-1.3,0.3-2.5,0.8-3.5,1.5s-1.5,1.6-1.6,2.8c0,0.5,0.2,1,0.8,1.2s1.1,0.5,1.8,0.7    c0.7,0.2,1.4,0.3,2.1,0.4c0.7,0.1,1.3,0.2,1.8,0.2c1.9,0.4,4,0.9,6.2,1.4C523.2,62.9,525,63.5,526.7,64.2z"></path>		</g>	</g></g></svg>