<svg xmlns="http://www.w3.org/2000/svg" xmlns:xlink="http://www.w3.org/1999/xlink" id="Capa_1" x="0px" y="0px" viewBox="0 0 1306.1 154.8" style="enable-background:new 0 0 1306.1 154.8;" xml:space="preserve"><style type="text/css">	.st0{fill:none;stroke:#000000;stroke-width:4;}	.st1{fill:#FF0000;}</style><g>	<g>		<g>			<path class="st0" d="M150.2,49.6l-17.5,21.5c-3.6-3.8-6.8-6.2-9.4-7.3c-2.7-1.1-5-1.3-7-0.8s-3.6,1.7-4.9,3.5    c-1.3,1.8-2.4,3.6-3.2,5.4c-0.8,1.8-1.5,4.2-2.2,7.2c0,0.1,0.2,1,0.4,2.6c0.3,1.6,1,3.4,2.1,5.3s2.7,3.4,4.7,4.3s4.8,0.8,8.3-0.4    s7.8-4.2,13-8.9l19.5,20.8c-1,1.9-2.7,3.9-5.2,5.9s-5.4,3.8-8.8,5.5c-3.4,1.7-7.1,3.1-11.2,4.2c-4.1,1.1-8.2,1.7-12.4,1.9    c-4.2,0.2-8.4-0.3-12.5-1.3s-7.9-2.9-11.3-5.6c-5-3.9-8.7-8.1-11.1-12.8c-2.4-4.7-3.8-9.5-4.3-14.4s-0.1-9.9,1.2-14.8    s3-9.6,5.2-13.9c2.2-4.3,4.9-8.2,7.9-11.7s6.1-6.2,9.2-8.3c2.7-1.5,5.2-2.5,7.5-3.2s5.1-1.2,8.2-1.5s6.6,0,10.3,0.9    c3.7,0.9,7.6,2.6,11.6,5C142.2,41.2,146.2,44.8,150.2,49.6z"></path>			<path class="st0" d="M217.1,108.8c-2.4,2.4-5.3,4.5-8.8,6.3s-7.1,3.2-11.1,4.1c-3.9,0.9-8,1.4-12.1,1.3s-8.2-0.8-12-2.2    s-7.4-3.4-10.6-6.2s-5.8-6.4-7.8-10.9c-2.3-5-3.6-10-4.1-14.9c-0.4-4.9-0.1-9.7,0.9-14.2c1.1-4.6,2.8-8.9,5.2-13s5.3-7.8,8.7-11    s7.2-6.2,11.4-8.5c4.2-2.4,8.8-4.2,13.6-5.5c4.5-1.1,8.8-1.5,12.8-1s7.6,1.4,10.8,2.8c3.2,1.5,5.9,3.2,8.1,5.3s3.9,4.2,5.1,6.3    c2.1,4,3.6,8.5,4.6,13.5s1.3,10.3,0.7,15.6c-0.6,5.4-2.1,10.8-4.6,16.3C225.7,98.6,222,103.8,217.1,108.8z M203.8,66.2    c-1-2.1-2.4-3.7-4.2-4.6s-3.8-1.3-5.9-1.2c-2.1,0.1-4.3,0.8-6.5,1.8s-4.2,2.6-6,4.6s-3.3,4.3-4.4,7.2s-1.8,5.9-1.8,9.3    c-0.1,3.2,0.4,5.8,1.4,7.8s2.2,3.5,3.7,4.4c1.5,1,3.2,1.5,5.1,1.6s3.9-0.2,5.8-0.8s3.7-1.7,5.4-2.9c1.7-1.3,3.1-2.8,4.2-4.6    c1.7-2.6,2.9-5,3.6-7.2c0.8-2.2,1.2-4.3,1.4-6.2s0.1-3.6-0.2-5.1C204.9,68.8,204.4,67.4,203.8,66.2z"></path>			<path class="st0" d="M250.7,30.5l24.5,30.9L298.8,37l24.5,67.4l-24.1,19.7l-10.9-32.5l-13.6,23.8l-16.4-25.2l-9.7,29.6    l-23.3-15.1L250.7,30.5z"></path>			<path class="st0" d="M321.1,38.9c9.4-1.8,17.1-3,23.2-3.6s10.9-0.9,14.5-0.8c3.5,0,6.7,0.3,9.5,1c2.7,1.3,5,2.5,6.7,3.8    s3.4,2.8,5,4.7s2.5,4.1,2.9,6.6s-0.1,5.3-1.5,8.5s-4.1,6.6-8.1,10.4c5.6,2.9,9.6,6.1,12,9.4c2.4,3.4,3.7,6.7,3.9,9.9    c0.2,3.3-0.3,6.4-1.5,9.4s-2.7,5.6-4.3,7.9c-1.6,2.3-3.8,4.8-6.5,7.5c-0.1,0.1-0.5,0.3-1.4,0.8c-0.8,0.5-2.5,1.1-4.9,1.8    c-2.4,0.7-5.7,1.3-9.8,1.8s-9.3,0.7-15.8,0.7s-14.2-0.6-23.1-1.6L321.1,38.9z M362.3,88.4c-0.1-0.7-0.4-1.4-0.9-2.3    s-1.3-1.6-2.5-2.2s-2.7-0.7-4.8-0.5s-4.6,1.1-7.9,2.6l1.3,10.5c3.7,0.3,6.5,0.2,8.5-0.5s3.5-1.5,4.4-2.4c0.9-1,1.5-2.3,1.9-4.1    C362.4,89.5,362.4,89.1,362.3,88.4z M356.5,58c-0.5-0.7-1.4-1.2-2.8-1.4c-1.3-0.2-3.3,0.2-6,1.2l-0.4,10.5c2.1,0.3,3.8,0.2,5-0.6    c1.3-0.7,2.3-1.5,3-2.5s1.3-2.3,1.8-4C357.2,59.8,357,58.7,356.5,58z"></path>			<path class="st0" d="M450.7,108.8c-2.4,2.4-5.3,4.5-8.8,6.3s-7.1,3.2-11,4.1s-8,1.4-12.1,1.3c-4.2-0.1-8.2-0.8-12-2.2    s-7.4-3.4-10.5-6.2c-3.2-2.8-5.8-6.4-7.8-10.9c-2.3-5-3.6-10-4-14.9s-0.1-9.7,1-14.2s2.8-8.9,5.2-13c2.4-4.1,5.3-7.8,8.7-11    c3.4-3.3,7.2-6.2,11.5-8.5c4.2-2.4,8.8-4.2,13.5-5.5c4.5-1.1,8.8-1.5,12.8-1s7.5,1.4,10.8,2.8c3.2,1.5,5.9,3.2,8.1,5.3    c2.2,2.1,3.9,4.2,5,6.3c2.1,4,3.6,8.5,4.6,13.5s1.3,10.3,0.7,15.6c-0.6,5.4-2.1,10.8-4.5,16.3    C459.3,98.6,455.6,103.8,450.7,108.8z M437.4,66.2c-1-2.1-2.4-3.7-4.2-4.6s-3.8-1.3-6-1.2s-4.3,0.8-6.5,1.8s-4.2,2.6-6,4.6    s-3.3,4.3-4.5,7.2s-1.8,5.9-1.8,9.3c-0.1,3.2,0.4,5.8,1.4,7.8s2.2,3.5,3.7,4.4c1.5,1,3.2,1.5,5.1,1.6s3.9-0.2,5.8-0.8    s3.7-1.7,5.4-2.9c1.7-1.3,3.1-2.8,4.2-4.6c1.7-2.6,2.9-5,3.6-7.2s1.2-4.3,1.4-6.2c0.2-1.9,0.1-3.6-0.2-5.1    C438.5,68.8,438,67.4,437.4,66.2z"></path>			<path class="st0" d="M505.4,66.8c2.1,0.9,4.2,2,6.4,3.2s4.1,2.7,5.9,4.4s3.2,3.8,4.4,6.2c1.2,2.4,1.8,5.3,2,8.7    c0.2,4.7-0.6,8.9-2.3,12.6c-1.7,3.6-4.2,6.7-7.3,9.2c-3.2,2.5-7,4.4-11.4,5.8s-9.1,2.2-14.2,2.3c-2.3,0.1-4.7-0.1-7.2-0.3    c-2.5-0.3-4.9-0.8-7.3-1.3s-4.7-1.3-7-2.2s-4.4-1.7-6.4-2.7l7.6-21.4c1,0.4,2.2,0.9,3.6,1.6c1.4,0.6,2.9,1.2,4.5,1.8s3.3,1,5,1.4    s3.4,0.6,5.1,0.5c2.5-0.1,4.5-0.6,6.2-1.3s2.5-2,2.5-3.7c-0.1-1.1-0.6-2-1.8-2.6s-2.4-1.2-4-1.8c-1-0.3-2.3-0.6-4-1.1    s-3.4-1.1-5.2-1.9s-3.8-1.8-5.6-2.9c-1.9-1.1-3.6-2.5-5.2-4.1s-2.9-3.4-3.9-5.6c-1-2.1-1.6-4.5-1.6-7.2    c-0.1-4.7,0.7-8.8,2.4-12.5c1.7-3.6,4.1-6.7,7.1-9.3s6.5-4.5,10.5-5.9c4-1.4,8.3-2.2,12.8-2.3c4.2-0.2,8.4,0,12.5,0.7    s8,1.7,11.6,3.2l-5.9,23.1c-2.7-1.1-5.1-2.1-7.3-2.8c-2.2-0.8-4.8-1.3-7.7-1.8c-0.9-0.1-2-0.2-3.5-0.2c-1.4,0-2.8,0.2-4.1,0.5    s-2.5,0.8-3.5,1.5c-1,0.7-1.5,1.6-1.6,2.8c0,0.5,0.2,1,0.8,1.2s1.1,0.5,1.8,0.7c0.7,0.2,1.4,0.3,2.1,0.4c0.7,0.1,1.3,0.2,1.8,0.2    c1.9,0.4,4,0.9,6.2,1.4C501.9,65.5,503.7,66.1,505.4,66.8z"></path>		</g>		<g>			<path class="st0" d="M633.5,32.5c4.2,1.5,7.6,3.7,10.1,6.5c2.5,2.9,4.2,6.3,5,10.3s0.9,8.2,0.2,12.6c-0.7,4.4-2.2,8.8-4.3,13.2    c-2.2,4.4-5,8.6-8.6,12.3c-3.6,3.8-7.8,7.1-12.7,9.8c-4.9,2.8-10.3,4.7-16.4,5.9l-0.4,19.5l-26.2-2.7l-1.7-84.5    c13.7-1.6,26.9-3,39.6-4.2C624.1,30.6,629.2,31,633.5,32.5z M619.8,64.9c0-0.1,0-0.5,0.1-1.2c0.1-0.7,0-1.6-0.3-2.6    c-0.3-1-0.9-1.9-1.8-2.5c-0.9-0.7-2.4-1-4.5-1c-2.1,0-4.8,0.7-8.3,2.1L603.9,77c2.6-0.6,4.9-1.4,6.8-2.5c1.9-1.1,3.5-2.2,4.8-3.5    c1.3-1.2,2.3-2.4,3-3.5C619.2,66.4,619.6,65.6,619.8,64.9z"></path>			<path class="st0" d="M647.2,36.3l59.7-4.4l-3.4,27.4l-27.2,1.2l-0.1,5.2l19.7-1.4l-2.3,18.9l-18.1,1.4l-0.2,6l31-2.9l-0.5,29.9    l-57.9,3.1L647.2,36.3z"></path>			<path class="st0" d="M782.4,104.6l-16.8,18.9l-26.3-19.4l-0.3,18.5l-26.2-2.7L711,35.5c13.7-1.6,26.9-3,39.6-4.2    c6.8-0.7,12.4-0.2,16.9,1.5c4.5,1.7,7.9,4.2,10.3,7.5c2.3,3.3,3.7,7.1,4,11.5c0.3,4.4-0.3,8.8-1.9,13.4c-1.6,4.6-4.1,9-7.5,13.4    c-3.4,4.3-7.7,8.1-12.7,11.3L782.4,104.6z M737.7,59.7L736.6,77c2.6-0.6,4.9-1.4,6.8-2.5c1.9-1.1,3.5-2.2,4.8-3.5    c1.3-1.2,2.3-2.4,3-3.5c0.7-1.1,1.1-2,1.2-2.7c0-0.1,0-0.5,0.1-1.2c0.1-0.7,0-1.6-0.3-2.6c-0.3-1-0.9-1.9-1.8-2.5    c-1-0.7-2.5-1-4.5-1C743.9,57.6,741.1,58.3,737.7,59.7z"></path>			<path class="st0" d="M825.7,65.8c2.2,1,4.5,2.2,6.9,3.5c2.3,1.3,4.5,2.9,6.4,4.8c1.9,1.9,3.5,4.1,4.8,6.8c1.3,2.6,2,5.8,2.1,9.4    c0.2,5.1-0.6,9.7-2.5,13.6c-1.9,3.9-4.5,7.3-8,10c-3.4,2.7-7.5,4.8-12.3,6.3c-4.8,1.5-9.9,2.3-15.4,2.5c-2.5,0.1-5.1-0.1-7.8-0.4    c-2.7-0.3-5.3-0.8-7.9-1.5c-2.6-0.6-5.1-1.4-7.6-2.3c-2.5-0.9-4.8-1.9-6.9-2.9l8.2-23.2c1.1,0.4,2.4,1,3.9,1.7    c1.5,0.7,3.1,1.3,4.9,1.9c1.7,0.6,3.5,1.1,5.4,1.5c1.9,0.4,3.7,0.6,5.5,0.5c2.7-0.1,4.9-0.6,6.8-1.4c1.8-0.8,2.7-2.1,2.7-4    c-0.1-1.2-0.7-2.2-1.9-2.8c-1.2-0.6-2.6-1.3-4.3-1.9c-1.1-0.3-2.5-0.7-4.3-1.2c-1.8-0.5-3.7-1.2-5.7-2.1c-2-0.9-4.1-1.9-6.1-3.1    c-2.1-1.2-3.9-2.7-5.6-4.4c-1.7-1.7-3.1-3.7-4.2-6c-1.1-2.3-1.7-4.9-1.8-7.8c-0.1-5.1,0.7-9.5,2.6-13.5c1.9-3.9,4.4-7.3,7.7-10.1    c3.2-2.8,7-4.9,11.4-6.4c4.3-1.5,8.9-2.3,13.9-2.5c4.5-0.2,9.1,0,13.5,0.7c4.5,0.7,8.7,1.8,12.6,3.4l-6.4,25    c-2.9-1.2-5.5-2.3-7.9-3.1c-2.4-0.8-5.2-1.5-8.3-1.9c-0.9-0.1-2.2-0.2-3.8-0.2c-1.5,0-3,0.2-4.5,0.5c-1.5,0.3-2.8,0.8-3.8,1.6    c-1.1,0.7-1.7,1.7-1.7,3c0,0.6,0.3,1,0.8,1.4c0.5,0.3,1.2,0.6,1.9,0.8c0.8,0.2,1.5,0.3,2.3,0.4c0.8,0.1,1.4,0.2,1.9,0.3    c2.1,0.4,4.3,0.9,6.7,1.5C821.8,64.4,823.8,65,825.7,65.8z"></path>			<path class="st0" d="M913.1,111.2c-2.6,2.6-5.8,4.9-9.5,6.8c-3.7,1.9-7.7,3.4-12,4.4c-4.3,1-8.6,1.5-13.2,1.4    c-4.5-0.1-8.8-0.8-13-2.3c-4.1-1.5-8-3.7-11.4-6.8c-3.5-3-6.3-7-8.4-11.8c-2.5-5.4-3.9-10.8-4.4-16.1c-0.5-5.3-0.1-10.5,1-15.4    c1.2-4.9,3-9.6,5.6-14c2.6-4.4,5.7-8.4,9.4-12c3.7-3.6,7.8-6.7,12.4-9.3c4.6-2.6,9.5-4.6,14.7-6c4.9-1.2,9.5-1.6,13.8-1.1    c4.3,0.5,8.2,1.5,11.6,3.1c3.5,1.6,6.4,3.5,8.8,5.8c2.4,2.3,4.2,4.6,5.5,6.9c2.2,4.3,3.9,9.2,5,14.7c1.1,5.4,1.4,11.1,0.8,16.9    c-0.6,5.8-2.3,11.7-4.9,17.7C922.3,100.1,918.4,105.8,913.1,111.2z M898.7,65.1c-1.1-2.3-2.6-4-4.6-5c-2-1-4.1-1.4-6.4-1.3    c-2.3,0.1-4.7,0.8-7,2c-2.4,1.2-4.5,2.9-6.5,5c-1.9,2.1-3.6,4.7-4.8,7.7c-1.3,3-1.9,6.4-1.9,10.1c-0.1,3.5,0.4,6.3,1.5,8.4    c1,2.2,2.4,3.8,4,4.8c1.6,1,3.5,1.6,5.6,1.7c2.1,0.1,4.2-0.2,6.2-0.9c2.1-0.7,4-1.8,5.8-3.2c1.8-1.4,3.3-3,4.5-4.9    c1.8-2.8,3.1-5.4,4-7.8c0.8-2.4,1.3-4.6,1.5-6.7c0.2-2,0.1-3.9-0.3-5.5C899.9,67.9,899.4,66.4,898.7,65.1z"></path>			<path class="st0" d="M932.2,31.9l41.3,34.3l1-35.8l32.3,2.2l-5,82.6l-41.5-20.7l1.5,25.5l-31.1,1.9L932.2,31.9z"></path>			<path class="st0" d="M1051.9,25.6l54.7,83.1l-34,12.9l-9.1-15.2l-22.7,0.8l-4.4,16.2l-32.6-10.6L1051.9,25.6z M1046.4,90    l12.9-2.3l-5.4-14.7L1046.4,90z"></path>			<path class="st0" d="M1105.5,35.5l32.6-4.5l-2.8,60.9l26.5-5.5l1.3,30.4l-56.8,5.7L1105.5,35.5z"></path>			<path class="st0" d="M1165.5,36.3l59.7-4.4l-3.4,27.4l-27.2,1.2l-0.1,5.2l19.7-1.4l-2.3,18.9l-18.1,1.4l-0.2,6l31-2.9l-0.5,29.9    l-57.9,3.1L1165.5,36.3z"></path>			<path class="st0" d="M1271.5,65.8c2.2,1,4.5,2.2,6.9,3.5c2.3,1.3,4.5,2.9,6.4,4.8c1.9,1.9,3.5,4.1,4.8,6.8c1.3,2.6,2,5.8,2.1,9.4    c0.2,5.1-0.6,9.7-2.5,13.6c-1.9,3.9-4.5,7.3-8,10c-3.4,2.7-7.5,4.8-12.3,6.3c-4.8,1.5-9.9,2.3-15.4,2.5c-2.5,0.1-5.1-0.1-7.8-0.4    c-2.7-0.3-5.3-0.8-7.9-1.5c-2.6-0.6-5.1-1.4-7.6-2.3c-2.5-0.9-4.8-1.9-6.9-2.9l8.2-23.2c1.1,0.4,2.4,1,3.9,1.7    c1.5,0.7,3.1,1.3,4.9,1.9c1.7,0.6,3.5,1.1,5.4,1.5c1.9,0.4,3.7,0.6,5.5,0.5c2.7-0.1,4.9-0.6,6.8-1.4c1.8-0.8,2.7-2.1,2.7-4    c-0.1-1.2-0.7-2.2-1.9-2.8c-1.2-0.6-2.6-1.3-4.3-1.9c-1.1-0.3-2.5-0.7-4.3-1.2c-1.8-0.5-3.7-1.2-5.7-2.1c-2-0.9-4.1-1.9-6.1-3.1    c-2.1-1.2-3.9-2.7-5.6-4.4c-1.7-1.7-3.1-3.7-4.2-6c-1.1-2.3-1.7-4.9-1.8-7.8c-0.1-5.1,0.7-9.5,2.6-13.5c1.9-3.9,4.4-7.3,7.7-10.1    c3.2-2.8,7-4.9,11.4-6.4c4.3-1.5,8.9-2.3,13.9-2.5c4.5-0.2,9.1,0,13.5,0.7c4.5,0.7,8.7,1.8,12.6,3.4l-6.4,25    c-2.9-1.2-5.5-2.3-7.9-3.1c-2.4-0.8-5.2-1.5-8.3-1.9c-0.9-0.1-2.2-0.2-3.8-0.2c-1.5,0-3,0.2-4.5,0.5c-1.5,0.3-2.8,0.8-3.8,1.6    c-1.1,0.7-1.7,1.7-1.7,3c0,0.6,0.3,1,0.8,1.4c0.5,0.3,1.2,0.6,1.9,0.8c0.8,0.2,1.5,0.3,2.3,0.4c0.8,0.1,1.4,0.2,1.9,0.3    c2.1,0.4,4.3,0.9,6.7,1.5C1267.7,64.4,1269.6,65,1271.5,65.8z"></path>		</g>	</g>	<g>		<g>			<path class="st1" d="M150.2,49.6l-17.5,21.5c-3.6-3.8-6.8-6.2-9.4-7.3c-2.7-1.1-5-1.3-7-0.8s-3.6,1.7-4.9,3.5    c-1.3,1.8-2.4,3.6-3.2,5.4c-0.8,1.8-1.5,4.2-2.2,7.2c0,0.1,0.2,1,0.4,2.6c0.3,1.6,1,3.4,2.1,5.3s2.7,3.4,4.7,4.3s4.8,0.8,8.3-0.4    s7.8-4.2,13-8.9l19.5,20.8c-1,1.9-2.7,3.9-5.2,5.9s-5.4,3.8-8.8,5.5c-3.4,1.7-7.1,3.1-11.2,4.2c-4.1,1.1-8.2,1.7-12.4,1.9    c-4.2,0.2-8.4-0.3-12.5-1.3s-7.9-2.9-11.3-5.6c-5-3.9-8.7-8.1-11.1-12.8c-2.4-4.7-3.8-9.5-4.3-14.4s-0.1-9.9,1.2-14.8    s3-9.6,5.2-13.9c2.2-4.3,4.9-8.2,7.9-11.7s6.1-6.2,9.2-8.3c2.7-1.5,5.2-2.5,7.5-3.2s5.1-1.2,8.2-1.5s6.6,0,10.3,0.9    c3.7,0.9,7.6,2.6,11.6,5C142.2,41.2,146.2,44.8,150.2,49.6z"></path>			<path class="st1" d="M217.1,108.8c-2.4,2.4-5.3,4.5-8.8,6.3s-7.1,3.2-11.1,4.1c-3.9,0.9-8,1.4-12.1,1.3s-8.2-0.8-12-2.2    s-7.4-3.4-10.6-6.2s-5.8-6.4-7.8-10.9c-2.3-5-3.6-10-4.1-14.9c-0.4-4.9-0.1-9.7,0.9-14.2c1.1-4.6,2.8-8.9,5.2-13s5.3-7.8,8.7-11    s7.2-6.2,11.4-8.5c4.2-2.4,8.8-4.2,13.6-5.5c4.5-1.1,8.8-1.5,12.8-1s7.6,1.4,10.8,2.8c3.2,1.5,5.9,3.2,8.1,5.3s3.9,4.2,5.1,6.3    c2.1,4,3.6,8.5,4.6,13.5s1.3,10.3,0.7,15.6c-0.6,5.4-2.1,10.8-4.6,16.3C225.7,98.6,222,103.8,217.1,108.8z M203.8,66.2    c-1-2.1-2.4-3.7-4.2-4.6s-3.8-1.3-5.9-1.2c-2.1,0.1-4.3,0.8-6.5,1.8s-4.2,2.6-6,4.6s-3.3,4.3-4.4,7.2s-1.8,5.9-1.8,9.3    c-0.1,3.2,0.4,5.8,1.4,7.8s2.2,3.5,3.7,4.4c1.5,1,3.2,1.5,5.1,1.6s3.9-0.2,5.8-0.8s3.7-1.7,5.4-2.9c1.7-1.3,3.1-2.8,4.2-4.6    c1.7-2.6,2.9-5,3.6-7.2c0.8-2.2,1.2-4.3,1.4-6.2s0.1-3.6-0.2-5.1C204.9,68.8,204.4,67.4,203.8,66.2z"></path>			<path class="st1" d="M250.7,30.5l24.5,30.9L298.8,37l24.5,67.4l-24.1,19.7l-10.9-32.5l-13.6,23.8l-16.4-25.2l-9.7,29.6    l-23.3-15.1L250.7,30.5z"></path>			<path class="st1" d="M321.1,38.9c9.4-1.8,17.1-3,23.2-3.6s10.9-0.9,14.5-0.8c3.5,0,6.7,0.3,9.5,1c2.7,1.3,5,2.5,6.7,3.8    s3.4,2.8,5,4.7s2.5,4.1,2.9,6.6s-0.1,5.3-1.5,8.5s-4.1,6.6-8.1,10.4c5.6,2.9,9.6,6.1,12,9.4c2.4,3.4,3.7,6.7,3.9,9.9    c0.2,3.3-0.3,6.4-1.5,9.4s-2.7,5.6-4.3,7.9c-1.6,2.3-3.8,4.8-6.5,7.5c-0.1,0.1-0.5,0.3-1.4,0.8c-0.8,0.5-2.5,1.1-4.9,1.8    c-2.4,0.7-5.7,1.3-9.8,1.8s-9.3,0.7-15.8,0.7s-14.2-0.6-23.1-1.6L321.1,38.9z M362.3,88.4c-0.1-0.7-0.4-1.4-0.9-2.3    s-1.3-1.6-2.5-2.2s-2.7-0.7-4.8-0.5s-4.6,1.1-7.9,2.6l1.3,10.5c3.7,0.3,6.5,0.2,8.5-0.5s3.5-1.5,4.4-2.4c0.9-1,1.5-2.3,1.9-4.1    C362.4,89.5,362.4,89.1,362.3,88.4z M356.5,58c-0.5-0.7-1.4-1.2-2.8-1.4c-1.3-0.2-3.3,0.2-6,1.2l-0.4,10.5c2.1,0.3,3.8,0.2,5-0.6    c1.3-0.7,2.3-1.5,3-2.5s1.3-2.3,1.8-4C357.2,59.8,357,58.7,356.5,58z"></path>			<path class="st1" d="M450.7,108.8c-2.4,2.4-5.3,4.5-8.8,6.3s-7.1,3.2-11,4.1s-8,1.4-12.1,1.3c-4.2-0.1-8.2-0.8-12-2.2    s-7.4-3.4-10.5-6.2c-3.2-2.8-5.8-6.4-7.8-10.9c-2.3-5-3.6-10-4-14.9s-0.1-9.7,1-14.2s2.8-8.9,5.2-13c2.4-4.1,5.3-7.8,8.7-11    c3.4-3.3,7.2-6.2,11.5-8.5c4.2-2.4,8.8-4.2,13.5-5.5c4.5-1.1,8.8-1.5,12.8-1s7.5,1.4,10.8,2.8c3.2,1.5,5.9,3.2,8.1,5.3    c2.2,2.1,3.9,4.2,5,6.3c2.1,4,3.6,8.5,4.6,13.5s1.3,10.3,0.7,15.6c-0.6,5.4-2.1,10.8-4.5,16.3    C459.3,98.6,455.6,103.8,450.7,108.8z M437.4,66.2c-1-2.1-2.4-3.7-4.2-4.6s-3.8-1.3-6-1.2s-4.3,0.8-6.5,1.8s-4.2,2.6-6,4.6    s-3.3,4.3-4.5,7.2s-1.8,5.9-1.8,9.3c-0.1,3.2,0.4,5.8,1.4,7.8s2.2,3.5,3.7,4.4c1.5,1,3.2,1.5,5.1,1.6s3.9-0.2,5.8-0.8    s3.7-1.7,5.4-2.9c1.7-1.3,3.1-2.8,4.2-4.6c1.7-2.6,2.9-5,3.6-7.2s1.2-4.3,1.4-6.2c0.2-1.9,0.1-3.6-0.2-5.1    C438.5,68.8,438,67.4,437.4,66.2z"></path>			<path class="st1" d="M505.4,66.8c2.1,0.9,4.2,2,6.4,3.2s4.1,2.7,5.9,4.4s3.2,3.8,4.4,6.2c1.2,2.4,1.8,5.3,2,8.7    c0.2,4.7-0.6,8.9-2.3,12.6c-1.7,3.6-4.2,6.7-7.3,9.2c-3.2,2.5-7,4.4-11.4,5.8s-9.1,2.2-14.2,2.3c-2.3,0.1-4.7-0.1-7.2-0.3    c-2.5-0.3-4.9-0.8-7.3-1.3s-4.7-1.3-7-2.2s-4.4-1.7-6.4-2.7l7.6-21.4c1,0.4,2.2,0.9,3.6,1.6c1.4,0.6,2.9,1.2,4.5,1.8s3.3,1,5,1.4    s3.4,0.6,5.1,0.5c2.5-0.1,4.5-0.6,6.2-1.3s2.5-2,2.5-3.7c-0.1-1.1-0.6-2-1.8-2.6s-2.4-1.2-4-1.8c-1-0.3-2.3-0.6-4-1.1    s-3.4-1.1-5.2-1.9s-3.8-1.8-5.6-2.9c-1.9-1.1-3.6-2.5-5.2-4.1s-2.9-3.4-3.9-5.6c-1-2.1-1.6-4.5-1.6-7.2    c-0.1-4.7,0.7-8.8,2.4-12.5c1.7-3.6,4.1-6.7,7.1-9.3s6.5-4.5,10.5-5.9c4-1.4,8.3-2.2,12.8-2.3c4.2-0.2,8.4,0,12.5,0.7    s8,1.7,11.6,3.2l-5.9,23.1c-2.7-1.1-5.1-2.1-7.3-2.8c-2.2-0.8-4.8-1.3-7.7-1.8c-0.9-0.1-2-0.2-3.5-0.2c-1.4,0-2.8,0.2-4.1,0.5    s-2.5,0.8-3.5,1.5c-1,0.7-1.5,1.6-1.6,2.8c0,0.5,0.2,1,0.8,1.2s1.1,0.5,1.8,0.7c0.7,0.2,1.4,0.3,2.1,0.4c0.7,0.1,1.3,0.2,1.8,0.2    c1.9,0.4,4,0.9,6.2,1.4C501.9,65.5,503.7,66.1,505.4,66.8z"></path>		</g>		<g>			<path class="st1" d="M633.5,32.5c4.2,1.5,7.6,3.7,10.1,6.5c2.5,2.9,4.2,6.3,5,10.3s0.9,8.2,0.2,12.6c-0.7,4.4-2.2,8.8-4.3,13.2    c-2.2,4.4-5,8.6-8.6,12.3c-3.6,3.8-7.8,7.1-12.7,9.8c-4.9,2.8-10.3,4.7-16.4,5.9l-0.4,19.5l-26.2-2.7l-1.7-84.5    c13.7-1.6,26.9-3,39.6-4.2C624.1,30.6,629.2,31,633.5,32.5z M619.8,64.9c0-0.1,0-0.5,0.1-1.2c0.1-0.7,0-1.6-0.3-2.6    c-0.3-1-0.9-1.9-1.8-2.5c-0.9-0.7-2.4-1-4.5-1c-2.1,0-4.8,0.7-8.3,2.1L603.9,77c2.6-0.6,4.9-1.4,6.8-2.5c1.9-1.1,3.5-2.2,4.8-3.5    c1.3-1.2,2.3-2.4,3-3.5C619.2,66.4,619.6,65.6,619.8,64.9z"></path>			<path class="st1" d="M647.2,36.3l59.7-4.4l-3.4,27.4l-27.2,1.2l-0.1,5.2l19.7-1.4l-2.3,18.9l-18.1,1.4l-0.2,6l31-2.9l-0.5,29.9    l-57.9,3.1L647.2,36.3z"></path>			<path class="st1" d="M782.4,104.6l-16.8,18.9l-26.3-19.4l-0.3,18.5l-26.2-2.7L711,35.5c13.7-1.6,26.9-3,39.6-4.2    c6.8-0.7,12.4-0.2,16.9,1.5c4.5,1.7,7.9,4.2,10.3,7.5c2.3,3.3,3.7,7.1,4,11.5c0.3,4.4-0.3,8.8-1.9,13.4c-1.6,4.6-4.1,9-7.5,13.4    c-3.4,4.3-7.7,8.1-12.7,11.3L782.4,104.6z M737.7,59.7L736.6,77c2.6-0.6,4.9-1.4,6.8-2.5c1.9-1.1,3.5-2.2,4.8-3.5    c1.3-1.2,2.3-2.4,3-3.5c0.7-1.1,1.1-2,1.2-2.7c0-0.1,0-0.5,0.1-1.2c0.1-0.7,0-1.6-0.3-2.6c-0.3-1-0.9-1.9-1.8-2.5    c-1-0.7-2.5-1-4.5-1C743.9,57.6,741.1,58.3,737.7,59.7z"></path>			<path class="st1" d="M825.7,65.8c2.2,1,4.5,2.2,6.9,3.5c2.3,1.3,4.5,2.9,6.4,4.8c1.9,1.9,3.5,4.1,4.8,6.8c1.3,2.6,2,5.8,2.1,9.4    c0.2,5.1-0.6,9.7-2.5,13.6c-1.9,3.9-4.5,7.3-8,10c-3.4,2.7-7.5,4.8-12.3,6.3c-4.8,1.5-9.9,2.3-15.4,2.5c-2.5,0.1-5.1-0.1-7.8-0.4    c-2.7-0.3-5.3-0.8-7.9-1.5c-2.6-0.6-5.1-1.4-7.6-2.3c-2.5-0.9-4.8-1.9-6.9-2.9l8.2-23.2c1.1,0.4,2.4,1,3.9,1.7    c1.5,0.7,3.1,1.3,4.9,1.9c1.7,0.6,3.5,1.1,5.4,1.5c1.9,0.4,3.7,0.6,5.5,0.5c2.7-0.1,4.9-0.6,6.8-1.4c1.8-0.8,2.7-2.1,2.7-4    c-0.1-1.2-0.7-2.2-1.9-2.8c-1.2-0.6-2.6-1.3-4.3-1.9c-1.1-0.3-2.5-0.7-4.3-1.2c-1.8-0.5-3.7-1.2-5.7-2.1c-2-0.9-4.1-1.9-6.1-3.1    c-2.1-1.2-3.9-2.7-5.6-4.4c-1.7-1.7-3.1-3.7-4.2-6c-1.1-2.3-1.7-4.9-1.8-7.8c-0.1-5.1,0.7-9.5,2.6-13.5c1.9-3.9,4.4-7.3,7.7-10.1    c3.2-2.8,7-4.9,11.4-6.4c4.3-1.5,8.9-2.3,13.9-2.5c4.5-0.2,9.1,0,13.5,0.7c4.5,0.7,8.7,1.8,12.6,3.4l-6.4,25    c-2.9-1.2-5.5-2.3-7.9-3.1c-2.4-0.8-5.2-1.5-8.3-1.9c-0.9-0.1-2.2-0.2-3.8-0.2c-1.5,0-3,0.2-4.5,0.5c-1.5,0.3-2.8,0.8-3.8,1.6    c-1.1,0.7-1.7,1.7-1.7,3c0,0.6,0.3,1,0.8,1.4c0.5,0.3,1.2,0.6,1.9,0.8c0.8,0.2,1.5,0.3,2.3,0.4c0.8,0.1,1.4,0.2,1.9,0.3    c2.1,0.4,4.3,0.9,6.7,1.5C821.8,64.4,823.8,65,825.7,65.8z"></path>			<path class="st1" d="M913.1,111.2c-2.6,2.6-5.8,4.9-9.5,6.8c-3.7,1.9-7.7,3.4-12,4.4c-4.3,1-8.6,1.5-13.2,1.4    c-4.5-0.1-8.8-0.8-13-2.3c-4.1-1.5-8-3.7-11.4-6.8c-3.5-3-6.3-7-8.4-11.8c-2.5-5.4-3.9-10.8-4.4-16.1c-0.5-5.3-0.1-10.5,1-15.4    c1.2-4.9,3-9.6,5.6-14c2.6-4.4,5.7-8.4,9.4-12c3.7-3.6,7.8-6.7,12.4-9.3c4.6-2.6,9.5-4.6,14.7-6c4.9-1.2,9.5-1.6,13.8-1.1    c4.3,0.5,8.2,1.5,11.6,3.1c3.5,1.6,6.4,3.5,8.8,5.8c2.4,2.3,4.2,4.6,5.5,6.9c2.2,4.3,3.9,9.2,5,14.7c1.1,5.4,1.4,11.1,0.8,16.9    c-0.6,5.8-2.3,11.7-4.9,17.7C922.3,100.1,918.4,105.8,913.1,111.2z M898.7,65.1c-1.1-2.3-2.6-4-4.6-5c-2-1-4.1-1.4-6.4-1.3    c-2.3,0.1-4.7,0.8-7,2c-2.4,1.2-4.5,2.9-6.5,5c-1.9,2.1-3.6,4.7-4.8,7.7c-1.3,3-1.9,6.4-1.9,10.1c-0.1,3.5,0.4,6.3,1.5,8.4    c1,2.2,2.4,3.8,4,4.8c1.6,1,3.5,1.6,5.6,1.7c2.1,0.1,4.2-0.2,6.2-0.9c2.1-0.7,4-1.8,5.8-3.2c1.8-1.4,3.3-3,4.5-4.9    c1.8-2.8,3.1-5.4,4-7.8c0.8-2.4,1.3-4.6,1.5-6.7c0.2-2,0.1-3.9-0.3-5.5C899.9,67.9,899.4,66.4,898.7,65.1z"></path>			<path class="st1" d="M932.2,31.9l41.3,34.3l1-35.8l32.3,2.2l-5,82.6l-41.5-20.7l1.5,25.5l-31.1,1.9L932.2,31.9z"></path>			<path class="st1" d="M1051.9,25.6l54.7,83.1l-34,12.9l-9.1-15.2l-22.7,0.8l-4.4,16.2l-32.6-10.6L1051.9,25.6z M1046.4,90    l12.9-2.3l-5.4-14.7L1046.4,90z"></path>			<path class="st1" d="M1105.5,35.5l32.6-4.5l-2.8,60.9l26.5-5.5l1.3,30.4l-56.8,5.7L1105.5,35.5z"></path>			<path class="st1" d="M1165.5,36.3l59.7-4.4l-3.4,27.4l-27.2,1.2l-0.1,5.2l19.7-1.4l-2.3,18.9l-18.1,1.4l-0.2,6l31-2.9l-0.5,29.9    l-57.9,3.1L1165.5,36.3z"></path>			<path class="st1" d="M1271.5,65.8c2.2,1,4.5,2.2,6.9,3.5c2.3,1.3,4.5,2.9,6.4,4.8c1.9,1.9,3.5,4.1,4.8,6.8c1.3,2.6,2,5.8,2.1,9.4    c0.2,5.1-0.6,9.7-2.5,13.6c-1.9,3.9-4.5,7.3-8,10c-3.4,2.7-7.5,4.8-12.3,6.3c-4.8,1.5-9.9,2.3-15.4,2.5c-2.5,0.1-5.1-0.1-7.8-0.4    c-2.7-0.3-5.3-0.8-7.9-1.5c-2.6-0.6-5.1-1.4-7.6-2.3c-2.5-0.9-4.8-1.9-6.9-2.9l8.2-23.2c1.1,0.4,2.4,1,3.9,1.7    c1.5,0.7,3.1,1.3,4.9,1.9c1.7,0.6,3.5,1.1,5.4,1.5c1.9,0.4,3.7,0.6,5.5,0.5c2.7-0.1,4.9-0.6,6.8-1.4c1.8-0.8,2.7-2.1,2.7-4    c-0.1-1.2-0.7-2.2-1.9-2.8c-1.2-0.6-2.6-1.3-4.3-1.9c-1.1-0.3-2.5-0.7-4.3-1.2c-1.8-0.5-3.7-1.2-5.7-2.1c-2-0.9-4.1-1.9-6.1-3.1    c-2.1-1.2-3.9-2.7-5.6-4.4c-1.7-1.7-3.1-3.7-4.2-6c-1.1-2.3-1.7-4.9-1.8-7.8c-0.1-5.1,0.7-9.5,2.6-13.5c1.9-3.9,4.4-7.3,7.7-10.1    c3.2-2.8,7-4.9,11.4-6.4c4.3-1.5,8.9-2.3,13.9-2.5c4.5-0.2,9.1,0,13.5,0.7c4.5,0.7,8.7,1.8,12.6,3.4l-6.4,25    c-2.9-1.2-5.5-2.3-7.9-3.1c-2.4-0.8-5.2-1.5-8.3-1.9c-0.9-0.1-2.2-0.2-3.8-0.2c-1.5,0-3,0.2-4.5,0.5c-1.5,0.3-2.8,0.8-3.8,1.6    c-1.1,0.7-1.7,1.7-1.7,3c0,0.6,0.3,1,0.8,1.4c0.5,0.3,1.2,0.6,1.9,0.8c0.8,0.2,1.5,0.3,2.3,0.4c0.8,0.1,1.4,0.2,1.9,0.3    c2.1,0.4,4.3,0.9,6.7,1.5C1267.7,64.4,1269.6,65,1271.5,65.8z"></path>		</g>	</g></g></svg>