<svg xmlns="http://www.w3.org/2000/svg" xmlns:xlink="http://www.w3.org/1999/xlink" id="Capa_1" x="0px" y="0px" viewBox="0 0 606.5 154.8" style="enable-background:new 0 0 606.5 154.8;" xml:space="preserve"><style type="text/css">	.st0{fill:none;stroke:#000000;stroke-width:3;}	.st1{fill:#FF0000;}</style><g>	<g>		<path class="st0" d="M98.4,41l56.4-4.2l-3.2,25.8L126,63.8l-0.1,4.9l18.6-1.3l-2.1,17.9l-17,1.3l-0.2,5.6l29.2-2.8l-0.5,28.2   l-54.6,3L98.4,41z"></path>		<path class="st0" d="M177,34.6l20,20.5l18.9-20.5l22.9,17.2l-24.2,25.1l24.7,25.2L219.8,123l-23.2-29.1l-18.6,30l-23.3-19.5   l23.3-26.1l-23.8-26.5L177,34.6z"></path>		<path class="st0" d="M290.5,59.3l-12.2,1.4v57.5l-29,3.6l1.5-58.3l-13.5,1.3l0.7-25.1l55.1-4.7L290.5,59.3z"></path>		<path class="st0" d="M361.4,105.4l-15.8,17.9L320.8,105l-0.3,17.5l-24.7-2.6l-1.6-79.7c12.9-1.5,25.4-2.8,37.4-4   c6.4-0.7,11.7-0.2,16,1.4c4.3,1.6,7.5,4,9.7,7.1c2.2,3.1,3.5,6.7,3.8,10.8c0.3,4.1-0.3,8.3-1.8,12.7c-1.5,4.3-3.9,8.5-7.1,12.6   c-3.2,4.1-7.2,7.6-12,10.6L361.4,105.4z M319.2,63.1l-1,16.3c2.5-0.5,4.6-1.3,6.4-2.3c1.8-1,3.3-2.1,4.5-3.3   c1.2-1.2,2.2-2.3,2.8-3.3c0.6-1.1,1-1.9,1.2-2.5c0-0.1,0-0.4,0.1-1.1c0.1-0.7,0-1.5-0.3-2.4c-0.2-1-0.8-1.8-1.7-2.4   c-0.9-0.6-2.3-1-4.2-0.9C325.1,61.1,322.5,61.8,319.2,63.1z"></path>		<path class="st0" d="M399.5,30.9l51.6,78.4L419,121.4l-8.6-14.3l-21.4,0.7l-4.2,15.3l-30.7-10L399.5,30.9z M394.3,91.6l12.1-2.1   l-5.1-13.9L394.3,91.6z"></path>		<path class="st0" d="M489,68.8c2.1,1,4.3,2,6.5,3.3c2.2,1.2,4.2,2.7,6,4.5c1.8,1.8,3.3,3.9,4.5,6.4c1.2,2.5,1.9,5.4,2,8.8   c0.2,4.8-0.6,9.1-2.3,12.8c-1.8,3.7-4.3,6.8-7.5,9.4c-3.2,2.6-7.1,4.5-11.6,5.9c-4.5,1.4-9.3,2.2-14.5,2.4   c-2.4,0.1-4.8-0.1-7.3-0.4c-2.5-0.3-5-0.8-7.5-1.4c-2.5-0.6-4.8-1.3-7.1-2.2c-2.3-0.8-4.5-1.8-6.5-2.7l7.8-21.8   c1,0.4,2.2,0.9,3.7,1.6c1.4,0.6,3,1.2,4.6,1.8c1.6,0.5,3.3,1,5.1,1.4c1.8,0.4,3.5,0.6,5.2,0.5c2.5-0.1,4.6-0.6,6.4-1.3   c1.7-0.7,2.6-2,2.5-3.8c-0.1-1.2-0.7-2-1.8-2.7s-2.5-1.2-4-1.8c-1-0.3-2.4-0.6-4-1.1c-1.7-0.5-3.5-1.1-5.4-1.9   c-1.9-0.8-3.8-1.8-5.8-3c-1.9-1.2-3.7-2.6-5.3-4.2c-1.6-1.6-2.9-3.5-4-5.7c-1.1-2.1-1.6-4.6-1.7-7.4c-0.1-4.8,0.7-9,2.5-12.7   c1.8-3.7,4.2-6.9,7.2-9.5c3.1-2.6,6.6-4.6,10.7-6c4.1-1.4,8.4-2.2,13.1-2.4c4.3-0.2,8.5,0,12.8,0.7c4.2,0.6,8.2,1.7,11.8,3.2   l-6,23.6c-2.7-1.2-5.2-2.1-7.5-2.9c-2.2-0.8-4.9-1.4-7.9-1.8c-0.9-0.1-2.1-0.2-3.6-0.2c-1.4,0-2.8,0.2-4.2,0.5   c-1.4,0.3-2.6,0.8-3.6,1.5c-1,0.7-1.6,1.6-1.6,2.9c0,0.5,0.3,1,0.8,1.3c0.5,0.3,1.1,0.5,1.8,0.7c0.7,0.2,1.4,0.3,2.2,0.4   c0.7,0.1,1.4,0.2,1.8,0.3c2,0.4,4.1,0.9,6.3,1.4C485.4,67.4,487.2,68,489,68.8z"></path>	</g>	<g>		<path class="st1" d="M98.4,41l56.4-4.2l-3.2,25.8L126,63.8l-0.1,4.9l18.6-1.3l-2.1,17.9l-17,1.3l-0.2,5.6l29.2-2.8l-0.5,28.2   l-54.6,3L98.4,41z"></path>		<path class="st1" d="M177,34.6l20,20.5l18.9-20.5l22.9,17.2l-24.2,25.1l24.7,25.2L219.8,123l-23.2-29.1l-18.6,30l-23.3-19.5   l23.3-26.1l-23.8-26.5L177,34.6z"></path>		<path class="st1" d="M290.5,59.3l-12.2,1.4v57.5l-29,3.6l1.5-58.3l-13.5,1.3l0.7-25.1l55.1-4.7L290.5,59.3z"></path>		<path class="st1" d="M361.4,105.4l-15.8,17.9L320.8,105l-0.3,17.5l-24.7-2.6l-1.6-79.7c12.9-1.5,25.4-2.8,37.4-4   c6.4-0.7,11.7-0.2,16,1.4c4.3,1.6,7.5,4,9.7,7.1c2.2,3.1,3.5,6.7,3.8,10.8c0.3,4.1-0.3,8.3-1.8,12.7c-1.5,4.3-3.9,8.5-7.1,12.6   c-3.2,4.1-7.2,7.6-12,10.6L361.4,105.4z M319.2,63.1l-1,16.3c2.5-0.5,4.6-1.3,6.4-2.3c1.8-1,3.3-2.1,4.5-3.3   c1.2-1.2,2.2-2.3,2.8-3.3c0.6-1.1,1-1.9,1.2-2.5c0-0.1,0-0.4,0.1-1.1c0.1-0.7,0-1.5-0.3-2.4c-0.2-1-0.8-1.8-1.7-2.4   c-0.9-0.6-2.3-1-4.2-0.9C325.1,61.1,322.5,61.8,319.2,63.1z"></path>		<path class="st1" d="M399.5,30.9l51.6,78.4L419,121.4l-8.6-14.3l-21.4,0.7l-4.2,15.3l-30.7-10L399.5,30.9z M394.3,91.6l12.1-2.1   l-5.1-13.9L394.3,91.6z"></path>		<path class="st1" d="M489,68.8c2.1,1,4.3,2,6.5,3.3c2.2,1.2,4.2,2.7,6,4.5c1.8,1.8,3.3,3.9,4.5,6.4c1.2,2.5,1.9,5.4,2,8.8   c0.2,4.8-0.6,9.1-2.3,12.8c-1.8,3.7-4.3,6.8-7.5,9.4c-3.2,2.6-7.1,4.5-11.6,5.9c-4.5,1.4-9.3,2.2-14.5,2.4   c-2.4,0.1-4.8-0.1-7.3-0.4c-2.5-0.3-5-0.8-7.5-1.4c-2.5-0.6-4.8-1.3-7.1-2.2c-2.3-0.8-4.5-1.8-6.5-2.7l7.8-21.8   c1,0.4,2.2,0.9,3.7,1.6c1.4,0.6,3,1.2,4.6,1.8c1.6,0.5,3.3,1,5.1,1.4c1.8,0.4,3.5,0.6,5.2,0.5c2.5-0.1,4.6-0.6,6.4-1.3   c1.7-0.7,2.6-2,2.5-3.8c-0.1-1.2-0.7-2-1.8-2.7s-2.5-1.2-4-1.8c-1-0.3-2.4-0.6-4-1.1c-1.7-0.5-3.5-1.1-5.4-1.9   c-1.9-0.8-3.8-1.8-5.8-3c-1.9-1.2-3.7-2.6-5.3-4.2c-1.6-1.6-2.9-3.5-4-5.7c-1.1-2.1-1.6-4.6-1.7-7.4c-0.1-4.8,0.7-9,2.5-12.7   c1.8-3.7,4.2-6.9,7.2-9.5c3.1-2.6,6.6-4.6,10.7-6c4.1-1.4,8.4-2.2,13.1-2.4c4.3-0.2,8.5,0,12.8,0.7c4.2,0.6,8.2,1.7,11.8,3.2   l-6,23.6c-2.7-1.2-5.2-2.1-7.5-2.9c-2.2-0.8-4.9-1.4-7.9-1.8c-0.9-0.1-2.1-0.2-3.6-0.2c-1.4,0-2.8,0.2-4.2,0.5   c-1.4,0.3-2.6,0.8-3.6,1.5c-1,0.7-1.6,1.6-1.6,2.9c0,0.5,0.3,1,0.8,1.3c0.5,0.3,1.1,0.5,1.8,0.7c0.7,0.2,1.4,0.3,2.2,0.4   c0.7,0.1,1.4,0.2,1.8,0.3c2,0.4,4.1,0.9,6.3,1.4C485.4,67.4,487.2,68,489,68.8z"></path>	</g></g></svg>