<svg xmlns="http://www.w3.org/2000/svg" xmlns:xlink="http://www.w3.org/1999/xlink" id="Capa_1" x="0px" y="0px" viewBox="0 0 1173.96 129.86" style="enable-background:new 0 0 1173.96 129.86;" xml:space="preserve"><style type="text/css">	.st0{fill:#FFFFFF;}	.st1{fill:none;stroke:#000000;stroke-width:5;}	.st2{fill:#FF0000;}</style><g>	<g>		<path class="st0" d="M111.09,18.38l29.2-2.8l-3.5,36.7l14.8-1.1l1.2-34.9l28.5-1.4l-8.1,77.2l-23.2,2.8l1.3-22l-10.5,1.5l-1,23   l-24.9,0.5L111.09,18.38z"></path>		<path class="st0" d="M185.79,15.08l22.9-1l-1.2,17.6l-21.8,1.6L185.79,15.08z M185.89,40.38l22.3-1.8l-1.1,57.7l-21.2,1.8V40.38z"></path>		<path class="st0" d="M219.24,78.58c1.83,0.33,3.82,0.5,5.95,0.5c0.93,0,1.92-0.02,2.95-0.05c1.03-0.03,1.97-0.13,2.8-0.3   c0.83-0.17,1.53-0.45,2.1-0.85c0.57-0.4,0.85-1,0.85-1.8c0-1-0.52-1.75-1.55-2.25c-1.04-0.5-2.3-0.98-3.8-1.45   c-1.5-0.47-3.15-1.02-4.95-1.65c-1.8-0.63-3.45-1.57-4.95-2.8c-1.5-1.23-2.77-2.88-3.8-4.95c-1.04-2.07-1.55-4.77-1.55-8.1   c0-2.2,0.43-4.37,1.3-6.5c0.87-2.13,2.27-4.07,4.2-5.8c1.93-1.73,4.43-3.13,7.5-4.2c3.07-1.07,6.77-1.6,11.1-1.6   c1.67,0,3.33,0.07,5,0.2c1.67,0.13,3.25,0.32,4.75,0.55c1.5,0.23,2.88,0.47,4.15,0.7c1.27,0.23,2.33,0.45,3.2,0.65v17.6   c-1.67-0.4-3.3-0.73-4.9-1c-1.6-0.27-3.33-0.4-5.2-0.4c-0.4,0-1.03,0.02-1.9,0.05c-0.87,0.03-1.73,0.13-2.6,0.3   c-0.87,0.17-1.63,0.45-2.3,0.85c-0.67,0.4-1,0.93-1,1.6c0,1.07,0.53,1.87,1.6,2.4c1.07,0.53,2.38,1.03,3.95,1.5   c1.57,0.47,3.28,1.03,5.15,1.7c1.87,0.67,3.58,1.62,5.15,2.85c1.57,1.23,2.88,2.88,3.95,4.95c1.07,2.07,1.6,4.77,1.6,8.1   c0,3.6-0.78,6.6-2.35,9c-1.57,2.4-3.63,4.32-6.2,5.75c-2.57,1.43-5.52,2.45-8.85,3.05c-3.33,0.6-6.8,0.9-10.4,0.9   c-2.8,0-5.55-0.17-8.25-0.5c-2.7-0.33-5.42-0.87-8.15-1.6v-18.7C215.59,77.81,217.4,78.25,219.24,78.58z"></path>		<path class="st0" d="M286.84,98.03c-0.97,0.03-2.02,0.05-3.15,0.05c-6.4,0-11.38-1.45-14.95-4.35c-3.57-2.9-5.35-7.62-5.35-14.15   v-23.7l-5.5,0.1l0.6-17.3h4.7v-6.6l21.7-9.8v16.4l8.1-1.2l-1.1,18.4h-6.8v17.5c0,2,0.28,3.33,0.85,4c0.57,0.67,1.85,1,3.85,1   c0.87,0,1.57-0.03,2.1-0.1c0.53-0.07,1.03-0.17,1.5-0.3l-3.5,19.8C288.82,97.91,287.8,97.99,286.84,98.03z"></path>		<path class="st0" d="M356.39,62.68c0.67,4.6,0.45,8.88-0.65,12.85c-1.1,3.97-2.87,7.47-5.3,10.5c-2.43,3.03-5.47,5.53-9.1,7.5   c-3.63,1.97-7.68,3.25-12.15,3.85c-4.47,0.6-8.73,0.47-12.8-0.4c-4.07-0.87-7.7-2.42-10.9-4.65c-3.2-2.23-5.87-5.1-8-8.6   c-2.13-3.5-3.5-7.55-4.1-12.15c-0.67-4.6-0.45-8.88,0.65-12.85c1.1-3.97,2.87-7.48,5.3-10.55c2.43-3.07,5.47-5.58,9.1-7.55   c3.63-1.97,7.68-3.25,12.15-3.85c4.47-0.6,8.72-0.47,12.75,0.4c4.03,0.87,7.65,2.42,10.85,4.65c3.2,2.23,5.87,5.12,8,8.65   C354.32,54.01,355.72,58.08,356.39,62.68z M314.39,71.18c1.13,2.6,2.93,4.3,5.4,5.1c2.47,0.8,5.27,0.53,8.4-0.8   c3.07-1.33,5.18-3.15,6.35-5.45c1.17-2.3,1.22-4.75,0.15-7.35c-1.13-2.53-2.93-4.22-5.4-5.05c-2.47-0.83-5.23-0.58-8.3,0.75   c-3.13,1.33-5.28,3.17-6.45,5.5C313.37,66.21,313.32,68.65,314.39,71.18z"></path>		<path class="st0" d="M378.79,37.28v11.1h0.2c1.73-7.4,6.73-11.1,15-11.1c1.8,0,3.5,0.1,5.1,0.3l-5.2,21.3   c-0.47-0.07-0.97-0.1-1.5-0.1c-0.47,0-1.13,0-2,0c-2.8,0-5.22,0.92-7.25,2.75c-2.03,1.83-3.05,4.72-3.05,8.65v25.7l-21,1.8   l-0.6-58.6L378.79,37.28z"></path>		<path class="st0" d="M401.49,15.08l22.9-1l-1.2,17.6l-21.8,1.6L401.49,15.08z M401.59,40.38l22.3-1.8l-1.1,57.7l-21.2,1.8V40.38z"></path>		<path class="st0" d="M462.99,90.28h-0.2c-1.8,2.53-4.08,4.3-6.85,5.3c-2.77,1-5.75,1.5-8.95,1.5c-2.67,0-5.2-0.48-7.6-1.45   c-2.4-0.97-4.5-2.35-6.3-4.15c-1.8-1.8-3.23-3.97-4.3-6.5c-1.07-2.53-1.6-5.37-1.6-8.5c0-2.73,0.53-5.25,1.6-7.55   c1.07-2.3,2.52-4.3,4.35-6c1.83-1.7,4-3.03,6.5-4c2.5-0.97,5.22-1.45,8.15-1.45c3.07,0,5.65,0.45,7.75,1.35s3.88,1.92,5.35,3.05   v-3c0-3.07-1-5.1-3-6.1s-4.6-1.5-7.8-1.5c-2.93,0-5.67,0.3-8.2,0.9c-2.53,0.6-5.1,1.3-7.7,2.1l3.9-15.9   c3.2-0.93,6.53-1.58,10-1.95c3.47-0.37,7-0.55,10.6-0.55c3.27,0,6.46,0.38,9.6,1.15c3.13,0.77,5.88,2.02,8.25,3.75   c2.37,1.73,4.25,3.97,5.65,6.7c1.4,2.73,2.07,6.1,2,10.1l-1.1,37.8l-20.1,1.7V90.28z M450.29,71.78c-2.27,0.33-4.13,1.12-5.6,2.35   c-1.47,1.23-2.1,2.62-1.9,4.15c0.27,1.53,1.22,2.68,2.85,3.45c1.63,0.77,3.75,0.95,6.35,0.55c2.6-0.4,4.53-1.23,5.8-2.5   c1.27-1.27,1.77-2.63,1.5-4.1c-0.2-1.27-1.05-2.35-2.55-3.25S453.08,71.31,450.29,71.78z"></path>		<path class="st0" d="M578.58,96.38l-19.6,1.3v-5.7h-0.2c-1.6,2.13-3.78,3.68-6.55,4.65c-2.77,0.97-5.55,1.45-8.35,1.45   c-3.4,0-6.68-0.68-9.85-2.05c-3.17-1.37-5.98-3.33-8.45-5.9c-2.47-2.57-4.43-5.72-5.9-9.45c-1.47-3.73-2.2-7.97-2.2-12.7   c0-4.27,0.62-8.28,1.85-12.05c1.23-3.77,3.02-7.07,5.35-9.9c2.33-2.83,5.22-5.07,8.65-6.7c3.43-1.63,7.35-2.45,11.75-2.45   c2.2,0,4.33,0.28,6.4,0.85c2.07,0.57,3.87,1.52,5.4,2.85l-0.9-23.8l23-1.8L578.58,96.38z M550.88,76.58   c1.47-0.53,2.7-1.25,3.7-2.15s1.78-1.9,2.35-3c0.57-1.1,0.88-2.25,0.95-3.45c0.07-1.2-0.1-2.37-0.5-3.5   c-0.4-1.07-1.02-2.03-1.85-2.9c-0.83-0.87-1.82-1.55-2.95-2.05c-1.13-0.5-2.38-0.78-3.75-0.85c-1.37-0.07-2.79,0.17-4.25,0.7   c-1.54,0.53-2.8,1.27-3.8,2.2c-1,0.93-1.78,1.95-2.35,3.05c-0.57,1.1-0.88,2.27-0.95,3.5c-0.07,1.23,0.1,2.38,0.5,3.45   c0.4,1.13,1.02,2.12,1.85,2.95c0.83,0.83,1.82,1.5,2.95,2c1.13,0.5,2.38,0.77,3.75,0.8C547.9,77.36,549.35,77.11,550.88,76.58z"></path>		<path class="st0" d="M641.78,89.68c-4.07,2.93-8.23,5.05-12.5,6.35c-4.27,1.3-9.17,1.95-14.7,1.95c-4.53,0-8.68-0.78-12.45-2.35   c-3.77-1.57-7.02-3.68-9.75-6.35c-2.73-2.67-4.87-5.78-6.4-9.35c-1.53-3.57-2.3-7.35-2.3-11.35c0-5,0.8-9.47,2.4-13.4   c1.6-3.93,3.77-7.27,6.5-10c2.73-2.73,5.92-4.82,9.55-6.25c3.63-1.43,7.52-2.15,11.65-2.15c6.67,0,12.45,1.7,17.35,5.1   c4.9,3.4,8.55,7.93,10.95,13.6l-29.9,22.5c0.73,0.4,1.7,0.67,2.9,0.8c1.2,0.13,2.3,0.2,3.3,0.2c3.07,0,5.65-0.55,7.75-1.65   c2.1-1.1,4.02-2.42,5.75-3.95L641.78,89.68z M620.38,56.88c-0.93-1.13-1.95-1.9-3.05-2.3s-2.35-0.6-3.75-0.6   c-1.33,0-2.55,0.28-3.65,0.85c-1.1,0.57-2.05,1.33-2.85,2.3c-0.8,0.97-1.42,2.05-1.85,3.25c-0.43,1.2-0.65,2.43-0.65,3.7   c0,1.2,0.08,2.05,0.25,2.55c0.17,0.5,0.38,1.02,0.65,1.55L620.38,56.88z"></path>		<path class="st0" d="M645.48,17.58l22.6-1.8l-0.9,80.5l-21,1.8L645.48,17.58z"></path>		<path class="st0" d="M725.78,37.28v6.8c2.13-2.33,4.35-4.05,6.65-5.15s5.05-1.65,8.25-1.65c4,0,7.65,0.88,10.95,2.65   c3.3,1.77,6.1,4.08,8.4,6.95c2.3,2.87,4.08,6.12,5.35,9.75c1.27,3.63,1.9,7.32,1.9,11.05c0,4-0.67,7.85-2,11.55   c-1.33,3.7-3.22,6.98-5.65,9.85c-2.43,2.87-5.35,5.17-8.75,6.9c-3.4,1.73-7.13,2.6-11.2,2.6c-2.07,0-4.28-0.3-6.65-0.9   c-2.37-0.6-4.48-1.8-6.35-3.6l0.6,19.9l-21.1,1.8l-1.1-76.7L725.78,37.28z M739.38,75.98c3-1.4,5.02-3.37,6.05-5.9   c1.03-2.53,1.02-4.9-0.05-7.1c-1.07-2.27-2.88-3.78-5.45-4.55c-2.57-0.77-5.35-0.45-8.35,0.95c-3.07,1.47-5.13,3.45-6.2,5.95   c-1.07,2.5-1.03,4.88,0.1,7.15c0.53,1.13,1.27,2.08,2.2,2.85c0.93,0.77,2.02,1.32,3.25,1.65c1.23,0.33,2.57,0.43,4,0.3   C736.36,77.15,737.85,76.71,739.38,75.98z"></path>		<path class="st0" d="M769.68,15.08l22.9-1l-1.2,17.6l-21.8,1.6L769.68,15.08z M769.78,40.38l22.3-1.8l-1.1,57.7l-21.2,1.8V40.38z"></path>		<path class="st0" d="M845.13,93.63c-1.9,0.97-3.85,1.75-5.85,2.35s-4.03,1.02-6.1,1.25c-2.07,0.23-4.07,0.35-6,0.35   c-4.53,0-8.72-0.77-12.55-2.3c-3.83-1.53-7.17-3.65-10-6.35c-2.83-2.7-5.05-5.87-6.65-9.5c-1.6-3.63-2.4-7.55-2.4-11.75   c0-4.87,0.83-9.25,2.5-13.15c1.67-3.9,3.98-7.2,6.95-9.9c2.97-2.7,6.48-4.77,10.55-6.2c4.07-1.43,8.47-2.15,13.2-2.15   c4.73,0,8.85,0.77,12.35,2.3c3.5,1.53,6.45,3.1,8.85,4.7l-13.2,17.3c-0.93-0.73-2.02-1.33-3.25-1.8c-1.23-0.47-2.48-0.8-3.75-1   c-1.27-0.2-2.48-0.27-3.65-0.2c-1.17,0.07-2.12,0.3-2.85,0.7c-1.27,0.67-2.35,1.45-3.25,2.35c-0.9,0.9-1.6,1.88-2.1,2.95   c-0.5,1.07-0.73,2.22-0.7,3.45c0.03,1.23,0.38,2.48,1.05,3.75c1.33,2.67,3.23,4.3,5.7,4.9c2.46,0.6,5.07,0.23,7.8-1.1l5.1-2.6   l13.6,18C848.81,91.45,847.03,92.66,845.13,93.63z"></path>		<path class="st0" d="M883.98,90.28h-0.2c-1.8,2.53-4.08,4.3-6.85,5.3c-2.77,1-5.75,1.5-8.95,1.5c-2.67,0-5.2-0.48-7.6-1.45   c-2.4-0.97-4.5-2.35-6.3-4.15c-1.8-1.8-3.23-3.97-4.3-6.5c-1.07-2.53-1.6-5.37-1.6-8.5c0-2.73,0.53-5.25,1.6-7.55   c1.07-2.3,2.52-4.3,4.35-6c1.83-1.7,4-3.03,6.5-4c2.5-0.97,5.22-1.45,8.15-1.45c3.07,0,5.65,0.45,7.75,1.35   c2.1,0.9,3.88,1.92,5.35,3.05v-3c0-3.07-1-5.1-3-6.1s-4.6-1.5-7.8-1.5c-2.93,0-5.67,0.3-8.2,0.9c-2.53,0.6-5.1,1.3-7.7,2.1   l3.9-15.9c3.2-0.93,6.53-1.58,10-1.95c3.47-0.37,7-0.55,10.6-0.55c3.27,0,6.47,0.38,9.6,1.15c3.13,0.77,5.88,2.02,8.25,3.75   c2.37,1.73,4.25,3.97,5.65,6.7c1.4,2.73,2.07,6.1,2,10.1l-1.1,37.8l-20.1,1.7V90.28z M871.28,71.78c-2.27,0.33-4.13,1.12-5.6,2.35   c-1.47,1.23-2.1,2.62-1.9,4.15c0.27,1.53,1.21,2.68,2.85,3.45c1.63,0.77,3.75,0.95,6.35,0.55c2.6-0.4,4.53-1.23,5.8-2.5   c1.27-1.27,1.77-2.63,1.5-4.1c-0.2-1.27-1.05-2.35-2.55-3.25S874.08,71.31,871.28,71.78z"></path>		<path class="st0" d="M932.98,45.68h0.4c2.2-3,4.45-5.03,6.75-6.1c2.3-1.07,4.82-1.6,7.55-1.6c2.8,0,5.27,0.5,7.4,1.5   c2.13,1,3.93,2.4,5.4,4.2c1.47,1.8,2.58,3.9,3.35,6.3c0.77,2.4,1.15,5,1.15,7.8v38.7l-21.6,1.8l0.3-36.4c0.07-1.2-0.38-2.2-1.35-3   c-0.97-0.8-2.12-1.2-3.45-1.2c-1.27,0-2.42,0.38-3.45,1.15c-1.03,0.77-1.55,1.82-1.55,3.15l0.4,36.1l-21.3-1.5l-0.8-56.9l20.8-1.7   V45.68z"></path>		<path class="st0" d="M998.33,98.03c-0.97,0.03-2.02,0.05-3.15,0.05c-6.4,0-11.38-1.45-14.95-4.35c-3.57-2.9-5.35-7.62-5.35-14.15   v-23.7l-5.5,0.1l0.6-17.3h4.7v-6.6l21.7-9.8v16.4l8.1-1.2l-1.1,18.4h-6.8v17.5c0,2,0.28,3.33,0.85,4c0.57,0.67,1.85,1,3.85,1   c0.87,0,1.57-0.03,2.1-0.1c0.53-0.07,1.03-0.17,1.5-0.3l-3.5,19.8C1000.31,97.91,999.29,97.99,998.33,98.03z"></path>		<path class="st0" d="M1062.58,89.68c-4.07,2.93-8.23,5.05-12.5,6.35c-4.27,1.3-9.17,1.95-14.7,1.95c-4.53,0-8.68-0.78-12.45-2.35   c-3.77-1.57-7.02-3.68-9.75-6.35c-2.73-2.67-4.87-5.78-6.4-9.35c-1.53-3.57-2.3-7.35-2.3-11.35c0-5,0.8-9.47,2.4-13.4   c1.6-3.93,3.77-7.27,6.5-10c2.73-2.73,5.92-4.82,9.55-6.25c3.63-1.43,7.52-2.15,11.65-2.15c6.67,0,12.45,1.7,17.35,5.1   c4.9,3.4,8.55,7.93,10.95,13.6l-29.9,22.5c0.73,0.4,1.7,0.67,2.9,0.8c1.2,0.13,2.3,0.2,3.3,0.2c3.07,0,5.65-0.55,7.75-1.65   c2.1-1.1,4.02-2.42,5.75-3.95L1062.58,89.68z M1041.18,56.88c-0.93-1.13-1.95-1.9-3.05-2.3c-1.1-0.4-2.35-0.6-3.75-0.6   c-1.33,0-2.55,0.28-3.65,0.85c-1.1,0.57-2.05,1.33-2.85,2.3c-0.8,0.97-1.42,2.05-1.85,3.25c-0.43,1.2-0.65,2.43-0.65,3.7   c0,1.2,0.08,2.05,0.25,2.55c0.17,0.5,0.38,1.02,0.65,1.55L1041.18,56.88z"></path>	</g>	<g>		<path class="st1" d="M111.09,18.38l29.2-2.8l-3.5,36.7l14.8-1.1l1.2-34.9l28.5-1.4l-8.1,77.2l-23.2,2.8l1.3-22l-10.5,1.5l-1,23   l-24.9,0.5L111.09,18.38z"></path>		<path class="st1" d="M185.79,15.08l22.9-1l-1.2,17.6l-21.8,1.6L185.79,15.08z M185.89,40.38l22.3-1.8l-1.1,57.7l-21.2,1.8V40.38z"></path>		<path class="st1" d="M219.24,78.58c1.83,0.33,3.82,0.5,5.95,0.5c0.93,0,1.92-0.02,2.95-0.05c1.03-0.03,1.97-0.13,2.8-0.3   c0.83-0.17,1.53-0.45,2.1-0.85c0.57-0.4,0.85-1,0.85-1.8c0-1-0.52-1.75-1.55-2.25c-1.04-0.5-2.3-0.98-3.8-1.45   c-1.5-0.47-3.15-1.02-4.95-1.65c-1.8-0.63-3.45-1.57-4.95-2.8c-1.5-1.23-2.77-2.88-3.8-4.95c-1.04-2.07-1.55-4.77-1.55-8.1   c0-2.2,0.43-4.37,1.3-6.5c0.87-2.13,2.27-4.07,4.2-5.8c1.93-1.73,4.43-3.13,7.5-4.2c3.07-1.07,6.77-1.6,11.1-1.6   c1.67,0,3.33,0.07,5,0.2c1.67,0.13,3.25,0.32,4.75,0.55c1.5,0.23,2.88,0.47,4.15,0.7c1.27,0.23,2.33,0.45,3.2,0.65v17.6   c-1.67-0.4-3.3-0.73-4.9-1c-1.6-0.27-3.33-0.4-5.2-0.4c-0.4,0-1.03,0.02-1.9,0.05c-0.87,0.03-1.73,0.13-2.6,0.3   c-0.87,0.17-1.63,0.45-2.3,0.85c-0.67,0.4-1,0.93-1,1.6c0,1.07,0.53,1.87,1.6,2.4c1.07,0.53,2.38,1.03,3.95,1.5   c1.57,0.47,3.28,1.03,5.15,1.7c1.87,0.67,3.58,1.62,5.15,2.85c1.57,1.23,2.88,2.88,3.95,4.95c1.07,2.07,1.6,4.77,1.6,8.1   c0,3.6-0.78,6.6-2.35,9c-1.57,2.4-3.63,4.32-6.2,5.75c-2.57,1.43-5.52,2.45-8.85,3.05c-3.33,0.6-6.8,0.9-10.4,0.9   c-2.8,0-5.55-0.17-8.25-0.5c-2.7-0.33-5.42-0.87-8.15-1.6v-18.7C215.59,77.81,217.4,78.25,219.24,78.58z"></path>		<path class="st1" d="M286.84,98.03c-0.97,0.03-2.02,0.05-3.15,0.05c-6.4,0-11.38-1.45-14.95-4.35c-3.57-2.9-5.35-7.62-5.35-14.15   v-23.7l-5.5,0.1l0.6-17.3h4.7v-6.6l21.7-9.8v16.4l8.1-1.2l-1.1,18.4h-6.8v17.5c0,2,0.28,3.33,0.85,4c0.57,0.67,1.85,1,3.85,1   c0.87,0,1.57-0.03,2.1-0.1c0.53-0.07,1.03-0.17,1.5-0.3l-3.5,19.8C288.82,97.91,287.8,97.99,286.84,98.03z"></path>		<path class="st1" d="M356.39,62.68c0.67,4.6,0.45,8.88-0.65,12.85c-1.1,3.97-2.87,7.47-5.3,10.5c-2.43,3.03-5.47,5.53-9.1,7.5   c-3.63,1.97-7.68,3.25-12.15,3.85c-4.47,0.6-8.73,0.47-12.8-0.4c-4.07-0.87-7.7-2.42-10.9-4.65c-3.2-2.23-5.87-5.1-8-8.6   c-2.13-3.5-3.5-7.55-4.1-12.15c-0.67-4.6-0.45-8.88,0.65-12.85c1.1-3.97,2.87-7.48,5.3-10.55c2.43-3.07,5.47-5.58,9.1-7.55   c3.63-1.97,7.68-3.25,12.15-3.85c4.47-0.6,8.72-0.47,12.75,0.4c4.03,0.87,7.65,2.42,10.85,4.65c3.2,2.23,5.87,5.12,8,8.65   C354.32,54.01,355.72,58.08,356.39,62.68z M314.39,71.18c1.13,2.6,2.93,4.3,5.4,5.1c2.47,0.8,5.27,0.53,8.4-0.8   c3.07-1.33,5.18-3.15,6.35-5.45c1.17-2.3,1.22-4.75,0.15-7.35c-1.13-2.53-2.93-4.22-5.4-5.05c-2.47-0.83-5.23-0.58-8.3,0.75   c-3.13,1.33-5.28,3.17-6.45,5.5C313.37,66.21,313.32,68.65,314.39,71.18z"></path>		<path class="st1" d="M378.79,37.28v11.1h0.2c1.73-7.4,6.73-11.1,15-11.1c1.8,0,3.5,0.1,5.1,0.3l-5.2,21.3   c-0.47-0.07-0.97-0.1-1.5-0.1c-0.47,0-1.13,0-2,0c-2.8,0-5.22,0.92-7.25,2.75c-2.03,1.83-3.05,4.72-3.05,8.65v25.7l-21,1.8   l-0.6-58.6L378.79,37.28z"></path>		<path class="st1" d="M401.49,15.08l22.9-1l-1.2,17.6l-21.8,1.6L401.49,15.08z M401.59,40.38l22.3-1.8l-1.1,57.7l-21.2,1.8V40.38z"></path>		<path class="st1" d="M462.99,90.28h-0.2c-1.8,2.53-4.08,4.3-6.85,5.3c-2.77,1-5.75,1.5-8.95,1.5c-2.67,0-5.2-0.48-7.6-1.45   c-2.4-0.97-4.5-2.35-6.3-4.15c-1.8-1.8-3.23-3.97-4.3-6.5c-1.07-2.53-1.6-5.37-1.6-8.5c0-2.73,0.53-5.25,1.6-7.55   c1.07-2.3,2.52-4.3,4.35-6c1.83-1.7,4-3.03,6.5-4c2.5-0.97,5.22-1.45,8.15-1.45c3.07,0,5.65,0.45,7.75,1.35s3.88,1.92,5.35,3.05   v-3c0-3.07-1-5.1-3-6.1s-4.6-1.5-7.8-1.5c-2.93,0-5.67,0.3-8.2,0.9c-2.53,0.6-5.1,1.3-7.7,2.1l3.9-15.9   c3.2-0.93,6.53-1.58,10-1.95c3.47-0.37,7-0.55,10.6-0.55c3.27,0,6.46,0.38,9.6,1.15c3.13,0.77,5.88,2.02,8.25,3.75   c2.37,1.73,4.25,3.97,5.65,6.7c1.4,2.73,2.07,6.1,2,10.1l-1.1,37.8l-20.1,1.7V90.28z M450.29,71.78c-2.27,0.33-4.13,1.12-5.6,2.35   c-1.47,1.23-2.1,2.62-1.9,4.15c0.27,1.53,1.22,2.68,2.85,3.45c1.63,0.77,3.75,0.95,6.35,0.55c2.6-0.4,4.53-1.23,5.8-2.5   c1.27-1.27,1.77-2.63,1.5-4.1c-0.2-1.27-1.05-2.35-2.55-3.25S453.08,71.31,450.29,71.78z"></path>		<path class="st1" d="M578.58,96.38l-19.6,1.3v-5.7h-0.2c-1.6,2.13-3.78,3.68-6.55,4.65c-2.77,0.97-5.55,1.45-8.35,1.45   c-3.4,0-6.68-0.68-9.85-2.05c-3.17-1.37-5.98-3.33-8.45-5.9c-2.47-2.57-4.43-5.72-5.9-9.45c-1.47-3.73-2.2-7.97-2.2-12.7   c0-4.27,0.62-8.28,1.85-12.05c1.23-3.77,3.02-7.07,5.35-9.9c2.33-2.83,5.22-5.07,8.65-6.7c3.43-1.63,7.35-2.45,11.75-2.45   c2.2,0,4.33,0.28,6.4,0.85c2.07,0.57,3.87,1.52,5.4,2.85l-0.9-23.8l23-1.8L578.58,96.38z M550.88,76.58   c1.47-0.53,2.7-1.25,3.7-2.15s1.78-1.9,2.35-3c0.57-1.1,0.88-2.25,0.95-3.45c0.07-1.2-0.1-2.37-0.5-3.5   c-0.4-1.07-1.02-2.03-1.85-2.9c-0.83-0.87-1.82-1.55-2.95-2.05c-1.13-0.5-2.38-0.78-3.75-0.85c-1.37-0.07-2.79,0.17-4.25,0.7   c-1.54,0.53-2.8,1.27-3.8,2.2c-1,0.93-1.78,1.95-2.35,3.05c-0.57,1.1-0.88,2.27-0.95,3.5c-0.07,1.23,0.1,2.38,0.5,3.45   c0.4,1.13,1.02,2.12,1.85,2.95c0.83,0.83,1.82,1.5,2.95,2c1.13,0.5,2.38,0.77,3.75,0.8C547.9,77.36,549.35,77.11,550.88,76.58z"></path>		<path class="st1" d="M641.78,89.68c-4.07,2.93-8.23,5.05-12.5,6.35c-4.27,1.3-9.17,1.95-14.7,1.95c-4.53,0-8.68-0.78-12.45-2.35   c-3.77-1.57-7.02-3.68-9.75-6.35c-2.73-2.67-4.87-5.78-6.4-9.35c-1.53-3.57-2.3-7.35-2.3-11.35c0-5,0.8-9.47,2.4-13.4   c1.6-3.93,3.77-7.27,6.5-10c2.73-2.73,5.92-4.82,9.55-6.25c3.63-1.43,7.52-2.15,11.65-2.15c6.67,0,12.45,1.7,17.35,5.1   c4.9,3.4,8.55,7.93,10.95,13.6l-29.9,22.5c0.73,0.4,1.7,0.67,2.9,0.8c1.2,0.13,2.3,0.2,3.3,0.2c3.07,0,5.65-0.55,7.75-1.65   c2.1-1.1,4.02-2.42,5.75-3.95L641.78,89.68z M620.38,56.88c-0.93-1.13-1.95-1.9-3.05-2.3s-2.35-0.6-3.75-0.6   c-1.33,0-2.55,0.28-3.65,0.85c-1.1,0.57-2.05,1.33-2.85,2.3c-0.8,0.97-1.42,2.05-1.85,3.25c-0.43,1.2-0.65,2.43-0.65,3.7   c0,1.2,0.08,2.05,0.25,2.55c0.17,0.5,0.38,1.02,0.65,1.55L620.38,56.88z"></path>		<path class="st1" d="M645.48,17.58l22.6-1.8l-0.9,80.5l-21,1.8L645.48,17.58z"></path>		<path class="st1" d="M725.78,37.28v6.8c2.13-2.33,4.35-4.05,6.65-5.15s5.05-1.65,8.25-1.65c4,0,7.65,0.88,10.95,2.65   c3.3,1.77,6.1,4.08,8.4,6.95c2.3,2.87,4.08,6.12,5.35,9.75c1.27,3.63,1.9,7.32,1.9,11.05c0,4-0.67,7.85-2,11.55   c-1.33,3.7-3.22,6.98-5.65,9.85c-2.43,2.87-5.35,5.17-8.75,6.9c-3.4,1.73-7.13,2.6-11.2,2.6c-2.07,0-4.28-0.3-6.65-0.9   c-2.37-0.6-4.48-1.8-6.35-3.6l0.6,19.9l-21.1,1.8l-1.1-76.7L725.78,37.28z M739.38,75.98c3-1.4,5.02-3.37,6.05-5.9   c1.03-2.53,1.02-4.9-0.05-7.1c-1.07-2.27-2.88-3.78-5.45-4.55c-2.57-0.77-5.35-0.45-8.35,0.95c-3.07,1.47-5.13,3.45-6.2,5.95   c-1.07,2.5-1.03,4.88,0.1,7.15c0.53,1.13,1.27,2.08,2.2,2.85c0.93,0.77,2.02,1.32,3.25,1.65c1.23,0.33,2.57,0.43,4,0.3   C736.36,77.15,737.85,76.71,739.38,75.98z"></path>		<path class="st1" d="M769.68,15.08l22.9-1l-1.2,17.6l-21.8,1.6L769.68,15.08z M769.78,40.38l22.3-1.8l-1.1,57.7l-21.2,1.8V40.38z"></path>		<path class="st1" d="M845.13,93.63c-1.9,0.97-3.85,1.75-5.85,2.35s-4.03,1.02-6.1,1.25c-2.07,0.23-4.07,0.35-6,0.35   c-4.53,0-8.72-0.77-12.55-2.3c-3.83-1.53-7.17-3.65-10-6.35c-2.83-2.7-5.05-5.87-6.65-9.5c-1.6-3.63-2.4-7.55-2.4-11.75   c0-4.87,0.83-9.25,2.5-13.15c1.67-3.9,3.98-7.2,6.95-9.9c2.97-2.7,6.48-4.77,10.55-6.2c4.07-1.43,8.47-2.15,13.2-2.15   c4.73,0,8.85,0.77,12.35,2.3c3.5,1.53,6.45,3.1,8.85,4.7l-13.2,17.3c-0.93-0.73-2.02-1.33-3.25-1.8c-1.23-0.47-2.48-0.8-3.75-1   c-1.27-0.2-2.48-0.27-3.65-0.2c-1.17,0.07-2.12,0.3-2.85,0.7c-1.27,0.67-2.35,1.45-3.25,2.35c-0.9,0.9-1.6,1.88-2.1,2.95   c-0.5,1.07-0.73,2.22-0.7,3.45c0.03,1.23,0.38,2.48,1.05,3.75c1.33,2.67,3.23,4.3,5.7,4.9c2.46,0.6,5.07,0.23,7.8-1.1l5.1-2.6   l13.6,18C848.81,91.45,847.03,92.66,845.13,93.63z"></path>		<path class="st1" d="M883.98,90.28h-0.2c-1.8,2.53-4.08,4.3-6.85,5.3c-2.77,1-5.75,1.5-8.95,1.5c-2.67,0-5.2-0.48-7.6-1.45   c-2.4-0.97-4.5-2.35-6.3-4.15c-1.8-1.8-3.23-3.97-4.3-6.5c-1.07-2.53-1.6-5.37-1.6-8.5c0-2.73,0.53-5.25,1.6-7.55   c1.07-2.3,2.52-4.3,4.35-6c1.83-1.7,4-3.03,6.5-4c2.5-0.97,5.22-1.45,8.15-1.45c3.07,0,5.65,0.45,7.75,1.35   c2.1,0.9,3.88,1.92,5.35,3.05v-3c0-3.07-1-5.1-3-6.1s-4.6-1.5-7.8-1.5c-2.93,0-5.67,0.3-8.2,0.9c-2.53,0.6-5.1,1.3-7.7,2.1   l3.9-15.9c3.2-0.93,6.53-1.58,10-1.95c3.47-0.37,7-0.55,10.6-0.55c3.27,0,6.47,0.38,9.6,1.15c3.13,0.77,5.88,2.02,8.25,3.75   c2.37,1.73,4.25,3.97,5.65,6.7c1.4,2.73,2.07,6.1,2,10.1l-1.1,37.8l-20.1,1.7V90.28z M871.28,71.78c-2.27,0.33-4.13,1.12-5.6,2.35   c-1.47,1.23-2.1,2.62-1.9,4.15c0.27,1.53,1.21,2.68,2.85,3.45c1.63,0.77,3.75,0.95,6.35,0.55c2.6-0.4,4.53-1.23,5.8-2.5   c1.27-1.27,1.77-2.63,1.5-4.1c-0.2-1.27-1.05-2.35-2.55-3.25S874.08,71.31,871.28,71.78z"></path>		<path class="st1" d="M932.98,45.68h0.4c2.2-3,4.45-5.03,6.75-6.1c2.3-1.07,4.82-1.6,7.55-1.6c2.8,0,5.27,0.5,7.4,1.5   c2.13,1,3.93,2.4,5.4,4.2c1.47,1.8,2.58,3.9,3.35,6.3c0.77,2.4,1.15,5,1.15,7.8v38.7l-21.6,1.8l0.3-36.4c0.07-1.2-0.38-2.2-1.35-3   c-0.97-0.8-2.12-1.2-3.45-1.2c-1.27,0-2.42,0.38-3.45,1.15c-1.03,0.77-1.55,1.82-1.55,3.15l0.4,36.1l-21.3-1.5l-0.8-56.9l20.8-1.7   V45.68z"></path>		<path class="st1" d="M998.33,98.03c-0.97,0.03-2.02,0.05-3.15,0.05c-6.4,0-11.38-1.45-14.95-4.35c-3.57-2.9-5.35-7.62-5.35-14.15   v-23.7l-5.5,0.1l0.6-17.3h4.7v-6.6l21.7-9.8v16.4l8.1-1.2l-1.1,18.4h-6.8v17.5c0,2,0.28,3.33,0.85,4c0.57,0.67,1.85,1,3.85,1   c0.87,0,1.57-0.03,2.1-0.1c0.53-0.07,1.03-0.17,1.5-0.3l-3.5,19.8C1000.31,97.91,999.29,97.99,998.33,98.03z"></path>		<path class="st1" d="M1062.58,89.68c-4.07,2.93-8.23,5.05-12.5,6.35c-4.27,1.3-9.17,1.95-14.7,1.95c-4.53,0-8.68-0.78-12.45-2.35   c-3.77-1.57-7.02-3.68-9.75-6.35c-2.73-2.67-4.87-5.78-6.4-9.35c-1.53-3.57-2.3-7.35-2.3-11.35c0-5,0.8-9.47,2.4-13.4   c1.6-3.93,3.77-7.27,6.5-10c2.73-2.73,5.92-4.82,9.55-6.25c3.63-1.43,7.52-2.15,11.65-2.15c6.67,0,12.45,1.7,17.35,5.1   c4.9,3.4,8.55,7.93,10.95,13.6l-29.9,22.5c0.73,0.4,1.7,0.67,2.9,0.8c1.2,0.13,2.3,0.2,3.3,0.2c3.07,0,5.65-0.55,7.75-1.65   c2.1-1.1,4.02-2.42,5.75-3.95L1062.58,89.68z M1041.18,56.88c-0.93-1.13-1.95-1.9-3.05-2.3c-1.1-0.4-2.35-0.6-3.75-0.6   c-1.33,0-2.55,0.28-3.65,0.85c-1.1,0.57-2.05,1.33-2.85,2.3c-0.8,0.97-1.42,2.05-1.85,3.25c-0.43,1.2-0.65,2.43-0.65,3.7   c0,1.2,0.08,2.05,0.25,2.55c0.17,0.5,0.38,1.02,0.65,1.55L1041.18,56.88z"></path>	</g>	<g>		<path class="st2" d="M111.09,18.38l29.2-2.8l-3.5,36.7l14.8-1.1l1.2-34.9l28.5-1.4l-8.1,77.2l-23.2,2.8l1.3-22l-10.5,1.5l-1,23   l-24.9,0.5L111.09,18.38z"></path>		<path class="st2" d="M185.79,15.08l22.9-1l-1.2,17.6l-21.8,1.6L185.79,15.08z M185.89,40.38l22.3-1.8l-1.1,57.7l-21.2,1.8V40.38z"></path>		<path class="st2" d="M219.24,78.58c1.83,0.33,3.82,0.5,5.95,0.5c0.93,0,1.92-0.02,2.95-0.05c1.03-0.03,1.97-0.13,2.8-0.3   c0.83-0.17,1.53-0.45,2.1-0.85c0.57-0.4,0.85-1,0.85-1.8c0-1-0.52-1.75-1.55-2.25c-1.04-0.5-2.3-0.98-3.8-1.45   c-1.5-0.47-3.15-1.02-4.95-1.65c-1.8-0.63-3.45-1.57-4.95-2.8c-1.5-1.23-2.77-2.88-3.8-4.95c-1.04-2.07-1.55-4.77-1.55-8.1   c0-2.2,0.43-4.37,1.3-6.5c0.87-2.13,2.27-4.07,4.2-5.8c1.93-1.73,4.43-3.13,7.5-4.2c3.07-1.07,6.77-1.6,11.1-1.6   c1.67,0,3.33,0.07,5,0.2c1.67,0.13,3.25,0.32,4.75,0.55c1.5,0.23,2.88,0.47,4.15,0.7c1.27,0.23,2.33,0.45,3.2,0.65v17.6   c-1.67-0.4-3.3-0.73-4.9-1c-1.6-0.27-3.33-0.4-5.2-0.4c-0.4,0-1.03,0.02-1.9,0.05c-0.87,0.03-1.73,0.13-2.6,0.3   c-0.87,0.17-1.63,0.45-2.3,0.85c-0.67,0.4-1,0.93-1,1.6c0,1.07,0.53,1.87,1.6,2.4c1.07,0.53,2.38,1.03,3.95,1.5   c1.57,0.47,3.28,1.03,5.15,1.7c1.87,0.67,3.58,1.62,5.15,2.85c1.57,1.23,2.88,2.88,3.95,4.95c1.07,2.07,1.6,4.77,1.6,8.1   c0,3.6-0.78,6.6-2.35,9c-1.57,2.4-3.63,4.32-6.2,5.75c-2.57,1.43-5.52,2.45-8.85,3.05c-3.33,0.6-6.8,0.9-10.4,0.9   c-2.8,0-5.55-0.17-8.25-0.5c-2.7-0.33-5.42-0.87-8.15-1.6v-18.7C215.59,77.81,217.4,78.25,219.24,78.58z"></path>		<path class="st2" d="M286.84,98.03c-0.97,0.03-2.02,0.05-3.15,0.05c-6.4,0-11.38-1.45-14.95-4.35c-3.57-2.9-5.35-7.62-5.35-14.15   v-23.7l-5.5,0.1l0.6-17.3h4.7v-6.6l21.7-9.8v16.4l8.1-1.2l-1.1,18.4h-6.8v17.5c0,2,0.28,3.33,0.85,4c0.57,0.67,1.85,1,3.85,1   c0.87,0,1.57-0.03,2.1-0.1c0.53-0.07,1.03-0.17,1.5-0.3l-3.5,19.8C288.82,97.91,287.8,97.99,286.84,98.03z"></path>		<path class="st2" d="M356.39,62.68c0.67,4.6,0.45,8.88-0.65,12.85c-1.1,3.97-2.87,7.47-5.3,10.5c-2.43,3.03-5.47,5.53-9.1,7.5   c-3.63,1.97-7.68,3.25-12.15,3.85c-4.47,0.6-8.73,0.47-12.8-0.4c-4.07-0.87-7.7-2.42-10.9-4.65c-3.2-2.23-5.87-5.1-8-8.6   c-2.13-3.5-3.5-7.55-4.1-12.15c-0.67-4.6-0.45-8.88,0.65-12.85c1.1-3.97,2.87-7.48,5.3-10.55c2.43-3.07,5.47-5.58,9.1-7.55   c3.63-1.97,7.68-3.25,12.15-3.85c4.47-0.6,8.72-0.47,12.75,0.4c4.03,0.87,7.65,2.42,10.85,4.65c3.2,2.23,5.87,5.12,8,8.65   C354.32,54.01,355.72,58.08,356.39,62.68z M314.39,71.18c1.13,2.6,2.93,4.3,5.4,5.1c2.47,0.8,5.27,0.53,8.4-0.8   c3.07-1.33,5.18-3.15,6.35-5.45c1.17-2.3,1.22-4.75,0.15-7.35c-1.13-2.53-2.93-4.22-5.4-5.05c-2.47-0.83-5.23-0.58-8.3,0.75   c-3.13,1.33-5.28,3.17-6.45,5.5C313.37,66.21,313.32,68.65,314.39,71.18z"></path>		<path class="st2" d="M378.79,37.28v11.1h0.2c1.73-7.4,6.73-11.1,15-11.1c1.8,0,3.5,0.1,5.1,0.3l-5.2,21.3   c-0.47-0.07-0.97-0.1-1.5-0.1c-0.47,0-1.13,0-2,0c-2.8,0-5.22,0.92-7.25,2.75c-2.03,1.83-3.05,4.72-3.05,8.65v25.7l-21,1.8   l-0.6-58.6L378.79,37.28z"></path>		<path class="st2" d="M401.49,15.08l22.9-1l-1.2,17.6l-21.8,1.6L401.49,15.08z M401.59,40.38l22.3-1.8l-1.1,57.7l-21.2,1.8V40.38z"></path>		<path class="st2" d="M462.99,90.28h-0.2c-1.8,2.53-4.08,4.3-6.85,5.3c-2.77,1-5.75,1.5-8.95,1.5c-2.67,0-5.2-0.48-7.6-1.45   c-2.4-0.97-4.5-2.35-6.3-4.15c-1.8-1.8-3.23-3.97-4.3-6.5c-1.07-2.53-1.6-5.37-1.6-8.5c0-2.73,0.53-5.25,1.6-7.55   c1.07-2.3,2.52-4.3,4.35-6c1.83-1.7,4-3.03,6.5-4c2.5-0.97,5.22-1.45,8.15-1.45c3.07,0,5.65,0.45,7.75,1.35s3.88,1.92,5.35,3.05   v-3c0-3.07-1-5.1-3-6.1s-4.6-1.5-7.8-1.5c-2.93,0-5.67,0.3-8.2,0.9c-2.53,0.6-5.1,1.3-7.7,2.1l3.9-15.9   c3.2-0.93,6.53-1.58,10-1.95c3.47-0.37,7-0.55,10.6-0.55c3.27,0,6.46,0.38,9.6,1.15c3.13,0.77,5.88,2.02,8.25,3.75   c2.37,1.73,4.25,3.97,5.65,6.7c1.4,2.73,2.07,6.1,2,10.1l-1.1,37.8l-20.1,1.7V90.28z M450.29,71.78c-2.27,0.33-4.13,1.12-5.6,2.35   c-1.47,1.23-2.1,2.62-1.9,4.15c0.27,1.53,1.22,2.68,2.85,3.45c1.63,0.77,3.75,0.95,6.35,0.55c2.6-0.4,4.53-1.23,5.8-2.5   c1.27-1.27,1.77-2.63,1.5-4.1c-0.2-1.27-1.05-2.35-2.55-3.25S453.08,71.31,450.29,71.78z"></path>		<path class="st2" d="M578.58,96.38l-19.6,1.3v-5.7h-0.2c-1.6,2.13-3.78,3.68-6.55,4.65c-2.77,0.97-5.55,1.45-8.35,1.45   c-3.4,0-6.68-0.68-9.85-2.05c-3.17-1.37-5.98-3.33-8.45-5.9c-2.47-2.57-4.43-5.72-5.9-9.45c-1.47-3.73-2.2-7.97-2.2-12.7   c0-4.27,0.62-8.28,1.85-12.05c1.23-3.77,3.02-7.07,5.35-9.9c2.33-2.83,5.22-5.07,8.65-6.7c3.43-1.63,7.35-2.45,11.75-2.45   c2.2,0,4.33,0.28,6.4,0.85c2.07,0.57,3.87,1.52,5.4,2.85l-0.9-23.8l23-1.8L578.58,96.38z M550.88,76.58   c1.47-0.53,2.7-1.25,3.7-2.15s1.78-1.9,2.35-3c0.57-1.1,0.88-2.25,0.95-3.45c0.07-1.2-0.1-2.37-0.5-3.5   c-0.4-1.07-1.02-2.03-1.85-2.9c-0.83-0.87-1.82-1.55-2.95-2.05c-1.13-0.5-2.38-0.78-3.75-0.85c-1.37-0.07-2.79,0.17-4.25,0.7   c-1.54,0.53-2.8,1.27-3.8,2.2c-1,0.93-1.78,1.95-2.35,3.05c-0.57,1.1-0.88,2.27-0.95,3.5c-0.07,1.23,0.1,2.38,0.5,3.45   c0.4,1.13,1.02,2.12,1.85,2.95c0.83,0.83,1.82,1.5,2.95,2c1.13,0.5,2.38,0.77,3.75,0.8C547.9,77.36,549.35,77.11,550.88,76.58z"></path>		<path class="st2" d="M641.78,89.68c-4.07,2.93-8.23,5.05-12.5,6.35c-4.27,1.3-9.17,1.95-14.7,1.95c-4.53,0-8.68-0.78-12.45-2.35   c-3.77-1.57-7.02-3.68-9.75-6.35c-2.73-2.67-4.87-5.78-6.4-9.35c-1.53-3.57-2.3-7.35-2.3-11.35c0-5,0.8-9.47,2.4-13.4   c1.6-3.93,3.77-7.27,6.5-10c2.73-2.73,5.92-4.82,9.55-6.25c3.63-1.43,7.52-2.15,11.65-2.15c6.67,0,12.45,1.7,17.35,5.1   c4.9,3.4,8.55,7.93,10.95,13.6l-29.9,22.5c0.73,0.4,1.7,0.67,2.9,0.8c1.2,0.13,2.3,0.2,3.3,0.2c3.07,0,5.65-0.55,7.75-1.65   c2.1-1.1,4.02-2.42,5.75-3.95L641.78,89.68z M620.38,56.88c-0.93-1.13-1.95-1.9-3.05-2.3s-2.35-0.6-3.75-0.6   c-1.33,0-2.55,0.28-3.65,0.85c-1.1,0.57-2.05,1.33-2.85,2.3c-0.8,0.97-1.42,2.05-1.85,3.25c-0.43,1.2-0.65,2.43-0.65,3.7   c0,1.2,0.08,2.05,0.25,2.55c0.17,0.5,0.38,1.02,0.65,1.55L620.38,56.88z"></path>		<path class="st2" d="M645.48,17.58l22.6-1.8l-0.9,80.5l-21,1.8L645.48,17.58z"></path>		<path class="st2" d="M725.78,37.28v6.8c2.13-2.33,4.35-4.05,6.65-5.15s5.05-1.65,8.25-1.65c4,0,7.65,0.88,10.95,2.65   c3.3,1.77,6.1,4.08,8.4,6.95c2.3,2.87,4.08,6.12,5.35,9.75c1.27,3.63,1.9,7.32,1.9,11.05c0,4-0.67,7.85-2,11.55   c-1.33,3.7-3.22,6.98-5.65,9.85c-2.43,2.87-5.35,5.17-8.75,6.9c-3.4,1.73-7.13,2.6-11.2,2.6c-2.07,0-4.28-0.3-6.65-0.9   c-2.37-0.6-4.48-1.8-6.35-3.6l0.6,19.9l-21.1,1.8l-1.1-76.7L725.78,37.28z M739.38,75.98c3-1.4,5.02-3.37,6.05-5.9   c1.03-2.53,1.02-4.9-0.05-7.1c-1.07-2.27-2.88-3.78-5.45-4.55c-2.57-0.77-5.35-0.45-8.35,0.95c-3.07,1.47-5.13,3.45-6.2,5.95   c-1.07,2.5-1.03,4.88,0.1,7.15c0.53,1.13,1.27,2.08,2.2,2.85c0.93,0.77,2.02,1.32,3.25,1.65c1.23,0.33,2.57,0.43,4,0.3   C736.36,77.15,737.85,76.71,739.38,75.98z"></path>		<path class="st2" d="M769.68,15.08l22.9-1l-1.2,17.6l-21.8,1.6L769.68,15.08z M769.78,40.38l22.3-1.8l-1.1,57.7l-21.2,1.8V40.38z"></path>		<path class="st2" d="M845.13,93.63c-1.9,0.97-3.85,1.75-5.85,2.35s-4.03,1.02-6.1,1.25c-2.07,0.23-4.07,0.35-6,0.35   c-4.53,0-8.72-0.77-12.55-2.3c-3.83-1.53-7.17-3.65-10-6.35c-2.83-2.7-5.05-5.87-6.65-9.5c-1.6-3.63-2.4-7.55-2.4-11.75   c0-4.87,0.83-9.25,2.5-13.15c1.67-3.9,3.98-7.2,6.95-9.9c2.97-2.7,6.48-4.77,10.55-6.2c4.07-1.43,8.47-2.15,13.2-2.15   c4.73,0,8.85,0.77,12.35,2.3c3.5,1.53,6.45,3.1,8.85,4.7l-13.2,17.3c-0.93-0.73-2.02-1.33-3.25-1.8c-1.23-0.47-2.48-0.8-3.75-1   c-1.27-0.2-2.48-0.27-3.65-0.2c-1.17,0.07-2.12,0.3-2.85,0.7c-1.27,0.67-2.35,1.45-3.25,2.35c-0.9,0.9-1.6,1.88-2.1,2.95   c-0.5,1.07-0.73,2.22-0.7,3.45c0.03,1.23,0.38,2.48,1.05,3.75c1.33,2.67,3.23,4.3,5.7,4.9c2.46,0.6,5.07,0.23,7.8-1.1l5.1-2.6   l13.6,18C848.81,91.45,847.03,92.66,845.13,93.63z"></path>		<path class="st2" d="M883.98,90.28h-0.2c-1.8,2.53-4.08,4.3-6.85,5.3c-2.77,1-5.75,1.5-8.95,1.5c-2.67,0-5.2-0.48-7.6-1.45   c-2.4-0.97-4.5-2.35-6.3-4.15c-1.8-1.8-3.23-3.97-4.3-6.5c-1.07-2.53-1.6-5.37-1.6-8.5c0-2.73,0.53-5.25,1.6-7.55   c1.07-2.3,2.52-4.3,4.35-6c1.83-1.7,4-3.03,6.5-4c2.5-0.97,5.22-1.45,8.15-1.45c3.07,0,5.65,0.45,7.75,1.35   c2.1,0.9,3.88,1.92,5.35,3.05v-3c0-3.07-1-5.1-3-6.1s-4.6-1.5-7.8-1.5c-2.93,0-5.67,0.3-8.2,0.9c-2.53,0.6-5.1,1.3-7.7,2.1   l3.9-15.9c3.2-0.93,6.53-1.58,10-1.95c3.47-0.37,7-0.55,10.6-0.55c3.27,0,6.47,0.38,9.6,1.15c3.13,0.77,5.88,2.02,8.25,3.75   c2.37,1.73,4.25,3.97,5.65,6.7c1.4,2.73,2.07,6.1,2,10.1l-1.1,37.8l-20.1,1.7V90.28z M871.28,71.78c-2.27,0.33-4.13,1.12-5.6,2.35   c-1.47,1.23-2.1,2.62-1.9,4.15c0.27,1.53,1.21,2.68,2.85,3.45c1.63,0.77,3.75,0.95,6.35,0.55c2.6-0.4,4.53-1.23,5.8-2.5   c1.27-1.27,1.77-2.63,1.5-4.1c-0.2-1.27-1.05-2.35-2.55-3.25S874.08,71.31,871.28,71.78z"></path>		<path class="st2" d="M932.98,45.68h0.4c2.2-3,4.45-5.03,6.75-6.1c2.3-1.07,4.82-1.6,7.55-1.6c2.8,0,5.27,0.5,7.4,1.5   c2.13,1,3.93,2.4,5.4,4.2c1.47,1.8,2.58,3.9,3.35,6.3c0.77,2.4,1.15,5,1.15,7.8v38.7l-21.6,1.8l0.3-36.4c0.07-1.2-0.38-2.2-1.35-3   c-0.97-0.8-2.12-1.2-3.45-1.2c-1.27,0-2.42,0.38-3.45,1.15c-1.03,0.77-1.55,1.82-1.55,3.15l0.4,36.1l-21.3-1.5l-0.8-56.9l20.8-1.7   V45.68z"></path>		<path class="st2" d="M998.33,98.03c-0.97,0.03-2.02,0.05-3.15,0.05c-6.4,0-11.38-1.45-14.95-4.35c-3.57-2.9-5.35-7.62-5.35-14.15   v-23.7l-5.5,0.1l0.6-17.3h4.7v-6.6l21.7-9.8v16.4l8.1-1.2l-1.1,18.4h-6.8v17.5c0,2,0.28,3.33,0.85,4c0.57,0.67,1.85,1,3.85,1   c0.87,0,1.57-0.03,2.1-0.1c0.53-0.07,1.03-0.17,1.5-0.3l-3.5,19.8C1000.31,97.91,999.29,97.99,998.33,98.03z"></path>		<path class="st2" d="M1062.58,89.68c-4.07,2.93-8.23,5.05-12.5,6.35c-4.27,1.3-9.17,1.95-14.7,1.95c-4.53,0-8.68-0.78-12.45-2.35   c-3.77-1.57-7.02-3.68-9.75-6.35c-2.73-2.67-4.87-5.78-6.4-9.35c-1.53-3.57-2.3-7.35-2.3-11.35c0-5,0.8-9.47,2.4-13.4   c1.6-3.93,3.77-7.27,6.5-10c2.73-2.73,5.92-4.82,9.55-6.25c3.63-1.43,7.52-2.15,11.65-2.15c6.67,0,12.45,1.7,17.35,5.1   c4.9,3.4,8.55,7.93,10.95,13.6l-29.9,22.5c0.73,0.4,1.7,0.67,2.9,0.8c1.2,0.13,2.3,0.2,3.3,0.2c3.07,0,5.65-0.55,7.75-1.65   c2.1-1.1,4.02-2.42,5.75-3.95L1062.58,89.68z M1041.18,56.88c-0.93-1.13-1.95-1.9-3.05-2.3c-1.1-0.4-2.35-0.6-3.75-0.6   c-1.33,0-2.55,0.28-3.65,0.85c-1.1,0.57-2.05,1.33-2.85,2.3c-0.8,0.97-1.42,2.05-1.85,3.25c-0.43,1.2-0.65,2.43-0.65,3.7   c0,1.2,0.08,2.05,0.25,2.55c0.17,0.5,0.38,1.02,0.65,1.55L1041.18,56.88z"></path>	</g></g></svg>