<svg xmlns="http://www.w3.org/2000/svg" xmlns:xlink="http://www.w3.org/1999/xlink" id="Capa_1" x="0px" y="0px" viewBox="0 0 700 96.43" style="enable-background:new 0 0 700 96.43;" xml:space="preserve"><style type="text/css">	.st0{fill:#FFFFFF;}	.st1{fill:none;stroke:#000000;stroke-width:3.6754;}	.st2{fill:#FF0000;}</style><g>	<g>		<path class="st0" d="M46.82,18.47c2.87,1.01,5.15,2.49,6.84,4.45c1.69,1.96,2.83,4.3,3.42,7.02c0.59,2.72,0.64,5.56,0.15,8.53   c-0.49,2.97-1.47,5.95-2.94,8.97c-1.47,3.01-3.42,5.81-5.84,8.38c-2.43,2.57-5.29,4.8-8.6,6.69c-3.31,1.89-7.02,3.22-11.14,4.01   l-0.29,13.23L10.62,77.9L9.44,20.49c9.31-1.08,18.28-2.03,26.9-2.87C40.46,17.18,43.95,17.46,46.82,18.47z M37.52,40.48   c0-0.05,0.02-0.32,0.07-0.81c0.05-0.49-0.02-1.08-0.22-1.76c-0.2-0.69-0.61-1.26-1.25-1.73c-0.64-0.47-1.65-0.69-3.05-0.66   c-1.4,0.02-3.27,0.5-5.62,1.43l-0.74,11.76c1.76-0.39,3.29-0.96,4.59-1.69c1.3-0.74,2.39-1.52,3.27-2.35   c0.88-0.83,1.57-1.63,2.06-2.39C37.13,41.53,37.42,40.93,37.52,40.48z"></path>		<path class="st0" d="M56.12,21.08l40.58-3.01l-2.28,18.6l-18.45,0.81L75.89,41l13.38-0.96l-1.54,12.86l-12.28,0.96L75.3,57.9   l21.02-1.98l-0.37,20.29l-39.33,2.13L56.12,21.08z"></path>		<path class="st0" d="M149.84,28.43l-12.86,15.8c-2.65-2.79-4.96-4.58-6.95-5.37c-1.99-0.78-3.7-0.97-5.15-0.55   c-1.45,0.42-2.66,1.27-3.64,2.57c-0.98,1.3-1.76,2.62-2.35,3.97c-0.59,1.35-1.13,3.1-1.62,5.26c0,0.1,0.11,0.73,0.33,1.91   c0.22,1.18,0.74,2.49,1.54,3.93s1.96,2.51,3.45,3.2c1.49,0.69,3.53,0.59,6.1-0.29c2.57-0.88,5.75-3.06,9.52-6.54l14.33,15.29   c-0.74,1.42-2.01,2.87-3.82,4.34c-1.81,1.47-3.97,2.82-6.47,4.04c-2.5,1.23-5.25,2.24-8.23,3.05c-2.99,0.81-6.04,1.27-9.15,1.4   c-3.11,0.12-6.17-0.21-9.19-0.99s-5.8-2.16-8.34-4.12c-3.67-2.84-6.39-5.98-8.16-9.41c-1.76-3.43-2.82-6.96-3.16-10.59   c-0.34-3.63-0.06-7.25,0.85-10.88c0.91-3.63,2.18-7.03,3.82-10.22c1.64-3.19,3.58-6.05,5.81-8.6c2.23-2.55,4.5-4.58,6.8-6.1   c1.96-1.08,3.8-1.87,5.51-2.39c1.71-0.51,3.74-0.88,6.06-1.1c2.33-0.22,4.85,0,7.57,0.66s5.56,1.9,8.53,3.71   C143.95,22.23,146.9,24.9,149.84,28.43z"></path>		<path class="st0" d="M153,20.12l21.46-2.06l-2.57,26.98l10.88-0.81l0.88-25.65l20.95-1.03l-5.95,56.75l-17.05,2.06l0.96-16.17   l-7.72,1.1l-0.74,16.91l-18.3,0.37L153,20.12z"></path>		<path class="st0" d="M250.47,19.9c0.29,7.5,0.5,13.53,0.62,18.08c0.12,4.56,0.21,8.06,0.26,10.51c0.05,2.45,0.07,4.07,0.07,4.85   v1.18c0.05,2.99-0.17,5.86-0.66,8.6c-0.49,2.75-1.39,5.23-2.68,7.46c-1.3,2.23-3.06,4.14-5.29,5.73   c-2.23,1.59-5.01,2.71-8.34,3.34c-5.1,0.98-9.48,1.08-13.16,0.29c-3.67-0.78-6.7-2.25-9.08-4.41c-2.38-2.16-4.1-4.89-5.18-8.2   c-1.08-3.31-1.57-6.95-1.47-10.92c0-0.05,0-0.29,0-0.74c0-0.49,0.02-1.52,0.07-3.09c0.05-1.57,0.1-3.77,0.15-6.62   c0.05-2.84,0.15-6.64,0.29-11.39c0.15-4.75,0.32-10.54,0.51-17.35l21.02,3.68l-1.91,34.55c-0.2,1.28-0.18,2.4,0.04,3.38   c0.22,0.98,0.45,1.69,0.7,2.13s0.39,0.69,0.44,0.74c0.49,0.54,1.05,0.86,1.69,0.96s1.35-0.49,2.13-1.76   c0.05-0.05,0.2-0.35,0.44-0.92c0.24-0.56,0.49-1.55,0.74-2.98c0.24-1.42,0.32-3.16,0.22-5.22l-1.54-28.23L250.47,19.9z"></path>		<path class="st0" d="M257.9,48.35l23.3-1.03l-0.74,9.85l-23.23-0.37L257.9,48.35z"></path>		<path class="st0" d="M288.25,20.56c6.91-1.32,12.61-2.21,17.09-2.65c4.48-0.44,8.02-0.65,10.62-0.62c2.6,0.02,4.92,0.26,6.98,0.7   c2.01,0.93,3.65,1.85,4.93,2.76c1.27,0.91,2.49,2.06,3.64,3.46c1.15,1.4,1.86,3.01,2.13,4.85c0.27,1.84-0.1,3.91-1.1,6.21   c-1,2.3-3,4.85-5.99,7.64c4.12,2.16,7.04,4.47,8.78,6.95c1.74,2.48,2.69,4.91,2.87,7.31c0.17,2.4-0.2,4.71-1.1,6.91   c-0.91,2.21-1.96,4.14-3.16,5.81c-1.2,1.67-2.81,3.5-4.82,5.51c-0.05,0.05-0.38,0.26-0.99,0.62c-0.61,0.37-1.81,0.81-3.6,1.32   c-1.79,0.51-4.18,0.94-7.17,1.29c-2.99,0.34-6.86,0.5-11.61,0.48c-4.75-0.03-10.41-0.4-16.98-1.14L288.25,20.56z M318.5,56.95   c-0.07-0.49-0.29-1.07-0.66-1.73c-0.37-0.66-0.97-1.19-1.8-1.58c-0.83-0.39-2-0.51-3.49-0.37c-1.5,0.15-3.42,0.79-5.77,1.91   l0.96,7.72c2.69,0.25,4.79,0.12,6.29-0.37c1.49-0.49,2.57-1.09,3.23-1.8c0.66-0.71,1.11-1.7,1.36-2.98   C318.61,57.71,318.58,57.44,318.5,56.95z M314.24,34.57c-0.37-0.51-1.04-0.86-2.02-1.03c-0.98-0.17-2.45,0.14-4.41,0.92   l-0.29,7.72c1.52,0.25,2.76,0.11,3.71-0.4c0.96-0.51,1.69-1.13,2.21-1.84c0.51-0.71,0.94-1.68,1.29-2.9   C314.76,35.9,314.61,35.08,314.24,34.57z"></path>		<path class="st0" d="M381.98,19.9c0.29,7.5,0.5,13.53,0.62,18.08c0.12,4.56,0.21,8.06,0.26,10.51c0.05,2.45,0.07,4.07,0.07,4.85   v1.18c0.05,2.99-0.17,5.86-0.66,8.6c-0.49,2.75-1.38,5.23-2.68,7.46c-1.3,2.23-3.06,4.14-5.29,5.73   c-2.23,1.59-5.01,2.71-8.34,3.34c-5.1,0.98-9.48,1.08-13.16,0.29c-3.67-0.78-6.7-2.25-9.08-4.41c-2.38-2.16-4.1-4.89-5.18-8.2   c-1.08-3.31-1.57-6.95-1.47-10.92c0-0.05,0-0.29,0-0.74c0-0.49,0.02-1.52,0.07-3.09c0.05-1.57,0.1-3.77,0.15-6.62   c0.05-2.84,0.15-6.64,0.29-11.39c0.15-4.75,0.32-10.54,0.51-17.35l21.02,3.68l-1.91,34.55c-0.2,1.28-0.18,2.4,0.04,3.38   c0.22,0.98,0.45,1.69,0.7,2.13c0.24,0.44,0.39,0.69,0.44,0.74c0.49,0.54,1.05,0.86,1.69,0.96s1.35-0.49,2.13-1.76   c0.05-0.05,0.2-0.35,0.44-0.92c0.24-0.56,0.49-1.55,0.73-2.98c0.24-1.42,0.32-3.16,0.22-5.22l-1.54-28.23L381.98,19.9z"></path>		<path class="st0" d="M434.75,67.46l-11.39,12.86L405.5,67.17l-0.22,12.57l-17.79-1.84l-1.18-57.41c9.31-1.08,18.28-2.03,26.9-2.87   c4.61-0.49,8.44-0.15,11.5,1.03c3.06,1.18,5.39,2.88,6.98,5.11c1.59,2.23,2.5,4.83,2.72,7.79c0.22,2.97-0.21,6-1.29,9.12   c-1.08,3.11-2.78,6.14-5.11,9.08c-2.33,2.94-5.21,5.49-8.64,7.65L434.75,67.46z M404.4,36.96l-0.74,11.76   c1.76-0.39,3.3-0.96,4.59-1.69c1.3-0.74,2.39-1.52,3.27-2.35c0.88-0.83,1.56-1.63,2.02-2.39c0.47-0.76,0.75-1.36,0.85-1.8   c0-0.05,0.02-0.32,0.07-0.81c0.05-0.49-0.01-1.08-0.18-1.76c-0.17-0.69-0.59-1.26-1.25-1.73c-0.66-0.47-1.68-0.69-3.05-0.66   C408.61,35.55,406.75,36.03,404.4,36.96z"></path>		<path class="st0" d="M476.29,41.51c-0.69-1.67-1.78-2.88-3.27-3.64c-1.5-0.76-3.17-1.14-5.04-1.14c-1.81,0-3.7,0.39-5.66,1.18   c-1.96,0.78-3.75,1.89-5.37,3.31c-1.62,1.42-2.95,3.16-4.01,5.22c-1.05,2.06-1.58,4.39-1.58,6.98c-0.05,2.4,0.33,4.33,1.14,5.77   s1.84,2.49,3.09,3.12c1.25,0.64,2.63,0.92,4.15,0.84c1.52-0.07,3.01-0.44,4.48-1.1c1.47-0.66,2.8-1.54,4.01-2.65   c1.2-1.1,2.1-2.36,2.68-3.79l-10.44,1.98l1.18-11.83l32.05-4.04c0.44,3.09,0.31,6.14-0.4,9.15c-0.71,3.01-1.69,5.77-2.94,8.27   c-1.25,2.5-2.56,4.74-3.93,6.73c-1.37,1.98-2.51,3.49-3.42,4.52c-0.91,1.03-1.41,1.59-1.51,1.69c-1.76,1.76-3.91,3.31-6.43,4.63   c-2.52,1.32-5.23,2.33-8.12,3.01c-2.89,0.69-5.88,0.99-8.97,0.92c-3.09-0.07-6.03-0.61-8.82-1.62c-2.79-1-5.38-2.54-7.75-4.59   s-4.3-4.73-5.77-8.01c-1.67-3.68-2.62-7.34-2.87-10.99c-0.25-3.65,0.05-7.18,0.88-10.58c0.83-3.41,2.17-6.63,4.01-9.67   c1.84-3.04,4.04-5.77,6.62-8.2c2.57-2.43,5.45-4.5,8.64-6.21c3.19-1.71,6.54-2.94,10.07-3.68c0.1,0,0.62-0.06,1.58-0.18   c0.96-0.12,2.34-0.13,4.15-0.04c1.81,0.1,3.85,0.45,6.1,1.07c2.25,0.61,4.71,1.64,7.35,3.09c2.65,1.45,5.27,3.44,7.87,5.99   L476.29,41.51z"></path>		<path class="st0" d="M538.47,19.9c0.29,7.5,0.5,13.53,0.62,18.08c0.12,4.56,0.21,8.06,0.26,10.51c0.05,2.45,0.07,4.07,0.07,4.85   v1.18c0.05,2.99-0.17,5.86-0.66,8.6c-0.49,2.75-1.38,5.23-2.68,7.46c-1.3,2.23-3.06,4.14-5.29,5.73   c-2.23,1.59-5.01,2.71-8.34,3.34c-5.1,0.98-9.48,1.08-13.16,0.29c-3.67-0.78-6.7-2.25-9.08-4.41c-2.38-2.16-4.1-4.89-5.18-8.2   s-1.57-6.95-1.47-10.92c0-0.05,0-0.29,0-0.74c0-0.49,0.02-1.52,0.07-3.09c0.05-1.57,0.1-3.77,0.15-6.62   c0.05-2.84,0.15-6.64,0.29-11.39c0.15-4.75,0.32-10.54,0.51-17.35l21.02,3.68l-1.91,34.55c-0.2,1.28-0.18,2.4,0.04,3.38   c0.22,0.98,0.45,1.69,0.7,2.13s0.39,0.69,0.44,0.74c0.49,0.54,1.05,0.86,1.69,0.96c0.64,0.1,1.35-0.49,2.13-1.76   c0.05-0.05,0.2-0.35,0.44-0.92c0.24-0.56,0.49-1.55,0.73-2.98s0.32-3.16,0.22-5.22l-1.54-28.23L538.47,19.9z"></path>		<path class="st0" d="M542.96,21.08l40.58-3.01l-2.28,18.6l-18.45,0.81L562.73,41l13.38-0.96l-1.54,12.86l-12.28,0.96l-0.15,4.04   l21.02-1.98l-0.37,20.29l-39.33,2.13L542.96,21.08z"></path>		<path class="st0" d="M614.92,41.07c1.52,0.69,3.07,1.47,4.67,2.35c1.59,0.88,3.04,1.96,4.34,3.23c1.3,1.27,2.38,2.81,3.23,4.59   c0.86,1.79,1.33,3.91,1.43,6.36c0.15,3.48-0.42,6.55-1.69,9.22c-1.27,2.67-3.08,4.93-5.4,6.76c-2.33,1.84-5.11,3.26-8.34,4.26   s-6.71,1.58-10.44,1.73c-1.72,0.05-3.48-0.04-5.29-0.26c-1.81-0.22-3.6-0.55-5.37-0.99c-1.76-0.44-3.48-0.97-5.15-1.58   c-1.67-0.61-3.23-1.26-4.7-1.95l5.59-15.73c0.74,0.29,1.62,0.67,2.65,1.14c1.03,0.47,2.13,0.89,3.31,1.29   c1.18,0.39,2.4,0.74,3.68,1.03c1.27,0.29,2.52,0.42,3.75,0.37c1.81-0.1,3.34-0.42,4.59-0.96c1.25-0.54,1.85-1.44,1.8-2.72   c-0.05-0.83-0.48-1.47-1.29-1.91c-0.81-0.44-1.78-0.88-2.9-1.32c-0.74-0.2-1.7-0.46-2.9-0.81c-1.2-0.34-2.49-0.81-3.86-1.4   c-1.37-0.59-2.76-1.3-4.15-2.13c-1.4-0.83-2.67-1.84-3.82-3.01c-1.15-1.18-2.11-2.54-2.87-4.08c-0.76-1.54-1.16-3.32-1.21-5.33   c-0.1-3.43,0.49-6.48,1.76-9.15c1.27-2.67,3.01-4.95,5.22-6.84c2.21-1.89,4.78-3.33,7.72-4.34c2.94-1,6.08-1.58,9.41-1.73   c3.09-0.15,6.15,0.01,9.19,0.48c3.04,0.47,5.88,1.24,8.53,2.32l-4.34,16.98c-1.96-0.83-3.75-1.53-5.37-2.09   c-1.62-0.56-3.5-0.99-5.66-1.29c-0.64-0.1-1.5-0.15-2.57-0.15c-1.03,0-2.05,0.11-3.05,0.33c-1,0.22-1.87,0.58-2.61,1.07   c-0.74,0.49-1.13,1.18-1.18,2.06c0,0.39,0.18,0.7,0.55,0.92c0.37,0.22,0.81,0.39,1.32,0.51c0.51,0.12,1.04,0.22,1.58,0.29   c0.54,0.07,0.98,0.14,1.32,0.18c1.42,0.29,2.94,0.64,4.56,1.03C612.32,40.12,613.65,40.53,614.92,41.07z"></path>		<path class="st0" d="M656.38,13.8l37.12,56.45L670.42,79l-6.17-10.29l-15.44,0.51l-3.01,11.03l-22.13-7.2L656.38,13.8z    M652.63,57.54l8.75-1.54l-3.68-10L652.63,57.54z"></path>	</g>	<g>		<path class="st1" d="M46.82,18.47c2.87,1.01,5.15,2.49,6.84,4.45c1.69,1.96,2.83,4.3,3.42,7.02c0.59,2.72,0.64,5.56,0.15,8.53   c-0.49,2.97-1.47,5.95-2.94,8.97c-1.47,3.01-3.42,5.81-5.84,8.38c-2.43,2.57-5.29,4.8-8.6,6.69c-3.31,1.89-7.02,3.22-11.14,4.01   l-0.29,13.23L10.62,77.9L9.44,20.49c9.31-1.08,18.28-2.03,26.9-2.87C40.46,17.18,43.95,17.46,46.82,18.47z M37.52,40.48   c0-0.05,0.02-0.32,0.07-0.81c0.05-0.49-0.02-1.08-0.22-1.76c-0.2-0.69-0.61-1.26-1.25-1.73c-0.64-0.47-1.65-0.69-3.05-0.66   c-1.4,0.02-3.27,0.5-5.62,1.43l-0.74,11.76c1.76-0.39,3.29-0.96,4.59-1.69c1.3-0.74,2.39-1.52,3.27-2.35   c0.88-0.83,1.57-1.63,2.06-2.39C37.13,41.53,37.42,40.93,37.52,40.48z"></path>		<path class="st1" d="M56.12,21.08l40.58-3.01l-2.28,18.6l-18.45,0.81L75.89,41l13.38-0.96l-1.54,12.86l-12.28,0.96L75.3,57.9   l21.02-1.98l-0.37,20.29l-39.33,2.13L56.12,21.08z"></path>		<path class="st1" d="M149.84,28.43l-12.86,15.8c-2.65-2.79-4.96-4.58-6.95-5.37c-1.99-0.78-3.7-0.97-5.15-0.55   c-1.45,0.42-2.66,1.27-3.64,2.57c-0.98,1.3-1.76,2.62-2.35,3.97c-0.59,1.35-1.13,3.1-1.62,5.26c0,0.1,0.11,0.73,0.33,1.91   c0.22,1.18,0.74,2.49,1.54,3.93s1.96,2.51,3.45,3.2c1.49,0.69,3.53,0.59,6.1-0.29c2.57-0.88,5.75-3.06,9.52-6.54l14.33,15.29   c-0.74,1.42-2.01,2.87-3.82,4.34c-1.81,1.47-3.97,2.82-6.47,4.04c-2.5,1.23-5.25,2.24-8.23,3.05c-2.99,0.81-6.04,1.27-9.15,1.4   c-3.11,0.12-6.17-0.21-9.19-0.99s-5.8-2.16-8.34-4.12c-3.67-2.84-6.39-5.98-8.16-9.41c-1.76-3.43-2.82-6.96-3.16-10.59   c-0.34-3.63-0.06-7.25,0.85-10.88c0.91-3.63,2.18-7.03,3.82-10.22c1.64-3.19,3.58-6.05,5.81-8.6c2.23-2.55,4.5-4.58,6.8-6.1   c1.96-1.08,3.8-1.87,5.51-2.39c1.71-0.51,3.74-0.88,6.06-1.1c2.33-0.22,4.85,0,7.57,0.66s5.56,1.9,8.53,3.71   C143.95,22.23,146.9,24.9,149.84,28.43z"></path>		<path class="st1" d="M153,20.12l21.46-2.06l-2.57,26.98l10.88-0.81l0.88-25.65l20.95-1.03l-5.95,56.75l-17.05,2.06l0.96-16.17   l-7.72,1.1l-0.74,16.91l-18.3,0.37L153,20.12z"></path>		<path class="st1" d="M250.47,19.9c0.29,7.5,0.5,13.53,0.62,18.08c0.12,4.56,0.21,8.06,0.26,10.51c0.05,2.45,0.07,4.07,0.07,4.85   v1.18c0.05,2.99-0.17,5.86-0.66,8.6c-0.49,2.75-1.39,5.23-2.68,7.46c-1.3,2.23-3.06,4.14-5.29,5.73   c-2.23,1.59-5.01,2.71-8.34,3.34c-5.1,0.98-9.48,1.08-13.16,0.29c-3.67-0.78-6.7-2.25-9.08-4.41c-2.38-2.16-4.1-4.89-5.18-8.2   c-1.08-3.31-1.57-6.95-1.47-10.92c0-0.05,0-0.29,0-0.74c0-0.49,0.02-1.52,0.07-3.09c0.05-1.57,0.1-3.77,0.15-6.62   c0.05-2.84,0.15-6.64,0.29-11.39c0.15-4.75,0.32-10.54,0.51-17.35l21.02,3.68l-1.91,34.55c-0.2,1.28-0.18,2.4,0.04,3.38   c0.22,0.98,0.45,1.69,0.7,2.13s0.39,0.69,0.44,0.74c0.49,0.54,1.05,0.86,1.69,0.96s1.35-0.49,2.13-1.76   c0.05-0.05,0.2-0.35,0.44-0.92c0.24-0.56,0.49-1.55,0.74-2.98c0.24-1.42,0.32-3.16,0.22-5.22l-1.54-28.23L250.47,19.9z"></path>		<path class="st1" d="M257.9,48.35l23.3-1.03l-0.74,9.85l-23.23-0.37L257.9,48.35z"></path>		<path class="st1" d="M288.25,20.56c6.91-1.32,12.61-2.21,17.09-2.65c4.48-0.44,8.02-0.65,10.62-0.62c2.6,0.02,4.92,0.26,6.98,0.7   c2.01,0.93,3.65,1.85,4.93,2.76c1.27,0.91,2.49,2.06,3.64,3.46c1.15,1.4,1.86,3.01,2.13,4.85c0.27,1.84-0.1,3.91-1.1,6.21   c-1,2.3-3,4.85-5.99,7.64c4.12,2.16,7.04,4.47,8.78,6.95c1.74,2.48,2.69,4.91,2.87,7.31c0.17,2.4-0.2,4.71-1.1,6.91   c-0.91,2.21-1.96,4.14-3.16,5.81c-1.2,1.67-2.81,3.5-4.82,5.51c-0.05,0.05-0.38,0.26-0.99,0.62c-0.61,0.37-1.81,0.81-3.6,1.32   c-1.79,0.51-4.18,0.94-7.17,1.29c-2.99,0.34-6.86,0.5-11.61,0.48c-4.75-0.03-10.41-0.4-16.98-1.14L288.25,20.56z M318.5,56.95   c-0.07-0.49-0.29-1.07-0.66-1.73c-0.37-0.66-0.97-1.19-1.8-1.58c-0.83-0.39-2-0.51-3.49-0.37c-1.5,0.15-3.42,0.79-5.77,1.91   l0.96,7.72c2.69,0.25,4.79,0.12,6.29-0.37c1.49-0.49,2.57-1.09,3.23-1.8c0.66-0.71,1.11-1.7,1.36-2.98   C318.61,57.71,318.58,57.44,318.5,56.95z M314.24,34.57c-0.37-0.51-1.04-0.86-2.02-1.03c-0.98-0.17-2.45,0.14-4.41,0.92   l-0.29,7.72c1.52,0.25,2.76,0.11,3.71-0.4c0.96-0.51,1.69-1.13,2.21-1.84c0.51-0.71,0.94-1.68,1.29-2.9   C314.76,35.9,314.61,35.08,314.24,34.57z"></path>		<path class="st1" d="M381.98,19.9c0.29,7.5,0.5,13.53,0.62,18.08c0.12,4.56,0.21,8.06,0.26,10.51c0.05,2.45,0.07,4.07,0.07,4.85   v1.18c0.05,2.99-0.17,5.86-0.66,8.6c-0.49,2.75-1.38,5.23-2.68,7.46c-1.3,2.23-3.06,4.14-5.29,5.73   c-2.23,1.59-5.01,2.71-8.34,3.34c-5.1,0.98-9.48,1.08-13.16,0.29c-3.67-0.78-6.7-2.25-9.08-4.41c-2.38-2.16-4.1-4.89-5.18-8.2   c-1.08-3.31-1.57-6.95-1.47-10.92c0-0.05,0-0.29,0-0.74c0-0.49,0.02-1.52,0.07-3.09c0.05-1.57,0.1-3.77,0.15-6.62   c0.05-2.84,0.15-6.64,0.29-11.39c0.15-4.75,0.32-10.54,0.51-17.35l21.02,3.68l-1.91,34.55c-0.2,1.28-0.18,2.4,0.04,3.38   c0.22,0.98,0.45,1.69,0.7,2.13c0.24,0.44,0.39,0.69,0.44,0.74c0.49,0.54,1.05,0.86,1.69,0.96s1.35-0.49,2.13-1.76   c0.05-0.05,0.2-0.35,0.44-0.92c0.24-0.56,0.49-1.55,0.73-2.98c0.24-1.42,0.32-3.16,0.22-5.22l-1.54-28.23L381.98,19.9z"></path>		<path class="st1" d="M434.75,67.46l-11.39,12.86L405.5,67.17l-0.22,12.57l-17.79-1.84l-1.18-57.41c9.31-1.08,18.28-2.03,26.9-2.87   c4.61-0.49,8.44-0.15,11.5,1.03c3.06,1.18,5.39,2.88,6.98,5.11c1.59,2.23,2.5,4.83,2.72,7.79c0.22,2.97-0.21,6-1.29,9.12   c-1.08,3.11-2.78,6.14-5.11,9.08c-2.33,2.94-5.21,5.49-8.64,7.65L434.75,67.46z M404.4,36.96l-0.74,11.76   c1.76-0.39,3.3-0.96,4.59-1.69c1.3-0.74,2.39-1.52,3.27-2.35c0.88-0.83,1.56-1.63,2.02-2.39c0.47-0.76,0.75-1.36,0.85-1.8   c0-0.05,0.02-0.32,0.07-0.81c0.05-0.49-0.01-1.08-0.18-1.76c-0.17-0.69-0.59-1.26-1.25-1.73c-0.66-0.47-1.68-0.69-3.05-0.66   C408.61,35.55,406.75,36.03,404.4,36.96z"></path>		<path class="st1" d="M476.29,41.51c-0.69-1.67-1.78-2.88-3.27-3.64c-1.5-0.76-3.17-1.14-5.04-1.14c-1.81,0-3.7,0.39-5.66,1.18   c-1.96,0.78-3.75,1.89-5.37,3.31c-1.62,1.42-2.95,3.16-4.01,5.22c-1.05,2.06-1.58,4.39-1.58,6.98c-0.05,2.4,0.33,4.33,1.14,5.77   s1.84,2.49,3.09,3.12c1.25,0.64,2.63,0.92,4.15,0.84c1.52-0.07,3.01-0.44,4.48-1.1c1.47-0.66,2.8-1.54,4.01-2.65   c1.2-1.1,2.1-2.36,2.68-3.79l-10.44,1.98l1.18-11.83l32.05-4.04c0.44,3.09,0.31,6.14-0.4,9.15c-0.71,3.01-1.69,5.77-2.94,8.27   c-1.25,2.5-2.56,4.74-3.93,6.73c-1.37,1.98-2.51,3.49-3.42,4.52c-0.91,1.03-1.41,1.59-1.51,1.69c-1.76,1.76-3.91,3.31-6.43,4.63   c-2.52,1.32-5.23,2.33-8.12,3.01c-2.89,0.69-5.88,0.99-8.97,0.92c-3.09-0.07-6.03-0.61-8.82-1.62c-2.79-1-5.38-2.54-7.75-4.59   s-4.3-4.73-5.77-8.01c-1.67-3.68-2.62-7.34-2.87-10.99c-0.25-3.65,0.05-7.18,0.88-10.58c0.83-3.41,2.17-6.63,4.01-9.67   c1.84-3.04,4.04-5.77,6.62-8.2c2.57-2.43,5.45-4.5,8.64-6.21c3.19-1.71,6.54-2.94,10.07-3.68c0.1,0,0.62-0.06,1.58-0.18   c0.96-0.12,2.34-0.13,4.15-0.04c1.81,0.1,3.85,0.45,6.1,1.07c2.25,0.61,4.71,1.64,7.35,3.09c2.65,1.45,5.27,3.44,7.87,5.99   L476.29,41.51z"></path>		<path class="st1" d="M538.47,19.9c0.29,7.5,0.5,13.53,0.62,18.08c0.12,4.56,0.21,8.06,0.26,10.51c0.05,2.45,0.07,4.07,0.07,4.85   v1.18c0.05,2.99-0.17,5.86-0.66,8.6c-0.49,2.75-1.38,5.23-2.68,7.46c-1.3,2.23-3.06,4.14-5.29,5.73   c-2.23,1.59-5.01,2.71-8.34,3.34c-5.1,0.98-9.48,1.08-13.16,0.29c-3.67-0.78-6.7-2.25-9.08-4.41c-2.38-2.16-4.1-4.89-5.18-8.2   s-1.57-6.95-1.47-10.92c0-0.05,0-0.29,0-0.74c0-0.49,0.02-1.52,0.07-3.09c0.05-1.57,0.1-3.77,0.15-6.62   c0.05-2.84,0.15-6.64,0.29-11.39c0.15-4.75,0.32-10.54,0.51-17.35l21.02,3.68l-1.91,34.55c-0.2,1.28-0.18,2.4,0.04,3.38   c0.22,0.98,0.45,1.69,0.7,2.13s0.39,0.69,0.44,0.74c0.49,0.54,1.05,0.86,1.69,0.96c0.64,0.1,1.35-0.49,2.13-1.76   c0.05-0.05,0.2-0.35,0.44-0.92c0.24-0.56,0.49-1.55,0.73-2.98s0.32-3.16,0.22-5.22l-1.54-28.23L538.47,19.9z"></path>		<path class="st1" d="M542.96,21.08l40.58-3.01l-2.28,18.6l-18.45,0.81L562.73,41l13.38-0.96l-1.54,12.86l-12.28,0.96l-0.15,4.04   l21.02-1.98l-0.37,20.29l-39.33,2.13L542.96,21.08z"></path>		<path class="st1" d="M614.92,41.07c1.52,0.69,3.07,1.47,4.67,2.35c1.59,0.88,3.04,1.96,4.34,3.23c1.3,1.27,2.38,2.81,3.23,4.59   c0.86,1.79,1.33,3.91,1.43,6.36c0.15,3.48-0.42,6.55-1.69,9.22c-1.27,2.67-3.08,4.93-5.4,6.76c-2.33,1.84-5.11,3.26-8.34,4.26   s-6.71,1.58-10.44,1.73c-1.72,0.05-3.48-0.04-5.29-0.26c-1.81-0.22-3.6-0.55-5.37-0.99c-1.76-0.44-3.48-0.97-5.15-1.58   c-1.67-0.61-3.23-1.26-4.7-1.95l5.59-15.73c0.74,0.29,1.62,0.67,2.65,1.14c1.03,0.47,2.13,0.89,3.31,1.29   c1.18,0.39,2.4,0.74,3.68,1.03c1.27,0.29,2.52,0.42,3.75,0.37c1.81-0.1,3.34-0.42,4.59-0.96c1.25-0.54,1.85-1.44,1.8-2.72   c-0.05-0.83-0.48-1.47-1.29-1.91c-0.81-0.44-1.78-0.88-2.9-1.32c-0.74-0.2-1.7-0.46-2.9-0.81c-1.2-0.34-2.49-0.81-3.86-1.4   c-1.37-0.59-2.76-1.3-4.15-2.13c-1.4-0.83-2.67-1.84-3.82-3.01c-1.15-1.18-2.11-2.54-2.87-4.08c-0.76-1.54-1.16-3.32-1.21-5.33   c-0.1-3.43,0.49-6.48,1.76-9.15c1.27-2.67,3.01-4.95,5.22-6.84c2.21-1.89,4.78-3.33,7.72-4.34c2.94-1,6.08-1.58,9.41-1.73   c3.09-0.15,6.15,0.01,9.19,0.48c3.04,0.47,5.88,1.24,8.53,2.32l-4.34,16.98c-1.96-0.83-3.75-1.53-5.37-2.09   c-1.62-0.56-3.5-0.99-5.66-1.29c-0.64-0.1-1.5-0.15-2.57-0.15c-1.03,0-2.05,0.11-3.05,0.33c-1,0.22-1.87,0.58-2.61,1.07   c-0.74,0.49-1.13,1.18-1.18,2.06c0,0.39,0.18,0.7,0.55,0.92c0.37,0.22,0.81,0.39,1.32,0.51c0.51,0.12,1.04,0.22,1.58,0.29   c0.54,0.07,0.98,0.14,1.32,0.18c1.42,0.29,2.94,0.64,4.56,1.03C612.32,40.12,613.65,40.53,614.92,41.07z"></path>		<path class="st1" d="M656.38,13.8l37.12,56.45L670.42,79l-6.17-10.29l-15.44,0.51l-3.01,11.03l-22.13-7.2L656.38,13.8z    M652.63,57.54l8.75-1.54l-3.68-10L652.63,57.54z"></path>	</g>	<g>		<path class="st2" d="M46.82,18.47c2.87,1.01,5.15,2.49,6.84,4.45c1.69,1.96,2.83,4.3,3.42,7.02c0.59,2.72,0.64,5.56,0.15,8.53   c-0.49,2.97-1.47,5.95-2.94,8.97c-1.47,3.01-3.42,5.81-5.84,8.38c-2.43,2.57-5.29,4.8-8.6,6.69c-3.31,1.89-7.02,3.22-11.14,4.01   l-0.29,13.23L10.62,77.9L9.44,20.49c9.31-1.08,18.28-2.03,26.9-2.87C40.46,17.18,43.95,17.46,46.82,18.47z M37.52,40.48   c0-0.05,0.02-0.32,0.07-0.81c0.05-0.49-0.02-1.08-0.22-1.76c-0.2-0.69-0.61-1.26-1.25-1.73c-0.64-0.47-1.65-0.69-3.05-0.66   c-1.4,0.02-3.27,0.5-5.62,1.43l-0.74,11.76c1.76-0.39,3.29-0.96,4.59-1.69c1.3-0.74,2.39-1.52,3.27-2.35   c0.88-0.83,1.57-1.63,2.06-2.39C37.13,41.53,37.42,40.93,37.52,40.48z"></path>		<path class="st2" d="M56.12,21.08l40.58-3.01l-2.28,18.6l-18.45,0.81L75.89,41l13.38-0.96l-1.54,12.86l-12.28,0.96L75.3,57.9   l21.02-1.98l-0.37,20.29l-39.33,2.13L56.12,21.08z"></path>		<path class="st2" d="M149.84,28.43l-12.86,15.8c-2.65-2.79-4.96-4.58-6.95-5.37c-1.99-0.78-3.7-0.97-5.15-0.55   c-1.45,0.42-2.66,1.27-3.64,2.57c-0.98,1.3-1.76,2.62-2.35,3.97c-0.59,1.35-1.13,3.1-1.62,5.26c0,0.1,0.11,0.73,0.33,1.91   c0.22,1.18,0.74,2.49,1.54,3.93s1.96,2.51,3.45,3.2c1.49,0.69,3.53,0.59,6.1-0.29c2.57-0.88,5.75-3.06,9.52-6.54l14.33,15.29   c-0.74,1.42-2.01,2.87-3.82,4.34c-1.81,1.47-3.97,2.82-6.47,4.04c-2.5,1.23-5.25,2.24-8.23,3.05c-2.99,0.81-6.04,1.27-9.15,1.4   c-3.11,0.12-6.17-0.21-9.19-0.99s-5.8-2.16-8.34-4.12c-3.67-2.84-6.39-5.98-8.16-9.41c-1.76-3.43-2.82-6.96-3.16-10.59   c-0.34-3.63-0.06-7.25,0.85-10.88c0.91-3.63,2.18-7.03,3.82-10.22c1.64-3.19,3.58-6.05,5.81-8.6c2.23-2.55,4.5-4.58,6.8-6.1   c1.96-1.08,3.8-1.87,5.51-2.39c1.71-0.51,3.74-0.88,6.06-1.1c2.33-0.22,4.85,0,7.57,0.66s5.56,1.9,8.53,3.71   C143.95,22.23,146.9,24.9,149.84,28.43z"></path>		<path class="st2" d="M153,20.12l21.46-2.06l-2.57,26.98l10.88-0.81l0.88-25.65l20.95-1.03l-5.95,56.75l-17.05,2.06l0.96-16.17   l-7.72,1.1l-0.74,16.91l-18.3,0.37L153,20.12z"></path>		<path class="st2" d="M250.47,19.9c0.29,7.5,0.5,13.53,0.62,18.08c0.12,4.56,0.21,8.06,0.26,10.51c0.05,2.45,0.07,4.07,0.07,4.85   v1.18c0.05,2.99-0.17,5.86-0.66,8.6c-0.49,2.75-1.39,5.23-2.68,7.46c-1.3,2.23-3.06,4.14-5.29,5.73   c-2.23,1.59-5.01,2.71-8.34,3.34c-5.1,0.98-9.48,1.08-13.16,0.29c-3.67-0.78-6.7-2.25-9.08-4.41c-2.38-2.16-4.1-4.89-5.18-8.2   c-1.08-3.31-1.57-6.95-1.47-10.92c0-0.05,0-0.29,0-0.74c0-0.49,0.02-1.52,0.07-3.09c0.05-1.57,0.1-3.77,0.15-6.62   c0.05-2.84,0.15-6.64,0.29-11.39c0.15-4.75,0.32-10.54,0.51-17.35l21.02,3.68l-1.91,34.55c-0.2,1.28-0.18,2.4,0.04,3.38   c0.22,0.98,0.45,1.69,0.7,2.13s0.39,0.69,0.44,0.74c0.49,0.54,1.05,0.86,1.69,0.96s1.35-0.49,2.13-1.76   c0.05-0.05,0.2-0.35,0.44-0.92c0.24-0.56,0.49-1.55,0.74-2.98c0.24-1.42,0.32-3.16,0.22-5.22l-1.54-28.23L250.47,19.9z"></path>		<path class="st2" d="M257.9,48.35l23.3-1.03l-0.74,9.85l-23.23-0.37L257.9,48.35z"></path>		<path class="st2" d="M288.25,20.56c6.91-1.32,12.61-2.21,17.09-2.65c4.48-0.44,8.02-0.65,10.62-0.62c2.6,0.02,4.92,0.26,6.98,0.7   c2.01,0.93,3.65,1.85,4.93,2.76c1.27,0.91,2.49,2.06,3.64,3.46c1.15,1.4,1.86,3.01,2.13,4.85c0.27,1.84-0.1,3.91-1.1,6.21   c-1,2.3-3,4.85-5.99,7.64c4.12,2.16,7.04,4.47,8.78,6.95c1.74,2.48,2.69,4.91,2.87,7.31c0.17,2.4-0.2,4.71-1.1,6.91   c-0.91,2.21-1.96,4.14-3.16,5.81c-1.2,1.67-2.81,3.5-4.82,5.51c-0.05,0.05-0.38,0.26-0.99,0.62c-0.61,0.37-1.81,0.81-3.6,1.32   c-1.79,0.51-4.18,0.94-7.17,1.29c-2.99,0.34-6.86,0.5-11.61,0.48c-4.75-0.03-10.41-0.4-16.98-1.14L288.25,20.56z M318.5,56.95   c-0.07-0.49-0.29-1.07-0.66-1.73c-0.37-0.66-0.97-1.19-1.8-1.58c-0.83-0.39-2-0.51-3.49-0.37c-1.5,0.15-3.42,0.79-5.77,1.91   l0.96,7.72c2.69,0.25,4.79,0.12,6.29-0.37c1.49-0.49,2.57-1.09,3.23-1.8c0.66-0.71,1.11-1.7,1.36-2.98   C318.61,57.71,318.58,57.44,318.5,56.95z M314.24,34.57c-0.37-0.51-1.04-0.86-2.02-1.03c-0.98-0.17-2.45,0.14-4.41,0.92   l-0.29,7.72c1.52,0.25,2.76,0.11,3.71-0.4c0.96-0.51,1.69-1.13,2.21-1.84c0.51-0.71,0.94-1.68,1.29-2.9   C314.76,35.9,314.61,35.08,314.24,34.57z"></path>		<path class="st2" d="M381.98,19.9c0.29,7.5,0.5,13.53,0.62,18.08c0.12,4.56,0.21,8.06,0.26,10.51c0.05,2.45,0.07,4.07,0.07,4.85   v1.18c0.05,2.99-0.17,5.86-0.66,8.6c-0.49,2.75-1.38,5.23-2.68,7.46c-1.3,2.23-3.06,4.14-5.29,5.73   c-2.23,1.59-5.01,2.71-8.34,3.34c-5.1,0.98-9.48,1.08-13.16,0.29c-3.67-0.78-6.7-2.25-9.08-4.41c-2.38-2.16-4.1-4.89-5.18-8.2   c-1.08-3.31-1.57-6.95-1.47-10.92c0-0.05,0-0.29,0-0.74c0-0.49,0.02-1.52,0.07-3.09c0.05-1.57,0.1-3.77,0.15-6.62   c0.05-2.84,0.15-6.64,0.29-11.39c0.15-4.75,0.32-10.54,0.51-17.35l21.02,3.68l-1.91,34.55c-0.2,1.28-0.18,2.4,0.04,3.38   c0.22,0.98,0.45,1.69,0.7,2.13c0.24,0.44,0.39,0.69,0.44,0.74c0.49,0.54,1.05,0.86,1.69,0.96s1.35-0.49,2.13-1.76   c0.05-0.05,0.2-0.35,0.44-0.92c0.24-0.56,0.49-1.55,0.73-2.98c0.24-1.42,0.32-3.16,0.22-5.22l-1.54-28.23L381.98,19.9z"></path>		<path class="st2" d="M434.75,67.46l-11.39,12.86L405.5,67.17l-0.22,12.57l-17.79-1.84l-1.18-57.41c9.31-1.08,18.28-2.03,26.9-2.87   c4.61-0.49,8.44-0.15,11.5,1.03c3.06,1.18,5.39,2.88,6.98,5.11c1.59,2.23,2.5,4.83,2.72,7.79c0.22,2.97-0.21,6-1.29,9.12   c-1.08,3.11-2.78,6.14-5.11,9.08c-2.33,2.94-5.21,5.49-8.64,7.65L434.75,67.46z M404.4,36.96l-0.74,11.76   c1.76-0.39,3.3-0.96,4.59-1.69c1.3-0.74,2.39-1.52,3.27-2.35c0.88-0.83,1.56-1.63,2.02-2.39c0.47-0.76,0.75-1.36,0.85-1.8   c0-0.05,0.02-0.32,0.07-0.81c0.05-0.49-0.01-1.08-0.18-1.76c-0.17-0.69-0.59-1.26-1.25-1.73c-0.66-0.47-1.68-0.69-3.05-0.66   C408.61,35.55,406.75,36.03,404.4,36.96z"></path>		<path class="st2" d="M476.29,41.51c-0.69-1.67-1.78-2.88-3.27-3.64c-1.5-0.76-3.17-1.14-5.04-1.14c-1.81,0-3.7,0.39-5.66,1.18   c-1.96,0.78-3.75,1.89-5.37,3.31c-1.62,1.42-2.95,3.16-4.01,5.22c-1.05,2.06-1.58,4.39-1.58,6.98c-0.05,2.4,0.33,4.33,1.14,5.77   s1.84,2.49,3.09,3.12c1.25,0.64,2.63,0.92,4.15,0.84c1.52-0.07,3.01-0.44,4.48-1.1c1.47-0.66,2.8-1.54,4.01-2.65   c1.2-1.1,2.1-2.36,2.68-3.79l-10.44,1.98l1.18-11.83l32.05-4.04c0.44,3.09,0.31,6.14-0.4,9.15c-0.71,3.01-1.69,5.77-2.94,8.27   c-1.25,2.5-2.56,4.74-3.93,6.73c-1.37,1.98-2.51,3.49-3.42,4.52c-0.91,1.03-1.41,1.59-1.51,1.69c-1.76,1.76-3.91,3.31-6.43,4.63   c-2.52,1.32-5.23,2.33-8.12,3.01c-2.89,0.69-5.88,0.99-8.97,0.92c-3.09-0.07-6.03-0.61-8.82-1.62c-2.79-1-5.38-2.54-7.75-4.59   s-4.3-4.73-5.77-8.01c-1.67-3.68-2.62-7.34-2.87-10.99c-0.25-3.65,0.05-7.18,0.88-10.58c0.83-3.41,2.17-6.63,4.01-9.67   c1.84-3.04,4.04-5.77,6.62-8.2c2.57-2.43,5.45-4.5,8.64-6.21c3.19-1.71,6.54-2.94,10.07-3.68c0.1,0,0.62-0.06,1.58-0.18   c0.96-0.12,2.34-0.13,4.15-0.04c1.81,0.1,3.85,0.45,6.1,1.07c2.25,0.61,4.71,1.64,7.35,3.09c2.65,1.45,5.27,3.44,7.87,5.99   L476.29,41.51z"></path>		<path class="st2" d="M538.47,19.9c0.29,7.5,0.5,13.53,0.62,18.08c0.12,4.56,0.21,8.06,0.26,10.51c0.05,2.45,0.07,4.07,0.07,4.85   v1.18c0.05,2.99-0.17,5.86-0.66,8.6c-0.49,2.75-1.38,5.23-2.68,7.46c-1.3,2.23-3.06,4.14-5.29,5.73   c-2.23,1.59-5.01,2.71-8.34,3.34c-5.1,0.98-9.48,1.08-13.16,0.29c-3.67-0.78-6.7-2.25-9.08-4.41c-2.38-2.16-4.1-4.89-5.18-8.2   s-1.57-6.95-1.47-10.92c0-0.05,0-0.29,0-0.74c0-0.49,0.02-1.52,0.07-3.09c0.05-1.57,0.1-3.77,0.15-6.62   c0.05-2.84,0.15-6.64,0.29-11.39c0.15-4.75,0.32-10.54,0.51-17.35l21.02,3.68l-1.91,34.55c-0.2,1.28-0.18,2.4,0.04,3.38   c0.22,0.98,0.45,1.69,0.7,2.13s0.39,0.69,0.44,0.74c0.49,0.54,1.05,0.86,1.69,0.96c0.64,0.1,1.35-0.49,2.13-1.76   c0.05-0.05,0.2-0.35,0.44-0.92c0.24-0.56,0.49-1.55,0.73-2.98s0.32-3.16,0.22-5.22l-1.54-28.23L538.47,19.9z"></path>		<path class="st2" d="M542.96,21.08l40.58-3.01l-2.28,18.6l-18.45,0.81L562.73,41l13.38-0.96l-1.54,12.86l-12.28,0.96l-0.15,4.04   l21.02-1.98l-0.37,20.29l-39.33,2.13L542.96,21.08z"></path>		<path class="st2" d="M614.92,41.07c1.52,0.69,3.07,1.47,4.67,2.35c1.59,0.88,3.04,1.96,4.34,3.23c1.3,1.27,2.38,2.81,3.23,4.59   c0.86,1.79,1.33,3.91,1.43,6.36c0.15,3.48-0.42,6.55-1.69,9.22c-1.27,2.67-3.08,4.93-5.4,6.76c-2.33,1.84-5.11,3.26-8.34,4.26   s-6.71,1.58-10.44,1.73c-1.72,0.05-3.48-0.04-5.29-0.26c-1.81-0.22-3.6-0.55-5.37-0.99c-1.76-0.44-3.48-0.97-5.15-1.58   c-1.67-0.61-3.23-1.26-4.7-1.95l5.59-15.73c0.74,0.29,1.62,0.67,2.65,1.14c1.03,0.47,2.13,0.89,3.31,1.29   c1.18,0.39,2.4,0.74,3.68,1.03c1.27,0.29,2.52,0.42,3.75,0.37c1.81-0.1,3.34-0.42,4.59-0.96c1.25-0.54,1.85-1.44,1.8-2.72   c-0.05-0.83-0.48-1.47-1.29-1.91c-0.81-0.44-1.78-0.88-2.9-1.32c-0.74-0.2-1.7-0.46-2.9-0.81c-1.2-0.34-2.49-0.81-3.86-1.4   c-1.37-0.59-2.76-1.3-4.15-2.13c-1.4-0.83-2.67-1.84-3.82-3.01c-1.15-1.18-2.11-2.54-2.87-4.08c-0.76-1.54-1.16-3.32-1.21-5.33   c-0.1-3.43,0.49-6.48,1.76-9.15c1.27-2.67,3.01-4.95,5.22-6.84c2.21-1.89,4.78-3.33,7.72-4.34c2.94-1,6.08-1.58,9.41-1.73   c3.09-0.15,6.15,0.01,9.19,0.48c3.04,0.47,5.88,1.24,8.53,2.32l-4.34,16.98c-1.96-0.83-3.75-1.53-5.37-2.09   c-1.62-0.56-3.5-0.99-5.66-1.29c-0.64-0.1-1.5-0.15-2.57-0.15c-1.03,0-2.05,0.11-3.05,0.33c-1,0.22-1.87,0.58-2.61,1.07   c-0.74,0.49-1.13,1.18-1.18,2.06c0,0.39,0.18,0.7,0.55,0.92c0.37,0.22,0.81,0.39,1.32,0.51c0.51,0.12,1.04,0.22,1.58,0.29   c0.54,0.07,0.98,0.14,1.32,0.18c1.42,0.29,2.94,0.64,4.56,1.03C612.32,40.12,613.65,40.53,614.92,41.07z"></path>		<path class="st2" d="M656.38,13.8l37.12,56.45L670.42,79l-6.17-10.29l-15.44,0.51l-3.01,11.03l-22.13-7.2L656.38,13.8z    M652.63,57.54l8.75-1.54l-3.68-10L652.63,57.54z"></path>	</g></g></svg>