<svg xmlns="http://www.w3.org/2000/svg" xmlns:xlink="http://www.w3.org/1999/xlink" id="Capa_1" x="0px" y="0px" viewBox="0 0 606.5 154.8" style="enable-background:new 0 0 606.5 154.8;" xml:space="preserve"><style type="text/css">	.st0{fill:none;stroke:#000000;stroke-width:4;}	.st1{fill:#FF0000;}</style><g>	<g>		<path class="st0" d="M156.6,37c4.1,1.4,7.3,3.5,9.7,6.3c2.4,2.8,4,6.1,4.8,9.9c0.8,3.8,0.9,7.9,0.2,12.1   c-0.7,4.2-2.1,8.4-4.2,12.7c-2.1,4.3-4.8,8.2-8.3,11.8s-7.5,6.8-12.2,9.5c-4.7,2.7-9.9,4.6-15.7,5.7l-0.4,18.7l-25.2-2.6   l-1.7-81.2c13.2-1.5,25.8-2.9,38-4.1C147.6,35.2,152.6,35.6,156.6,37z M143.5,68.1c0-0.1,0-0.4,0.1-1.1c0.1-0.7,0-1.5-0.3-2.5   c-0.3-1-0.9-1.8-1.8-2.4c-0.9-0.7-2.3-1-4.3-0.9c-2,0-4.6,0.7-8,2l-1,16.6c2.5-0.6,4.7-1.4,6.5-2.4c1.8-1,3.4-2.1,4.6-3.3   c1.2-1.2,2.2-2.3,2.9-3.4C142.9,69.6,143.3,68.8,143.5,68.1z"></path>		<path class="st0" d="M201.7,35.7l-4.3,84.1l-27.3,3.1l1-83.6L201.7,35.7z"></path>		<path class="st0" d="M208.3,40.7l57.4-4.3l-3.2,26.3l-26.1,1.1l-0.1,5l18.9-1.4L253,85.7l-17.4,1.4l-0.2,5.7l29.7-2.8l-0.5,28.7   l-55.6,3L208.3,40.7z"></path>		<path class="st0" d="M269.6,124.4l25.3-61.2l-30.3,2l5.8-27.2l77.2-2.5l-35.2,58.5l39.1-4.8l-5.2,30.2L269.6,124.4z"></path>		<path class="st0" d="M392.2,30.4l52.5,79.8L412,122.6l-8.7-14.5l-21.8,0.7l-4.3,15.6l-31.3-10.2L392.2,30.4z M386.9,92.3l12.4-2.2   L394,75.9L386.9,92.3z"></path>		<path class="st0" d="M483.3,69c2.1,1,4.3,2.1,6.6,3.3c2.2,1.2,4.3,2.8,6.1,4.6c1.8,1.8,3.4,4,4.6,6.5c1.2,2.5,1.9,5.5,2,9   c0.2,4.9-0.6,9.3-2.4,13c-1.8,3.8-4.3,7-7.6,9.6c-3.3,2.6-7.2,4.6-11.8,6c-4.6,1.4-9.5,2.2-14.8,2.4c-2.4,0.1-4.9-0.1-7.5-0.4   c-2.6-0.3-5.1-0.8-7.6-1.4c-2.5-0.6-4.9-1.4-7.3-2.2c-2.4-0.9-4.6-1.8-6.7-2.8l7.9-22.2c1,0.4,2.3,1,3.7,1.6   c1.5,0.7,3,1.3,4.7,1.8c1.7,0.6,3.4,1,5.2,1.5c1.8,0.4,3.6,0.6,5.3,0.5c2.6-0.1,4.7-0.6,6.5-1.4c1.8-0.8,2.6-2,2.5-3.8   c-0.1-1.2-0.7-2.1-1.8-2.7c-1.1-0.6-2.5-1.2-4.1-1.9c-1-0.3-2.4-0.7-4.1-1.1c-1.7-0.5-3.5-1.1-5.5-2c-1.9-0.8-3.9-1.8-5.9-3   c-2-1.2-3.8-2.6-5.4-4.3c-1.6-1.7-3-3.6-4.1-5.8c-1.1-2.2-1.6-4.7-1.7-7.5c-0.1-4.8,0.7-9.2,2.5-12.9c1.8-3.8,4.3-7,7.4-9.7   c3.1-2.7,6.8-4.7,10.9-6.1c4.2-1.4,8.6-2.2,13.3-2.4c4.4-0.2,8.7,0,13,0.7c4.3,0.7,8.3,1.8,12.1,3.3l-6.1,24   c-2.8-1.2-5.3-2.2-7.6-3c-2.3-0.8-5-1.4-8-1.8c-0.9-0.1-2.1-0.2-3.6-0.2c-1.5,0-2.9,0.2-4.3,0.5c-1.4,0.3-2.7,0.8-3.7,1.5   c-1,0.7-1.6,1.7-1.7,2.9c0,0.6,0.3,1,0.8,1.3c0.5,0.3,1.1,0.6,1.9,0.7c0.7,0.2,1.5,0.3,2.2,0.4c0.8,0.1,1.4,0.2,1.9,0.3   c2,0.4,4.2,0.9,6.4,1.5C479.6,67.6,481.5,68.2,483.3,69z"></path>	</g>	<g>		<path class="st1" d="M156.6,37c4.1,1.4,7.3,3.5,9.7,6.3c2.4,2.8,4,6.1,4.8,9.9c0.8,3.8,0.9,7.9,0.2,12.1   c-0.7,4.2-2.1,8.4-4.2,12.7c-2.1,4.3-4.8,8.2-8.3,11.8s-7.5,6.8-12.2,9.5c-4.7,2.7-9.9,4.6-15.7,5.7l-0.4,18.7l-25.2-2.6   l-1.7-81.2c13.2-1.5,25.8-2.9,38-4.1C147.6,35.2,152.6,35.6,156.6,37z M143.5,68.1c0-0.1,0-0.4,0.1-1.1c0.1-0.7,0-1.5-0.3-2.5   c-0.3-1-0.9-1.8-1.8-2.4c-0.9-0.7-2.3-1-4.3-0.9c-2,0-4.6,0.7-8,2l-1,16.6c2.5-0.6,4.7-1.4,6.5-2.4c1.8-1,3.4-2.1,4.6-3.3   c1.2-1.2,2.2-2.3,2.9-3.4C142.9,69.6,143.3,68.8,143.5,68.1z"></path>		<path class="st1" d="M201.7,35.7l-4.3,84.1l-27.3,3.1l1-83.6L201.7,35.7z"></path>		<path class="st1" d="M208.3,40.7l57.4-4.3l-3.2,26.3l-26.1,1.1l-0.1,5l18.9-1.4L253,85.7l-17.4,1.4l-0.2,5.7l29.7-2.8l-0.5,28.7   l-55.6,3L208.3,40.7z"></path>		<path class="st1" d="M269.6,124.4l25.3-61.2l-30.3,2l5.8-27.2l77.2-2.5l-35.2,58.5l39.1-4.8l-5.2,30.2L269.6,124.4z"></path>		<path class="st1" d="M392.2,30.4l52.5,79.8L412,122.6l-8.7-14.5l-21.8,0.7l-4.3,15.6l-31.3-10.2L392.2,30.4z M386.9,92.3l12.4-2.2   L394,75.9L386.9,92.3z"></path>		<path class="st1" d="M483.3,69c2.1,1,4.3,2.1,6.6,3.3c2.2,1.2,4.3,2.8,6.1,4.6c1.8,1.8,3.4,4,4.6,6.5c1.2,2.5,1.9,5.5,2,9   c0.2,4.9-0.6,9.3-2.4,13c-1.8,3.8-4.3,7-7.6,9.6c-3.3,2.6-7.2,4.6-11.8,6c-4.6,1.4-9.5,2.2-14.8,2.4c-2.4,0.1-4.9-0.1-7.5-0.4   c-2.6-0.3-5.1-0.8-7.6-1.4c-2.5-0.6-4.9-1.4-7.3-2.2c-2.4-0.9-4.6-1.8-6.7-2.8l7.9-22.2c1,0.4,2.3,1,3.7,1.6   c1.5,0.7,3,1.3,4.7,1.8c1.7,0.6,3.4,1,5.2,1.5c1.8,0.4,3.6,0.6,5.3,0.5c2.6-0.1,4.7-0.6,6.5-1.4c1.8-0.8,2.6-2,2.5-3.8   c-0.1-1.2-0.7-2.1-1.8-2.7c-1.1-0.6-2.5-1.2-4.1-1.9c-1-0.3-2.4-0.7-4.1-1.1c-1.7-0.5-3.5-1.1-5.5-2c-1.9-0.8-3.9-1.8-5.9-3   c-2-1.2-3.8-2.6-5.4-4.3c-1.6-1.7-3-3.6-4.1-5.8c-1.1-2.2-1.6-4.7-1.7-7.5c-0.1-4.8,0.7-9.2,2.5-12.9c1.8-3.8,4.3-7,7.4-9.7   c3.1-2.7,6.8-4.7,10.9-6.1c4.2-1.4,8.6-2.2,13.3-2.4c4.4-0.2,8.7,0,13,0.7c4.3,0.7,8.3,1.8,12.1,3.3l-6.1,24   c-2.8-1.2-5.3-2.2-7.6-3c-2.3-0.8-5-1.4-8-1.8c-0.9-0.1-2.1-0.2-3.6-0.2c-1.5,0-2.9,0.2-4.3,0.5c-1.4,0.3-2.7,0.8-3.7,1.5   c-1,0.7-1.6,1.7-1.7,2.9c0,0.6,0.3,1,0.8,1.3c0.5,0.3,1.1,0.6,1.9,0.7c0.7,0.2,1.5,0.3,2.2,0.4c0.8,0.1,1.4,0.2,1.9,0.3   c2,0.4,4.2,0.9,6.4,1.5C479.6,67.6,481.5,68.2,483.3,69z"></path>	</g></g></svg>