<svg xmlns="http://www.w3.org/2000/svg" xmlns:xlink="http://www.w3.org/1999/xlink" id="Capa_1" x="0px" y="0px" viewBox="0 0 1202.07 400" style="enable-background:new 0 0 1202.07 400;" xml:space="preserve"><style type="text/css">	.st0{fill:#FFFFFF;}	.st1{fill:#D61020;}	.st2{fill:#EA0029;}</style><g>	<g>		<g>			<path class="st0" d="M1109.81,234.01c-1.67-10.66-4.54-20.49-8.61-29.36c-2.56-5.42-6.39-10.76-11.39-15.9    c-5.01-5.15-11.17-9.6-18.31-13.22c-7.14-3.62-15.22-6.09-24.01-7.34c-8.94-1.27-18.51-0.81-28.88,1.48    c-10.16,2.38-19.93,6.04-29.04,10.89c-9.06,4.81-17.44,10.7-24.9,17.5c-0.67,0.61-1.29,1.27-1.95,1.89l5.33-33.85l-17.09,1.25    c-30.61,2.23-62.45,4.82-97.11,7.91l0.81-8.21l-16.88,2.1c-18.43,2.29-36.87,4.64-55.3,7.04l-11.15,1.45l-5.19,86.25l-5.48,1.2    c-9.34,2.04-18.69,4.1-28.03,6.16l9.75-103.75l-17.25,2.66c-18.88,2.91-37.76,5.85-56.64,8.8l-11.06,1.73l-0.11,2.7l-53.68-2.48    l-2.83-0.09l-73.26-1.37l0.04,2.64l-44.5-10.63l-9.44,43.32l-8.92-40.27l-55.36,3.94l0.53-5.36l-16.73,1.91    c-17.49,2-29.05,2.8-45.97,4.52c4.51-16.13,12.7-52.93,2.78-80.03c-11.94-32.62-36.97-45.13-43.6-47.94    C279.63,38,245.02,37.03,238.55,36.97c-17.84-1.1-47.04,2.39-50.35,2.79l-59.9,10.88L91.01,345.64l128,8.8l1.99-81.35    c0.63,0.03,1.27,0.06,1.92,0.1l0.5,0.02c45.77,1.13,74.31-20.57,80.4-25.72c7.78-5.72,14.35-12.76,19.8-19.99l-3.43,61.66    l-4.23,70.21l15.87-1.56c16.49-1.62,32.98-3.33,49.47-5.11l10.99-1.19l0.56-5.69l55.15,8.21l0.97-9.55l6.61,11.57l60.57-14.61    l13.01-63.06l0.48,29.16c0.51,10.69,5.71,21.76,6.3,22.98l0.22,0.44c7.34,13.91,17.85,20.71,20.65,22.35    c13.61,8.64,26.35,9.94,32.77,9.94c2.44,0,4.29-0.18,5.36-0.32c37.74-2.88,53.69-31.8,55.9-36.21c0.33-0.61,0.63-1.21,0.94-1.81    l-1.27,32.62l15.81-1.87c31.65-3.74,63.3-7.44,94.94-11.04L760.65,355l16.25-2.04c16.44-2.06,32.88-4.09,49.33-6.06l10.84-1.3    l9.54-96.84l2.03-0.21c2.87-0.29,5.74-0.59,8.61-0.88l-7.9,106.76l16.47-2.04c17.74-2.21,35.48-4.34,53.22-6.39l11.47-1.33    l2.1-43.98c1.04,3.74,2.23,7.48,3.73,11.2c4.07,10.21,9.78,18.77,16.98,25.44c6.98,6.47,14.9,11.41,23.53,14.7    c8.37,3.19,17.28,5,26.49,5.36c1.5,0.06,2.99,0.09,4.47,0.09h0c7.28,0,14.54-0.73,21.58-2.17c8.47-1.74,16.57-4.44,24.09-8.03    c7.76-3.71,14.56-8.21,20.33-13.5c10.64-10.01,18.95-20.86,24.71-32.24c5.71-11.28,9.49-22.77,11.24-34.15    C1111.46,256.05,1111.49,244.82,1109.81,234.01z"></path>		</g>	</g>	<g>		<g>			<path class="st1" d="M331.22,106.33c-10.26-28.04-33.2-36.63-33.2-36.63c-24.51-12.73-60.18-12.76-60.18-12.76    c-16.39-1.13-47.22,2.65-47.22,2.65l-44.35,8.08l-32.8,259.49l86.08,5.91l2.02-82.46c0.58,1.51,22.36,2.62,22.36,2.62    c43.24,1.11,67.47-21.42,67.47-21.42c23.32-16.73,34.52-51.01,34.52-51.01S341.49,134.38,331.22,106.33z M246.06,179.78    c-13.92,0.79-26.05-13.59-27.1-32.11c-1.05-18.52,9.39-34.17,23.31-34.96c13.92-0.79,26.05,13.59,27.1,32.11    C270.42,163.34,259.98,178.99,246.06,179.78z"></path>		</g>	</g>	<g>		<g>			<path class="st0" d="M242.27,112.71c-13.92,0.79-24.36,16.44-23.31,34.96c1.05,18.52,13.18,32.9,27.1,32.11    c13.92-0.79,24.36-16.44,23.31-34.96C268.32,126.29,256.19,111.92,242.27,112.71z M239.7,171.51    c-8.24,0.74-15.89-9.51-17.09-22.89c-1.2-13.38,4.52-24.82,12.76-25.56c7.42-0.66,14.35,7.57,16.54,18.97l-14.37,5.25l14.83,6.55    C251.21,163.56,246.26,170.92,239.7,171.51z"></path>		</g>	</g>	<g>		<g>			<path d="M251.91,142.04c-2.19-11.4-9.12-19.64-16.54-18.97c-8.24,0.74-13.95,12.18-12.76,25.56c1.19,13.38,28.6,14.94,29.75,5.21    l-14.83-6.55L251.91,142.04z"></path>		</g>	</g>	<g>		<g>			<path class="st0" d="M1101.21,204.66c-2.56-5.42-6.39-10.76-11.39-15.9c-5.01-5.15-11.17-9.6-18.31-13.22    c-7.14-3.62-15.22-6.09-24.01-7.34c-8.94-1.27-18.51-0.81-28.88,1.48c-10.16,2.38-19.93,6.04-29.04,10.89    c-9.06,4.81-17.44,10.7-24.9,17.5c-0.67,0.61-1.29,1.27-1.95,1.89l5.33-33.85l-17.09,1.25c-30.61,2.23-62.45,4.82-97.11,7.91    l0.81-8.21l-16.88,2.1c-18.43,2.29-36.87,4.64-55.3,7.04l-11.15,1.45l-5.19,86.25l-5.48,1.2c-9.34,2.04-18.69,4.1-28.03,6.16    l9.75-103.75l-17.25,2.66c-18.88,2.91-37.76,5.85-56.64,8.8l-11.06,1.73l-0.11,2.7l-53.68-2.48l-2.83-0.09l-73.26-1.37l0.04,2.64    l-44.5-10.63l-9.44,43.32l-8.92-40.27l-55.36,3.94l0.53-5.36l-16.73,1.91c-17.49,2-29.05,2.8-45.97,4.52    c4.51-16.13,12.7-52.93,2.78-80.03c-11.94-32.62-36.97-45.13-43.6-47.94C279.63,38,245.02,37.03,238.55,36.97    c-17.84-1.1-47.04,2.39-50.35,2.79l-59.9,10.88l-37.28,295l128,8.8l1.99-81.35c0.63,0.03,1.27,0.06,1.92,0.1l0.5,0.02    c45.77,1.13,74.31-20.57,80.4-25.72c7.78-5.72,14.35-12.76,19.8-19.99l-3.43,61.66l-4.23,70.21l15.87-1.56    c16.49-1.62,32.98-3.33,49.47-5.11l10.99-1.19l0.56-5.69l55.15,8.21l0.97-9.55l6.61,11.57l60.57-14.61l13.01-63.06l0.48,29.16    c0.51,10.69,5.71,21.76,6.3,22.98l0.22,0.44c7.34,13.91,17.85,20.71,20.65,22.35c13.61,8.64,26.35,9.94,32.77,9.94    c2.44,0,4.29-0.18,5.36-0.32c37.74-2.88,53.69-31.8,55.9-36.21c0.33-0.61,0.63-1.21,0.94-1.81l-1.27,32.62l15.81-1.87    c31.65-3.74,63.3-7.44,94.94-11.04L760.65,355l16.25-2.04c16.44-2.06,32.88-4.09,49.33-6.06l10.84-1.3l9.54-96.84l2.03-0.21    c2.87-0.29,5.74-0.59,8.61-0.88l-7.9,106.76l16.47-2.04c17.74-2.21,35.48-4.34,53.22-6.39l11.47-1.33l2.1-43.98    c1.04,3.74,2.23,7.48,3.73,11.2c4.07,10.21,9.78,18.77,16.98,25.44c6.98,6.47,14.9,11.41,23.53,14.7    c8.37,3.19,17.28,5,26.49,5.36c1.5,0.06,2.99,0.09,4.47,0.09h0c7.28,0,14.54-0.73,21.58-2.17c8.47-1.74,16.57-4.44,24.09-8.03    c7.76-3.71,14.56-8.21,20.32-13.5c10.64-10.01,18.95-20.86,24.71-32.24c5.71-11.28,9.49-22.77,11.24-34.15    c1.74-11.34,1.77-22.57,0.09-33.38C1108.14,223.35,1105.27,213.53,1101.21,204.66z M291.42,231.82c0,0-24.23,22.53-67.47,21.42    c0,0-21.78-1.11-22.36-2.62l-2.02,82.46l-86.08-5.91l32.8-259.49l44.35-8.08c0,0,30.83-3.78,47.22-2.65    c0,0,35.67,0.03,60.18,12.76c0,0,22.93,8.59,33.2,36.63c10.26,28.04-5.29,74.48-5.29,74.48S314.74,215.09,291.42,231.82z     M379,339.16c-16.45,1.78-32.9,3.48-49.35,5.1c3-49.91,6.01-99.83,9.01-149.74c18.39-1.91,36.78-3.92,55.18-6.02    C388.9,238.72,383.95,288.94,379,339.16z M503.73,330.23l-42.25,10.19l-22.59-39.57l-3.82,37.61l-32.37-4.82l4.52-141.49    l46.52-3.31l18.73,67.69l19.33-68.83l39.41,9.42L503.73,330.23z M652.3,252.15l-4.63,36.2c0,0-0.62,15.33-9.74,32.1    c0,0-12.44,26.66-45.28,28.95c0,0-13.87,2.41-29.64-7.73c0,0-9.31-5.02-15.66-17.06c0,0-4.57-9.49-4.96-17.72l-1.88-113.97    l45.44-0.4l-1.44,43.11l-1.32,37.02c0,0-2,24.31,11.73,23.35c0,0,5.47,1.21,8.88-5.89c0,0,3.76-6.13,4.55-15.81l6.86-79.32    l44.19,2.16L652.3,252.15z M762.45,330.68c-32.85,3.73-65.71,7.58-98.57,11.46c1.95-49.92,3.89-99.83,5.84-149.75    c18.87-2.95,37.75-5.88,56.62-8.8c-3.29,34.99-6.57,69.97-9.86,104.96c15.41-3.42,30.82-6.82,46.23-10.19    C762.62,295.8,762.53,313.24,762.45,330.68z M823.75,333.39c-16.46,1.98-32.93,4.01-49.39,6.07c3-49.93,6.01-99.86,9.01-149.8    c18.41-2.39,36.82-4.74,55.23-7.03C833.64,232.89,828.7,283.14,823.75,333.39z M921.6,227.61c-1.67,34.96-3.34,69.92-5,104.88    c-17.77,2.05-35.55,4.19-53.33,6.4c2.63-35.46,5.25-70.92,7.88-106.37c-8.25,0.82-16.51,1.66-24.76,2.5    c1.16-15.28,2.33-30.55,3.49-45.83c33.75-3.02,67.49-5.81,101.22-8.27c-2.32,14.76-4.64,29.52-6.97,44.28    C936.62,225.98,929.11,226.79,921.6,227.61z M1095.43,265.33c-1.54,10.01-4.85,20.03-9.93,30.07    c-5.08,10.04-12.38,19.52-21.9,28.48c-4.69,4.3-10.31,8-16.87,11.13c-6.56,3.13-13.55,5.45-20.96,6.98    c-7.42,1.52-15.01,2.13-22.77,1.82c-7.77-0.31-15.16-1.8-22.19-4.48c-7.03-2.68-13.4-6.67-19.13-11.97    c-5.72-5.3-10.25-12.13-13.59-20.5c-3.78-9.36-5.86-18.64-6.23-27.84c-0.37-9.2,0.64-18.04,3.04-26.53    c2.4-8.48,6.02-16.49,10.85-24.01c4.84-7.52,10.58-14.31,17.22-20.36c6.64-6.05,14.01-11.23,22.12-15.54    c8.11-4.31,16.69-7.53,25.76-9.65c8.55-1.89,16.51-2.3,23.87-1.26c7.35,1.05,13.95,3.06,19.78,6.01    c5.83,2.96,10.74,6.48,14.71,10.57c3.97,4.09,6.92,8.17,8.84,12.24c3.49,7.62,5.98,16.17,7.46,25.64    C1096.99,245.58,1096.96,255.32,1095.43,265.33z"></path>		</g>	</g>	<g>		<g>			<polygon class="st2" points="472.46,256.55 453.73,188.85 407.21,192.17 402.7,333.65 435.07,338.47 438.89,300.86     461.49,340.42 503.73,330.23 531.2,197.13 491.79,187.71    "></polygon>		</g>	</g>	<g>		<g>			<path class="st2" d="M608.35,274.3c-0.8,9.68-4.55,15.81-4.55,15.81c-3.41,7.1-8.88,5.89-8.88,5.89    c-13.73,0.96-11.73-23.35-11.73-23.35l1.32-37.02l1.44-43.11l-45.44,0.4l1.88,113.97c0.39,8.23,4.96,17.72,4.96,17.72    c6.35,12.03,15.66,17.06,15.66,17.06c15.77,10.14,29.64,7.73,29.64,7.73c32.84-2.29,45.28-28.95,45.28-28.95    c9.12-16.77,9.74-32.1,9.74-32.1l4.63-36.2l7.09-55.01l-44.19-2.16L608.35,274.3z"></path>		</g>	</g>	<g>		<g>			<path class="st2" d="M338.67,194.52c-3,49.92-6.01,99.83-9.01,149.74c16.45-1.62,32.89-3.33,49.35-5.1    c4.95-50.22,9.9-100.44,14.84-150.67C375.45,190.6,357.06,192.61,338.67,194.52z"></path>		</g>	</g>	<g>		<g>			<path class="st2" d="M726.34,183.6c-18.87,2.91-37.75,5.85-56.62,8.8c-1.95,49.92-3.89,99.83-5.84,149.75    c32.86-3.88,65.72-7.74,98.57-11.46c0.08-17.44,0.17-34.88,0.25-52.32c-15.41,3.37-30.82,6.77-46.23,10.19    C719.76,253.57,723.05,218.58,726.34,183.6z"></path>		</g>	</g>	<g>		<g>			<path class="st2" d="M774.35,339.46c16.47-2.06,32.93-4.09,49.39-6.07c4.95-50.25,9.9-100.5,14.85-150.75    c-18.41,2.29-36.82,4.63-55.23,7.03C780.36,239.6,777.36,289.53,774.35,339.46z"></path>		</g>	</g>	<g>		<g>			<path class="st2" d="M951.09,180.91c-33.72,2.46-67.47,5.25-101.22,8.27c-1.16,15.28-2.33,30.55-3.49,45.83    c8.26-0.85,16.51-1.68,24.76-2.5c-2.63,35.46-5.25,70.92-7.88,106.37c17.78-2.21,35.56-4.35,53.33-6.4    c1.67-34.96,3.34-69.92,5-104.88c7.51-0.82,15.02-1.62,22.52-2.41C946.45,210.43,948.77,195.67,951.09,180.91z"></path>		</g>	</g>	<g>		<g>			<path class="st2" d="M1088.06,210.48c-1.92-4.07-4.87-8.15-8.84-12.24c-3.98-4.09-8.88-7.61-14.71-10.57    c-5.83-2.95-12.43-4.96-19.78-6.01c-7.36-1.05-15.31-0.63-23.87,1.26c-9.06,2.12-17.65,5.35-25.76,9.65    c-8.11,4.31-15.48,9.49-22.12,15.54c-6.64,6.05-12.37,12.84-17.22,20.36c-4.84,7.52-8.46,15.53-10.85,24.01    c-2.39,8.49-3.41,17.33-3.04,26.53c0.37,9.2,2.45,18.48,6.23,27.84c3.33,8.36,7.86,15.19,13.59,20.5    c5.72,5.3,12.09,9.29,19.13,11.97c7.03,2.68,14.42,4.17,22.19,4.48c7.76,0.31,15.35-0.3,22.77-1.82    c7.42-1.52,14.4-3.85,20.96-6.98c6.56-3.13,12.18-6.84,16.87-11.13c9.51-8.96,16.81-18.44,21.9-28.48    c5.08-10.04,8.39-20.06,9.93-30.07c1.53-10.01,1.56-19.75,0.09-29.21C1094.04,226.65,1091.55,218.1,1088.06,210.48z     M1013.63,276.84c-8.45,0.51-15.94-11.09-16.73-25.91c-0.79-14.82,5.43-27.25,13.88-27.76c8.45-0.51,15.94,11.09,16.73,25.91    C1028.3,263.9,1022.08,276.33,1013.63,276.84z"></path>		</g>	</g>	<g>		<g>							<ellipse transform="matrix(0.9988 -0.0496 0.0496 0.9988 -11.1499 50.4909)" class="st0" cx="1012.21" cy="250" rx="15.33" ry="26.88"></ellipse>		</g>	</g></g></svg>