<svg xmlns="http://www.w3.org/2000/svg" xmlns:xlink="http://www.w3.org/1999/xlink" id="Capa_1" x="0px" y="0px" viewBox="0 0 100 100" style="enable-background:new 0 0 100 100;" xml:space="preserve"><style type="text/css">	.st0{fill:#FFFFFF;stroke:#1D1D1B;stroke-width:0.1331;stroke-linecap:round;stroke-linejoin:round;stroke-miterlimit:10;}	.st1{fill:#EA0029;}	.st2{fill:#1D1D1B;}	.st3{fill:#FFFFFF;}	.st4{fill:#1D1E1C;}	.st5{fill:#1E1E1C;}	.st6{fill:#FFCF04;}	.st7{fill:#FF8300;}	.st8{fill:#FFA400;}	.st9{fill:#AA182C;}	.st10{fill:none;stroke:#1D1E1C;stroke-width:0;stroke-linecap:round;stroke-linejoin:round;}	.st11{fill:#EF7D19;}	.st12{fill:#FFDF05;}</style><g>	<path class="st0" d="M88.63,81.25L71.44,51.5c0.19-1.26-0.11-2.57-0.84-3.61c-0.16-0.23-0.34-0.45-0.54-0.64  c-0.09-0.1-0.31-0.35-0.68-0.76c-0.29-1.29-0.98-2.25-1.38-2.72c-0.58-0.71-1.32-1.4-2.22-2.07L58.72,29.5  c-1-1.73-2.47-3.04-4.2-3.83c2.37-3.14,2.93-6.07,3.06-7.15c0.76-3.88-0.07-9.38-4.89-12.43c-1.43-0.91-3.05-1.37-4.81-1.37  c0,0,0,0,0,0c-3.84,0-7.53,2.24-9.91,4.07c-0.04,0-0.08,0-0.12,0c-5.11,0-8.61,3.13-10.44,5.34c-3.15,0.69-5.8,2.25-7.75,4.55  c-1.15,1.36-1.9,2.78-2.38,4.03c-3.36,1.44-4.86,3.67-5.34,4.56c-1.94,3.3-2.35,7.14-1.17,11.12c0.78,2.64,2.02,4.56,2.5,5.25  c1.29,2.08,3.2,3.38,5.53,3.78c0.47,0.08,0.95,0.12,1.43,0.12c1.84,0,3.61-0.56,5.14-1.28c0.56,1.13,1.26,2.56,2.12,4.35  c0.09,0.18,0.14,0.28,0.14,0.29c0,0,0,0.01,0,0.01c0.06,0.17,0.17,0.51,0.3,0.99c-0.51,1.28-0.87,2.92-1.1,4.91L12.72,81.25  c-1.69,2.93-1.69,6.42,0,9.35c1.69,2.93,4.72,4.68,8.1,4.68h59.73c3.38,0,6.41-1.75,8.1-4.68C90.32,87.67,90.32,84.17,88.63,81.25z  "></path>	<g>		<g>			<path class="st1" d="M20.81,91.07c-1.86,0-3.53-0.96-4.46-2.57c-0.93-1.61-0.93-3.54,0-5.15l29.91-51.74    c0.92-1.59,2.57-2.54,4.41-2.54c1.84,0,3.49,0.95,4.41,2.54L85,83.35c0.93,1.61,0.93,3.54,0,5.15c-0.93,1.61-2.6,2.57-4.46,2.57    H20.81z"></path>			<path class="st2" d="M50.68,29.7c1.5,0,3,0.74,3.86,2.23l29.91,51.74c1.74,3.01-0.43,6.77-3.91,6.77H20.81    c-3.47,0-5.65-3.76-3.91-6.77l29.91-51.74C47.67,30.44,49.18,29.7,50.68,29.7 M50.68,28.43c-2.07,0-3.92,1.07-4.96,2.86    L15.81,83.03c-1.05,1.81-1.05,3.97,0,5.78c1.04,1.81,2.92,2.89,5.01,2.89h59.73c2.09,0,3.96-1.08,5.01-2.89    c1.04-1.81,1.04-3.97,0-5.78L55.64,31.29C54.6,29.5,52.75,28.43,50.68,28.43L50.68,28.43z"></path>		</g>		<g>			<path class="st3" d="M23.93,86.6c-0.78,0-1.48-0.4-1.86-1.08c-0.39-0.67-0.39-1.48,0-2.15L48.81,37.1    c0.39-0.67,1.09-1.08,1.86-1.08c0.78,0,1.47,0.4,1.86,1.08l26.75,46.28c0.39,0.67,0.39,1.48,0,2.15    c-0.39,0.67-1.09,1.08-1.86,1.08H23.93z"></path>			<path class="st2" d="M50.68,36.65c0.26,0,0.92,0.07,1.31,0.76l26.75,46.28c0.4,0.69,0.13,1.29,0,1.52    c-0.13,0.23-0.52,0.76-1.32,0.76h-53.5c-0.79,0-1.18-0.53-1.32-0.76c-0.13-0.23-0.4-0.83,0-1.52l26.75-46.28    C49.76,36.73,50.41,36.65,50.68,36.65 M50.68,35.39c-0.94,0-1.88,0.46-2.41,1.39L21.51,83.05c-1.07,1.86,0.27,4.18,2.41,4.18    h53.5c2.15,0,3.49-2.32,2.41-4.18L53.09,36.78C52.55,35.85,51.62,35.39,50.68,35.39L50.68,35.39z"></path>		</g>		<g>			<g>				<path class="st3" d="M60.13,73.52c0,0,0.96-1.13,1.3-1.17l-0.56-0.57C60.87,71.78,60.33,72.65,60.13,73.52"></path>				<path class="st3" d="M60.13,73.52c0,0,0.96-1.13,1.3-1.17l-0.56-0.57C60.87,71.78,60.33,72.65,60.13,73.52"></path>				<path class="st4" d="M52.86,17.81c0,0,1.3-5.13-2.72-7.68c-4.02-2.55-10.65,3.61-10.65,3.61c-5.98-1.26-9.39,4.8-9.39,4.8     c-8.25,0.71-8.93,7.94-8.93,7.94c-4.02,0.82-5.1,3.17-5.1,3.17c-3.23,5.41,1.19,11.4,1.19,11.4c2.64,4.45,9.19-1.08,9.19-1.08     l0.71-0.48c0.03-0.01,0.06-0.02,0.09-0.03c0.9,1.53,4.64,9.29,4.64,9.29c0.4,0.68,1.11,3.6,1.11,3.6     c4.17,0.57,9.07-1.73,13.24-4.99c4.17-3.26,6.29-8.96,6.29-8.96c-1.16-0.96-5.02-6.89-5.02-6.89c-0.72-0.84-1.64-3.29-1.91-4.04     c0.23-0.34,0.35-0.58,0.35-0.58C52.61,23.05,52.86,17.81,52.86,17.81"></path>				<path class="st4" d="M54.05,17.98c0.17-0.78,1.1-6.1-3.27-8.87c-4.08-2.59-9.71,1.68-11.66,3.35c-5.24-0.75-8.6,3.32-9.72,4.95     c-6.86,0.86-8.77,5.99-9.27,8.08c-3.58,0.98-4.85,3.07-5.1,3.55l0,0c-3.53,5.91,0.84,12.15,1.2,12.65     c0.75,1.25,1.81,2,3.15,2.23c2.94,0.5,6.33-1.87,7.42-2.71c0.61,1.18,1.75,3.46,3.88,7.86c0.07,0.15,0.12,0.24,0.12,0.26     l0.02,0.04c0.17,0.28,0.62,1.81,0.98,3.28c0.12,0.49,0.51,0.84,1.01,0.91c0.48,0.07,0.98,0.1,1.49,0.1     c5.07,0,10.1-3.34,12.65-5.33c4.41-3.45,6.59-9.24,6.68-9.48c0.18-0.48,0.04-1.02-0.36-1.35c-0.65-0.54-2.97-3.84-4.83-6.68     l-0.05-0.06c-0.33-0.38-0.89-1.56-1.46-3.03C53.3,23.84,53.98,18.75,54.05,17.98z M30.2,19.74c0.4-0.03,0.75-0.26,0.94-0.6     c0.12-0.22,3.1-5.28,8.09-4.22c0.38,0.08,0.78-0.03,1.07-0.3c0.06-0.06,6.03-5.48,9.19-3.48c3.26,2.06,2.24,6.2,2.2,6.36     c-0.02,0.08-0.03,0.16-0.04,0.24c-0.01,0.19-0.33,4.66-6.31,8.12c-0.19,0.11-0.36,0.28-0.47,0.49c0,0-0.1,0.19-0.28,0.46     c-0.21,0.32-0.26,0.72-0.13,1.08c0.36,0.99,1.27,3.38,2.05,4.32c0.29,0.45,3.04,4.67,4.59,6.46c-0.69,1.56-2.6,5.38-5.62,7.75     c-4.08,3.19-8.26,4.93-11.54,4.81c-0.3-1.16-0.69-2.48-0.99-3.02c-0.25-0.52-3.77-7.81-4.68-9.36c-0.28-0.47-0.93-0.7-1.48-0.51     c-0.12,0.04-0.23,0.09-0.32,0.16l-0.76,0.52l-0.05,0.04c-0.96,0.81-3.88,2.82-5.87,2.49c-0.65-0.11-1.12-0.47-1.54-1.16     l-0.03-0.04c-0.16-0.22-3.86-5.5-1.1-10.12l0.03-0.05c0.01-0.02,0.92-1.83,4.26-2.51c0.52-0.11,0.9-0.53,0.95-1.06     C22.39,26.34,23.05,20.36,30.2,19.74z"></path>				<path class="st4" d="M59.32,42.65c-0.55-0.17-0.81-0.34-0.81-0.34c-0.25-0.58-1.3-1.27-1.3-1.27c-1.32-1.21-4.07-2.18-4.07-2.18     c-3.37,7.63-8.47,10.4-8.47,10.4c-5.98,4.65-11.91,3.8-11.91,3.8c-0.86,1.22-1.19,5.17-1.19,5.17c0.28-0.06,0.54-0.81,0.54-0.81     l0.46,0.34c-0.33,0.72-0.23,4.64-0.23,4.64c0.15-0.01,0.31-0.38,0.31-0.38l0.53,0.34c-0.19,3.03,0.74,4.89,0.74,4.89l1.49-0.41     l-0.37,1.79l0.35-0.05c0.89,2.32,2.09,3.1,2.09,3.1l-0.33-1.2l0.55-0.34l1.85,2.62c0.97,1.6,2.07,2.41,2.07,2.41l0.02-1.89     c1.46,2.33,4.69,4.06,4.69,4.06l-1.13-2.26l0.43-0.44c0.1,0.25,1.47,0.84,1.47,0.84c4.35,1.48,11.96-0.23,11.96-0.23     c1.74-1.23,1.86-3.56,1.86-3.56l2.13,1.51c1.66-1.24,1.62-3.66,1.62-3.66l1.35,0.15l0.69-1.06c2.23-0.71,1.76-2.56,1.76-2.56     s1.75-2.6,0.98-4.44c-0.76-1.84-2.88-2.3-2.88-2.3c0.61-1.57,0.15-3.2,0.15-3.2l0.81-0.27l-1.13-1.12     c0.4-1.49-0.36-3.55-0.36-3.55c-0.03-0.17,0.4-0.26,0.4-0.26c0.31-0.07,0.18-0.25,0.18-0.25c-0.2-0.19-2.21-2.48-2.21-2.48     l0.19-0.29c0.22-0.39-0.34-1.04-0.34-1.04c-1.15-1.43-3.56-2.63-3.56-2.63l0.34-0.38c0.16-0.11,0.13-0.25,0.13-0.25     c-0.01-0.1-0.94-0.49-0.94-0.49L59.32,42.65z"></path>				<path class="st5" d="M70.64,61.12c-0.58-1.39-1.69-2.18-2.54-2.6c0.08-0.57,0.09-1.1,0.05-1.54c0.31-0.17,0.54-0.47,0.63-0.83     c0.1-0.43-0.03-0.9-0.35-1.21l-0.65-0.65c0.09-0.93-0.07-1.88-0.24-2.56c0.17-0.18,0.26-0.36,0.3-0.49     c0.2-0.52,0.04-1.03-0.17-1.31c-0.03-0.05-0.09-0.12-0.17-0.2c-0.11-0.11-0.72-0.8-1.59-1.78c0.14-0.91-0.5-1.72-0.67-1.92     c-0.74-0.91-1.86-1.72-2.8-2.29c0.01-0.11,0-0.23-0.02-0.33c-0.11-0.76-0.7-1.06-1.65-1.47l-0.9-0.45l-0.03-0.01     c-0.05-0.02-0.11-0.05-0.17-0.06c-0.1-0.03-0.19-0.06-0.28-0.1c-0.43-0.6-1.09-1.08-1.42-1.3c-1.49-1.31-4.13-2.27-4.44-2.37     c-0.64-0.22-1.32,0.08-1.6,0.7c-3.07,6.95-7.64,9.64-7.92,9.8c-0.06,0.03-0.12,0.07-0.17,0.11c-5.34,4.15-10.65,3.57-10.92,3.54     l-0.03,0c-0.48-0.06-0.94,0.15-1.21,0.54c-1.02,1.45-1.36,5.09-1.42,5.79c-0.04,0.41,0.13,0.81,0.44,1.09     c0.1,0.09,0.22,0.16,0.34,0.21c-0.05,1.09-0.04,2.32-0.02,3.03c0.01,0.35,0.16,0.68,0.42,0.92c0.12,0.11,0.25,0.19,0.4,0.24     c0.08,2.5,0.81,4.04,0.9,4.22c0.19,0.39,0.57,0.64,0.98,0.7c-0.03,0.36,0.1,0.72,0.35,0.98c0.12,0.13,0.26,0.22,0.41,0.29     c1,2.12,2.21,2.92,2.26,2.95c0.38,0.25,0.86,0.28,1.27,0.08l0.43,0.6c1.01,1.67,2.17,2.59,2.39,2.75l0.01,0.01     c0.39,0.29,0.9,0.33,1.33,0.11c0.09-0.05,0.18-0.1,0.26-0.17c1.43,1.28,2.93,2.14,3.27,2.32c0.19,0.1,0.39,0.15,0.61,0.15     c0.34,0,0.65-0.13,0.89-0.36c0.36-0.34,0.48-0.85,0.34-1.31c4.54,1.1,11.01-0.28,11.77-0.45c0.17-0.03,0.32-0.1,0.47-0.21     c0.98-0.69,1.56-1.62,1.91-2.47l0.59,0.42c0.46,0.32,1.06,0.31,1.51-0.02c1.23-0.92,1.75-2.27,1.97-3.27l0.1,0.01     c0.48,0.05,0.95-0.18,1.21-0.58l0.46-0.71c1.73-0.74,2.29-2.19,2.25-3.33C70.4,65.29,71.44,63.04,70.64,61.12z M67.22,66.35     c0.05,0.21,0.06,0.74-0.9,1.04c-0.28,0.09-0.53,0.28-0.69,0.52l-0.26,0.4l-0.55-0.06c-0.37-0.05-0.74,0.07-1.02,0.33     c-0.27,0.25-0.42,0.6-0.42,0.96c0,0.01,0,1.08-0.51,1.94l-1.2-0.85c-0.38-0.27-0.89-0.31-1.3-0.11c-0.43,0.2-0.7,0.62-0.72,1.08     c0,0.07-0.12,1.56-1.13,2.44c-1.26,0.26-7.43,1.41-10.92,0.24c-0.45-0.2-0.83-0.4-0.98-0.49c-0.18-0.21-0.43-0.36-0.72-0.42     c-0.43-0.09-0.87,0.05-1.18,0.36l-0.42,0.43c-0.03,0.03-0.06,0.06-0.08,0.09c-0.63-0.57-1.13-1.13-1.47-1.67     c-0.24-0.38-0.65-0.6-1.09-0.6c-0.11,0-0.23,0.02-0.35,0.05c-0.19,0.05-0.36,0.15-0.5,0.28c-0.06-0.09-0.11-0.17-0.16-0.26     l-1.87-2.65c-0.39-0.56-1.15-0.71-1.72-0.35l-0.02,0.01c-0.16-0.29-0.3-0.61-0.43-0.94c-0.03-0.06-0.06-0.13-0.09-0.19     l0.17-0.82c0.09-0.44-0.06-0.9-0.38-1.2c-0.33-0.31-0.78-0.42-1.23-0.3l-0.32,0.09c-0.19-0.74-0.37-1.85-0.28-3.24     c0.03-0.47-0.2-0.92-0.59-1.17l-0.26-0.17c0-1.63,0.08-2.63,0.14-2.84c0.23-0.54,0.06-1.19-0.41-1.54l-0.26-0.19     c0.14-0.87,0.3-1.61,0.47-2.13c1.99,0.06,6.88-0.26,11.83-4.07c0.69-0.4,5.14-3.18,8.41-9.83c0.79,0.34,1.91,0.9,2.54,1.48     c0.05,0.05,0.11,0.09,0.17,0.13c0.37,0.24,0.74,0.58,0.82,0.7c0.1,0.23,0.26,0.42,0.47,0.56c0.12,0.08,0.45,0.27,1.03,0.46     l0.58,0.29c-0.01,0.11,0,0.23,0.02,0.34c0.08,0.39,0.33,0.73,0.69,0.9c0.02,0.01,2.15,1.09,3.12,2.26     c-0.21,0.46-0.14,1,0.2,1.39c0.15,0.18,0.83,0.95,1.41,1.6c-0.1,0.25-0.14,0.52-0.08,0.8c0.01,0.07,0.03,0.13,0.05,0.19     l0.02,0.05c0.17,0.46,0.55,1.85,0.31,2.74c-0.12,0.45,0.01,0.93,0.34,1.25l0.02,0.02c-0.09,0.25-0.11,0.53-0.03,0.8l0,0     c0.02,0.07,0.32,1.27-0.11,2.38c-0.14,0.35-0.11,0.74,0.07,1.07c0.18,0.33,0.49,0.56,0.85,0.65l0.01,0     c0.07,0.02,1.49,0.39,1.97,1.53c0.34,0.82-0.31,2.41-0.86,3.24C67.2,65.64,67.14,66.01,67.22,66.35z"></path>				<path class="st6" d="M59.32,42.65c-0.55-0.17-0.81-0.34-0.81-0.34c-0.25-0.58-1.3-1.27-1.3-1.27c-1.32-1.21-4.07-2.18-4.07-2.18     c-3.37,7.63-8.47,10.4-8.47,10.4c-5.98,4.65-11.91,3.8-11.91,3.8c-0.86,1.22-1.19,5.17-1.19,5.17c0.28-0.06,0.54-0.81,0.54-0.81     l0.46,0.34c-0.33,0.72-0.23,4.64-0.23,4.64c0.15-0.01,0.31-0.38,0.31-0.38l0.53,0.34c-0.19,3.03,0.74,4.89,0.74,4.89l1.49-0.41     l-0.37,1.79l0.35-0.05c0.89,2.32,2.09,3.1,2.09,3.1l-0.33-1.2l0.55-0.34l1.85,2.62c0.97,1.6,2.07,2.41,2.07,2.41l0.02-1.89     c1.46,2.33,4.69,4.06,4.69,4.06l-1.13-2.26l0.43-0.44c0.1,0.25,1.47,0.84,1.47,0.84c4.35,1.48,11.96-0.23,11.96-0.23     c1.74-1.23,1.86-3.56,1.86-3.56l2.13,1.51c1.66-1.24,1.62-3.66,1.62-3.66l1.35,0.15l0.69-1.06c2.23-0.71,1.76-2.56,1.76-2.56     s1.75-2.6,0.98-4.44c-0.76-1.84-2.88-2.3-2.88-2.3c0.61-1.57,0.15-3.2,0.15-3.2l0.81-0.27l-1.13-1.12     c0.4-1.49-0.36-3.55-0.36-3.55c-0.03-0.17,0.4-0.26,0.4-0.26c0.31-0.07,0.18-0.25,0.18-0.25c-0.2-0.19-2.21-2.48-2.21-2.48     l0.19-0.29c0.22-0.39-0.34-1.04-0.34-1.04c-1.15-1.43-3.56-2.63-3.56-2.63l0.34-0.38c0.16-0.11,0.13-0.25,0.13-0.25     c-0.01-0.1-0.94-0.49-0.94-0.49L59.32,42.65z"></path>				<path class="st3" d="M52.86,17.81c0,0,1.3-5.13-2.72-7.68c-4.02-2.55-10.65,3.61-10.65,3.61c-5.98-1.26-9.39,4.8-9.39,4.8     c-8.25,0.71-8.93,7.94-8.93,7.94c-4.02,0.82-5.1,3.17-5.1,3.17c-3.23,5.41,1.19,11.4,1.19,11.4c2.64,4.45,9.19-1.08,9.19-1.08     l0.71-0.48c0.03-0.01,0.06-0.02,0.09-0.03c0.9,1.53,4.64,9.29,4.64,9.29c0.4,0.68,1.05,3.04,1.05,3.04     c4.17,0.57,8.79-1.37,12.96-4.63c4.17-3.26,6.36-9.02,6.36-9.02c-1.16-0.96-4.75-6.63-4.75-6.63c-0.72-0.84-1.64-3.29-1.91-4.04     c0.23-0.34,0.35-0.58,0.35-0.58C52.61,23.05,52.86,17.81,52.86,17.81"></path>				<path class="st1" d="M66.3,69.93c0.04-0.11,0.07-0.22,0.11-0.32c-0.01,0.03-0.02,0.05-0.03,0.08     C66.35,69.77,66.33,69.85,66.3,69.93"></path>				<path class="st7" d="M59.63,65.12c0,0.05-0.01,0.11-0.01,0.16c0.04-0.07,0.08-0.13,0.13-0.2c-0.03,0.01-0.06,0.02-0.09,0.03     C59.64,65.12,59.64,65.12,59.63,65.12"></path>				<path class="st8" d="M62.03,63.19L62.03,63.19L62.03,63.19l-0.2-0.12c-0.13-0.08-0.26-0.15-0.38-0.22     c-0.26-0.14-0.52-0.28-0.78-0.4c-0.52-0.25-1.05-0.48-1.57-0.65c-0.52-0.17-1.05-0.3-1.56-0.32c-0.25-0.01-0.5,0-0.73,0.05     l-0.16,0.04c-0.01,0,0,0-0.01,0.01l-0.04,0.02l-0.08,0.04c-0.11,0.06-0.22,0.12-0.32,0.19c-0.2,0.13-0.38,0.26-0.56,0.41     c-0.2,0.16-0.38,0.34-0.54,0.53c-0.16,0.18-0.28,0.36-0.4,0.56c-0.13,0.21-0.26,0.42-0.4,0.62c-0.28,0.39-0.59,0.77-0.96,1.06     c0.05,0.11,0.09,0.22,0.13,0.34c0.84-0.04,1.72-0.09,2.65-0.21c1.08-0.13,2.21-0.33,3.33-0.67c0.35-0.11,0.69-0.23,1.03-0.38     c0.21-0.09,0.41-0.18,0.61-0.29c0.13-0.07,0.26-0.14,0.38-0.22l0.19-0.12c0.06-0.04,0.12-0.08,0.18-0.13L62.03,63.19     C62.04,63.18,62.03,63.19,62.03,63.19"></path>				<path class="st7" d="M58.49,65.41c-0.01,0.21-0.02,0.44-0.03,0.67c0,0.03,0,0.06,0,0.1c0,0.23-0.01,0.47-0.01,0.72     c0,0.14,0,0.29,0,0.43l0,0.15c0,0.08,0,0.15,0.01,0.23c0,0.15,0.01,0.31,0.01,0.47c-0.32-0.04-0.64-0.07-0.97-0.11     c-0.42-0.07-0.82-0.2-1.18-0.35c-0.26-0.11-0.5-0.23-0.72-0.37c-0.53-0.33-0.95-0.72-1.25-1.07c-0.11-0.13-0.21-0.26-0.29-0.38     c-0.15,0-0.29,0.01-0.44,0.01c0.05,0.33,0.05,0.69-0.03,1.05c0.39,0.28,0.81,0.54,1.27,0.78c0.23,0.12,0.48,0.23,0.73,0.33     c0.26,0.1,0.52,0.18,0.78,0.25c0.4,0.1,0.83,0.16,1.25,0.16c0.14,0,0.28-0.01,0.43-0.02c0.08,0,0.16-0.02,0.24-0.03     c0.08-0.01,0.16-0.03,0.24-0.05c0.08-0.02,0.16-0.03,0.24-0.06l0.01,0c0-0.08,0.01-0.15,0.01-0.23     c0.01-0.16,0.01-0.31,0.02-0.47c0.02-0.31,0.04-0.61,0.06-0.9c0.02-0.24,0.03-0.47,0.05-0.7c0.02-0.25,0.04-0.5,0.07-0.75     C58.82,65.33,58.66,65.37,58.49,65.41"></path>				<path class="st9" d="M57.85,66.04c0.02-0.18,0.04-0.35,0.07-0.52c-0.49,0.09-0.96,0.15-1.43,0.21c0.09,0.1,0.18,0.21,0.25,0.33     c0.1,0.17,0.18,0.36,0.24,0.55c0.06,0.22,0.1,0.44,0.11,0.65c0.17,0.05,0.35,0.09,0.53,0.12l0.13,0.01c0.01,0,0.02,0,0.02,0     v-0.01v-0.06c0-0.15,0.01-0.3,0.01-0.45C57.8,66.59,57.82,66.31,57.85,66.04"></path>				<path class="st1" d="M56.61,66.73c-0.1-0.34-0.27-0.63-0.48-0.85c-0.03-0.04-0.07-0.07-0.11-0.1c-0.47,0.05-0.94,0.08-1.39,0.1     c0.02,0.02,0.04,0.04,0.06,0.06c0.32,0.28,0.73,0.59,1.22,0.86c0.24,0.13,0.5,0.25,0.78,0.35     C56.67,67.01,56.65,66.87,56.61,66.73"></path>				<path class="st3" d="M52.48,62.69c-0.04-0.02,0.05-0.37,0.1-1.03c0.05-0.66,0.04-1.62-0.17-2.77c-0.11-0.57-0.25-1.21-0.48-1.85     c-0.22-0.64-0.53-1.3-1-1.88l-0.09-0.11c-0.03-0.03-0.06-0.07-0.1-0.1c-0.06-0.07-0.13-0.13-0.19-0.2     c-0.07-0.07-0.14-0.13-0.21-0.19c-0.07-0.06-0.14-0.13-0.22-0.18c-0.08-0.05-0.16-0.11-0.24-0.16     c-0.08-0.04-0.17-0.09-0.25-0.14c-0.08-0.05-0.17-0.08-0.26-0.12c-0.09-0.03-0.18-0.08-0.27-0.1c-0.37-0.12-0.77-0.15-1.17-0.11     l-0.15,0.01l-0.15,0.03c-0.1,0.02-0.2,0.03-0.3,0.07L47.2,53.9c-0.05,0.01-0.11,0.03-0.14,0.04c-0.04,0.02-0.08,0.04-0.13,0.06     c-0.04,0.02-0.09,0.05-0.13,0.07c-0.35,0.21-0.65,0.5-0.89,0.82c-0.11,0.17-0.23,0.33-0.31,0.52c-0.04,0.09-0.1,0.17-0.13,0.27     c-0.04,0.09-0.07,0.19-0.11,0.28c-0.27,0.76-0.33,1.56-0.31,2.33c0,0.09,0,0.19,0,0.28c0,0.1,0.02,0.19,0.02,0.28     c0.02,0.19,0.04,0.37,0.06,0.55c0.02,0.18,0.06,0.36,0.09,0.53c0.03,0.17,0.06,0.35,0.1,0.51c0.04,0.17,0.08,0.33,0.12,0.49     c0.05,0.16,0.1,0.31,0.14,0.46c0.04,0.15,0.1,0.3,0.16,0.44c0.05,0.14,0.11,0.28,0.17,0.41c0.48,1.06,1.14,1.75,1.66,2.13     c0.11,0.08,0.22,0.14,0.31,0.19c0.43-0.05,1.02-0.13,1.66-0.3c0.63-0.17,1.18-0.38,1.57-0.56c0.39-0.17,0.63-0.3,0.67-0.26     c0.04,0.05-0.14,0.28-0.51,0.53c-0.15,0.11-0.34,0.22-0.56,0.32c0.84-0.35,1.76-0.95,2-1.93c0.04-0.15,0.07-0.34,0.1-0.56     C52.69,62.4,52.52,62.7,52.48,62.69 M48.74,63.62c-1.45,0.25-2.95-1.46-3.35-3.82c-0.4-2.36,0.45-4.47,1.9-4.71     c1.31-0.22,2.65,1.14,3.2,3.13l-2.47,1.13l2.72,0.95C50.67,62.04,49.9,63.42,48.74,63.62"></path>				<path class="st3" d="M58.57,60.71c-0.02-0.12,0.78-0.38,1.68-0.91c0.47-0.27,0.86-0.55,1.15-0.75c0.01-0.14,0.02-0.35,0.03-0.61     c0-0.07,0-0.14,0-0.21c0-0.07,0-0.15,0-0.23c0-0.16-0.01-0.34-0.01-0.52c-0.02-0.19-0.04-0.38-0.06-0.6     c0-0.11-0.02-0.22-0.04-0.33c-0.02-0.11-0.04-0.23-0.06-0.34c-0.18-0.92-0.38-2.06-1.03-3.07c-0.09-0.12-0.16-0.25-0.26-0.36     c-0.05-0.06-0.09-0.12-0.15-0.17c-0.05-0.05-0.11-0.1-0.16-0.16c-0.22-0.2-0.47-0.38-0.75-0.49c-0.28-0.11-0.58-0.16-0.88-0.13     l-0.11,0.01c-0.04,0-0.08,0.02-0.11,0.02c-0.07,0.02-0.15,0.03-0.23,0.06c-0.07,0.03-0.16,0.05-0.21,0.08     c-0.03,0.01-0.06,0.04-0.09,0.05l-0.09,0.06c-0.25,0.18-0.46,0.43-0.63,0.71c-0.17,0.27-0.28,0.58-0.38,0.89     c-0.05,0.18-0.09,0.36-0.12,0.54c0.27-0.71,0.73-1.2,1.31-1.3c1.06-0.18,2.16,1.01,2.63,2.74l-2,0.96l2.22,0.85     c-0.04,1.5-0.65,2.69-1.59,2.85c-0.58,0.1-1.18-0.22-1.67-0.81c0.27,0.49,0.57,0.86,0.85,1.08c0.13,0.11,0.25,0.2,0.35,0.26     c0.07,0.01,0.13,0.03,0.19,0.04c0.25-0.05,0.6-0.13,0.98-0.25c-0.06,0.01-0.11,0.03-0.16,0.04     C58.81,60.78,58.58,60.77,58.57,60.71"></path>				<path class="st3" d="M61.64,58.88c0.02-0.11,0.03-0.24,0.04-0.37c-0.03,0.16-0.06,0.29-0.1,0.4     C61.61,58.9,61.62,58.89,61.64,58.88"></path>				<path class="st3" d="M59.8,60.5c0.7-0.25,1.4-0.62,1.68-1.12c-0.24,0.26-0.58,0.54-1.02,0.79C60.24,60.31,60.02,60.42,59.8,60.5     "></path>				<path class="st4" d="M50.74,60.3l-2.72-0.95l2.47-1.14c-0.55-1.99-1.9-3.35-3.2-3.13c-1.45,0.25-2.3,2.36-1.9,4.71     c0.4,2.35,1.9,4.06,3.35,3.82C49.9,63.42,50.67,62.04,50.74,60.3"></path>				<path class="st4" d="M43.4,53.64c0.15,0.02,0.31-0.27,0.54-0.69c0.23-0.42,0.54-0.98,1.01-1.4c0.23-0.21,0.48-0.35,0.74-0.46     c0.25-0.11,0.51-0.16,0.73-0.21c0.46-0.09,0.79-0.13,0.82-0.28c0.03-0.13-0.25-0.36-0.81-0.47c-0.28-0.05-0.64-0.07-1.03,0.03     c-0.39,0.09-0.81,0.29-1.16,0.61c-0.35,0.31-0.59,0.68-0.75,1.02c-0.16,0.35-0.24,0.67-0.27,0.95     C43.15,53.28,43.26,53.63,43.4,53.64"></path>				<path class="st4" d="M57.23,49.51c0.16-0.05,0.35-0.09,0.54-0.12c0.2-0.03,0.4-0.02,0.62,0c0.44,0.07,0.86,0.25,1.19,0.4     c0.09,0.03,0.16,0.07,0.23,0.1c0.07,0.03,0.14,0.05,0.2,0.06c0.12,0.02,0.22,0.01,0.27-0.04c0.05-0.05,0.06-0.14,0.02-0.26     c-0.02-0.06-0.05-0.13-0.09-0.21c-0.04-0.07-0.09-0.16-0.16-0.24c-0.07-0.08-0.15-0.17-0.25-0.26c-0.04-0.05-0.1-0.09-0.15-0.13     c-0.06-0.04-0.12-0.08-0.18-0.12c-0.25-0.16-0.57-0.29-0.93-0.35c-0.37-0.04-0.73,0-1.03,0.11c-0.29,0.12-0.53,0.27-0.69,0.43     c-0.32,0.32-0.38,0.63-0.27,0.72C56.66,49.69,56.9,49.61,57.23,49.51"></path>				<path class="st4" d="M51.35,54.63c-0.03-0.04-0.07-0.08-0.11-0.12c-0.07-0.08-0.14-0.16-0.22-0.24     c-0.07-0.08-0.16-0.15-0.24-0.22c-0.08-0.07-0.16-0.15-0.26-0.21c-0.09-0.07-0.18-0.13-0.27-0.2c-0.1-0.06-0.2-0.11-0.3-0.17     c-0.1-0.06-0.21-0.1-0.32-0.15c-0.11-0.04-0.21-0.09-0.33-0.12c-0.45-0.15-0.94-0.2-1.43-0.15l-0.18,0.02l-0.18,0.03     c-0.12,0.02-0.24,0.04-0.36,0.08l-0.17,0.05c-0.06,0.02-0.11,0.03-0.18,0.06c-0.07,0.03-0.13,0.06-0.18,0.09     c-0.06,0.03-0.12,0.06-0.17,0.1c-0.44,0.26-0.8,0.62-1.09,1.01c-0.13,0.2-0.27,0.4-0.37,0.62c-0.05,0.11-0.11,0.21-0.15,0.32     c-0.04,0.11-0.09,0.21-0.12,0.33c-0.31,1.09-0.37,2.03-0.38,2.7c0,0.5,0.03,0.85,0.03,1c0.13,0.57,0.3,1.07,0.5,1.51     c0.01,0.05,0.03,0.11,0.04,0.16c0.06,0.16,0.12,0.33,0.17,0.49c0.01,0.02,0.01,0.03,0.02,0.05c0.04,0.11,0.09,0.22,0.14,0.33     c0.01,0.02,0.02,0.05,0.03,0.07c0.07,0.15,0.13,0.29,0.21,0.43c0.57,1.11,1.35,1.81,1.96,2.14c0.01,0.01,0.03,0.01,0.04,0.02     c-0.18,0.03-0.29,0.06-0.29,0.1c0,0.03,0.07,0.06,0.19,0.09c0.12,0.02,0.3,0.06,0.53,0.07c0.45,0.03,1.08-0.01,1.75-0.18     c0.39-0.11,0.75-0.25,1.06-0.39c0.21-0.1,0.4-0.21,0.56-0.32c0.38-0.26,0.56-0.49,0.51-0.53c-0.04-0.04-0.27,0.09-0.67,0.26     c-0.39,0.18-0.94,0.39-1.57,0.56c-0.64,0.16-1.22,0.24-1.66,0.3c-0.1-0.05-0.2-0.12-0.31-0.19c-0.52-0.37-1.19-1.07-1.66-2.13     c-0.07-0.13-0.12-0.27-0.17-0.41s-0.12-0.28-0.16-0.44c-0.05-0.15-0.1-0.31-0.14-0.46c-0.04-0.16-0.08-0.33-0.12-0.49     c-0.04-0.17-0.07-0.34-0.1-0.51c-0.03-0.17-0.07-0.35-0.09-0.53c-0.02-0.18-0.04-0.36-0.06-0.55c-0.01-0.09-0.02-0.19-0.02-0.28     c0-0.09,0-0.19,0-0.28c-0.02-0.76,0.04-1.57,0.31-2.33c0.03-0.09,0.07-0.19,0.11-0.28c0.03-0.1,0.09-0.18,0.13-0.27     c0.08-0.18,0.2-0.35,0.31-0.52c0.24-0.32,0.54-0.62,0.89-0.82c0.04-0.03,0.09-0.05,0.13-0.07c0.04-0.02,0.09-0.04,0.13-0.06     c0.03-0.01,0.09-0.03,0.14-0.04l0.15-0.05c0.1-0.04,0.2-0.05,0.3-0.07l0.15-0.03l0.15-0.01c0.4-0.04,0.8,0,1.17,0.11     c0.09,0.02,0.18,0.06,0.27,0.1c0.09,0.04,0.18,0.07,0.26,0.12c0.08,0.05,0.17,0.09,0.25,0.14c0.08,0.05,0.16,0.11,0.24,0.16     c0.08,0.05,0.15,0.11,0.22,0.18c0.07,0.06,0.14,0.12,0.21,0.19c0.06,0.07,0.13,0.14,0.19,0.2c0.03,0.03,0.07,0.07,0.1,0.1     l0.08,0.11c0.46,0.58,0.77,1.24,1,1.88c0.22,0.64,0.37,1.28,0.48,1.85c0.22,1.15,0.22,2.11,0.17,2.77     c-0.05,0.66-0.14,1.01-0.1,1.03c0.04,0.02,0.21-0.28,0.34-0.86c0.01-0.04,0.02-0.08,0.03-0.13c0.13-0.67,0.21-1.67,0.04-2.88     c-0.08-0.61-0.2-1.26-0.41-1.96c-0.06-0.18-0.12-0.37-0.2-0.56c-0.2-0.52-0.47-1.05-0.84-1.54L51.35,54.63z"></path>				<path class="st4" d="M52.27,63.78c-0.09,0.06,0.13,0.42,0.36,1.03c0.11,0.3,0.22,0.67,0.26,1.08c0.04,0.4,0,0.85-0.16,1.29     c-0.13,0.36,0.4,0.39,0.6,0.39c0.04,0,0.07,0,0.07,0c0.35,0.26,0.74,0.52,1.16,0.75c0.25,0.14,0.51,0.26,0.79,0.38     c0.27,0.11,0.56,0.21,0.86,0.29c0.6,0.16,1.25,0.24,1.92,0.17c0.1,0,0.19-0.02,0.28-0.04c0.1-0.01,0.19-0.03,0.28-0.06     c0.08-0.02,0.16-0.03,0.24-0.06c0.01,0,0.03-0.01,0.04-0.01c0.16-0.05,0.33-0.1,0.49-0.15c0.01-0.4,0.03-0.79,0.04-1.17     c0.01-0.31,0.03-0.61,0.04-0.9c0.02-0.52,0.05-1.02,0.09-1.49c0-0.05,0.01-0.11,0.01-0.16c0.01,0,0.02,0,0.02-0.01     c0.03-0.01,0.06-0.02,0.09-0.03c0.56-0.17,1.13-0.38,1.68-0.67c0.14-0.08,0.29-0.15,0.43-0.25l0.21-0.14     c0.07-0.04,0.14-0.09,0.21-0.15l0.2-0.16c0.11-0.09,0.23-0.21,0.34-0.31l0.34-0.32l-0.39-0.26l-0.19-0.12l-0.19-0.11l-0.2-0.12     c-0.13-0.08-0.27-0.15-0.4-0.23c-0.27-0.15-0.54-0.29-0.81-0.42c-0.54-0.26-1.1-0.5-1.66-0.68c-0.31-0.1-0.63-0.18-0.95-0.24     c-0.07-0.01-0.13-0.03-0.2-0.04c-0.1-0.06-0.22-0.14-0.34-0.26c-0.27-0.23-0.57-0.6-0.85-1.08c0.5,0.59,1.09,0.9,1.67,0.81     c0.94-0.16,1.55-1.34,1.59-2.85l-2.22-0.85l2-0.96c-0.46-1.73-1.57-2.92-2.63-2.74c-0.58,0.1-1.03,0.59-1.31,1.3     c0.03-0.18,0.07-0.37,0.11-0.55c0.1-0.3,0.2-0.62,0.38-0.89c0.16-0.27,0.38-0.52,0.63-0.7l0.1-0.06     c0.03-0.02,0.06-0.04,0.09-0.05c0.04-0.02,0.13-0.05,0.21-0.08c0.07-0.03,0.15-0.04,0.23-0.06c0.04-0.01,0.07-0.02,0.11-0.02     l0.11-0.01c0.3-0.03,0.6,0.02,0.88,0.13c0.28,0.11,0.52,0.29,0.75,0.49c0.05,0.05,0.11,0.1,0.16,0.16     c0.05,0.05,0.1,0.12,0.15,0.17c0.1,0.11,0.18,0.24,0.26,0.36c0.65,1.01,0.86,2.15,1.04,3.07c0.02,0.12,0.04,0.23,0.05,0.34     c0.02,0.11,0.04,0.22,0.04,0.33c0.02,0.21,0.04,0.41,0.05,0.6c0.01,0.19,0.01,0.36,0.02,0.52c0,0.08,0,0.16,0,0.23     c0,0.07,0,0.14-0.01,0.21c-0.01,0.26-0.02,0.47-0.03,0.61c-0.28,0.2-0.68,0.49-1.15,0.75c-0.89,0.53-1.7,0.79-1.68,0.91     c0.01,0.06,0.24,0.07,0.6-0.01c0.05-0.01,0.11-0.03,0.16-0.04c0.15-0.04,0.3-0.09,0.47-0.16c0.21-0.08,0.44-0.19,0.67-0.32     c0.43-0.25,0.78-0.54,1.02-0.79c0.03-0.03,0.06-0.06,0.08-0.09c0.12-0.13,0.2-0.25,0.26-0.34c0.05-0.09,0.07-0.15,0.05-0.17     c-0.03-0.03-0.11,0.01-0.23,0.08c-0.02,0.01-0.03,0.02-0.06,0.04c0.03-0.11,0.07-0.25,0.1-0.4c0-0.01,0-0.02,0.01-0.04     c0.01-0.07,0.02-0.14,0.04-0.22c0.01-0.08,0.02-0.15,0.03-0.24c0.01-0.17,0.03-0.35,0.04-0.54c0-0.2,0-0.41,0-0.63     c0-0.11-0.01-0.23-0.02-0.34c-0.01-0.12-0.02-0.24-0.03-0.36c-0.01-0.12-0.02-0.25-0.04-0.38c-0.02-0.13-0.05-0.26-0.07-0.39     c-0.02-0.13-0.05-0.27-0.07-0.4c-0.01-0.07-0.02-0.14-0.04-0.21c-0.02-0.07-0.04-0.14-0.05-0.21c-0.14-0.57-0.35-1.17-0.71-1.75     c-0.04-0.06-0.07-0.11-0.11-0.17c-0.02-0.04-0.04-0.08-0.06-0.11c-0.02-0.04-0.08-0.11-0.16-0.19     c-0.18-0.19-0.48-0.47-0.79-0.69c-0.16-0.12-0.33-0.23-0.48-0.3c-0.36-0.17-0.78-0.23-1.19-0.19l-0.16,0.01     c-0.05,0.01-0.1,0.02-0.15,0.03c-0.1,0.02-0.21,0.04-0.3,0.08c-0.1,0.04-0.18,0.06-0.3,0.12c-0.05,0.03-0.1,0.05-0.15,0.08     l-0.13,0.09c-0.34,0.25-0.61,0.57-0.81,0.91c-0.21,0.34-0.33,0.7-0.44,1.06c-0.18,0.72-0.21,1.43-0.16,2.09     c0,0.08,0.01,0.16,0.01,0.25c0.01,0.08,0.02,0.16,0.03,0.24c0.02,0.16,0.04,0.32,0.06,0.47c0.02,0.15,0.06,0.3,0.08,0.45     c0,0.02,0.01,0.04,0.01,0.05c0.02,0.13,0.05,0.26,0.08,0.38c0.04,0.14,0.07,0.28,0.11,0.42c0.04,0.13,0.09,0.27,0.13,0.39     c0.02,0.06,0.04,0.13,0.06,0.19l0.07,0.18c0.05,0.12,0.09,0.24,0.15,0.35c0.42,0.89,0.97,1.52,1.46,1.82c-0.02,0-0.05,0-0.07,0     c-0.3-0.01-0.6,0.01-0.9,0.08l-0.23,0.07c-0.02,0.01-0.06,0.03-0.08,0.03l-0.05,0.03l-0.1,0.05c-0.13,0.07-0.25,0.14-0.36,0.22     c-0.46,0.31-0.88,0.67-1.21,1.08c-0.17,0.2-0.32,0.43-0.45,0.65c-0.12,0.2-0.24,0.4-0.36,0.59c-0.23,0.34-0.48,0.66-0.75,0.91     C52.71,63.98,52.34,63.72,52.27,63.78 M56.6,61.59l0.04-0.02c0.01-0.01,0,0,0.01,0l0.16-0.04c0.23-0.05,0.47-0.06,0.73-0.05     c0.51,0.02,1.03,0.15,1.56,0.32c0.52,0.17,1.05,0.4,1.57,0.65c0.26,0.13,0.52,0.26,0.78,0.4c0.13,0.07,0.26,0.14,0.38,0.22     l0.19,0.11l0.01,0c0,0,0.01,0-0.01,0.01l-0.17,0.13c-0.06,0.05-0.12,0.09-0.18,0.13l-0.18,0.12c-0.12,0.08-0.26,0.15-0.38,0.22     c-0.2,0.11-0.4,0.2-0.61,0.29c-0.34,0.14-0.68,0.27-1.03,0.38c-1.13,0.34-2.26,0.54-3.33,0.67c-0.92,0.11-1.81,0.17-2.65,0.21     c-0.04-0.12-0.09-0.23-0.14-0.34c0.37-0.3,0.67-0.67,0.96-1.06c0.14-0.2,0.27-0.4,0.4-0.62c0.12-0.2,0.25-0.38,0.4-0.56     c0.16-0.19,0.34-0.36,0.53-0.53c0.18-0.15,0.36-0.29,0.56-0.41c0.1-0.07,0.21-0.13,0.32-0.19L56.6,61.59z M58.81,67.64     c-0.01,0.15-0.02,0.31-0.02,0.46c0,0.08-0.01,0.15-0.01,0.23l-0.01,0c-0.08,0.03-0.16,0.04-0.23,0.06     c-0.08,0.02-0.16,0.04-0.24,0.05c-0.08,0.01-0.16,0.03-0.24,0.03c-0.14,0.01-0.29,0.02-0.43,0.02c-0.43,0-0.85-0.06-1.25-0.16     c-0.27-0.07-0.53-0.16-0.78-0.25c-0.25-0.1-0.5-0.21-0.73-0.33c-0.46-0.24-0.88-0.5-1.27-0.78c0.08-0.37,0.08-0.73,0.03-1.05     c0.14,0,0.29-0.01,0.44-0.01c0.08,0.12,0.18,0.24,0.29,0.38c0.3,0.35,0.72,0.74,1.25,1.07c0.22,0.14,0.47,0.26,0.73,0.37     c0.37,0.15,0.76,0.28,1.18,0.35c0.33,0.04,0.65,0.08,0.97,0.11c-0.01-0.15-0.01-0.31-0.01-0.46c0-0.08,0-0.15-0.01-0.23l0-0.15     c0-0.15,0-0.29,0-0.43c0-0.25,0-0.49,0.01-0.72c0-0.03,0-0.07,0-0.1c0.01-0.24,0.02-0.46,0.03-0.67     c0.16-0.04,0.33-0.08,0.5-0.12c-0.03,0.25-0.05,0.49-0.07,0.75c-0.02,0.23-0.04,0.46-0.05,0.7     C58.84,67.03,58.83,67.34,58.81,67.64 M57.77,67.33v0.06v0.01c0,0-0.01,0-0.02,0l-0.13-0.01c-0.18-0.03-0.36-0.07-0.53-0.12     c-0.01-0.21-0.05-0.43-0.11-0.65c-0.06-0.2-0.14-0.38-0.24-0.55c-0.08-0.12-0.16-0.23-0.25-0.33c0.47-0.05,0.95-0.12,1.43-0.21     c-0.03,0.17-0.05,0.34-0.07,0.52c-0.03,0.27-0.05,0.55-0.06,0.84C57.78,67.03,57.78,67.18,57.77,67.33 M54.69,65.94     c-0.02-0.02-0.04-0.04-0.06-0.06c0.45-0.02,0.91-0.05,1.39-0.1c0.04,0.03,0.07,0.06,0.11,0.1c0.21,0.22,0.38,0.51,0.48,0.85     c0.04,0.14,0.07,0.27,0.09,0.41c-0.28-0.1-0.54-0.22-0.78-0.35C55.42,66.53,55.02,66.22,54.69,65.94"></path>				<line class="st10" x1="66.28" y1="69.98" x2="66.27" y2="69.99"></line>				<path class="st4" d="M32.87,38.38c0.3,0.03,0.49,0.32,0.7,0.5c0.21,0.21,0.41,0.43,0.6,0.65c0.38,0.45,0.74,0.91,1.1,1.37     c0.71,0.93,1.36,1.9,2.02,2.87c0.62,0.99,1.25,1.98,1.82,3c0.28,0.52,0.56,1.03,0.81,1.56c0.13,0.27,0.24,0.54,0.35,0.81     c0.09,0.27,0.27,0.56,0.18,0.85c0.05-0.13-0.05-0.27-0.11-0.4c-0.06-0.13-0.13-0.26-0.21-0.38c-0.14-0.25-0.3-0.5-0.46-0.74     c-0.3-0.5-0.62-0.99-0.94-1.47l-1.92-2.92l-1.91-2.93c-0.31-0.49-0.64-0.97-0.97-1.45c-0.16-0.24-0.33-0.48-0.5-0.72     c-0.09-0.12-0.17-0.23-0.27-0.34C33.1,38.54,33.01,38.38,32.87,38.38"></path>				<path class="st4" d="M35.57,36.61c0.74,0.92,1.42,1.87,2.1,2.82c0.68,0.95,1.31,1.93,1.97,2.9c0.62,0.99,1.26,1.97,1.87,2.97     c0.6,1,1.2,2.01,1.74,3.05c-0.74-0.92-1.42-1.87-2.1-2.82c-0.68-0.95-1.31-1.93-1.97-2.9c-0.62-0.99-1.26-1.97-1.87-2.97     C36.71,38.66,36.12,37.65,35.57,36.61"></path>				<path class="st4" d="M30.16,40.15c0.29,0,0.5,0.27,0.71,0.45c0.21,0.19,0.41,0.4,0.61,0.61c0.38,0.42,0.75,0.86,1.12,1.3     c0.73,0.88,1.39,1.8,2.05,2.73c0.64,0.94,1.27,1.89,1.83,2.88c0.28,0.5,0.56,0.99,0.82,1.5c0.12,0.26,0.24,0.52,0.35,0.78     c0.08,0.26,0.27,0.55,0.16,0.82c0.06-0.13-0.04-0.27-0.09-0.39c-0.06-0.13-0.13-0.25-0.2-0.37c-0.14-0.24-0.3-0.48-0.45-0.71     c-0.3-0.48-0.62-0.95-0.94-1.41l-1.93-2.8l-1.93-2.79c-0.32-0.47-0.65-0.93-0.99-1.38c-0.16-0.23-0.33-0.46-0.51-0.68     c-0.09-0.11-0.18-0.22-0.28-0.32C30.4,40.28,30.3,40.14,30.16,40.15"></path>				<path class="st4" d="M40.99,33.07c-0.08,0.12,0.01,0.27,0.06,0.39c0.05,0.13,0.12,0.25,0.18,0.38c0.13,0.25,0.27,0.49,0.42,0.73     c0.28,0.48,0.58,0.96,0.89,1.43l1.84,2.83l1.85,2.82c0.31,0.47,0.63,0.93,0.96,1.39c0.16,0.23,0.32,0.46,0.5,0.68     c0.09,0.11,0.18,0.22,0.27,0.31c0.1,0.09,0.19,0.23,0.34,0.21c-0.3,0.02-0.51-0.26-0.72-0.42c-0.21-0.2-0.41-0.4-0.6-0.61     c-0.38-0.43-0.74-0.86-1.09-1.31c-0.71-0.89-1.35-1.82-1.97-2.76c-0.61-0.95-1.21-1.91-1.74-2.92c-0.26-0.5-0.52-1.01-0.76-1.52     c-0.11-0.26-0.22-0.52-0.32-0.79C41.02,33.64,40.85,33.33,40.99,33.07"></path>				<path class="st4" d="M38.28,34.84c0,0.28,0.22,0.52,0.35,0.78c0.15,0.25,0.31,0.49,0.47,0.74l0.95,1.46l1.92,2.92l1.9,2.93     c0.31,0.49,0.63,0.98,0.96,1.46c0.16,0.25,0.32,0.49,0.49,0.73c0.18,0.22,0.32,0.51,0.57,0.63c-0.29-0.07-0.48-0.34-0.68-0.54     c-0.2-0.21-0.4-0.43-0.59-0.65c-0.37-0.45-0.73-0.91-1.09-1.38c-0.71-0.94-1.36-1.91-2.02-2.87c-0.62-0.99-1.25-1.98-1.82-3     c-0.28-0.51-0.56-1.03-0.83-1.55c-0.13-0.26-0.25-0.53-0.37-0.8C38.4,35.41,38.22,35.13,38.28,34.84"></path>				<path class="st4" d="M43.76,31.26c-0.1,0.24,0.09,0.49,0.18,0.72c0.11,0.23,0.24,0.45,0.38,0.68c0.26,0.45,0.53,0.89,0.81,1.32     l1.69,2.61l1.71,2.59c0.29,0.43,0.58,0.86,0.89,1.27c0.15,0.21,0.3,0.42,0.47,0.62c0.17,0.17,0.32,0.45,0.58,0.45     c-0.28,0.05-0.49-0.2-0.69-0.35c-0.2-0.17-0.39-0.36-0.57-0.54c-0.36-0.38-0.69-0.79-1.02-1.19c-0.66-0.81-1.26-1.67-1.83-2.54     c-0.56-0.88-1.11-1.77-1.59-2.7c-0.24-0.47-0.47-0.93-0.68-1.41c-0.1-0.25-0.19-0.49-0.27-0.74     C43.74,31.79,43.6,31.49,43.76,31.26"></path>				<path class="st4" d="M49.86,24.47c-0.94,1.08-2.04,1.97-3.2,2.79c-0.58,0.4-1.19,0.78-1.82,1.11c-0.63,0.33-1.3,0.62-2.01,0.75     c0.61-0.37,1.16-0.79,1.74-1.19l1.71-1.21C47.43,25.92,48.59,25.13,49.86,24.47"></path>				<path class="st4" d="M30.67,37.31c-0.94,1.08-2.04,1.97-3.2,2.79c-0.58,0.4-1.19,0.78-1.82,1.11c-0.63,0.33-1.3,0.62-2.01,0.75     c0.61-0.37,1.16-0.79,1.74-1.19l1.71-1.21C28.25,38.76,29.41,37.97,30.67,37.31"></path>			</g>			<g>				<g>					<path class="st2" d="M27.63,78.43c-0.02-0.15-0.11-0.2-0.25-0.14l-0.03,0.01l-0.04-0.21c-0.02-0.15-0.11-0.2-0.25-0.14      L26.92,78l0.04-0.8c0-0.16-0.07-0.23-0.21-0.22L26.63,77l0.01-0.13c0-0.16-0.07-0.23-0.21-0.22l-0.35,0.04      c-0.14,0.01-0.22,0.1-0.23,0.25l-0.07,1.51l-0.7,0.27l0.04-0.8c0.01-0.16-0.06-0.23-0.21-0.22l-0.12,0.01l0.01-0.13      c0.01-0.16-0.06-0.23-0.21-0.22l-0.35,0.04c-0.14,0.01-0.22,0.1-0.23,0.25l-0.06,1.5l-0.67,0.26c-0.14,0.06-0.2,0.16-0.17,0.3      l0.06,0.33c0.02,0.15,0.11,0.2,0.25,0.15l0.03-0.01l0.04,0.2c0.02,0.15,0.11,0.2,0.25,0.15l0.13-0.05l-0.04,0.93l-0.67,0.26      c-0.14,0.05-0.19,0.16-0.17,0.31l0.06,0.33c0.03,0.15,0.12,0.19,0.26,0.14l0.02-0.01l0.04,0.21c0.03,0.15,0.12,0.19,0.26,0.14      l0.14-0.06l-0.04,0.77c-0.01,0.16,0.06,0.23,0.21,0.21l0.11-0.01l-0.01,0.14c-0.01,0.16,0.06,0.23,0.21,0.21l0.35-0.03      c0.15-0.01,0.22-0.1,0.22-0.26l0.07-1.47l0.71-0.27l-0.04,0.77c-0.01,0.16,0.06,0.23,0.2,0.21L25.9,83l-0.01,0.14      c-0.01,0.16,0.06,0.23,0.2,0.21l0.36-0.03c0.14-0.01,0.22-0.1,0.22-0.26l0.07-1.47l0.67-0.26c0.14-0.06,0.2-0.16,0.17-0.3      l-0.06-0.33c-0.02-0.15-0.11-0.2-0.25-0.15l-0.03,0.01l-0.04-0.2c-0.02-0.15-0.11-0.2-0.25-0.15l-0.14,0.05l0.04-0.94      l0.67-0.26c0.14-0.06,0.2-0.16,0.16-0.31L27.63,78.43z M25.67,80.7l-0.71,0.27l0.04-0.94l0.7-0.27L25.67,80.7z"></path>					<path class="st2" d="M24.21,85.12c-0.31,0-0.59-0.11-0.82-0.31c-0.06-0.06-0.14-0.14-0.21-0.25c-0.04-0.03-0.07-0.06-0.11-0.09      c-0.15-0.14-0.4-0.45-0.4-0.95c-0.06-0.06-0.12-0.13-0.17-0.21c-0.25-0.18-0.42-0.44-0.49-0.76c0-0.01,0-0.02-0.01-0.03      l-0.06-0.33c0-0.01-0.01-0.03-0.01-0.04c-0.08-0.51,0.11-0.98,0.49-1.27c-0.13-0.15-0.26-0.35-0.31-0.65l-0.06-0.3      c-0.14-0.65,0.2-1.26,0.82-1.5l0.02-0.01l0.03-0.81c0-0.01,0-0.02,0-0.02c0.04-0.68,0.52-1.18,1.18-1.24l0.33-0.04      c0.17-0.02,0.32-0.01,0.47,0.03c0.19-0.4,0.57-0.66,1.04-0.7l0.34-0.04c0.39-0.04,0.73,0.07,0.99,0.31      c0.06,0.05,0.13,0.14,0.2,0.24c0.04,0.03,0.08,0.06,0.12,0.1c0.15,0.14,0.4,0.45,0.39,0.97c0.06,0.06,0.12,0.13,0.16,0.21      c0.26,0.19,0.44,0.47,0.49,0.81l0.06,0.3c0.11,0.52-0.08,1.02-0.48,1.32c0.13,0.15,0.26,0.35,0.31,0.65l0.06,0.3      c0.14,0.65-0.2,1.26-0.82,1.5l-0.02,0.01l-0.04,0.78c-0.03,0.68-0.52,1.2-1.18,1.27l-0.34,0.03c-0.16,0.02-0.31,0.01-0.46-0.02      c-0.19,0.4-0.58,0.67-1.07,0.71l-0.31,0.03C24.32,85.12,24.26,85.12,24.21,85.12z M26.95,83.22      C26.95,83.22,26.95,83.22,26.95,83.22C26.95,83.22,26.95,83.22,26.95,83.22z M26.63,82.88C26.63,82.88,26.63,82.88,26.63,82.88      C26.63,82.88,26.63,82.88,26.63,82.88z M23.24,81.81C23.24,81.81,23.24,81.81,23.24,81.81L23.24,81.81z M27.65,81.54      L27.65,81.54C27.64,81.54,27.64,81.54,27.65,81.54z M22.93,81.47C22.92,81.47,22.92,81.47,22.93,81.47      C22.92,81.47,22.92,81.47,22.93,81.47z M23.65,80.4L23.65,80.4C23.65,80.4,23.65,80.4,23.65,80.4z M27.76,79.27L27.76,79.27      C27.76,79.27,27.76,79.27,27.76,79.27z M23.04,79.2C23.04,79.2,23.04,79.2,23.04,79.2L23.04,79.2z M24.05,77.87      C24.05,77.87,24.05,77.87,24.05,77.87L24.05,77.87z M23.73,77.53C23.73,77.53,23.73,77.53,23.73,77.53L23.73,77.53z"></path>				</g>				<g>					<path class="st2" d="M33.24,75.7c-0.04-0.15-0.1-0.29-0.16-0.42c-0.15-0.3-0.36-0.55-0.62-0.73c-0.26-0.18-0.58-0.29-0.95-0.32      c-0.06-0.01-0.12-0.01-0.18-0.01h0c-0.32,0-0.67,0.07-1.06,0.21c-0.91,0.33-1.86,0.68-2.84,1.05l-0.15,0.06l0.04,0.15      l1.71,6.19l0.04,0.15L29.24,82l0.24-0.03l0.06,0.2l1.98-0.29l-0.33-1.44c0.42-0.2,0.79-0.44,1.1-0.74      c0.31-0.3,0.56-0.62,0.75-0.96c0.19-0.35,0.33-0.7,0.4-1.07c0.08-0.37,0.1-0.72,0.07-1.05C33.46,76.29,33.38,75.98,33.24,75.7z       M30.88,77.2c-0.03,0.08-0.07,0.18-0.14,0.28c-0.06,0.1-0.15,0.21-0.26,0.31c-0.04,0.04-0.09,0.08-0.14,0.11l-0.12-0.63      c0.23-0.17,0.42-0.27,0.57-0.31c0.04-0.01,0.07-0.02,0.1-0.02c0,0.01,0.01,0.03,0.01,0.03c0,0.03,0.01,0.06,0.01,0.08      C30.92,77.07,30.91,77.12,30.88,77.2z"></path>					<path class="st2" d="M29.53,83.23c-0.19,0-0.38-0.05-0.54-0.15c-0.43-0.04-0.81-0.34-0.93-0.77l-1.79-6.49      c-0.15-0.53,0.13-1.07,0.64-1.27l0.15-0.06c0.98-0.37,1.94-0.73,2.85-1.06c0.59-0.22,1.17-0.31,1.68-0.26      c0.55,0.05,1.05,0.22,1.46,0.51c0.41,0.28,0.73,0.66,0.96,1.13c0.08,0.16,0.15,0.33,0.2,0.51c0.17,0.37,0.28,0.78,0.31,1.21      c0.04,0.44,0.01,0.89-0.09,1.36c-0.1,0.47-0.27,0.93-0.51,1.37c-0.24,0.44-0.56,0.84-0.94,1.21c-0.19,0.18-0.4,0.35-0.62,0.51      l0.16,0.68c0.07,0.29,0.01,0.59-0.16,0.83c-0.17,0.24-0.43,0.41-0.72,0.45l-1.98,0.29C29.63,83.22,29.58,83.23,29.53,83.23z       M29.89,81c0.03,0.01,0.05,0.02,0.08,0.04L30.22,81l-0.07-0.33c-0.11-0.49,0.13-0.98,0.58-1.19c0.32-0.15,0.59-0.33,0.81-0.54      c0.23-0.22,0.42-0.46,0.56-0.71c0.14-0.25,0.24-0.51,0.29-0.77c0.06-0.26,0.07-0.52,0.05-0.75c-0.02-0.2-0.06-0.38-0.14-0.54      c-0.03-0.06-0.05-0.11-0.07-0.17c-0.03-0.09-0.06-0.18-0.1-0.25c-0.07-0.15-0.16-0.26-0.28-0.34      c-0.11-0.08-0.25-0.12-0.44-0.14c-0.21-0.02-0.47,0.03-0.77,0.14c-0.68,0.24-1.37,0.5-2.08,0.76L29.89,81z M30.34,78.96      c-0.13,0-0.26-0.02-0.39-0.07c-0.34-0.13-0.58-0.43-0.65-0.79l-0.12-0.63c-0.08-0.4,0.09-0.81,0.42-1.05      c0.34-0.25,0.63-0.4,0.91-0.47c0.07-0.02,0.13-0.03,0.2-0.04c0.52-0.09,1.02,0.21,1.19,0.71c0.02,0.06,0.04,0.13,0.05,0.21      l0.01,0.05c0.01,0.08,0.02,0.16,0.01,0.24c-0.01,0.13-0.04,0.26-0.09,0.42c0,0,0,0,0,0c-0.06,0.16-0.14,0.33-0.25,0.51      c-0.11,0.17-0.25,0.34-0.42,0.51c-0.07,0.07-0.15,0.13-0.24,0.2C30.79,78.89,30.57,78.96,30.34,78.96z"></path>				</g>				<g>					<polygon class="st2" points="35.67,75.89 35.61,75.5 35.58,75.33 35.59,75.32 35.43,73.88 35.33,73.91 35.29,73.53       35.27,73.33 35.07,73.37 33.24,73.79 33.08,73.83 33.1,73.99 33.36,75.46 33.4,75.65 33.58,75.6 33.81,75.54 33.85,75.77       33.61,75.83 33.46,75.88 33.48,76.04 34.33,80.7 34.37,80.89 34.55,80.84 34.78,80.78 34.82,81.01 36.51,80.55 35.75,75.87            "></polygon>					<path class="st2" d="M34.82,82.06c-0.17,0-0.34-0.04-0.49-0.12c-0.19-0.01-0.37-0.06-0.53-0.16c-0.25-0.16-0.42-0.41-0.48-0.7      l-0.91-5.01c0-0.01,0-0.02-0.01-0.04c-0.02-0.06-0.04-0.13-0.05-0.19l-0.32-1.82c-0.1-0.55,0.26-1.09,0.81-1.21l2.19-0.5      c0.29-0.07,0.6-0.01,0.85,0.17c0.24,0.17,0.4,0.44,0.44,0.74l0.01,0.12c0.08,0.13,0.13,0.28,0.15,0.44l0.16,1.44      c0,0.04,0.01,0.07,0.01,0.11c0.07,0.12,0.12,0.25,0.14,0.39l0.76,4.68c0.09,0.53-0.24,1.05-0.77,1.19l-1.69,0.46      C35.01,82.05,34.91,82.06,34.82,82.06z M34.64,76.48l0.6,3.32l0.07-0.02l-0.54-3.32c-0.02-0.03-0.04-0.06-0.05-0.09      C34.7,76.41,34.67,76.44,34.64,76.48z M34.33,74.62c0.02,0.01,0.04,0.02,0.05,0.03c0.03,0.02,0.05,0.03,0.08,0.05l-0.01-0.11      L34.33,74.62z"></path>				</g>				<g>					<path class="st2" d="M41.23,76.07c-0.01-0.02-0.02-0.04-0.04-0.06c-0.03-0.12-0.07-0.24-0.12-0.35      c-0.1-0.21-0.22-0.39-0.37-0.53c-0.16-0.15-0.34-0.26-0.55-0.33c-0.14-0.05-0.3-0.07-0.46-0.07c-0.08,0-0.15,0-0.23,0.01      c-0.25,0.03-0.47,0.11-0.67,0.23c-0.11,0.07-0.21,0.16-0.31,0.27l-0.03-0.2l-0.02-0.19l-0.19,0.04l-1.68,0.35l-0.16,0.03      l0.02,0.16l0.64,4.63l0.02,0.16l0.16-0.01l0.28-0.02l0.02,0.18l1.75-0.09l-0.4-2.94c-0.01-0.11,0.02-0.2,0.09-0.27      c0.06-0.06,0.14-0.09,0.22-0.11l0.34,2.93l0.02,0.19l0.19-0.04l0.26-0.05l0.03,0.22l1.74-0.37l-0.39-3.15      C41.37,76.46,41.32,76.26,41.23,76.07z"></path>					<path class="st2" d="M37.55,81.44c-0.2,0-0.39-0.06-0.56-0.16c-0.49-0.04-0.89-0.41-0.96-0.91l-0.69-4.95      c-0.08-0.55,0.29-1.07,0.83-1.18l2.03-0.42c0.17-0.04,0.34-0.03,0.5,0.02c0.19-0.07,0.39-0.12,0.61-0.14      c0.41-0.05,0.8-0.02,1.15,0.1c0.36,0.12,0.68,0.31,0.95,0.57c0.25,0.24,0.45,0.53,0.6,0.85c0.06,0.12,0.11,0.25,0.15,0.39      c0,0.01,0.01,0.02,0.01,0.02c0,0,0,0,0,0c0.13,0.29,0.22,0.6,0.26,0.94l0.39,3.15c0.07,0.55-0.29,1.05-0.83,1.16l-1.74,0.37      c-0.16,0.03-0.33,0.03-0.49-0.01c-0.13,0.06-0.27,0.1-0.42,0.11l-1.75,0.09C37.59,81.44,37.57,81.44,37.55,81.44z M38.02,79.26      c0.02,0.01,0.04,0.02,0.06,0.03l0.03,0l-0.24-1.8c-0.06-0.45,0.09-0.88,0.41-1.18c0.01-0.01,0.02-0.02,0.03-0.03      c-0.04-0.01-0.09-0.02-0.13-0.03c-0.14-0.04-0.26-0.11-0.37-0.2l-0.22,0.05L38.02,79.26z M39.29,75.91      c0.19,0.01,0.37,0.08,0.53,0.19c0.25,0.17,0.41,0.44,0.45,0.75l0.25,2.19l0.1-0.02l-0.27-2.19c-0.01-0.1-0.04-0.2-0.07-0.28      c-0.01-0.02-0.02-0.04-0.03-0.05c-0.04-0.07-0.06-0.14-0.08-0.22c-0.02-0.07-0.04-0.13-0.06-0.18      c-0.04-0.09-0.09-0.16-0.15-0.21c-0.04-0.04-0.09-0.07-0.15-0.09c-0.06-0.02-0.15-0.02-0.24-0.01      c-0.09,0.01-0.17,0.04-0.24,0.08l0,0C39.34,75.87,39.32,75.88,39.29,75.91z M40.31,76.59L40.31,76.59L40.31,76.59z"></path>				</g>				<g>					<path class="st2" d="M46.58,74.67l-0.01-0.36l-0.01-0.2l-0.19,0.03l-1.88,0.26l-0.16,0.02l0.01,0.17l0.22,2.89      c0.01,0.07,0,0.12-0.02,0.14c-0.03,0.03-0.09,0.05-0.15,0.05c-0.01,0-0.03,0-0.04,0c-0.02,0-0.03,0-0.04,0l-0.12-2.86      l-0.13,0.02l-0.02-0.37l-0.01-0.19l-0.19,0.03l-1.82,0.26l-0.16,0.02l0.01,0.16l0.2,3.44c0.03,0.51,0.2,0.9,0.51,1.16      c0.16,0.14,0.34,0.23,0.55,0.28c0.25,0.17,0.55,0.25,0.9,0.23c0.31-0.02,0.58-0.1,0.8-0.24c0.03-0.02,0.06-0.04,0.09-0.07      l0.15-0.02l0.29-0.03l0.01,0.19l1.5-0.15l-0.17-4.89L46.58,74.67z"></path>					<path class="st2" d="M43.92,80.9c-0.45,0-0.87-0.11-1.24-0.32c-0.29-0.1-0.56-0.25-0.79-0.45c-0.37-0.31-0.82-0.89-0.88-1.9      l-0.21-3.61c-0.03-0.55,0.36-1.03,0.91-1.11l2.17-0.31c0.22-0.03,0.44,0.01,0.64,0.11l1.89-0.26c0.3-0.04,0.6,0.05,0.82,0.24      c0.23,0.19,0.37,0.47,0.38,0.77l0,0.04c0.09,0.15,0.14,0.32,0.15,0.5l0.17,4.89c0.02,0.55-0.4,1.03-0.95,1.09l-1.5,0.15      c-0.15,0.02-0.31,0-0.45-0.05c-0.29,0.12-0.6,0.19-0.94,0.21C44.03,80.9,43.97,80.9,43.92,80.9z M42.97,75.47l0.16,2.63      c0.01,0.12,0.03,0.33,0.14,0.42c0.04,0.03,0.09,0.06,0.15,0.07c0.11,0.03,0.21,0.08,0.31,0.14c0.02,0.02,0.08,0.06,0.25,0.05      c0.12-0.01,0.21-0.03,0.28-0.06l0.01,0c-0.02,0-0.05,0-0.07-0.01c-0.51-0.06-0.91-0.48-0.93-1l-0.1-2.26L42.97,75.47z       M45.36,78.44c0.15,0,0.29,0.03,0.43,0.09l-0.11-3.23l-0.22,0.03l0.16,2.06c0.05,0.55-0.21,0.87-0.37,1.02      c-0.02,0.02-0.04,0.03-0.06,0.05l0.07-0.01C45.29,78.44,45.32,78.44,45.36,78.44z M43.51,77.58      C43.51,77.58,43.51,77.58,43.51,77.58C43.51,77.58,43.51,77.58,43.51,77.58z"></path>				</g>				<g>					<path class="st2" d="M58.93,74.23c-0.01-0.01-0.01-0.03-0.02-0.04c-0.04-0.13-0.08-0.25-0.14-0.37c-0.09-0.2-0.23-0.4-0.41-0.6      c-0.18-0.2-0.41-0.37-0.68-0.52c-0.27-0.15-0.58-0.25-0.92-0.31c-0.16-0.03-0.32-0.04-0.49-0.04c-0.2,0-0.41,0.02-0.62,0.06      c-0.42,0.08-0.81,0.21-1.19,0.39c-0.37,0.18-0.72,0.4-1.02,0.66c-0.31,0.26-0.58,0.56-0.8,0.89c-0.23,0.33-0.4,0.7-0.52,1.08      c-0.1,0.32-0.15,0.65-0.16,1l-0.14,0.03l-1.63,0.34l0.18-4.03L50.2,72.8l0.02-0.35l0.01-0.21l-0.21,0.03l-2.47,0.35l-0.15,0.02      l0,0.15l0.06,6.6l0,0.19l0.19-0.02l0.3-0.03l0,0.2l4.31-0.44l-0.06-1.34c0,0.01,0,0.01,0.01,0.02c0.15,0.4,0.36,0.73,0.62,1      c0.26,0.26,0.56,0.47,0.88,0.61c0.05,0.02,0.1,0.04,0.14,0.06c0.08,0.05,0.16,0.09,0.25,0.12c0.31,0.13,0.63,0.21,0.97,0.24      c0.34,0.03,0.68,0.02,1-0.04c0.33-0.06,0.64-0.15,0.93-0.28c0.29-0.13,0.54-0.28,0.75-0.47c0.43-0.38,0.76-0.79,0.99-1.23      c0.23-0.44,0.39-0.88,0.46-1.31c0.08-0.44,0.09-0.87,0.03-1.29C59.18,74.95,59.07,74.57,58.93,74.23z M56.49,76.03      c-0.02,0.14-0.07,0.29-0.14,0.46c-0.07,0.16-0.18,0.35-0.32,0.54c-0.09,0.12-0.2,0.22-0.33,0.31c-0.13,0.09-0.26,0.15-0.4,0.19      c-0.1,0.03-0.19,0.04-0.29,0.04c-0.04,0-0.08,0-0.12-0.01c-0.13-0.02-0.24-0.06-0.33-0.13c-0.05-0.03-0.09-0.08-0.12-0.13      c-0.02-0.12-0.02-0.26-0.01-0.42c0.02-0.28,0.08-0.53,0.19-0.75c0.11-0.22,0.25-0.41,0.4-0.56c0.16-0.15,0.33-0.27,0.52-0.34      c0.19-0.08,0.37-0.12,0.54-0.12c0.06,0,0.11,0.01,0.17,0.02c0.06,0.06,0.12,0.14,0.15,0.24c0.04,0.09,0.07,0.19,0.08,0.31      C56.51,75.78,56.51,75.9,56.49,76.03z"></path>					<path class="st2" d="M55.42,81.05c-0.14,0-0.29-0.01-0.43-0.02c-0.46-0.04-0.89-0.15-1.3-0.33c-0.09-0.04-0.18-0.08-0.27-0.13      c-0.04-0.02-0.08-0.03-0.12-0.05c-0.2-0.08-0.38-0.19-0.56-0.3c-0.11,0.06-0.23,0.09-0.36,0.11l-4.31,0.44      c-0.23,0.02-0.45-0.03-0.64-0.14c-0.24-0.01-0.48-0.1-0.66-0.27c-0.22-0.2-0.35-0.48-0.35-0.78l-0.06-6.95      c-0.01-0.53,0.38-0.98,0.91-1.06l2.84-0.4c0.31-0.04,0.63,0.05,0.86,0.27c0.23,0.21,0.35,0.5,0.34,0.81      c0.09,0.17,0.14,0.36,0.13,0.56l-0.08,1.68c0.12-0.26,0.26-0.51,0.42-0.74c0.28-0.41,0.61-0.78,0.99-1.1      c0.38-0.32,0.8-0.59,1.25-0.81c0.45-0.22,0.94-0.38,1.44-0.48c0.54-0.1,1.03-0.1,1.5-0.02c0.45,0.08,0.87,0.22,1.24,0.42      c0.37,0.2,0.69,0.45,0.95,0.73c0.26,0.28,0.46,0.58,0.6,0.88c0.06,0.13,0.1,0.25,0.15,0.4c0,0.01,0,0.01,0.01,0.02      c0,0,0,0,0,0.01c0.19,0.43,0.31,0.9,0.38,1.41c0.07,0.52,0.06,1.07-0.03,1.61c-0.09,0.55-0.29,1.1-0.57,1.63      c-0.29,0.54-0.7,1.06-1.21,1.52c-0.3,0.26-0.64,0.48-1.03,0.65c-0.37,0.16-0.77,0.28-1.18,0.35      C55.98,81.03,55.7,81.05,55.42,81.05z M53.2,77.61c0.09,0.25,0.22,0.45,0.37,0.6c0.17,0.17,0.35,0.3,0.56,0.38      c0.02,0.01,0.03,0.01,0.05,0.02l0.05,0.02c0.05,0.02,0.1,0.04,0.15,0.07c0.05,0.03,0.09,0.05,0.14,0.07      c0.2,0.09,0.41,0.14,0.64,0.16c0.25,0.02,0.5,0.01,0.74-0.03c0.24-0.04,0.47-0.11,0.68-0.2c0.19-0.09,0.36-0.18,0.48-0.3      c0.32-0.29,0.58-0.61,0.75-0.93c0.18-0.34,0.3-0.67,0.35-1c0.06-0.33,0.06-0.65,0.02-0.96c-0.04-0.31-0.12-0.59-0.22-0.83      c-0.01-0.01-0.01-0.02-0.01-0.03c-0.02-0.04-0.04-0.09-0.05-0.14c-0.04-0.11-0.07-0.2-0.1-0.27c-0.02-0.05-0.09-0.16-0.22-0.3      c-0.11-0.11-0.24-0.22-0.41-0.31c-0.17-0.09-0.37-0.16-0.6-0.2c-0.22-0.04-0.47-0.03-0.74,0.02c-0.31,0.06-0.62,0.16-0.91,0.3      c-0.29,0.14-0.56,0.31-0.8,0.52c-0.24,0.2-0.44,0.43-0.62,0.68c-0.17,0.24-0.3,0.51-0.38,0.79c-0.07,0.22-0.11,0.46-0.11,0.72      c-0.01,0.22-0.08,0.43-0.21,0.6c0.18,0.12,0.32,0.3,0.4,0.51C53.2,77.59,53.2,77.6,53.2,77.61z M48.46,73.54l0.05,5.06      l2.66-0.27l-0.02-0.35c0-0.11,0.01-0.21,0.03-0.31l-0.79,0.16c-0.32,0.07-0.65-0.02-0.9-0.23c-0.25-0.21-0.39-0.53-0.37-0.85      l0.15-3.33L48.46,73.54z M55.02,78.62c-0.08,0-0.17,0-0.25-0.01c-0.31-0.04-0.59-0.15-0.83-0.33c-0.13-0.1-0.25-0.22-0.35-0.36      c-0.1-0.13-0.16-0.29-0.18-0.45c-0.03-0.21-0.04-0.44-0.02-0.68c0.03-0.4,0.13-0.78,0.3-1.13c0.17-0.33,0.37-0.62,0.62-0.85      c0.25-0.24,0.53-0.43,0.84-0.55c0.32-0.13,0.64-0.19,0.95-0.2c0.11,0,0.22,0.01,0.35,0.03c0.21,0.04,0.4,0.13,0.55,0.28      c0.17,0.17,0.31,0.37,0.4,0.61c0.07,0.17,0.12,0.35,0.15,0.55c0.03,0.22,0.03,0.45-0.01,0.68c0,0,0,0,0,0      c-0.03,0.22-0.1,0.46-0.21,0.7c-0.1,0.24-0.25,0.5-0.44,0.76c-0.17,0.22-0.36,0.4-0.58,0.56c-0.22,0.15-0.46,0.26-0.71,0.33      C55.4,78.59,55.21,78.62,55.02,78.62z M56.49,76.03L56.49,76.03L56.49,76.03z"></path>				</g>				<g>					<polygon class="st2" points="66.16,75.22 66.2,75.17 66.31,75.03 66.18,74.92 64.33,73.45 64.19,73.33 64.08,73.48 62.53,75.7       61.97,73.47 61.92,73.49 61.82,73.09 61.77,72.89 61.58,72.97 59.06,73.98 58.9,74.05 58.96,74.21 61.4,80.71 61.51,81       61.7,80.76 61.77,80.68 61.88,80.99 66.39,75.4      "></polygon>					<path class="st2" d="M61.51,82.06c-0.06,0-0.11,0-0.17-0.01c-0.37-0.06-0.69-0.32-0.82-0.67l-2.61-6.96      c-0.2-0.54,0.06-1.14,0.59-1.35l2.87-1.15c0.28-0.11,0.6-0.1,0.87,0.04c0.27,0.14,0.47,0.39,0.54,0.68l0.07,0.28      c0.05,0.09,0.1,0.18,0.12,0.29l0.33-0.47c0.17-0.24,0.43-0.4,0.71-0.44c0.29-0.04,0.58,0.04,0.81,0.22l2.13,1.7      c0.22,0.18,0.36,0.43,0.39,0.71c0,0.03,0.01,0.07,0.01,0.1c0.03,0.08,0.05,0.17,0.06,0.26c0.03,0.28-0.05,0.56-0.23,0.78      l-4.5,5.59c-0.24,0.29-0.61,0.44-0.98,0.38C61.66,82.05,61.58,82.06,61.51,82.06z M60.25,74.64l1.71,4.57l3.09-3.83l-0.65-0.52      l-1.01,1.45c-0.24,0.34-0.65,0.51-1.06,0.43c-0.41-0.08-0.73-0.38-0.83-0.78l-0.41-1.65L60.25,74.64z"></path>				</g>				<g>					<polygon class="st2" points="70.37,79.67 70.44,79.41 70.49,79.22 70.29,79.19 69.75,79.11 70.24,77.79 70,77.75 70.09,77.52       70.13,77.41 70.89,77.56 71.63,75.61 71.39,75.57 71.48,75.33 71.56,75.13 71.35,75.09 66.86,74.34 66.7,74.31 66.66,74.47       65.19,80.7 65.15,80.88 65.33,80.91 65.7,80.98 65.68,81.08 70.01,81.9 70.59,79.7      "></polygon>					<path class="st2" d="M70.01,82.95c-0.06,0-0.13-0.01-0.2-0.02l-4.32-0.82c-0.15-0.03-0.3-0.09-0.42-0.18l-0.11-0.02      c-0.28-0.05-0.53-0.22-0.69-0.46c-0.16-0.24-0.21-0.54-0.14-0.82l1.55-6.57c0.13-0.54,0.65-0.89,1.2-0.8l4.86,0.82      c0.31,0.05,0.58,0.24,0.74,0.52c0.11,0.18,0.15,0.39,0.14,0.6c0.1,0.25,0.11,0.53,0.01,0.78l-0.74,1.96      c-0.11,0.28-0.32,0.49-0.58,0.6c0.03,0.03,0.05,0.06,0.07,0.1c0.12,0.19,0.18,0.4,0.17,0.62c0.1,0.22,0.13,0.48,0.06,0.72      l-0.58,2.19C70.9,82.64,70.48,82.95,70.01,82.95z M66.41,80.14l2.83,0.53l0.15-0.57c-0.23-0.08-0.42-0.24-0.55-0.46      c-0.16-0.28-0.19-0.61-0.08-0.91L69,78.09c-0.08-0.23-0.08-0.48,0.01-0.71l0.13-0.34c0.17-0.45,0.61-0.72,1.08-0.68L70.36,76      l-2.86-0.48L66.41,80.14z"></path>				</g>				<g>					<path class="st2" d="M77.43,78.33c-0.03-0.11-0.08-0.22-0.14-0.32c-0.01-0.02-0.01-0.05-0.01-0.07      c-0.09-0.33-0.29-0.63-0.59-0.89c-0.3-0.26-0.71-0.46-1.24-0.59c-0.93-0.25-1.92-0.5-2.93-0.74l-0.16-0.04l-0.05,0.15      l-2.1,6.06l-0.05,0.15l0.14,0.07l1.79,0.88l0.17,0.08l0-0.01l0.22,0.11l0.4-1.02l1.01,1.54l0.09,0.13l0.14-0.08l0.08-0.05      l0.15,0.23l1.69-0.91l-0.16-0.22L76,82.74l-0.12-0.16l-0.92-1.24c0.39-0.1,0.75-0.24,1.07-0.43c0.36-0.22,0.65-0.47,0.89-0.75      c0.23-0.28,0.4-0.59,0.49-0.91C77.51,78.93,77.51,78.62,77.43,78.33z M74.53,78.91c-0.01,0.03-0.03,0.05-0.03,0.07      c-0.01,0.02-0.04,0.05-0.11,0.11c-0.07,0.05-0.15,0.1-0.26,0.15c-0.1,0.04-0.23,0.08-0.36,0.1l0.3-0.69      c0.19,0,0.35,0.01,0.48,0.03c0.03,0.04,0.03,0.08,0.03,0.1C74.56,78.85,74.54,78.89,74.53,78.91z"></path>					<path class="st2" d="M74.37,84.99c-0.17,0-0.33-0.04-0.48-0.11c-0.31-0.03-0.6-0.19-0.78-0.47l-0.18-0.27      c-0.02,0.01-0.03,0.02-0.05,0.02c-0.28,0.11-0.58,0.09-0.85-0.04l-0.08-0.04c-0.05-0.02-0.1-0.03-0.14-0.06l-2.1-1.04      c-0.48-0.24-0.71-0.79-0.53-1.29l2.2-6.36c0.18-0.51,0.72-0.81,1.25-0.68l0.16,0.04c1.02,0.25,2.01,0.5,2.95,0.75      c0.68,0.17,1.24,0.45,1.67,0.82c0.45,0.4,0.76,0.87,0.9,1.39c0.07,0.14,0.12,0.27,0.15,0.4c0,0,0,0,0,0      c0.13,0.48,0.12,0.99-0.02,1.49c-0.13,0.46-0.36,0.89-0.69,1.28c-0.3,0.37-0.68,0.69-1.13,0.97l0.24,0.32      c0.12,0.17,0.19,0.36,0.2,0.56c0.06,0.18,0.08,0.38,0.03,0.58c-0.07,0.3-0.26,0.55-0.53,0.7l-1.69,0.91      C74.71,84.95,74.54,84.99,74.37,84.99z M72.89,81.09c0.35,0,0.69,0.18,0.88,0.48l0.72,1.09l0.1-0.05l-0.47-0.64      c-0.21-0.28-0.26-0.66-0.14-0.99c0.12-0.33,0.4-0.58,0.74-0.67c0.29-0.07,0.55-0.18,0.77-0.31c0.25-0.16,0.46-0.33,0.62-0.52      c0.14-0.17,0.24-0.35,0.29-0.53c0.05-0.17,0.03-0.28,0.01-0.35l0,0c0,0-0.01-0.02-0.04-0.08c-0.05-0.09-0.08-0.18-0.11-0.27      c0-0.02-0.01-0.04-0.01-0.06c-0.04-0.11-0.12-0.23-0.26-0.35c-0.12-0.1-0.35-0.25-0.8-0.36c-0.7-0.18-1.41-0.37-2.15-0.55      l-1.58,4.57l0.46,0.22c0.15-0.34,0.48-0.58,0.86-0.62C72.82,81.1,72.85,81.09,72.89,81.09z M73.76,80.39      c-0.32,0-0.63-0.15-0.83-0.4c-0.24-0.31-0.29-0.72-0.13-1.08l0.3-0.68c0.17-0.37,0.53-0.62,0.94-0.63      c0.26-0.01,0.48,0.01,0.68,0.04c0.31,0.05,0.57,0.24,0.73,0.5c0.14,0.23,0.2,0.5,0.17,0.75c-0.02,0.18-0.06,0.34-0.13,0.48      l-0.02,0.05c-0.03,0.07-0.08,0.14-0.12,0.21c-0.08,0.1-0.17,0.19-0.3,0.29c-0.14,0.11-0.3,0.2-0.5,0.29      c-0.18,0.07-0.37,0.13-0.59,0.17C73.88,80.39,73.82,80.39,73.76,80.39z M73.54,78.54c-0.02,0.06-0.03,0.1-0.03,0.12      c-0.02,0.2,0.02,0.39,0.11,0.56l0.1-0.06l-0.1-0.58L73.54,78.54z M73.58,78.44C73.58,78.44,73.58,78.44,73.58,78.44      C73.58,78.44,73.58,78.44,73.58,78.44z"></path>				</g>			</g>			<g>				<g>					<path class="st11" d="M27.44,79.09c0.27-0.1,0.39-0.34,0.33-0.62l-0.06-0.32c-0.03-0.2-0.13-0.3-0.21-0.34      c-0.08-0.05-0.21-0.09-0.4-0.01L27,77.84l0.04-0.86c0-0.16-0.04-0.29-0.14-0.39c-0.06-0.06-0.18-0.13-0.37-0.11l-0.35,0.04      c-0.27,0.03-0.45,0.22-0.47,0.51l-0.06,1.33l-0.49,0.19l0.04-0.85c0.01-0.21-0.07-0.33-0.14-0.39      c-0.07-0.06-0.18-0.13-0.37-0.11l-0.35,0.04c-0.27,0.03-0.45,0.22-0.47,0.51l-0.06,1.32l-0.5,0.19      c-0.27,0.1-0.4,0.34-0.33,0.61l0.06,0.32c0.03,0.2,0.13,0.3,0.22,0.35c0.08,0.05,0.21,0.09,0.4,0.01l0.08-0.03l-0.03,0.81      l-0.51,0.2c-0.26,0.1-0.39,0.33-0.34,0.62l0.07,0.33c0.04,0.19,0.15,0.28,0.23,0.32c0.08,0.04,0.21,0.08,0.39,0.01l0.09-0.04      l-0.04,0.83c-0.01,0.21,0.07,0.33,0.14,0.39c0.06,0.05,0.15,0.11,0.29,0.11c0.03,0,0.05,0,0.08-0.01l0.35-0.03      c0.29-0.02,0.48-0.22,0.48-0.52l0.06-1.29l0.5-0.19l-0.04,0.82c-0.02,0.21,0.06,0.34,0.13,0.4c0.07,0.06,0.19,0.13,0.37,0.1      l0.36-0.03c0.28-0.03,0.46-0.23,0.47-0.52l0.06-1.29l0.5-0.19c0.27-0.1,0.39-0.34,0.33-0.61l-0.06-0.32      c-0.03-0.2-0.13-0.3-0.22-0.35c-0.08-0.05-0.22-0.09-0.4-0.01l-0.09,0.03l0.04-0.81L27.44,79.09z M25.57,79.81l-0.03,0.81      l-0.49,0.19l0.04-0.81L25.57,79.81z"></path>					<path class="st11" d="M33.5,75.91c0-0.01-0.01-0.03-0.01-0.04l2.21-0.57l-0.22-1.98l-2.38,0.54l0.3,1.71      c-0.03-0.08-0.06-0.16-0.1-0.23c-0.16-0.32-0.38-0.58-0.65-0.77c-0.28-0.19-0.61-0.31-0.99-0.34      c-0.38-0.03-0.81,0.04-1.27,0.21c-0.91,0.33-1.86,0.68-2.84,1.05l-0.23,0.09l1.83,6.66l2.51-0.37l-0.35-1.52      c0.37-0.19,0.69-0.42,0.97-0.69c0.32-0.31,0.59-0.66,0.8-1.02c0.2-0.37,0.35-0.75,0.43-1.14c0.07-0.34,0.1-0.68,0.08-1      l0.84,4.62l2.21-0.6l-0.85-5.22L33.5,75.91z M30.34,77.16c0.17-0.11,0.28-0.15,0.34-0.17c0.13-0.04,0.18-0.02,0.18-0.02      c0.04,0.01,0.05,0.03,0.05,0.04c0.03,0.06,0.04,0.08,0.04,0.09c0,0.03,0.01,0.05,0.01,0.07c0,0.02-0.01,0.05-0.03,0.12      c-0.02,0.07-0.07,0.16-0.13,0.26c-0.06,0.1-0.14,0.19-0.25,0.29c-0.02,0.02-0.05,0.04-0.07,0.06L30.34,77.16z"></path>					<path class="st11" d="M41.28,75.72c-0.1-0.22-0.23-0.41-0.4-0.56c-0.17-0.16-0.36-0.28-0.59-0.35      c-0.22-0.07-0.47-0.09-0.74-0.06c-0.26,0.03-0.5,0.12-0.71,0.25c-0.06,0.04-0.13,0.09-0.19,0.14l-0.04-0.29l-2.22,0.46      l0.71,5.13l2.3-0.12l-0.44-3.23c0-0.03,0-0.03,0.01-0.04c0.03-0.03,0.07-0.05,0.12-0.06c0.06-0.01,0.09,0.01,0.11,0.02      c0.01,0.01,0.01,0.01,0.01,0.01l0.38,3.29l2.28-0.48l-0.42-3.4C41.45,76.17,41.38,75.93,41.28,75.72z"></path>					<path class="st11" d="M44.35,74.44l0.24,3.15c0,0.03,0,0.05,0,0.06c-0.02,0.01-0.06,0.02-0.09,0.02c-0.01,0-0.02,0-0.04,0      c-0.04,0-0.07-0.01-0.06,0c0,0-0.01-0.03-0.01-0.09l-0.14-3.34l-2.36,0.33l0.22,3.69c0.03,0.54,0.21,0.95,0.54,1.23      c0.29,0.25,0.65,0.37,1.08,0.37c0.04,0,0.09,0,0.13,0c0.36-0.02,0.67-0.11,0.93-0.28c0.04-0.03,0.08-0.06,0.12-0.09l0.01,0.24      l2.04-0.21l-0.18-5.44L44.35,74.44z"></path>					<path class="st11" d="M69.76,79.1l0.59-1.57l0.52,0.1l0.94-2.48l-5.06-0.85l-0.19,0.81l-2.27-1.82l-1.64,2.33l-0.69-2.76      l-2.92,1.17c-0.02-0.05-0.04-0.1-0.06-0.15c-0.09-0.21-0.24-0.42-0.43-0.62c-0.19-0.2-0.43-0.39-0.71-0.54      c-0.28-0.15-0.6-0.26-0.95-0.32c-0.35-0.06-0.74-0.06-1.15,0.02c-0.42,0.08-0.83,0.22-1.21,0.4c-0.38,0.18-0.73,0.41-1.04,0.68      c-0.31,0.27-0.59,0.57-0.82,0.91c-0.23,0.34-0.41,0.71-0.53,1.11c-0.09,0.3-0.15,0.62-0.16,0.95l-1.74,0.36l0.21-4.6      l-3.03,0.42l0.06,7.14l4.86-0.49l-0.05-1.06c0.15,0.35,0.34,0.65,0.58,0.89c0.27,0.27,0.58,0.48,0.91,0.63      c0.33,0.14,0.69,0.23,1.06,0.26c0.12,0.01,0.24,0.02,0.37,0.02c0.24,0,0.47-0.02,0.7-0.06c0.35-0.06,0.68-0.16,0.99-0.29      c0.32-0.14,0.59-0.31,0.82-0.51l0,0c0.45-0.4,0.8-0.84,1.05-1.3c0.24-0.46,0.41-0.93,0.49-1.4c0.07-0.43,0.09-0.85,0.04-1.27      l2.28,6.1l4.95-6.15l-1.39,5.91l4.85,0.92l0.72-2.73L69.76,79.1z M56.52,76.12c-0.02,0.13-0.06,0.28-0.13,0.43      c-0.07,0.16-0.17,0.33-0.31,0.52c-0.08,0.11-0.19,0.21-0.3,0.29c-0.12,0.08-0.25,0.14-0.38,0.18      c-0.13,0.04-0.25,0.04-0.37,0.03c-0.11-0.01-0.2-0.05-0.28-0.11c-0.08-0.06-0.14-0.15-0.19-0.27c-0.05-0.13-0.07-0.3-0.05-0.53      c0.02-0.24,0.07-0.46,0.17-0.65c0.1-0.19,0.21-0.36,0.35-0.49c0.13-0.13,0.28-0.23,0.43-0.29c0.15-0.06,0.3-0.09,0.43-0.09      c0,0,0,0,0,0c0.13,0,0.24,0.03,0.34,0.09c0.09,0.06,0.16,0.14,0.21,0.27l0,0.01c0.03,0.08,0.06,0.17,0.07,0.28      C56.54,75.88,56.54,76,56.52,76.12z"></path>					<path class="st11" d="M77.5,78.02c-0.09-0.35-0.3-0.66-0.62-0.94c-0.31-0.27-0.74-0.48-1.28-0.61      c-0.93-0.25-1.92-0.5-2.94-0.74l-0.24-0.06l-2.26,6.52l2.27,1.12l0.43-1.09l1.21,1.84l2.19-1.17L75.1,81.3      c0.32-0.1,0.61-0.23,0.89-0.4c0.38-0.23,0.7-0.51,0.96-0.81c0.26-0.31,0.44-0.65,0.54-1C77.59,78.72,77.6,78.36,77.5,78.02z       M74.04,78.69c0.2,0.01,0.31,0.03,0.37,0.05c0.13,0.05,0.16,0.09,0.16,0.09c0.02,0.03,0.02,0.04,0.02,0.04      c-0.01,0.07-0.02,0.1-0.02,0.1c-0.01,0.02-0.02,0.04-0.03,0.06c-0.01,0.01-0.04,0.04-0.09,0.08c-0.06,0.05-0.14,0.09-0.24,0.14      c-0.1,0.04-0.23,0.08-0.37,0.1c-0.03,0-0.06,0.01-0.09,0.01L74.04,78.69z"></path>				</g>				<g>					<g>						<path class="st8" d="M26.39,77.9l0.48-0.19c0.14-0.06,0.23-0.01,0.25,0.14l0.06,0.33c0.03,0.15-0.02,0.25-0.16,0.31       l-0.67,0.26l-0.06,1.41l0.48-0.18c0.14-0.06,0.23-0.01,0.25,0.15l0.06,0.33c0.03,0.15-0.02,0.25-0.17,0.3l-0.67,0.26       l-0.07,1.47c-0.01,0.16-0.08,0.25-0.22,0.26l-0.36,0.03c-0.15,0.02-0.22-0.05-0.2-0.21l0.06-1.25l-1.05,0.4l-0.07,1.47       c0,0.16-0.08,0.25-0.22,0.26l-0.35,0.03c-0.15,0.02-0.22-0.05-0.21-0.21l0.06-1.25l-0.48,0.19c-0.14,0.05-0.22,0.01-0.26-0.14       l-0.06-0.33c-0.02-0.15,0.03-0.26,0.17-0.31l0.67-0.26l0.06-1.4l-0.47,0.18c-0.14,0.06-0.23,0.01-0.25-0.15l-0.06-0.33       c-0.03-0.15,0.02-0.25,0.17-0.3l0.67-0.26l0.06-1.5c0.01-0.16,0.09-0.24,0.23-0.25l0.35-0.04c0.15-0.02,0.22,0.06,0.21,0.22       l-0.06,1.27l1.04-0.4l0.07-1.51c0.01-0.16,0.09-0.24,0.23-0.25l0.35-0.04c0.14-0.01,0.21,0.06,0.21,0.22L26.39,77.9z        M24.43,80.87l1.05-0.4l0.06-1.4l-1.04,0.4L24.43,80.87z"></path>						<path class="st3" d="M23.7,83.58c-0.07,0-0.13-0.02-0.17-0.06c-0.06-0.05-0.08-0.14-0.08-0.25l0.05-1.11l-0.36,0.14       c-0.09,0.04-0.17,0.04-0.24,0c-0.07-0.04-0.11-0.1-0.13-0.2l-0.07-0.33c-0.03-0.2,0.05-0.34,0.22-0.41l0.62-0.24l0.05-1.21       l-0.34,0.13c-0.1,0.04-0.18,0.04-0.24,0c-0.07-0.04-0.11-0.11-0.13-0.22l-0.06-0.32c-0.04-0.19,0.04-0.33,0.22-0.4l0.61-0.24       l0.06-1.45c0.01-0.2,0.12-0.32,0.31-0.34l0.35-0.04c0.1-0.01,0.17,0.01,0.23,0.06c0.06,0.05,0.08,0.14,0.08,0.25l-0.05,1.14       l0.86-0.33l0.07-1.45c0.01-0.2,0.12-0.32,0.31-0.34l0.35-0.04c0.09-0.01,0.17,0.01,0.22,0.06c0.06,0.05,0.09,0.14,0.08,0.25       l-0.05,1.14l0.36-0.14c0.1-0.04,0.18-0.04,0.25,0c0.07,0.04,0.11,0.11,0.12,0.21l0.06,0.32c0.04,0.19-0.03,0.34-0.22,0.41       l-0.62,0.24l-0.06,1.21l0.35-0.13c0.1-0.04,0.18-0.04,0.24,0c0.07,0.04,0.11,0.11,0.13,0.22l0.06,0.32       c0.04,0.19-0.04,0.33-0.22,0.4l-0.61,0.24l-0.06,1.41c-0.01,0.21-0.12,0.33-0.3,0.35l-0.36,0.03c-0.09,0.01-0.17,0-0.23-0.06       c-0.06-0.05-0.08-0.14-0.07-0.25l0.05-1.11l-0.87,0.34l-0.06,1.41c0,0.21-0.11,0.33-0.31,0.35l-0.35,0.03       C23.74,83.58,23.72,83.58,23.7,83.58z M23.69,81.9l-0.06,1.38c0,0.05,0.01,0.09,0.02,0.11c0.01,0.01,0.05,0.02,0.09,0.01       l0.36-0.03c0.09-0.01,0.14-0.04,0.14-0.18l0.07-1.53l1.23-0.47l-0.06,1.38c0,0.06,0,0.1,0.02,0.11       c0.01,0.01,0.04,0.02,0.09,0.01l0.36-0.03c0.07-0.01,0.14-0.03,0.14-0.18l0.07-1.53l0.72-0.28c0.1-0.04,0.13-0.1,0.11-0.2       l-0.06-0.33c-0.01-0.05-0.02-0.09-0.04-0.1c-0.02-0.01-0.05-0.01-0.09,0.01l-0.6,0.23l0.07-1.6l0.73-0.28       c0.1-0.04,0.13-0.1,0.11-0.21l-0.07-0.33c-0.01-0.05-0.02-0.08-0.04-0.09c-0.02-0.01-0.05-0.01-0.09,0.01l-0.61,0.23       l0.06-1.41c0-0.05-0.01-0.09-0.03-0.11c-0.02-0.02-0.06-0.02-0.08-0.02l-0.35,0.04c-0.07,0.01-0.14,0.03-0.15,0.17l-0.07,1.56       l-1.22,0.47l0.06-1.41c0-0.06-0.01-0.1-0.02-0.11c-0.02-0.02-0.06-0.02-0.09-0.01l-0.35,0.04c-0.07,0.01-0.14,0.03-0.15,0.17       l-0.07,1.56l-0.72,0.28c-0.1,0.04-0.13,0.1-0.11,0.2l0.06,0.33c0.01,0.05,0.02,0.09,0.04,0.1c0.02,0.01,0.05,0.01,0.09-0.01       l0.59-0.23l-0.07,1.6l-0.73,0.28c-0.1,0.04-0.13,0.1-0.11,0.22l0.06,0.32c0.01,0.04,0.03,0.07,0.04,0.08       c0.02,0.01,0.05,0.01,0.09-0.01L23.69,81.9z M24.34,81l0.07-1.6l1.22-0.47l-0.07,1.6L24.34,81z M24.58,79.53l-0.06,1.21       l0.87-0.34l0.05-1.21L24.58,79.53z"></path>					</g>					<g>						<g>							<path class="st12" d="M27.21,75.36l0.07-0.03c0.97-0.37,1.93-0.72,2.84-1.05c0.37-0.14,0.72-0.21,1.02-0.21        c0.06,0,0.12,0,0.17,0.01c0.35,0.03,0.66,0.14,0.91,0.31c0.25,0.17,0.45,0.41,0.59,0.7c0.14,0.29,0.23,0.61,0.26,0.95        c0.03,0.34,0,0.7-0.07,1.08c-0.08,0.37-0.22,0.74-0.41,1.09c-0.2,0.35-0.45,0.68-0.76,0.98c-0.3,0.29-0.65,0.53-1.06,0.73        l0.34,1.47l-2.15,0.31L27.21,75.36z M30.02,77.86c0.13-0.07,0.24-0.15,0.33-0.24c0.11-0.11,0.21-0.22,0.28-0.33        c0.07-0.11,0.12-0.21,0.15-0.3c0.03-0.1,0.04-0.16,0.04-0.19c0,0-0.01-0.03-0.01-0.08c-0.01-0.04-0.03-0.09-0.06-0.15        c-0.03-0.05-0.08-0.09-0.14-0.12c-0.03-0.01-0.06-0.02-0.1-0.02c-0.05,0-0.12,0.01-0.2,0.03c-0.13,0.04-0.3,0.12-0.5,0.26        L30.02,77.86z"></path>						</g>						<g>							<path class="st3" d="M31.14,74.16c0.06,0,0.11,0,0.16,0.01c0.34,0.03,0.63,0.13,0.86,0.29c0.24,0.17,0.42,0.39,0.56,0.67        c0.14,0.28,0.22,0.58,0.25,0.92c0.03,0.33,0,0.69-0.07,1.05c-0.08,0.37-0.21,0.72-0.4,1.07c-0.19,0.35-0.44,0.67-0.75,0.96        c-0.31,0.3-0.67,0.54-1.1,0.74L31,81.31l-1.98,0.29l-1.71-6.19c0.98-0.37,1.92-0.72,2.83-1.05        C30.51,74.23,30.85,74.16,31.14,74.16 M29.96,77.99c0.18-0.09,0.33-0.19,0.45-0.31c0.12-0.12,0.22-0.23,0.29-0.34        c0.07-0.11,0.13-0.22,0.16-0.32c0.03-0.1,0.05-0.17,0.05-0.22c0-0.01-0.01-0.04-0.01-0.09c-0.01-0.05-0.03-0.12-0.07-0.18        c-0.04-0.07-0.1-0.12-0.18-0.15c-0.04-0.01-0.08-0.02-0.13-0.02c-0.06,0-0.14,0.01-0.22,0.03c-0.15,0.04-0.34,0.14-0.57,0.31        L29.96,77.99 M31.14,73.98L31.14,73.98c-0.32,0-0.67,0.07-1.06,0.21c-0.91,0.33-1.86,0.68-2.84,1.05L27.1,75.3l0.04,0.15        l1.71,6.19l0.04,0.15l0.15-0.02l1.98-0.29l0.19-0.03l-0.04-0.19l-0.3-1.3c0.39-0.19,0.73-0.43,1.02-0.71        c0.32-0.31,0.58-0.64,0.78-1c0.2-0.36,0.34-0.74,0.42-1.12c0.08-0.38,0.1-0.75,0.08-1.1c-0.03-0.36-0.12-0.69-0.27-0.98        c-0.15-0.3-0.36-0.55-0.62-0.73c-0.26-0.18-0.58-0.29-0.95-0.32C31.26,73.98,31.2,73.98,31.14,73.98L31.14,73.98z         M29.91,76.78c0.17-0.12,0.31-0.19,0.42-0.22c0.07-0.02,0.13-0.03,0.17-0.03c0.03,0,0.05,0.01,0.06,0.01        c0.05,0.02,0.08,0.04,0.1,0.08c0.04,0.06,0.05,0.1,0.05,0.12c0,0.03,0.01,0.06,0.01,0.08c0,0.02-0.01,0.06-0.04,0.15        c-0.03,0.08-0.07,0.18-0.14,0.28c-0.06,0.1-0.15,0.21-0.26,0.31c-0.06,0.06-0.13,0.11-0.2,0.16L29.91,76.78L29.91,76.78z"></path>						</g>					</g>					<g>						<g>							<path class="st12" d="M33.37,75.71l1.95-0.52l0.79,4.85l-1.86,0.5L33.37,75.71z M32.99,73.66L35,73.2l0.18,1.61l-1.9,0.49        L32.99,73.66z"></path>						</g>						<g>							<path class="st3" d="M34.92,73.31l0.16,1.44l-1.74,0.45l-0.26-1.47L34.92,73.31 M35.24,75.3L36,79.98l-1.69,0.46l-0.85-4.66        L35.24,75.3 M35.08,73.09l-0.19,0.04l-1.84,0.42l-0.16,0.04l0.03,0.17l0.26,1.47l0.03,0.19l0.18-0.05l1.74-0.45l0.15-0.04        l-0.02-0.15l-0.16-1.44L35.08,73.09L35.08,73.09z M35.38,75.08l-0.19,0.05l-1.78,0.47l-0.16,0.04l0.03,0.16l0.85,4.66        l0.03,0.19l0.18-0.05l1.69-0.46l0.15-0.04l-0.03-0.16l-0.76-4.68L35.38,75.08L35.38,75.08z"></path>						</g>					</g>					<g>						<g>							<path class="st12" d="M36.31,75.11l1.85-0.39l0.06,0.51c0.13-0.19,0.27-0.33,0.41-0.42c0.19-0.12,0.4-0.19,0.63-0.22        c0.08-0.01,0.15-0.01,0.22-0.01c0.15,0,0.3,0.02,0.43,0.07c0.2,0.06,0.37,0.17,0.52,0.31c0.15,0.14,0.26,0.31,0.36,0.51        c0.09,0.2,0.15,0.41,0.18,0.65l0.4,3.23l-1.92,0.4l-0.35-3.07c-0.01-0.07-0.04-0.13-0.1-0.17c-0.06-0.04-0.12-0.05-0.18-0.05        c-0.02,0-0.03,0-0.05,0c-0.08,0.01-0.16,0.04-0.22,0.11c-0.06,0.05-0.08,0.12-0.07,0.2l0.41,3.03l-1.93,0.1L36.31,75.11z"></path>						</g>						<g>							<path class="st3" d="M39.49,74.67c0.15,0,0.28,0.02,0.41,0.06c0.18,0.06,0.34,0.16,0.48,0.29c0.14,0.13,0.25,0.29,0.34,0.48        c0.09,0.19,0.14,0.4,0.17,0.62l0.39,3.15l-1.74,0.37l-0.34-2.97c-0.01-0.1-0.05-0.18-0.14-0.23        c-0.07-0.04-0.15-0.07-0.23-0.07c-0.02,0-0.04,0-0.06,0c-0.1,0.01-0.19,0.06-0.27,0.13c-0.08,0.07-0.11,0.16-0.09,0.27        l0.4,2.94l-1.75,0.09l-0.64-4.63l1.68-0.35l0.08,0.63l0.03,0c0.15-0.27,0.31-0.46,0.49-0.57c0.18-0.11,0.38-0.18,0.6-0.21        C39.35,74.67,39.43,74.67,39.49,74.67 M39.49,74.49c-0.08,0-0.15,0-0.23,0.01c-0.25,0.03-0.47,0.11-0.67,0.23        c-0.11,0.07-0.21,0.16-0.31,0.27l-0.03-0.2l-0.02-0.19l-0.19,0.04L36.37,75l-0.16,0.03l0.02,0.16l0.64,4.63l0.02,0.16        l0.16-0.01l1.75-0.09L39,79.88l-0.03-0.19l-0.4-2.94c-0.01-0.05,0.01-0.09,0.04-0.12c0.05-0.05,0.1-0.07,0.17-0.08        c0.01,0,0.03,0,0.04,0c0.05,0,0.1,0.01,0.14,0.04c0.05,0.03,0.06,0.06,0.06,0.09l0.34,2.98l0.02,0.19l0.19-0.04l1.74-0.37        l0.16-0.03l-0.02-0.16l-0.39-3.15c-0.03-0.24-0.09-0.47-0.19-0.68c-0.1-0.21-0.22-0.39-0.37-0.53        c-0.16-0.15-0.34-0.26-0.55-0.33C39.81,74.51,39.66,74.49,39.49,74.49L39.49,74.49z"></path>						</g>					</g>					<g>						<g>							<path class="st12" d="M43.4,79.36c-0.38,0-0.7-0.11-0.96-0.33c-0.29-0.24-0.45-0.61-0.48-1.1l-0.21-3.52l2-0.28l0.13,3.13        c0,0.11,0.03,0.18,0.07,0.21c0.04,0.03,0.11,0.05,0.19,0.05c0.01,0,0.03,0,0.04,0c0.09-0.01,0.16-0.03,0.21-0.08        c0.04-0.04,0.06-0.11,0.05-0.21l-0.23-2.98l2.06-0.28l0.17,5.07l-1.68,0.17l-0.03-0.5c-0.1,0.17-0.22,0.3-0.38,0.4        c-0.24,0.15-0.52,0.23-0.85,0.25C43.48,79.36,43.44,79.36,43.4,79.36z"></path>						</g>						<g>							<path class="st3" d="M46.2,74.08l0.17,4.89l-1.5,0.15l-0.04-0.75l-0.02,0c-0.09,0.31-0.25,0.53-0.47,0.67        c-0.22,0.14-0.49,0.22-0.8,0.24c-0.04,0-0.08,0-0.12,0c-0.36,0-0.66-0.1-0.9-0.31c-0.27-0.23-0.42-0.57-0.44-1.04l-0.2-3.44        l1.82-0.26l0.13,3.04c0,0.13,0.04,0.22,0.1,0.28c0.06,0.05,0.14,0.07,0.25,0.07c0.02,0,0.03,0,0.05,0        c0.11-0.01,0.2-0.04,0.26-0.1c0.07-0.06,0.09-0.15,0.08-0.28l-0.22-2.89L46.2,74.08 M46.37,73.88l-0.19,0.03l-1.88,0.26        l-0.16,0.02l0.01,0.17l0.22,2.89c0.01,0.07,0,0.12-0.02,0.14c-0.03,0.03-0.09,0.05-0.15,0.05c-0.01,0-0.03,0-0.04,0        c-0.06,0-0.11-0.01-0.14-0.03c-0.02-0.02-0.04-0.07-0.04-0.14l-0.13-3.04l-0.01-0.19l-0.19,0.03l-1.82,0.26l-0.16,0.02        l0.01,0.16l0.2,3.44c0.03,0.51,0.2,0.9,0.51,1.16c0.27,0.23,0.62,0.35,1.02,0.35c0.04,0,0.08,0,0.13,0        c0.34-0.02,0.64-0.11,0.89-0.26c0.1-0.06,0.18-0.13,0.26-0.22l0.01,0.16l0.01,0.18l0.18-0.02l1.5-0.15l0.16-0.02l-0.01-0.16        l-0.17-4.89L46.37,73.88L46.37,73.88z"></path>						</g>					</g>					<g>						<g>							<polygon class="st12" points="47.29,72.47 49.94,72.1 49.73,76.71 51.73,76.3 51.84,78.79 47.35,79.25        "></polygon>						</g>						<g>							<path class="st3" d="M49.85,72.2l-0.21,4.62l2.01-0.42l0.1,2.31l-4.31,0.44l-0.06-6.6L49.85,72.2 M50.04,72l-0.21,0.03        l-2.47,0.35l-0.15,0.02l0,0.15l0.06,6.6l0,0.19l0.19-0.02l4.31-0.44l0.17-0.02l-0.01-0.17l-0.1-2.31l-0.01-0.21l-0.2,0.04        l-1.79,0.37l0.2-4.4L50.04,72L50.04,72z"></path>						</g>					</g>					<g>						<g>							<path class="st12" d="M54.91,79.51c-0.12,0-0.23,0-0.35-0.01c-0.35-0.03-0.69-0.11-1-0.25c-0.31-0.14-0.6-0.33-0.86-0.59        c-0.25-0.26-0.46-0.58-0.6-0.97c-0.16-0.43-0.25-0.86-0.26-1.27c-0.01-0.41,0.05-0.81,0.16-1.19        c0.11-0.38,0.29-0.73,0.51-1.06c0.22-0.32,0.49-0.62,0.79-0.88c0.3-0.26,0.64-0.47,1-0.65c0.37-0.18,0.76-0.31,1.16-0.38        c0.21-0.04,0.41-0.06,0.61-0.06c0.16,0,0.32,0.01,0.47,0.04c0.33,0.06,0.63,0.16,0.89,0.3c0.26,0.14,0.48,0.31,0.66,0.5        c0.18,0.19,0.31,0.38,0.39,0.57c0.15,0.35,0.26,0.74,0.31,1.16c0.06,0.43,0.05,0.87-0.03,1.31c-0.08,0.45-0.24,0.9-0.47,1.34        c-0.24,0.44-0.57,0.87-1.01,1.25c-0.22,0.19-0.48,0.35-0.77,0.48c-0.3,0.13-0.62,0.23-0.95,0.28        C55.36,79.49,55.13,79.51,54.91,79.51z M55.58,74.62c-0.16,0-0.33,0.04-0.5,0.11c-0.18,0.07-0.34,0.18-0.49,0.33        c-0.15,0.14-0.28,0.32-0.39,0.54c-0.11,0.21-0.17,0.45-0.19,0.72c-0.02,0.25,0,0.45,0.06,0.61c0.06,0.15,0.15,0.27,0.25,0.35        c0.1,0.08,0.23,0.13,0.37,0.14c0.04,0.01,0.09,0.01,0.13,0.01h0c0.1,0,0.21-0.01,0.31-0.04c0.15-0.04,0.29-0.11,0.43-0.2        c0.13-0.09,0.25-0.2,0.35-0.33c0.15-0.2,0.26-0.38,0.33-0.56c0.07-0.17,0.12-0.33,0.14-0.48c0.02-0.14,0.02-0.27,0.01-0.39        c-0.02-0.12-0.05-0.23-0.09-0.32c-0.06-0.17-0.16-0.28-0.29-0.36C55.89,74.66,55.74,74.62,55.58,74.62v-0.09V74.62z"></path>						</g>						<g>							<path class="st3" d="M56.07,72.3c0.16,0,0.31,0.01,0.46,0.04c0.32,0.06,0.61,0.15,0.87,0.29c0.25,0.14,0.47,0.3,0.64,0.48        c0.17,0.18,0.3,0.37,0.38,0.55c0.15,0.34,0.25,0.72,0.31,1.14c0.06,0.42,0.05,0.85-0.03,1.29c-0.08,0.44-0.23,0.88-0.46,1.31        c-0.23,0.44-0.56,0.85-0.99,1.23c-0.21,0.18-0.46,0.34-0.75,0.47c-0.29,0.13-0.6,0.22-0.93,0.28        c-0.22,0.04-0.43,0.05-0.66,0.05c-0.11,0-0.23,0-0.35-0.01c-0.34-0.03-0.67-0.11-0.97-0.24c-0.31-0.13-0.58-0.32-0.83-0.57        c-0.25-0.25-0.44-0.56-0.58-0.94c-0.16-0.42-0.24-0.84-0.25-1.24c-0.01-0.41,0.04-0.79,0.16-1.16        c0.11-0.37,0.28-0.71,0.5-1.03c0.22-0.32,0.48-0.61,0.77-0.86c0.3-0.25,0.63-0.46,0.99-0.64c0.36-0.17,0.74-0.3,1.14-0.38        C55.69,72.31,55.89,72.3,56.07,72.3 M54.83,77.5c0.11,0,0.22-0.02,0.33-0.05c0.16-0.04,0.31-0.12,0.45-0.21        c0.14-0.1,0.27-0.21,0.37-0.35c0.15-0.2,0.26-0.4,0.34-0.57c0.08-0.18,0.12-0.34,0.15-0.5c0.02-0.15,0.03-0.29,0.01-0.42        c-0.02-0.13-0.05-0.24-0.09-0.34c-0.07-0.18-0.18-0.31-0.32-0.4c-0.15-0.09-0.31-0.13-0.48-0.13c0,0,0,0,0,0        c-0.17,0-0.35,0.04-0.54,0.12c-0.19,0.08-0.36,0.19-0.52,0.34c-0.16,0.15-0.29,0.34-0.4,0.56c-0.11,0.22-0.18,0.47-0.19,0.75        c-0.02,0.26,0,0.48,0.07,0.65c0.07,0.17,0.16,0.3,0.28,0.39c0.12,0.09,0.26,0.14,0.41,0.16C54.73,77.5,54.78,77.5,54.83,77.5         M56.07,72.12c-0.2,0-0.41,0.02-0.62,0.06c-0.42,0.08-0.81,0.21-1.19,0.39c-0.37,0.18-0.72,0.4-1.02,0.66        c-0.31,0.26-0.58,0.56-0.8,0.89c-0.23,0.33-0.4,0.7-0.52,1.08c-0.12,0.38-0.17,0.79-0.16,1.22c0.01,0.42,0.1,0.86,0.26,1.3        c0.15,0.4,0.36,0.73,0.62,1c0.26,0.26,0.56,0.47,0.88,0.61c0.32,0.14,0.67,0.23,1.03,0.26c0.12,0.01,0.24,0.02,0.36,0.02        c0.23,0,0.46-0.02,0.69-0.06c0.34-0.06,0.67-0.15,0.97-0.29c0.31-0.14,0.57-0.3,0.8-0.5c0.44-0.4,0.79-0.83,1.03-1.28        c0.24-0.45,0.4-0.91,0.48-1.37c0.08-0.46,0.09-0.91,0.03-1.34c-0.06-0.43-0.17-0.83-0.32-1.18c-0.09-0.2-0.23-0.4-0.41-0.6        c-0.18-0.2-0.41-0.37-0.68-0.52c-0.27-0.15-0.58-0.25-0.92-0.31C56.41,72.13,56.24,72.12,56.07,72.12L56.07,72.12z         M54.83,77.33c-0.04,0-0.08,0-0.12-0.01c-0.13-0.02-0.24-0.06-0.33-0.13c-0.09-0.07-0.17-0.17-0.22-0.31        c-0.06-0.14-0.08-0.33-0.06-0.57c0.02-0.26,0.08-0.49,0.18-0.69c0.1-0.2,0.23-0.38,0.37-0.51c0.14-0.14,0.3-0.24,0.46-0.31        c0.16-0.07,0.32-0.1,0.47-0.1c0.15,0,0.28,0.04,0.4,0.11c0.11,0.07,0.19,0.17,0.25,0.31c0.04,0.09,0.07,0.19,0.08,0.31        c0.02,0.11,0.01,0.23-0.01,0.37c-0.02,0.14-0.07,0.29-0.14,0.46c-0.07,0.16-0.18,0.35-0.32,0.54        c-0.09,0.12-0.2,0.22-0.33,0.31c-0.13,0.09-0.26,0.15-0.4,0.19C55.02,77.31,54.92,77.33,54.83,77.33L54.83,77.33z"></path>						</g>					</g>					<g>						<g>							<polygon class="st12" points="58.82,73.86 61.52,72.78 62.26,75.73 64.01,73.22 66,74.81 61.35,80.59        "></polygon>						</g>						<g>							<path class="st3" d="M61.46,72.9l0.76,3.04l1.81-2.58l1.85,1.48l-4.5,5.59l-2.44-6.51L61.46,72.9 M61.58,72.66l-0.19,0.08        l-2.52,1.01l-0.16,0.06l0.06,0.16l2.44,6.51l0.11,0.29l0.19-0.24l4.5-5.59l0.11-0.14l-0.14-0.11l-1.85-1.48l-0.15-0.12        l-0.11,0.15l-1.59,2.27l-0.67-2.67L61.58,72.66L61.58,72.66z"></path>						</g>					</g>					<g>						<g>							<polygon class="st12" points="65.07,80.58 66.57,74.18 71.25,74.96 70.44,77.09 68.42,76.69 68.37,76.9 69.85,77.15         69.28,78.67 67.93,78.45 67.86,78.71 70.19,79.06 69.56,81.42        "></polygon>						</g>						<g>							<path class="st3" d="M66.64,74.28l4.48,0.75l-0.74,1.96l-2.02-0.4l-0.1,0.38l1.48,0.25l-0.51,1.35l-1.36-0.22l-0.12,0.43        l2.33,0.34l-0.58,2.19l-4.32-0.82L66.64,74.28 M66.51,74.08l-0.04,0.16L65,80.47l-0.04,0.18l0.18,0.03l4.32,0.82l0.16,0.03        l0.04-0.16l0.58-2.19l0.05-0.19l-0.19-0.03l-2.14-0.32l0.03-0.09l1.2,0.2l0.14,0.02l0.05-0.14l0.51-1.35l0.07-0.19l0.38,0.08        l0.15,0.03l0.05-0.14l0.74-1.96l0.08-0.2l-0.21-0.04l-4.48-0.75L66.51,74.08L66.51,74.08z M68.48,76.83l0.01-0.04l1.29,0.26        l-0.01,0L68.48,76.83L68.48,76.83z"></path>						</g>					</g>					<g>						<g>							<path class="st12" d="M72.51,81.47l-0.48,1.24l-1.95-0.96l2.15-6.21l0.08,0.02c1.01,0.25,2,0.5,2.93,0.74        c0.51,0.13,0.92,0.32,1.2,0.57c0.29,0.25,0.48,0.54,0.56,0.85c0.08,0.31,0.08,0.64-0.02,0.97c-0.09,0.33-0.26,0.64-0.5,0.94        c-0.24,0.29-0.54,0.55-0.91,0.77c-0.33,0.2-0.7,0.35-1.1,0.45l1.2,1.62l-1.85,0.99L72.51,81.47z M73.15,79.21        c0.06,0,0.11,0.01,0.16,0.01c0,0,0,0,0,0c0.08,0,0.17-0.01,0.24-0.02c0.16-0.03,0.3-0.06,0.41-0.11        c0.12-0.05,0.21-0.1,0.28-0.16c0.08-0.07,0.12-0.11,0.14-0.13c0,0,0.01-0.03,0.04-0.08c0.02-0.04,0.03-0.09,0.04-0.16        c0.01-0.06-0.01-0.11-0.05-0.17c-0.04-0.06-0.13-0.11-0.25-0.15c-0.12-0.04-0.29-0.06-0.52-0.06l-0.04,0L73.15,79.21z"></path>						</g>						<g>							<path class="st3" d="M72.29,75.65c1.02,0.25,1.99,0.5,2.93,0.74c0.5,0.13,0.89,0.31,1.17,0.55c0.28,0.24,0.45,0.51,0.53,0.81        c0.08,0.3,0.07,0.6-0.02,0.92s-0.25,0.62-0.49,0.91c-0.23,0.28-0.53,0.54-0.89,0.75c-0.36,0.22-0.76,0.37-1.2,0.47l1.22,1.65        l-1.69,0.91l-1.36-2.07l-0.51,1.31l-1.79-0.88L72.29,75.65 M73.31,79.3c0.09,0,0.18-0.01,0.26-0.02        c0.16-0.03,0.31-0.07,0.43-0.12c0.12-0.05,0.23-0.11,0.3-0.17c0.08-0.06,0.13-0.11,0.16-0.16c0-0.01,0.01-0.03,0.04-0.08        c0.02-0.05,0.04-0.11,0.05-0.19c0.01-0.08-0.01-0.15-0.06-0.23c-0.05-0.07-0.15-0.14-0.29-0.19        c-0.13-0.04-0.31-0.07-0.55-0.07c-0.03,0-0.06,0-0.09,0l-0.53,1.2C73.12,79.29,73.21,79.3,73.31,79.3 M72.18,75.44        l-0.05,0.15l-2.1,6.06l-0.05,0.15l0.14,0.07l1.79,0.88l0.17,0.08l0.07-0.18l0.39-0.99l1.18,1.79l0.09,0.13l0.14-0.08        l1.69-0.91l0.18-0.1l-0.12-0.16l-1.06-1.44c0.36-0.1,0.69-0.24,0.99-0.42c0.37-0.23,0.69-0.49,0.93-0.79        c0.25-0.3,0.42-0.63,0.52-0.97c0.1-0.35,0.11-0.69,0.02-1.02c-0.09-0.33-0.29-0.63-0.59-0.89c-0.3-0.26-0.71-0.46-1.24-0.59        c-0.93-0.25-1.92-0.5-2.93-0.74L72.18,75.44L72.18,75.44z M73.28,79.12l0.39-0.87c0.21,0,0.36,0.02,0.47,0.06        c0.15,0.05,0.19,0.1,0.21,0.12c0.04,0.05,0.04,0.09,0.03,0.11c-0.01,0.07-0.02,0.11-0.03,0.13        c-0.01,0.03-0.03,0.05-0.03,0.07c-0.01,0.02-0.04,0.05-0.11,0.11c-0.07,0.05-0.15,0.1-0.26,0.15        c-0.11,0.05-0.24,0.08-0.39,0.11c-0.07,0.01-0.15,0.02-0.23,0.02C73.3,79.12,73.29,79.12,73.28,79.12L73.28,79.12z"></path>						</g>					</g>				</g>			</g>		</g>		<g>			<g>				<path class="st2" d="M35.26,82.42l3.18,4.83L36.46,88l-0.53-0.88l-1.32,0.04l-0.26,0.94l-1.89-0.62L35.26,82.42z M34.94,86.16     l0.75-0.13l-0.31-0.85L34.94,86.16z"></path>				<path class="st2" d="M34.36,89.13c-0.11,0-0.21-0.02-0.32-0.05l-1.89-0.62c-0.29-0.09-0.52-0.31-0.63-0.6     c-0.11-0.28-0.09-0.6,0.06-0.87l2.8-5.07c0.17-0.31,0.5-0.51,0.86-0.53c0.35-0.01,0.7,0.16,0.89,0.46l3.18,4.83     c0.17,0.26,0.21,0.58,0.12,0.88s-0.32,0.53-0.61,0.64l-1.97,0.75c-0.46,0.18-0.98-0.01-1.24-0.43l-0.19-0.32l-0.05,0.17     c-0.07,0.27-0.25,0.5-0.5,0.63C34.69,89.09,34.52,89.13,34.36,89.13z"></path>			</g>			<g>				<path class="st2" d="M41.47,83c0.59-0.11,1.08-0.19,1.46-0.23c0.38-0.04,0.69-0.06,0.91-0.05c0.22,0,0.42,0.02,0.6,0.06     c0.17,0.08,0.31,0.16,0.42,0.24c0.11,0.08,0.21,0.18,0.31,0.3s0.16,0.26,0.18,0.41c0.02,0.16-0.01,0.33-0.09,0.53     c-0.09,0.2-0.26,0.42-0.51,0.65c0.35,0.18,0.6,0.38,0.75,0.59c0.15,0.21,0.23,0.42,0.25,0.63c0.01,0.21-0.02,0.4-0.09,0.59     c-0.08,0.19-0.17,0.35-0.27,0.5c-0.1,0.14-0.24,0.3-0.41,0.47c0,0-0.03,0.02-0.08,0.05c-0.05,0.03-0.15,0.07-0.31,0.11     c-0.15,0.04-0.36,0.08-0.61,0.11c-0.26,0.03-0.59,0.04-0.99,0.04c-0.41,0-0.89-0.03-1.45-0.1L41.47,83z M44.05,86.11     c-0.01-0.04-0.03-0.09-0.06-0.15c-0.03-0.06-0.08-0.1-0.15-0.14c-0.07-0.03-0.17-0.04-0.3-0.03c-0.13,0.01-0.29,0.07-0.49,0.16     l0.08,0.66c0.23,0.02,0.41,0.01,0.54-0.03c0.13-0.04,0.22-0.09,0.28-0.15c0.06-0.06,0.1-0.15,0.12-0.25     C44.06,86.18,44.06,86.15,44.05,86.11z M43.69,84.2c-0.03-0.04-0.09-0.07-0.17-0.09c-0.08-0.01-0.21,0.01-0.38,0.08l-0.03,0.66     c0.13,0.02,0.24,0.01,0.32-0.03c0.08-0.04,0.14-0.1,0.19-0.16c0.04-0.06,0.08-0.14,0.11-0.25     C43.74,84.31,43.72,84.24,43.69,84.2z"></path>				<path class="st2" d="M43.05,89.03c-0.03,0-0.06,0-0.09,0c-0.44,0-0.97-0.04-1.56-0.1c-0.51-0.06-0.9-0.49-0.91-1.01l-0.04-4.91     c0-0.49,0.35-0.92,0.83-1.01c0.63-0.12,1.14-0.2,1.55-0.24c0.42-0.04,0.75-0.06,1.02-0.06c0.29,0,0.56,0.03,0.8,0.08     c0.07,0.02,0.15,0.04,0.22,0.07c0.23,0.11,0.42,0.22,0.58,0.33c0.18,0.13,0.35,0.29,0.51,0.48c0.22,0.26,0.35,0.57,0.41,0.92     c0.05,0.35-0.01,0.72-0.17,1.09c-0.01,0.02-0.01,0.03-0.02,0.05c0.06,0.07,0.11,0.13,0.16,0.2c0.26,0.37,0.4,0.75,0.43,1.14     c0.03,0.36-0.03,0.72-0.17,1.05c-0.11,0.26-0.24,0.5-0.39,0.71c-0.14,0.19-0.31,0.38-0.52,0.6c-0.01,0.01-0.01,0.01-0.02,0.02     c-0.09,0.09-0.18,0.14-0.27,0.19c-0.14,0.08-0.3,0.15-0.55,0.22c-0.21,0.06-0.47,0.11-0.78,0.14     C43.79,89.01,43.46,89.03,43.05,89.03z M43.21,86.61c0.06,0.06,0.13,0.11,0.2,0.14c0.01,0,0.02,0.01,0.03,0.01l-0.08-0.17     L43.21,86.61z M43.05,86.3c0.02,0.09,0.05,0.15,0.06,0.16c0.01,0.02,0.02,0.04,0.04,0.06l0.02-0.24L43.05,86.3z M43.04,86.18     h0.12H43.04z M43.06,85.98C43.06,85.98,43.06,85.98,43.06,85.98L43.06,85.98L43.06,85.98z M43.1,85.88     c-0.02,0.03-0.03,0.06-0.03,0.08l0.13-0.02l0.01-0.06C43.17,85.88,43.14,85.88,43.1,85.88z M43.16,84.58l-0.3,0.21     c0.03,0.04,0.06,0.07,0.09,0.1c0.06-0.02,0.11-0.04,0.17-0.05L43.16,84.58z M42.71,84.36c0,0.02,0,0.21,0.15,0.42l0.3-0.21     l0.03-0.19L42.71,84.36z M43.23,83.83c-0.07,0-0.17,0.02-0.28,0.08c-0.03,0.01-0.09,0.06-0.16,0.14     c-0.04,0.05-0.05,0.08-0.05,0.08l0.42,0.11l-0.03-0.07l0.08,0l0.06-0.35C43.27,83.84,43.25,83.83,43.23,83.83z"></path>			</g>			<g>				<path class="st2" d="M50.24,87.39c-0.15,0.15-0.33,0.28-0.55,0.4c-0.22,0.11-0.45,0.2-0.69,0.26c-0.25,0.06-0.5,0.09-0.76,0.08     c-0.26,0-0.51-0.05-0.75-0.14c-0.24-0.09-0.46-0.22-0.66-0.39c-0.2-0.18-0.36-0.4-0.49-0.69c-0.14-0.31-0.23-0.63-0.25-0.94     c-0.03-0.31-0.01-0.61,0.06-0.9c0.07-0.29,0.18-0.56,0.33-0.81c0.15-0.26,0.33-0.49,0.55-0.69c0.21-0.21,0.45-0.39,0.72-0.54     c0.27-0.15,0.55-0.27,0.85-0.35c0.28-0.07,0.55-0.09,0.8-0.07c0.25,0.03,0.47,0.09,0.68,0.18c0.2,0.09,0.37,0.2,0.51,0.34     c0.14,0.13,0.25,0.27,0.32,0.4c0.13,0.25,0.23,0.54,0.29,0.85c0.06,0.32,0.08,0.64,0.04,0.98c-0.04,0.34-0.13,0.68-0.29,1.03     C50.78,86.75,50.55,87.08,50.24,87.39z M49.41,84.72c-0.06-0.13-0.15-0.23-0.27-0.29c-0.12-0.06-0.24-0.08-0.37-0.08     c-0.13,0.01-0.27,0.05-0.41,0.12c-0.14,0.07-0.26,0.17-0.38,0.29c-0.11,0.12-0.21,0.27-0.28,0.45     c-0.07,0.18-0.11,0.37-0.11,0.58c0,0.2,0.02,0.36,0.08,0.49c0.06,0.13,0.14,0.22,0.23,0.28c0.09,0.06,0.2,0.09,0.32,0.1     c0.12,0.01,0.24-0.01,0.36-0.05c0.12-0.04,0.23-0.1,0.34-0.19c0.1-0.08,0.19-0.18,0.26-0.29c0.1-0.16,0.18-0.32,0.23-0.46     c0.05-0.14,0.08-0.27,0.09-0.39c0.01-0.12,0.01-0.22-0.02-0.32C49.48,84.88,49.45,84.79,49.41,84.72z"></path>				<path class="st2" d="M48.29,89.15c-0.02,0-0.05,0-0.07,0c-0.37-0.01-0.74-0.07-1.08-0.19c-0.36-0.13-0.7-0.33-0.99-0.59     c-0.31-0.27-0.56-0.62-0.75-1.04c-0.19-0.41-0.3-0.84-0.34-1.27c-0.04-0.42-0.01-0.83,0.08-1.22c0.09-0.39,0.24-0.76,0.44-1.1     c0.2-0.33,0.44-0.64,0.72-0.91c0.28-0.27,0.59-0.5,0.93-0.69c0.34-0.19,0.71-0.34,1.1-0.44c0.41-0.1,0.8-0.13,1.17-0.09     c0.36,0.04,0.69,0.13,0.99,0.27c0.3,0.14,0.57,0.31,0.79,0.52c0.22,0.21,0.4,0.43,0.52,0.66c0.18,0.34,0.31,0.72,0.39,1.13     c0.09,0.42,0.11,0.86,0.06,1.3c-0.05,0.45-0.17,0.9-0.37,1.34c-0.2,0.45-0.5,0.89-0.89,1.29c0,0-0.01,0.01-0.01,0.01     c-0.22,0.22-0.49,0.42-0.8,0.58c-0.29,0.15-0.6,0.27-0.93,0.35C48.93,89.12,48.61,89.15,48.29,89.15z M50.24,87.39L50.24,87.39     L50.24,87.39z"></path>			</g>			<g>				<path class="st2" d="M56.01,87.01l-0.97,1.1l-1.53-1.13l-0.02,1.08l-1.52-0.16l-0.1-4.91c0.8-0.09,1.56-0.17,2.3-0.25     c0.39-0.04,0.72-0.01,0.98,0.09c0.26,0.1,0.46,0.25,0.6,0.44c0.14,0.19,0.21,0.41,0.23,0.67c0.02,0.25-0.02,0.51-0.11,0.78     c-0.09,0.27-0.24,0.53-0.44,0.78c-0.2,0.25-0.45,0.47-0.74,0.65L56.01,87.01z M53.41,84.4l-0.06,1.01     c0.15-0.03,0.28-0.08,0.39-0.14c0.11-0.06,0.2-0.13,0.28-0.2c0.08-0.07,0.13-0.14,0.17-0.2c0.04-0.06,0.06-0.12,0.07-0.15     c0,0,0-0.03,0.01-0.07c0-0.04,0-0.09-0.02-0.15c-0.01-0.06-0.05-0.11-0.11-0.15c-0.06-0.04-0.14-0.06-0.26-0.06     C53.77,84.28,53.61,84.32,53.41,84.4z"></path>				<path class="st2" d="M55.03,89.13c-0.21,0-0.42-0.07-0.61-0.2l-0.21-0.16c-0.02,0.02-0.03,0.03-0.05,0.05     c-0.21,0.19-0.5,0.28-0.78,0.25l-1.52-0.16c-0.51-0.05-0.91-0.48-0.92-1l-0.1-4.91c-0.01-0.53,0.38-0.98,0.9-1.04     c0.8-0.09,1.58-0.18,2.32-0.25c0.55-0.06,1.04-0.01,1.45,0.15c0.45,0.17,0.81,0.44,1.06,0.8c0.25,0.35,0.39,0.74,0.42,1.19     c0.03,0.39-0.03,0.79-0.16,1.19c-0.11,0.33-0.28,0.64-0.5,0.95l0.24,0.15c0.25,0.16,0.41,0.43,0.45,0.72     c0.04,0.29-0.05,0.59-0.25,0.81l-0.97,1.1C55.6,89.02,55.32,89.13,55.03,89.13z"></path>			</g>			<g>				<path class="st2" d="M56.76,82.99c0.76-0.15,1.5-0.26,2.23-0.35c0.35-0.05,0.66-0.04,0.94,0.04s0.5,0.21,0.69,0.39     c0.19,0.18,0.33,0.4,0.43,0.66s0.16,0.54,0.17,0.84c0.01,0.3-0.02,0.6-0.1,0.92c-0.08,0.32-0.2,0.62-0.38,0.92     c-0.17,0.3-0.4,0.57-0.67,0.82c-0.27,0.25-0.59,0.47-0.96,0.64c-0.15,0.05-0.31,0.08-0.48,0.1c-0.17,0.02-0.41,0.03-0.69,0.02     c-0.29,0-0.65-0.03-1.08-0.09L56.76,82.99z M58.39,86.48c0.24-0.05,0.43-0.14,0.58-0.25c0.15-0.11,0.26-0.23,0.34-0.35     c0.08-0.12,0.13-0.24,0.16-0.36c0.03-0.12,0.05-0.21,0.05-0.28c0-0.07,0-0.11,0-0.11c0-0.01-0.01-0.05-0.02-0.12     c-0.01-0.07-0.04-0.16-0.08-0.26c-0.04-0.1-0.1-0.18-0.18-0.25c-0.08-0.07-0.18-0.09-0.31-0.08c-0.13,0.01-0.29,0.09-0.48,0.25     L58.39,86.48z"></path>				<path class="st2" d="M58.1,89.01c-0.05,0-0.11,0-0.16,0c-0.33,0-0.72-0.04-1.2-0.1c-0.5-0.06-0.88-0.49-0.89-0.99l-0.1-4.91     c-0.01-0.5,0.34-0.93,0.83-1.03c0.77-0.15,1.54-0.27,2.28-0.36c0.5-0.07,0.96-0.05,1.37,0.07c0.43,0.13,0.8,0.34,1.1,0.63     c0.3,0.28,0.53,0.63,0.68,1.03c0.14,0.36,0.22,0.75,0.24,1.16c0.02,0.39-0.03,0.8-0.13,1.21c-0.1,0.41-0.27,0.81-0.49,1.19     c-0.22,0.38-0.51,0.73-0.85,1.05c-0.35,0.33-0.76,0.6-1.23,0.82c-0.04,0.02-0.08,0.04-0.13,0.05c-0.21,0.07-0.44,0.11-0.68,0.14     C58.57,89.01,58.36,89.01,58.1,89.01z M58.49,85.14c0,0.01,0,0.02,0,0.03V85.14z M57.8,83.84l0,0.03c0,0,0,0,0,0     c0.02-0.01,0.03-0.02,0.05-0.04C57.84,83.84,57.82,83.84,57.8,83.84z"></path>			</g>			<g>				<path class="st2" d="M65.67,87.39c-0.15,0.15-0.33,0.28-0.55,0.4c-0.22,0.11-0.45,0.2-0.69,0.26c-0.25,0.06-0.5,0.09-0.76,0.08     c-0.26,0-0.51-0.05-0.75-0.14c-0.24-0.09-0.46-0.22-0.66-0.39c-0.2-0.18-0.36-0.4-0.49-0.69c-0.14-0.31-0.23-0.63-0.25-0.94     c-0.03-0.31-0.01-0.61,0.06-0.9c0.07-0.29,0.18-0.56,0.33-0.81c0.15-0.26,0.33-0.49,0.55-0.69c0.21-0.21,0.45-0.39,0.72-0.54     c0.27-0.15,0.55-0.27,0.85-0.35c0.28-0.07,0.55-0.09,0.8-0.07c0.25,0.03,0.47,0.09,0.68,0.18s0.37,0.2,0.51,0.34     c0.14,0.13,0.25,0.27,0.32,0.4c0.13,0.25,0.23,0.54,0.29,0.85c0.06,0.32,0.08,0.64,0.04,0.98c-0.04,0.34-0.13,0.68-0.29,1.03     C66.21,86.75,65.98,87.08,65.67,87.39z M64.84,84.72c-0.06-0.13-0.15-0.23-0.27-0.29c-0.12-0.06-0.24-0.08-0.37-0.08     c-0.13,0.01-0.27,0.05-0.41,0.12c-0.14,0.07-0.26,0.17-0.38,0.29c-0.11,0.12-0.21,0.27-0.28,0.45     c-0.07,0.18-0.11,0.37-0.11,0.58c0,0.2,0.02,0.36,0.08,0.49c0.06,0.13,0.14,0.22,0.23,0.28c0.09,0.06,0.2,0.09,0.32,0.1     c0.12,0.01,0.24-0.01,0.36-0.05c0.12-0.04,0.23-0.1,0.34-0.19c0.1-0.08,0.19-0.18,0.26-0.29c0.1-0.16,0.18-0.32,0.23-0.46     c0.05-0.14,0.08-0.27,0.09-0.39c0.01-0.12,0.01-0.22-0.02-0.32C64.9,84.88,64.87,84.79,64.84,84.72z"></path>				<path class="st2" d="M63.72,89.15c-0.02,0-0.05,0-0.07,0c-0.37-0.01-0.74-0.07-1.08-0.19c-0.36-0.13-0.7-0.33-0.99-0.59     c-0.31-0.27-0.56-0.62-0.75-1.04c-0.19-0.41-0.3-0.84-0.34-1.26c-0.04-0.42-0.01-0.83,0.08-1.22c0.09-0.39,0.24-0.76,0.44-1.1     c0.2-0.33,0.44-0.64,0.72-0.91c0.28-0.27,0.59-0.5,0.93-0.69c0.34-0.19,0.71-0.34,1.1-0.44c0.41-0.1,0.8-0.13,1.17-0.09     c0.36,0.04,0.69,0.13,0.99,0.27c0.3,0.14,0.57,0.31,0.79,0.52c0.22,0.21,0.4,0.43,0.52,0.66c0.18,0.35,0.31,0.72,0.39,1.13     c0.09,0.42,0.11,0.85,0.06,1.3c-0.05,0.45-0.17,0.9-0.37,1.34c-0.2,0.45-0.5,0.89-0.89,1.28c0,0-0.01,0.01-0.01,0.01     c-0.22,0.22-0.49,0.42-0.8,0.58c-0.29,0.15-0.6,0.27-0.93,0.35C64.36,89.12,64.04,89.15,63.72,89.15z M65.67,87.39L65.67,87.39     L65.67,87.39z"></path>			</g>		</g>		<g>			<g>				<path class="st8" d="M35.24,82.42l3.18,4.83L36.44,88l-0.53-0.88l-1.32,0.04l-0.26,0.94l-1.89-0.62L35.24,82.42z M34.92,86.16     l0.75-0.13l-0.31-0.86L34.92,86.16z"></path>				<path class="st8" d="M41.44,83c0.59-0.11,1.08-0.19,1.46-0.23c0.38-0.04,0.69-0.06,0.91-0.05c0.22,0,0.42,0.02,0.6,0.06     c0.17,0.08,0.31,0.16,0.42,0.24c0.11,0.08,0.21,0.18,0.31,0.3c0.1,0.12,0.16,0.26,0.18,0.41c0.02,0.16-0.01,0.33-0.09,0.53     c-0.09,0.2-0.26,0.41-0.51,0.65c0.35,0.18,0.6,0.38,0.75,0.59c0.15,0.21,0.23,0.42,0.25,0.63c0.01,0.21-0.02,0.4-0.09,0.59     c-0.08,0.19-0.17,0.35-0.27,0.5c-0.1,0.14-0.24,0.3-0.41,0.47c0,0-0.03,0.02-0.08,0.05c-0.05,0.03-0.16,0.07-0.31,0.11     c-0.15,0.04-0.36,0.08-0.61,0.11c-0.26,0.03-0.59,0.04-0.99,0.04c-0.41,0-0.89-0.03-1.45-0.1L41.44,83z M44.03,86.11     c-0.01-0.04-0.03-0.09-0.06-0.15c-0.03-0.06-0.08-0.1-0.15-0.14c-0.07-0.03-0.17-0.04-0.3-0.03c-0.13,0.01-0.29,0.07-0.49,0.16     l0.08,0.66c0.23,0.02,0.41,0.01,0.54-0.03c0.13-0.04,0.22-0.09,0.28-0.15s0.1-0.15,0.12-0.25     C44.04,86.18,44.03,86.15,44.03,86.11z M43.66,84.2c-0.03-0.04-0.09-0.07-0.17-0.09c-0.08-0.01-0.21,0.01-0.38,0.08l-0.03,0.66     c0.13,0.02,0.24,0.01,0.32-0.03c0.08-0.04,0.14-0.1,0.19-0.16c0.04-0.06,0.08-0.14,0.11-0.25C43.71,84.31,43.7,84.24,43.66,84.2     z"></path>				<path class="st8" d="M50.22,87.39c-0.15,0.15-0.33,0.28-0.55,0.4c-0.22,0.11-0.45,0.2-0.69,0.26c-0.25,0.06-0.5,0.09-0.76,0.08     c-0.26,0-0.51-0.05-0.75-0.14c-0.24-0.09-0.46-0.22-0.66-0.39c-0.2-0.18-0.36-0.4-0.49-0.69c-0.14-0.31-0.23-0.63-0.25-0.94     s-0.01-0.61,0.06-0.9c0.07-0.29,0.18-0.56,0.33-0.81c0.15-0.26,0.33-0.49,0.55-0.69c0.21-0.21,0.45-0.39,0.72-0.54     c0.27-0.15,0.55-0.27,0.85-0.35c0.28-0.07,0.55-0.09,0.8-0.07c0.25,0.03,0.47,0.09,0.68,0.18c0.2,0.09,0.37,0.2,0.51,0.34     c0.14,0.13,0.25,0.27,0.32,0.4c0.13,0.25,0.23,0.54,0.29,0.85c0.06,0.32,0.08,0.64,0.04,0.98c-0.04,0.34-0.13,0.68-0.29,1.03     C50.75,86.75,50.52,87.08,50.22,87.39z M49.38,84.72c-0.06-0.13-0.15-0.23-0.27-0.29c-0.12-0.06-0.24-0.08-0.37-0.08     c-0.13,0.01-0.27,0.05-0.41,0.12c-0.14,0.07-0.26,0.17-0.38,0.29c-0.11,0.12-0.21,0.27-0.28,0.45     c-0.07,0.18-0.11,0.37-0.11,0.58c0,0.2,0.02,0.36,0.08,0.49c0.06,0.13,0.14,0.22,0.23,0.28c0.09,0.06,0.2,0.09,0.32,0.1     c0.12,0.01,0.24-0.01,0.36-0.05c0.12-0.04,0.23-0.1,0.34-0.19c0.1-0.08,0.19-0.18,0.26-0.29c0.1-0.16,0.18-0.32,0.23-0.46     c0.05-0.14,0.08-0.27,0.09-0.39c0.01-0.12,0.01-0.22-0.02-0.32C49.45,84.88,49.42,84.79,49.38,84.72z"></path>				<path class="st8" d="M55.98,87.01l-0.97,1.1l-1.53-1.13l-0.02,1.08l-1.52-0.16l-0.1-4.91c0.8-0.09,1.56-0.17,2.3-0.25     c0.39-0.04,0.72-0.01,0.98,0.09c0.26,0.1,0.46,0.25,0.6,0.44c0.14,0.19,0.21,0.41,0.23,0.67c0.02,0.25-0.02,0.51-0.11,0.78     c-0.09,0.27-0.24,0.53-0.44,0.78s-0.45,0.47-0.74,0.65L55.98,87.01z M53.39,84.4l-0.06,1.01c0.15-0.03,0.28-0.08,0.39-0.14     c0.11-0.06,0.2-0.13,0.28-0.2c0.08-0.07,0.13-0.14,0.17-0.2c0.04-0.06,0.06-0.12,0.07-0.15c0,0,0-0.03,0.01-0.07     c0-0.04,0-0.09-0.02-0.15c-0.01-0.06-0.05-0.11-0.11-0.15s-0.14-0.06-0.26-0.06C53.75,84.28,53.59,84.32,53.39,84.4z"></path>				<path class="st8" d="M56.74,82.99c0.76-0.15,1.5-0.26,2.23-0.35c0.35-0.05,0.66-0.04,0.94,0.04c0.27,0.08,0.5,0.21,0.69,0.39     s0.33,0.4,0.43,0.66c0.1,0.26,0.16,0.54,0.17,0.84c0.01,0.3-0.02,0.6-0.1,0.92c-0.08,0.32-0.2,0.62-0.38,0.92     c-0.17,0.3-0.4,0.57-0.67,0.82c-0.27,0.25-0.59,0.47-0.96,0.64c-0.15,0.05-0.31,0.08-0.48,0.1c-0.17,0.02-0.41,0.03-0.69,0.02     c-0.29,0-0.65-0.03-1.08-0.09L56.74,82.99z M58.36,86.48c0.24-0.05,0.43-0.14,0.58-0.25c0.15-0.11,0.26-0.23,0.34-0.35     c0.08-0.12,0.13-0.24,0.16-0.36c0.03-0.12,0.05-0.21,0.05-0.28c0-0.07,0-0.11,0-0.11c0-0.01-0.01-0.05-0.02-0.12     c-0.01-0.07-0.04-0.16-0.08-0.26c-0.04-0.1-0.1-0.18-0.18-0.25c-0.08-0.06-0.18-0.09-0.31-0.08c-0.13,0.01-0.29,0.09-0.48,0.25     L58.36,86.48z"></path>				<path class="st8" d="M65.65,87.39c-0.15,0.15-0.33,0.28-0.55,0.4c-0.22,0.11-0.45,0.2-0.69,0.26c-0.25,0.06-0.5,0.09-0.76,0.08     c-0.26,0-0.51-0.05-0.75-0.14c-0.24-0.09-0.46-0.22-0.66-0.39c-0.2-0.18-0.36-0.4-0.49-0.69c-0.14-0.31-0.23-0.63-0.25-0.94     s-0.01-0.61,0.06-0.9c0.07-0.29,0.18-0.56,0.33-0.81c0.15-0.26,0.33-0.49,0.55-0.69c0.21-0.21,0.45-0.39,0.72-0.54     c0.27-0.15,0.55-0.27,0.85-0.35c0.28-0.07,0.55-0.09,0.8-0.07c0.25,0.03,0.47,0.09,0.68,0.18s0.37,0.2,0.51,0.34     c0.14,0.13,0.25,0.27,0.32,0.4c0.13,0.25,0.23,0.54,0.29,0.85c0.06,0.32,0.08,0.64,0.04,0.98c-0.04,0.34-0.13,0.68-0.29,1.03     C66.18,86.75,65.95,87.08,65.65,87.39z M64.81,84.72c-0.06-0.13-0.15-0.23-0.27-0.29c-0.12-0.06-0.24-0.08-0.37-0.08     c-0.13,0.01-0.27,0.05-0.41,0.12c-0.14,0.07-0.26,0.17-0.38,0.29c-0.11,0.12-0.21,0.27-0.28,0.45     c-0.07,0.18-0.11,0.37-0.11,0.58c0,0.2,0.02,0.36,0.08,0.49c0.06,0.13,0.14,0.22,0.23,0.28c0.09,0.06,0.2,0.09,0.32,0.1     c0.12,0.01,0.24-0.01,0.36-0.05s0.23-0.1,0.34-0.19c0.1-0.08,0.19-0.18,0.26-0.29c0.1-0.16,0.18-0.32,0.23-0.46     c0.05-0.14,0.08-0.27,0.09-0.39c0.01-0.12,0.01-0.22-0.02-0.32C64.88,84.88,64.85,84.79,64.81,84.72z"></path>			</g>		</g>	</g></g><g></g><g></g><g></g><g></g><g></g><g></g><g></g><g></g><g></g><g></g><g></g><g></g><g></g><g></g><g></g></svg>