<svg xmlns="http://www.w3.org/2000/svg" xmlns:xlink="http://www.w3.org/1999/xlink" id="Capa_1" x="0px" y="0px" viewBox="0 0 100 100" style="enable-background:new 0 0 100 100;" xml:space="preserve"><style type="text/css">	.st0{fill:#FFFFFF;stroke:#1D1D1B;stroke-width:0.1332;stroke-linecap:round;stroke-linejoin:round;stroke-miterlimit:10;}	.st1{fill:#1D1D1B;}	.st2{fill:#E1130F;}	.st3{fill:#FFCB24;}	.st4{fill:#FFA200;}	.st5{opacity:0.5;fill:#FFFFFF;}	.st6{fill:#FF1A14;}	.st7{fill:#EA0029;}	.st8{fill:#FFFFFF;}	.st9{fill:#1D1E1C;}	.st10{opacity:0.3;fill:#9B1515;}	.st11{opacity:0.4;fill:#9B1515;}</style><g>	<path class="st0" d="M82.6,39.5l0.9-3.4c0.3-1.2,0.1-2.5-0.5-3.6c0.1-0.7,0.1-1.5-0.2-2.2c-0.4-1.2-1.2-2.2-2.4-2.8L77,25.7  c-0.1,0-0.1-0.1-0.2-0.1l0.6-4c0.4-2.6-1.4-5.1-4-5.4L72.5,16c-0.3-1.9-1.8-3.4-3.8-3.8l-1.5-0.3l0.1-1.7C67.4,9,67,7.7,66.2,6.7  c-0.8-1-2-1.6-3.3-1.7l-3.8-0.3c-0.1,0-0.3,0-0.4,0c-0.5,0-1,0.1-1.4,0.2l-2,0.6c-1.9,0.6-3.2,2.2-3.4,4.2l-0.7,7.8  c-0.8-0.8-1.9-1.3-3.1-1.3c-0.9-1.3-2.3-2.1-4-2.1h-3.8c-0.6,0-1.2,0.1-1.8,0.3l-1.9,0.8c-1.8,0.7-3,2.5-3,4.4v1.7  c-0.4,0-0.7,0.1-1,0.2l-3.7,1.1c-0.5,0.1-0.9,0.4-1.4,0.6c-0.8-0.7-1.9-1.1-3-1.1c-1.1,0-2.1,0.3-2.9,1l-3.1,2.3  c-0.5,0.4-0.9,0.8-1.2,1.4l-1.1,1.8c-1,1.7-0.9,3.8,0.3,5.4l5.5,7.2c-0.3,0.6-0.4,1.3-0.4,2.1c0,0,0,0,0,0c0,0.2,0,0.3,0,0.5  l3.8,33.7c0,0.3,0,0.6,0,1l0.9,8c0.4,3.5,2.5,6.4,5.7,7.9c1.3,0.6,2.8,1,4.3,1h0.1h33h0.1c5.1,0,9.4-3.8,9.9-8.9l4.8-42.6  c0-0.2,0-0.4,0-0.5C84.3,41.5,83.6,40.4,82.6,39.5z"></path>	<path class="st1" d="M79.1,40.8l1.4-5.4c0.1-0.5,0-1-0.2-1.4c-0.2-0.3-0.5-0.6-0.9-0.8l0.4-0.7c0.5-0.9,0.1-2-0.8-2.4l-3.4-1.8  c-0.2-0.1-0.4-0.2-0.7-0.2L73.5,28l1-6.8c0.1-1-0.5-1.9-1.5-2l-3.7-0.5l0.3-1.3c0.2-1-0.4-1.9-1.4-2.1l-3.8-0.7c-0.1,0-0.2,0-0.3,0  c0,0,0,0-0.1,0l0.4-4.4c0-0.5-0.1-0.9-0.4-1.3c-0.3-0.4-0.7-0.6-1.2-0.6l-3.8-0.3c-0.1,0-0.1,0-0.2,0c-0.2,0-0.4,0-0.5,0.1l-2,0.6  C55.5,8.6,55,9.2,55,10l-1.1,12.9L51.7,23c-0.2,0-0.5,0.1-0.7,0.2l-0.9,0.4l-0.4-2.8c-0.1-0.9-0.9-1.6-1.8-1.6c-0.1,0-0.2,0-0.2,0  L46,19.5v-0.6c0-1-0.8-1.8-1.8-1.8h-3.8c-0.2,0-0.5,0-0.7,0.1L37.8,18c-0.7,0.3-1.1,0.9-1.1,1.7v9.1l-0.9-3.2  c-0.1-0.5-0.4-0.8-0.9-1.1c-0.3-0.1-0.6-0.2-0.9-0.2c-0.2,0-0.3,0-0.5,0.1l-3.7,1.1c-0.2,0.1-0.4,0.2-0.6,0.3l-1.6,1.3  c-0.1,0.1-0.3,0.2-0.4,0.4L26,26c-0.4-0.5-0.9-0.7-1.4-0.7c-0.4,0-0.8,0.1-1.1,0.4l-3.1,2.3c-0.2,0.1-0.3,0.3-0.5,0.5l-1.1,1.8  c-0.4,0.6-0.3,1.4,0.1,2l6.9,9.2c-0.4,0.3-0.6,0.4-0.6,0.4c-0.5,0.3-0.7,0.9-0.7,1.5v0c0,0,0,0,0,0c0,0.1,0,0.1,0,0.2l3.8,34.1  c0,0.2-0.1,0.4,0,0.6l0.9,8c0.3,2.4,1.8,4.5,4,5.6c0.9,0.4,1.9,0.7,3,0.7h0.1h33h0.1c3.6,0,6.6-2.7,7-6.2l4.8-42.6  c0-0.1,0-0.1,0-0.2C81.3,42.3,81,42,79.1,40.8z"></path>	<g>		<path class="st2" d="M53,34.2c-14.6,0-26.5,9-26.5,9l0,0c0,0,11.9,9,26.5,9s26.5-9,26.5-9l0,0C79.5,43.2,67.6,34.2,53,34.2z"></path>		<g>			<g>				<rect x="40.4" y="18.9" class="st3" width="3.8" height="44"></rect>				<polygon class="st4" points="38.5,19.7 40.4,18.9 40.4,62.9 38.5,63.6     "></polygon>			</g>			<g>									<rect x="34.4" y="23.7" transform="matrix(0.7975 -0.6033 0.6033 0.7975 -20.2328 31.1832)" class="st3" width="3.8" height="44"></rect>				<polygon class="st4" points="20.5,31.1 21.5,29.4 48.1,64.4 47,66.2     "></polygon>			</g>			<g>									<rect x="47.1" y="21.1" transform="matrix(0.9915 -0.1302 0.1302 0.9915 -5.1885 6.7434)" class="st3" width="3.8" height="44"></rect>				<polygon class="st4" points="42.4,22.5 44.2,21.5 49.9,65.1 48.1,66.1     "></polygon>			</g>			<g>									<rect x="56.9" y="9.6" transform="matrix(0.9965 8.386188e-02 -8.386188e-02 0.9965 2.8559 -4.8184)" class="st3" width="3.8" height="44"></rect>				<polygon class="st4" points="56.7,10.1 58.7,9.5 55,53.3 53.1,53.9     "></polygon>			</g>			<g>									<rect x="59.8" y="16.1" transform="matrix(0.9813 0.1927 -0.1927 0.9813 8.4989 -11.1677)" class="st3" width="3.8" height="44"></rect>				<polygon class="st4" points="62,16.6 64,16.2 55.6,59.3 53.5,59.7     "></polygon>			</g>			<g>									<rect x="52.6" y="24.7" transform="matrix(0.9994 -3.497308e-02 3.497308e-02 0.9994 -1.5995 1.9336)" class="st3" width="3.8" height="44"></rect>				<polygon class="st4" points="49.9,25.6 51.8,24.8 53.3,68.7 51.4,69.6     "></polygon>			</g>			<g>									<rect x="64.4" y="28.3" transform="matrix(0.886 0.4637 -0.4637 0.886 30.8838 -25.0136)" class="st3" width="3.8" height="44"></rect>				<polygon class="st4" points="72.8,29.7 74.8,29.9 54.4,68.9 52.4,68.7     "></polygon>			</g>			<g>									<rect x="36.5" y="25.8" transform="matrix(0.9581 -0.2863 0.2863 0.9581 -12.0671 13.01)" class="st3" width="3.8" height="44"></rect>				<polygon class="st4" points="28.7,28.5 30.3,27.2 42.9,69.4 41.3,70.7     "></polygon>			</g>			<g>									<rect x="69.6" y="33.8" transform="matrix(0.9695 0.2451 -0.2451 0.9695 15.8488 -15.8323)" class="st3" width="3.8" height="44"></rect>				<polygon class="st4" points="73,34.2 75.1,34 64.3,76.6 62.2,76.9     "></polygon>			</g>			<g>									<rect x="65.7" y="20.4" transform="matrix(0.9892 0.1464 -0.1464 0.9892 6.9347 -9.4416)" class="st3" width="3.8" height="44"></rect>				<polygon class="st4" points="66.9,20.8 68.9,20.4 62.5,63.9 60.5,64.4     "></polygon>			</g>			<path class="st5" d="M69.9,26.3c-0.2,1.7,0.2,3.1-0.3,3c-0.6-0.1-0.5-1.5-0.3-3.3c0.2-1.7,0.4-3.1,1-3    C70.8,23.1,70.1,24.5,69.9,26.3z"></path>			<path class="st5" d="M73.4,47.9c-0.5,1.7-0.3,3.1-0.8,3c-0.6-0.2-0.2-1.6,0.2-3.3c0.5-1.7,0.9-3,1.4-2.9    C74.8,44.9,73.9,46.2,73.4,47.9z"></path>			<path class="st5" d="M62.3,32.9c-0.5,1.7-0.3,3.1-0.8,3c-0.6-0.2-0.2-1.6,0.2-3.3c0.5-1.7,0.9-3,1.4-2.9    C63.7,29.9,62.7,31.2,62.3,32.9z"></path>			<path class="st5" d="M59.9,15.9c-0.3,1.7,0.1,3.1-0.5,3c-0.6-0.1-0.4-1.6-0.1-3.3c0.3-1.7,0.6-3.1,1.1-3    C61,12.7,60.2,14.2,59.9,15.9z"></path>			<path class="st5" d="M54.6,32.9c0,1.8,0.6,3.1,0,3.1c-0.6,0-0.6-1.5-0.7-3.2c0-1.8,0-3.1,0.6-3.1C55.1,29.6,54.6,31.1,54.6,32.9z    "></path>			<path class="st5" d="M47.8,27.9c0.2,1.7,0.9,3,0.3,3.1c-0.6,0.1-0.8-1.4-0.9-3.2c-0.2-1.7-0.3-3.1,0.3-3.2    C48.1,24.6,47.6,26.2,47.8,27.9z"></path>			<path class="st5" d="M42.1,38.5c0.1,1.8,0.7,3,0.1,3.1c-0.6,0-0.7-1.4-0.8-3.2c-0.1-1.8-0.1-3.1,0.5-3.2    C42.5,35.2,42,36.8,42.1,38.5z"></path>			<path class="st5" d="M37,39.2c0.5,1.7,1.4,2.8,0.9,2.9c-0.6,0.2-1-1.2-1.5-2.9c-0.5-1.7-0.9-3-0.3-3.2    C36.6,35.9,36.5,37.5,37,39.2z"></path>			<path class="st5" d="M29.7,36.1c1,1.4,2.3,2.1,1.8,2.5c-0.5,0.3-1.4-0.8-2.4-2.2c-1-1.4-1.8-2.6-1.3-2.9    C28.2,33.1,28.7,34.6,29.7,36.1z"></path>		</g>		<path class="st6" d="M53,52.2c-14.6,0-26.5-9-26.5-9h0l4.8,42.6c0.3,2.6,2.5,4.6,5.2,4.6h33.1c2.7,0,4.9-2,5.2-4.6l4.8-42.6h0   C79.5,43.2,67.6,52.2,53,52.2z"></path>		<g>			<g>				<g>					<path class="st7" d="M63.9,62.1c-1.1-2.7-3.4-3.5-3.4-3.5c-2.4-1.2-5.9-1-5.9-1c-1.6-0.1-4.6,0.4-4.6,0.4L45.8,59l-2.3,25.4      l8.4,0.3l-0.1-8c0.1,0.1,2.2,0.2,2.2,0.2c4.2,0,6.5-2.3,6.5-2.3c2.2-1.7,3.2-5.1,3.2-5.1S65,64.8,63.9,62.1"></path>					<path class="st8" d="M51.9,85.4C51.9,85.4,51.9,85.4,51.9,85.4l-8.4-0.3c-0.2,0-0.4-0.1-0.5-0.3c-0.1-0.2-0.2-0.4-0.2-0.6      L45,58.9c0-0.3,0.3-0.6,0.6-0.7l4.3-0.9c0,0,0,0,0,0c0.1,0,3-0.5,4.7-0.4c0.4,0,3.7-0.1,6.2,1.1c0.4,0.1,2.6,1.1,3.8,3.9l0,0      c1.2,2.9-0.2,7.6-0.2,7.8c0,0.1-1.1,3.6-3.4,5.4c-0.3,0.3-2.8,2.5-7,2.5c0,0,0,0,0,0c-0.6,0-1,0-1.4,0l0.1,7.1      c0,0.2-0.1,0.4-0.2,0.6C52.3,85.3,52.1,85.4,51.9,85.4z M44.3,83.6l6.8,0.2L51,76.6c0-0.4,0.3-0.7,0.6-0.8c0.2,0,0.3,0,0.5,0.1      c0.3,0,1.1,0.1,1.8,0.1c3.8,0,5.9-2.1,5.9-2.1c0,0,0,0,0.1-0.1c2-1.5,2.9-4.7,2.9-4.7c0,0,1.3-4.4,0.3-6.8l0,0      c-0.9-2.3-2.8-3-2.9-3c0,0-0.1,0-0.1,0c-2.2-1.1-5.5-1-5.5-1c0,0,0,0-0.1,0c-1.4,0-4.1,0.4-4.4,0.4l-3.7,0.8L44.3,83.6z       M52.5,76.3C52.5,76.3,52.5,76.3,52.5,76.3C52.5,76.3,52.5,76.3,52.5,76.3z M52.5,76.3C52.5,76.3,52.5,76.3,52.5,76.3      C52.5,76.3,52.5,76.3,52.5,76.3z M52.5,76.3C52.5,76.3,52.5,76.3,52.5,76.3C52.5,76.3,52.5,76.3,52.5,76.3z"></path>				</g>				<path class="st8" d="M55.3,63c-1.4,0.1-2.3,1.7-2.1,3.5c0.2,1.8,1.4,3.2,2.7,3s2.3-1.7,2.1-3.5C57.9,64.3,56.6,62.9,55.3,63      M55.2,68.8c-0.8,0.1-1.6-0.9-1.7-2.2c-0.2-1.3,0.4-2.4,1.2-2.5c0.7-0.1,1.4,0.7,1.7,1.8L55,66.4l1.5,0.6     C56.3,67.9,55.9,68.7,55.2,68.8"></path>				<path class="st9" d="M56.3,65.9c-0.3-1.1-1-1.9-1.7-1.8c-0.8,0.1-1.3,1.2-1.2,2.5c0.2,1.3,0.9,2.3,1.7,2.2     c0.6-0.1,1.1-0.8,1.2-1.8L55,66.4L56.3,65.9z"></path>			</g>		</g>		<path class="st10" d="M67.3,73.6c4.9-4.4,8.2-9.9,10.4-16.1c0.1-0.3,0.2-0.6,0.3-0.9l1.6-13.3l-0.9,0.6c-0.6,1.6-1.4,2.6-2.3,4.1   c-6.9,11.5-17,18.8-28.5,24.8c-5.6,3-11.5,4.5-17.5,5.2l0.9,8c0.2,1.9,1.4,3.4,3,4.1c0.4-0.2,0.7-0.4,1.1-0.5   C47.2,86.4,58.4,82,67.3,73.6z"></path>		<path class="st11" d="M77.7,57.4c-2.2,6.2-5.5,11.7-10.4,16.1c-8.8,8.4-20.1,12.8-32,15.9c-0.4,0.1-0.7,0.3-1.1,0.5   c0.7,0.3,1.4,0.5,2.2,0.5h33.1c2.7,0,4.9-2,5.2-4.6l3.3-29.3C77.8,56.8,77.7,57.1,77.7,57.4z"></path>		<path class="st5" d="M30.6,49.6c2.2,1.3,10,5.6,20.3,4.3c3.8,0.3,4.4,4.7-4.7,4C37.8,57.2,26.9,52,29,49.8   C29.4,49.3,30.1,49.3,30.6,49.6z"></path>		<path class="st5" d="M56.2,55c0,0,4.8-3.1,5.9,0C63,58.1,53.6,58.5,56.2,55z"></path>	</g></g></svg>