<svg xmlns="http://www.w3.org/2000/svg" xmlns:xlink="http://www.w3.org/1999/xlink" id="Capa_1" x="0px" y="0px" viewBox="0 0 100 100" style="enable-background:new 0 0 100 100;" xml:space="preserve"><style type="text/css">	.st0{fill:#FFFFFF;stroke:#1D1D1B;stroke-width:0.1336;stroke-linecap:round;stroke-linejoin:round;stroke-miterlimit:10;}	.st1{fill:#FFFFFF;}	.st2{fill:#1D1E1C;}	.st3{fill:#1E1E1C;}	.st4{fill:#FFCF04;}	.st5{fill:#EA0029;}	.st6{fill:#FF8300;}	.st7{fill:#FFA400;}	.st8{fill:#AA182C;}	.st9{fill:none;stroke:#1D1E1C;stroke-width:0;stroke-linecap:round;stroke-linejoin:round;}	.st10{fill:url(#SVGID_1_);}	.st11{fill:url(#SVGID_00000076565758020875764160000016362770970459104156_);}	.st12{fill:#E58E03;}	.st13{fill:#1D1D1B;}	.st14{fill:#F8AF17;}	.st15{fill:#FF3000;}	.st16{fill:#FFDF05;}</style><g>	<path class="st0" d="M88.4,83.17c-0.07-0.26-0.16-0.53-0.27-0.79c-0.39-1.15-1.1-2.2-2.06-3.04c-0.92-0.81-2.05-1.38-3.37-1.72  c-0.71-0.19-1.44-0.37-2.19-0.56c-0.62-0.42-1.33-0.71-2.09-0.84L78,76.15l0.68-0.88c0.83-1.07,1.18-2.44,0.97-3.77  c-0.21-1.35-0.97-2.55-2.09-3.31l-2.06-1.41c-0.3-0.21-0.63-0.39-0.98-0.52c-0.6-0.31-1.26-0.49-1.95-0.53  c0.09-0.31,0.15-0.62,0.2-0.94c1.3-2.72,1.49-5.43,0.53-7.73c-0.36-0.88-0.86-1.68-1.49-2.38c0.25-1.46-0.09-2.95-0.93-4.13  c-0.01-0.05-0.01-0.1-0.02-0.15c0.45-1.6,0.17-3.32-0.8-4.69c-0.18-0.25-0.37-0.49-0.59-0.71c-0.07-0.08-0.23-0.26-0.49-0.54  c-0.34-1.28-1.02-2.23-1.43-2.71c-0.59-0.72-1.35-1.43-2.26-2.11c-0.9-1.75-2.59-2.53-3.43-2.89l-0.56-0.28  c-0.44-0.43-0.89-0.78-1.27-1.06c-1.44-1.19-3.31-2.06-4.48-2.54c-0.61-0.78-1.79-2.43-3.16-4.5c4.42-3.96,5.32-8.34,5.5-9.79  c0.76-3.93-0.1-9.49-5-12.6c-1.49-0.94-3.17-1.42-5-1.42c-3.74,0-7.3,2.08-9.65,3.84c-4.9,0.07-8.29,2.95-10.16,5.12  c-5.87,1.38-8.56,5.41-9.76,8.23c-3.19,1.46-4.65,3.65-5.15,4.54c-4.4,7.48,0.31,14.94,1.29,16.35c1.35,2.17,3.35,3.53,5.8,3.94  c0.49,0.08,0.99,0.12,1.49,0.12c1.57,0,3.09-0.4,4.45-0.95c0.46,0.93,1,2.05,1.64,3.38c0.05,0.11,0.09,0.19,0.12,0.24  c0.04,0.12,0.1,0.31,0.18,0.57c-0.65,1.77-0.95,3.87-1.09,5.54c-0.1,1.11,0.15,2.2,0.69,3.15c0,0.52,0.01,1,0.02,1.4  c0.03,1.05,0.36,2.05,0.92,2.9c0.29,2.13,0.92,3.53,1.14,3.98c0.31,0.62,0.73,1.16,1.23,1.61c0.21,0.35,0.45,0.69,0.74,0.99  c0.05,0.05,0.1,0.1,0.14,0.15c0.63,1.11,1.31,1.93,1.88,2.5c-0.05,0.15-0.09,0.31-0.13,0.47c-0.24,0.96-0.31,1.94-0.22,2.9  c0.03,0.28,0.07,0.55,0.12,0.82c-0.43,0.16-0.87,0.32-1.31,0.49l-0.15,0.06c-0.89,0.34-1.64,0.89-2.2,1.59  c-2.14,0.42-3.8,2.05-4.28,4.16c-0.82,1.14-1.19,2.58-0.97,4.05c-0.19,0.72-0.23,1.48-0.11,2.25c0.01,0.08,0.03,0.16,0.04,0.23  l0.06,0.31l0.02,0.09l0.01,0.06c0.17,0.73,0.47,1.41,0.9,2.01c0.28,0.72,0.7,1.39,1.26,1.93c0.15,0.17,0.3,0.33,0.47,0.48  c0.99,0.9,2.29,1.4,3.64,1.4c0.19,0,0.38-0.01,0.56-0.03l0.24-0.02c0.88-0.07,1.72-0.34,2.45-0.79c0.86-0.17,1.64-0.53,2.3-1.03  c0.15-0.01,0.31-0.03,0.46-0.05l1.93-0.28c0.77-0.11,1.5-0.39,2.13-0.82c0.12,0.01,0.24,0.01,0.36,0.01c0.46,0,0.92-0.06,1.37-0.18  l1.64-0.44l1.68-0.09c0.21-0.01,0.42-0.03,0.62-0.07c0.3-0.01,0.61-0.05,0.91-0.11l1.61-0.34c0.37,0.06,0.74,0.09,1.11,0.09  c0.14,0,0.28,0,0.43-0.01c0.36-0.02,0.72-0.07,1.06-0.14c0.16,0,0.32-0.01,0.48-0.03l0.79-0.08c0.39,0.09,0.8,0.14,1.2,0.14  c0.18,0,0.36-0.01,0.54-0.03l3.5-0.35c0.8,0.34,1.65,0.55,2.53,0.62c0.26,0.02,0.52,0.03,0.77,0.03c0.51,0,1.02-0.04,1.52-0.13  c0.33-0.06,0.66-0.13,0.98-0.22c0.74,0.66,1.66,1.1,2.66,1.26c0.27,0.04,0.55,0.07,0.84,0.07c0.11,0,0.22,0,0.33-0.01  c0.01,0,0.02,0,0.03,0c0.61,0,1.2-0.1,1.76-0.3c0.32,0.13,0.66,0.23,1,0.3l3.35,0.63l1.78,0.87c0.11,0.05,0.22,0.1,0.33,0.15  c0.27,0.13,0.56,0.23,0.85,0.31c0.48,0.31,1.01,0.53,1.57,0.67c0.52,0.17,1.08,0.26,1.63,0.26c0.86,0,1.72-0.22,2.48-0.62  l1.66-0.89c1.35-0.72,2.31-1.99,2.65-3.48c0.08-0.36,0.12-0.72,0.13-1.08c0.51-0.72,0.89-1.5,1.13-2.33  C88.72,85.68,88.73,84.38,88.4,83.17z"></path>	<g>		<g>			<path class="st1" d="M59.49,70.39c0,0,0.91-1.07,1.23-1.11l-0.53-0.53C60.18,68.75,59.67,69.57,59.49,70.39"></path>			<path class="st1" d="M59.49,70.39c0,0,0.91-1.07,1.23-1.11l-0.53-0.53C60.18,68.75,59.67,69.57,59.49,70.39"></path>			<path class="st2" d="M52.62,17.75c0,0,1.23-4.85-2.57-7.26c-3.8-2.41-10.06,3.41-10.06,3.41c-5.65-1.19-8.87,4.54-8.87,4.54    c-7.79,0.67-8.44,7.5-8.44,7.5c-3.8,0.78-4.82,3-4.82,3c-3.05,5.12,1.13,10.77,1.13,10.77c2.49,4.2,8.68-1.02,8.68-1.02    l0.67-0.46c0.03-0.01,0.06-0.02,0.09-0.03c0.85,1.45,4.38,8.78,4.38,8.78c0.38,0.64,1.04,3.4,1.04,3.4    c3.94,0.54,8.57-1.63,12.51-4.71c3.94-3.08,5.94-8.46,5.94-8.46c-1.1-0.91-4.74-6.51-4.74-6.51c-0.68-0.79-1.55-3.11-1.8-3.81    c0.22-0.32,0.33-0.55,0.33-0.55C52.37,22.71,52.62,17.75,52.62,17.75"></path>			<path class="st2" d="M53.74,17.92c0.16-0.74,1.04-5.76-3.09-8.38c-3.85-2.44-9.18,1.58-11.02,3.16    c-4.95-0.71-8.13,3.13-9.19,4.68c-6.48,0.82-8.29,5.66-8.75,7.64c-3.39,0.92-4.58,2.9-4.82,3.35l0,0    c-3.33,5.58,0.8,11.48,1.14,11.95c0.71,1.18,1.71,1.89,2.98,2.11c2.78,0.47,5.98-1.76,7.01-2.56c0.58,1.11,1.65,3.27,3.67,7.43    c0.07,0.14,0.11,0.23,0.12,0.24l0.02,0.03c0.16,0.27,0.59,1.71,0.92,3.1c0.11,0.46,0.49,0.8,0.95,0.86    c0.45,0.06,0.93,0.09,1.41,0.09c4.79,0,9.54-3.16,11.95-5.04c4.16-3.26,6.22-8.73,6.31-8.96c0.17-0.45,0.03-0.96-0.34-1.27    c-0.61-0.51-2.81-3.63-4.56-6.31l-0.04-0.06c-0.31-0.36-0.84-1.47-1.38-2.87C53.03,23.45,53.68,18.64,53.74,17.92z M31.2,19.58    c0.37-0.03,0.71-0.24,0.89-0.57c0.12-0.2,2.93-4.99,7.65-3.99c0.36,0.08,0.74-0.03,1.01-0.28c0.06-0.05,5.7-5.18,8.68-3.29    c3.08,1.95,2.12,5.85,2.08,6.01c-0.02,0.07-0.03,0.15-0.03,0.23c-0.01,0.18-0.31,4.4-5.97,7.67c-0.18,0.1-0.34,0.26-0.44,0.46    c0,0-0.09,0.18-0.27,0.44c-0.2,0.3-0.25,0.68-0.12,1.02c0.34,0.94,1.2,3.19,1.94,4.08c0.28,0.43,2.88,4.41,4.34,6.11    c-0.65,1.47-2.46,5.09-5.31,7.32c-3.86,3.02-7.8,4.66-10.9,4.55c-0.29-1.09-0.65-2.34-0.93-2.85c-0.24-0.49-3.56-7.38-4.42-8.84    c-0.26-0.45-0.88-0.66-1.4-0.48c-0.12,0.04-0.22,0.09-0.3,0.15l-0.72,0.49l-0.05,0.04c-0.9,0.76-3.67,2.67-5.55,2.35    c-0.61-0.1-1.06-0.44-1.45-1.1l-0.03-0.04c-0.15-0.21-3.64-5.2-1.04-9.57l0.03-0.05c0.01-0.02,0.87-1.73,4.02-2.37    c0.49-0.1,0.85-0.5,0.9-1C23.83,25.82,24.45,20.16,31.2,19.58z"></path>			<path class="st2" d="M58.72,41.23c-0.52-0.16-0.76-0.32-0.76-0.32c-0.23-0.55-1.22-1.2-1.22-1.2c-1.25-1.14-3.84-2.06-3.84-2.06    c-3.19,7.2-8.01,9.83-8.01,9.83c-5.65,4.39-11.25,3.59-11.25,3.59c-0.81,1.15-1.12,4.88-1.12,4.88c0.26-0.06,0.51-0.76,0.51-0.76    l0.43,0.32c-0.31,0.68-0.22,4.39-0.22,4.39c0.14-0.01,0.29-0.36,0.29-0.36l0.5,0.32c-0.18,2.86,0.7,4.62,0.7,4.62l1.41-0.39    l-0.35,1.69l0.33-0.05c0.84,2.19,1.98,2.93,1.98,2.93l-0.31-1.13l0.52-0.32l1.75,2.47c0.91,1.51,1.96,2.28,1.96,2.28l0.02-1.79    c1.38,2.2,4.43,3.84,4.43,3.84l-1.06-2.14l0.4-0.41c0.09,0.23,1.39,0.79,1.39,0.79c4.11,1.4,11.3-0.22,11.3-0.22    c1.65-1.16,1.76-3.36,1.76-3.36l2.01,1.43c1.57-1.17,1.53-3.45,1.53-3.45l1.27,0.14l0.65-1c2.11-0.67,1.66-2.42,1.66-2.42    s1.65-2.46,0.92-4.2c-0.72-1.74-2.72-2.17-2.72-2.17c0.57-1.48,0.14-3.02,0.14-3.02l0.76-0.25l-1.06-1.05    c0.38-1.41-0.34-3.36-0.34-3.36c-0.03-0.16,0.38-0.25,0.38-0.25c0.29-0.07,0.17-0.24,0.17-0.24c-0.19-0.18-2.09-2.34-2.09-2.34    l0.18-0.27c0.21-0.37-0.32-0.98-0.32-0.98c-1.08-1.35-3.36-2.48-3.36-2.48l0.32-0.36c0.15-0.1,0.12-0.24,0.12-0.24    c-0.01-0.09-0.88-0.46-0.88-0.46L58.72,41.23z"></path>			<path class="st3" d="M69.41,58.68c-0.55-1.31-1.6-2.06-2.4-2.46c0.08-0.54,0.08-1.04,0.05-1.46c0.3-0.16,0.51-0.44,0.59-0.79    c0.1-0.41-0.03-0.85-0.33-1.14l-0.62-0.61c0.08-0.88-0.07-1.78-0.23-2.42c0.16-0.17,0.25-0.34,0.29-0.46    c0.19-0.49,0.04-0.97-0.16-1.24c-0.03-0.05-0.09-0.12-0.16-0.18c-0.1-0.11-0.68-0.75-1.5-1.68c0.13-0.86-0.47-1.62-0.63-1.81    c-0.7-0.86-1.75-1.62-2.64-2.17c0.01-0.11,0-0.21-0.01-0.32c-0.1-0.71-0.66-1-1.56-1.39l-0.85-0.42l-0.03-0.01    c-0.05-0.02-0.1-0.04-0.16-0.06c-0.09-0.03-0.18-0.06-0.26-0.09c-0.41-0.56-1.03-1.02-1.34-1.23c-1.4-1.24-3.9-2.14-4.19-2.24    c-0.6-0.21-1.25,0.08-1.51,0.66c-2.9,6.56-7.22,9.11-7.48,9.26c-0.06,0.03-0.12,0.07-0.16,0.1c-5.04,3.92-10.06,3.38-10.32,3.35    l-0.03,0c-0.45-0.05-0.89,0.14-1.15,0.51c-0.96,1.37-1.29,4.81-1.34,5.47c-0.04,0.39,0.12,0.77,0.41,1.03    c0.1,0.08,0.21,0.15,0.32,0.2c-0.05,1.03-0.03,2.19-0.02,2.86c0.01,0.33,0.15,0.64,0.4,0.87c0.11,0.1,0.24,0.18,0.38,0.23    c0.07,2.36,0.77,3.82,0.85,3.99c0.18,0.37,0.54,0.61,0.93,0.66c-0.02,0.34,0.09,0.68,0.33,0.93c0.11,0.12,0.24,0.21,0.39,0.28    c0.94,2,2.09,2.76,2.14,2.79c0.36,0.24,0.81,0.26,1.2,0.08l0.4,0.57c0.95,1.57,2.05,2.44,2.26,2.6l0.01,0.01    c0.37,0.27,0.85,0.31,1.26,0.11c0.09-0.04,0.17-0.1,0.24-0.16c1.35,1.21,2.77,2.02,3.09,2.19c0.18,0.1,0.37,0.14,0.57,0.14    c0.32,0,0.62-0.12,0.84-0.34c0.34-0.32,0.46-0.8,0.32-1.24c4.29,1.04,10.4-0.26,11.12-0.42c0.16-0.03,0.31-0.1,0.45-0.2    c0.93-0.66,1.48-1.53,1.8-2.33l0.56,0.4c0.43,0.3,1.01,0.3,1.43-0.02c1.16-0.87,1.65-2.14,1.86-3.09l0.09,0.01    c0.46,0.04,0.9-0.17,1.14-0.55l0.43-0.67c1.64-0.7,2.17-2.07,2.12-3.15C69.19,62.62,70.17,60.49,69.41,58.68z M66.18,63.62    c0.05,0.2,0.05,0.7-0.85,0.99c-0.27,0.09-0.5,0.26-0.65,0.5l-0.24,0.38l-0.52-0.06c-0.35-0.04-0.7,0.07-0.96,0.31    c-0.26,0.24-0.4,0.57-0.39,0.91c0,0.01,0,1.02-0.48,1.83l-1.13-0.81c-0.36-0.26-0.84-0.3-1.23-0.1c-0.4,0.19-0.67,0.59-0.68,1.02    c0,0.06-0.11,1.48-1.07,2.3c-1.19,0.24-7.02,1.33-10.31,0.23c-0.42-0.18-0.78-0.37-0.93-0.46c-0.17-0.2-0.41-0.34-0.68-0.4    c-0.41-0.08-0.82,0.05-1.11,0.34l-0.4,0.41c-0.03,0.03-0.05,0.06-0.08,0.08c-0.6-0.54-1.07-1.07-1.39-1.58    c-0.23-0.36-0.61-0.57-1.03-0.57c-0.11,0-0.22,0.01-0.33,0.05c-0.18,0.05-0.34,0.14-0.48,0.26c-0.05-0.08-0.11-0.16-0.16-0.25    l-1.77-2.51c-0.37-0.53-1.09-0.67-1.63-0.33l-0.02,0.01c-0.15-0.28-0.28-0.57-0.4-0.89c-0.02-0.06-0.05-0.12-0.09-0.18l0.16-0.77    c0.09-0.41-0.05-0.85-0.36-1.13c-0.31-0.29-0.74-0.4-1.16-0.29L35.5,63c-0.18-0.7-0.35-1.75-0.27-3.06    c0.03-0.44-0.19-0.87-0.56-1.1l-0.25-0.16c0-1.54,0.08-2.48,0.14-2.68c0.22-0.51,0.06-1.12-0.39-1.46l-0.25-0.18    c0.13-0.83,0.29-1.52,0.45-2.01c1.88,0.05,6.5-0.25,11.18-3.85c0.66-0.38,4.85-3,7.95-9.29c0.74,0.32,1.8,0.85,2.4,1.4    c0.05,0.05,0.1,0.09,0.16,0.13c0.35,0.23,0.7,0.55,0.77,0.66c0.09,0.21,0.25,0.4,0.44,0.53c0.11,0.07,0.42,0.26,0.98,0.44    l0.55,0.27c-0.01,0.11,0,0.21,0.02,0.32c0.07,0.37,0.32,0.69,0.65,0.85c0.02,0.01,2.03,1.03,2.95,2.14    c-0.2,0.43-0.13,0.95,0.19,1.31c0.15,0.17,0.79,0.9,1.33,1.51c-0.1,0.23-0.13,0.49-0.08,0.75c0.01,0.06,0.03,0.12,0.05,0.18    l0.02,0.04c0.16,0.44,0.52,1.75,0.29,2.58c-0.11,0.42,0.01,0.88,0.32,1.18l0.02,0.02c-0.09,0.24-0.1,0.5-0.03,0.75l0,0    c0.02,0.07,0.3,1.2-0.1,2.25c-0.13,0.33-0.11,0.69,0.06,1.01c0.17,0.31,0.46,0.53,0.8,0.61l0.01,0c0.07,0.02,1.41,0.36,1.86,1.45    c0.32,0.77-0.3,2.28-0.82,3.06C66.17,62.95,66.1,63.3,66.18,63.62z"></path>			<path class="st4" d="M58.72,41.23c-0.52-0.16-0.76-0.32-0.76-0.32c-0.23-0.55-1.22-1.2-1.22-1.2c-1.25-1.14-3.84-2.06-3.84-2.06    c-3.19,7.2-8.01,9.83-8.01,9.83c-5.65,4.39-11.25,3.59-11.25,3.59c-0.81,1.15-1.12,4.88-1.12,4.88c0.26-0.06,0.51-0.76,0.51-0.76    l0.43,0.32c-0.31,0.68-0.22,4.39-0.22,4.39c0.14-0.01,0.29-0.36,0.29-0.36l0.5,0.32c-0.18,2.86,0.7,4.62,0.7,4.62l1.41-0.39    l-0.35,1.69l0.33-0.05c0.84,2.19,1.98,2.93,1.98,2.93l-0.31-1.13l0.52-0.32l1.75,2.47c0.91,1.51,1.96,2.28,1.96,2.28l0.02-1.79    c1.38,2.2,4.43,3.84,4.43,3.84l-1.06-2.14l0.4-0.41c0.09,0.23,1.39,0.79,1.39,0.79c4.11,1.4,11.3-0.22,11.3-0.22    c1.65-1.16,1.76-3.36,1.76-3.36l2.01,1.43c1.57-1.17,1.53-3.45,1.53-3.45l1.27,0.14l0.65-1c2.11-0.67,1.66-2.42,1.66-2.42    s1.65-2.46,0.92-4.2c-0.72-1.74-2.72-2.17-2.72-2.17c0.57-1.48,0.14-3.02,0.14-3.02l0.76-0.25l-1.06-1.05    c0.38-1.41-0.34-3.36-0.34-3.36c-0.03-0.16,0.38-0.25,0.38-0.25c0.29-0.07,0.17-0.24,0.17-0.24c-0.19-0.18-2.09-2.34-2.09-2.34    l0.18-0.27c0.21-0.37-0.32-0.98-0.32-0.98c-1.08-1.35-3.36-2.48-3.36-2.48l0.32-0.36c0.15-0.1,0.12-0.24,0.12-0.24    c-0.01-0.09-0.88-0.46-0.88-0.46L58.72,41.23z"></path>			<path class="st1" d="M52.62,17.75c0,0,1.23-4.85-2.57-7.26c-3.8-2.41-10.06,3.41-10.06,3.41c-5.65-1.19-8.87,4.54-8.87,4.54    c-7.79,0.67-8.44,7.5-8.44,7.5c-3.8,0.78-4.82,3-4.82,3c-3.05,5.12,1.13,10.77,1.13,10.77c2.49,4.2,8.68-1.02,8.68-1.02    l0.67-0.46c0.03-0.01,0.06-0.02,0.09-0.03c0.85,1.45,4.38,8.78,4.38,8.78c0.38,0.64,0.99,2.87,0.99,2.87    c3.94,0.54,8.31-1.29,12.25-4.37c3.94-3.08,6.01-8.52,6.01-8.52c-1.1-0.91-4.48-6.26-4.48-6.26c-0.68-0.79-1.55-3.11-1.8-3.81    c0.22-0.32,0.33-0.55,0.33-0.55C52.37,22.71,52.62,17.75,52.62,17.75"></path>			<path class="st5" d="M65.31,67c0.03-0.1,0.07-0.21,0.1-0.31c-0.01,0.02-0.02,0.05-0.03,0.07C65.36,66.85,65.34,66.92,65.31,67"></path>			<path class="st6" d="M59.01,62.46c0,0.05-0.01,0.1-0.01,0.16c0.04-0.06,0.08-0.13,0.12-0.19c-0.03,0.01-0.06,0.02-0.09,0.03    C59.02,62.45,59.02,62.45,59.01,62.46"></path>			<path class="st7" d="M61.28,60.63L61.28,60.63L61.28,60.63l-0.19-0.11c-0.12-0.07-0.24-0.14-0.36-0.21    c-0.24-0.13-0.49-0.26-0.74-0.38c-0.49-0.24-0.99-0.45-1.49-0.62c-0.5-0.16-0.99-0.28-1.47-0.3c-0.24-0.01-0.47,0-0.69,0.05    L56.2,59.1c-0.01,0,0,0-0.01,0l-0.04,0.02l-0.08,0.04c-0.1,0.06-0.2,0.12-0.3,0.18c-0.19,0.12-0.36,0.25-0.53,0.39    c-0.18,0.15-0.36,0.32-0.51,0.5c-0.15,0.17-0.26,0.34-0.38,0.53c-0.12,0.2-0.25,0.4-0.38,0.58c-0.27,0.37-0.55,0.72-0.9,1    c0.05,0.1,0.09,0.21,0.13,0.32c0.79-0.03,1.63-0.09,2.5-0.19c1.02-0.12,2.09-0.31,3.15-0.63c0.33-0.1,0.66-0.22,0.98-0.35    c0.19-0.08,0.39-0.17,0.58-0.27c0.12-0.07,0.25-0.13,0.36-0.21l0.18-0.12c0.06-0.04,0.12-0.08,0.17-0.12L61.28,60.63    C61.28,60.63,61.28,60.63,61.28,60.63"></path>			<path class="st6" d="M57.93,62.73c-0.01,0.2-0.02,0.41-0.03,0.64c0,0.03,0,0.06,0,0.09c0,0.22-0.01,0.44-0.01,0.68    c0,0.13,0,0.27,0,0.41l0,0.15c0,0.07,0,0.14,0.01,0.21c0,0.15,0.01,0.29,0.01,0.44c-0.3-0.04-0.61-0.07-0.92-0.11    c-0.4-0.07-0.77-0.18-1.12-0.33c-0.24-0.1-0.48-0.22-0.68-0.35c-0.51-0.31-0.9-0.68-1.18-1.01c-0.11-0.13-0.2-0.24-0.28-0.36    c-0.14,0-0.28,0.01-0.41,0.01c0.05,0.31,0.04,0.65-0.03,0.99c0.37,0.26,0.76,0.51,1.2,0.74c0.22,0.11,0.45,0.22,0.69,0.31    c0.24,0.09,0.49,0.17,0.74,0.24c0.38,0.1,0.78,0.15,1.18,0.15c0.14,0,0.27-0.01,0.4-0.02c0.08,0,0.15-0.02,0.23-0.03    c0.08-0.01,0.15-0.02,0.23-0.04c0.07-0.02,0.15-0.03,0.22-0.05l0.01,0c0-0.07,0.01-0.14,0.01-0.21c0.01-0.15,0.01-0.3,0.02-0.44    c0.02-0.29,0.04-0.58,0.05-0.85c0.02-0.23,0.03-0.44,0.05-0.66c0.02-0.24,0.04-0.47,0.07-0.7    C58.25,62.66,58.09,62.69,57.93,62.73"></path>			<path class="st8" d="M57.33,63.33c0.02-0.17,0.04-0.33,0.07-0.49c-0.46,0.08-0.91,0.15-1.35,0.2c0.09,0.09,0.17,0.2,0.24,0.32    c0.1,0.16,0.17,0.34,0.23,0.52c0.06,0.21,0.09,0.41,0.11,0.61c0.16,0.04,0.33,0.08,0.5,0.11l0.13,0.01c0.01,0,0.02,0,0.02,0V64.6    v-0.05c0-0.14,0.01-0.28,0.01-0.42C57.28,63.85,57.3,63.58,57.33,63.33"></path>			<path class="st5" d="M56.16,63.98c-0.1-0.32-0.26-0.6-0.46-0.8c-0.03-0.03-0.07-0.07-0.1-0.09c-0.45,0.04-0.89,0.07-1.31,0.09    c0.02,0.02,0.04,0.04,0.06,0.06c0.31,0.27,0.69,0.56,1.15,0.81c0.23,0.12,0.47,0.23,0.73,0.33    C56.22,64.24,56.19,64.11,56.16,63.98"></path>			<path class="st1" d="M52.26,60.16c-0.04-0.02,0.05-0.35,0.09-0.97c0.04-0.62,0.04-1.53-0.16-2.62c-0.1-0.54-0.24-1.15-0.45-1.75    c-0.21-0.6-0.51-1.23-0.94-1.78l-0.08-0.11c-0.03-0.03-0.06-0.06-0.09-0.1c-0.06-0.06-0.12-0.13-0.18-0.19    c-0.06-0.06-0.13-0.12-0.2-0.18c-0.07-0.06-0.13-0.12-0.21-0.17c-0.07-0.05-0.15-0.1-0.22-0.16c-0.08-0.04-0.16-0.08-0.24-0.13    c-0.08-0.05-0.16-0.07-0.25-0.11c-0.09-0.03-0.17-0.07-0.26-0.09c-0.35-0.11-0.73-0.14-1.1-0.11l-0.14,0.01l-0.14,0.03    c-0.09,0.02-0.19,0.03-0.28,0.07l-0.14,0.05c-0.05,0.01-0.1,0.03-0.13,0.04c-0.04,0.02-0.08,0.04-0.12,0.06    c-0.04,0.02-0.08,0.05-0.12,0.07c-0.33,0.19-0.61,0.47-0.84,0.78c-0.11,0.16-0.22,0.31-0.3,0.49c-0.04,0.09-0.09,0.16-0.12,0.26    c-0.03,0.09-0.07,0.18-0.1,0.27c-0.26,0.71-0.32,1.48-0.29,2.2c0,0.09,0,0.18,0,0.27c0,0.09,0.02,0.18,0.02,0.27    c0.02,0.18,0.04,0.35,0.05,0.52c0.02,0.17,0.06,0.34,0.08,0.51c0.03,0.16,0.05,0.33,0.1,0.48c0.04,0.16,0.07,0.31,0.11,0.46    c0.05,0.15,0.09,0.29,0.14,0.44c0.04,0.15,0.1,0.28,0.15,0.41c0.05,0.13,0.1,0.27,0.16,0.39c0.45,1,1.08,1.66,1.57,2.01    c0.11,0.07,0.2,0.13,0.29,0.18c0.41-0.05,0.97-0.13,1.56-0.28c0.6-0.16,1.12-0.36,1.49-0.53c0.37-0.16,0.59-0.29,0.63-0.25    c0.04,0.04-0.13,0.26-0.48,0.5c-0.14,0.1-0.32,0.2-0.53,0.3c0.79-0.33,1.66-0.89,1.89-1.83c0.03-0.14,0.07-0.32,0.09-0.53    C52.45,59.89,52.3,60.17,52.26,60.16 M48.73,61.04c-1.37,0.23-2.79-1.38-3.17-3.6c-0.38-2.23,0.42-4.22,1.79-4.45    c1.23-0.21,2.51,1.08,3.03,2.96l-2.34,1.07l2.57,0.9C50.55,59.55,49.82,60.85,48.73,61.04"></path>			<path class="st1" d="M58.01,58.29c-0.02-0.11,0.74-0.36,1.58-0.86c0.44-0.25,0.81-0.52,1.08-0.71c0.01-0.13,0.02-0.33,0.03-0.57    c0-0.06,0-0.13,0-0.2c0-0.07,0-0.14,0-0.22c0-0.15-0.01-0.32-0.01-0.5c-0.02-0.18-0.03-0.36-0.05-0.56c0-0.1-0.02-0.2-0.04-0.31    c-0.02-0.11-0.03-0.21-0.05-0.32c-0.17-0.87-0.36-1.95-0.98-2.9c-0.08-0.11-0.16-0.24-0.25-0.34c-0.05-0.05-0.09-0.11-0.14-0.16    c-0.05-0.05-0.1-0.1-0.15-0.15c-0.21-0.19-0.44-0.36-0.71-0.46c-0.26-0.1-0.55-0.15-0.83-0.13l-0.11,0.01    c-0.04,0-0.07,0.02-0.11,0.02c-0.07,0.02-0.14,0.03-0.21,0.06c-0.07,0.03-0.15,0.05-0.19,0.07c-0.03,0.01-0.06,0.03-0.09,0.05    l-0.09,0.06c-0.24,0.17-0.44,0.41-0.59,0.67c-0.16,0.25-0.26,0.55-0.35,0.84c-0.05,0.17-0.08,0.34-0.11,0.51    c0.26-0.67,0.69-1.14,1.24-1.23c1-0.17,2.04,0.96,2.48,2.58l-1.89,0.9l2.1,0.8c-0.04,1.42-0.62,2.54-1.5,2.69    c-0.55,0.09-1.11-0.2-1.58-0.76c0.26,0.46,0.54,0.81,0.8,1.02c0.12,0.11,0.23,0.18,0.33,0.24c0.06,0.01,0.12,0.02,0.18,0.04    c0.24-0.05,0.56-0.12,0.93-0.23c-0.05,0.01-0.11,0.03-0.16,0.04C58.24,58.36,58.02,58.35,58.01,58.29"></path>			<path class="st1" d="M60.91,56.56c0.02-0.1,0.03-0.22,0.04-0.35c-0.03,0.15-0.06,0.28-0.09,0.38    C60.88,56.58,60.89,56.57,60.91,56.56"></path>			<path class="st1" d="M59.17,58.1c0.66-0.24,1.33-0.58,1.59-1.06c-0.23,0.24-0.55,0.51-0.96,0.75    C59.59,57.92,59.38,58.02,59.17,58.1"></path>			<path class="st2" d="M50.61,57.9l-2.57-0.9l2.34-1.07c-0.52-1.88-1.79-3.17-3.03-2.96c-1.37,0.23-2.17,2.23-1.79,4.45    c0.38,2.22,1.8,3.84,3.17,3.61C49.82,60.85,50.55,59.55,50.61,57.9"></path>			<path class="st2" d="M43.68,51.61c0.14,0.02,0.29-0.25,0.51-0.65c0.22-0.39,0.51-0.93,0.95-1.32c0.22-0.2,0.46-0.33,0.7-0.44    c0.24-0.1,0.48-0.16,0.69-0.2c0.43-0.08,0.75-0.12,0.78-0.27c0.03-0.13-0.23-0.34-0.77-0.44c-0.27-0.05-0.6-0.06-0.97,0.03    c-0.37,0.09-0.77,0.28-1.09,0.57c-0.33,0.29-0.55,0.64-0.71,0.97c-0.15,0.33-0.23,0.63-0.26,0.9    C43.44,51.27,43.54,51.6,43.68,51.61"></path>			<path class="st2" d="M56.74,47.71c0.15-0.05,0.33-0.09,0.51-0.11c0.18-0.03,0.38-0.02,0.59,0c0.41,0.07,0.81,0.24,1.13,0.37    c0.08,0.03,0.15,0.07,0.22,0.09c0.07,0.02,0.13,0.05,0.19,0.06c0.12,0.02,0.2,0.01,0.25-0.04c0.05-0.05,0.05-0.13,0.02-0.25    c-0.02-0.06-0.05-0.12-0.09-0.2c-0.04-0.07-0.08-0.15-0.15-0.23c-0.07-0.08-0.14-0.16-0.23-0.24c-0.04-0.04-0.09-0.08-0.15-0.12    c-0.05-0.04-0.11-0.08-0.17-0.11c-0.23-0.16-0.54-0.28-0.88-0.33c-0.35-0.04-0.69,0-0.97,0.11c-0.28,0.11-0.5,0.25-0.65,0.41    c-0.31,0.31-0.36,0.59-0.26,0.68C56.21,47.88,56.43,47.8,56.74,47.71"></path>			<path class="st2" d="M51.18,52.55c-0.03-0.04-0.07-0.08-0.1-0.11c-0.07-0.08-0.14-0.15-0.21-0.23c-0.07-0.07-0.15-0.14-0.23-0.21    c-0.08-0.07-0.15-0.14-0.24-0.2c-0.09-0.06-0.17-0.12-0.26-0.19c-0.09-0.05-0.19-0.11-0.28-0.16c-0.09-0.06-0.2-0.1-0.3-0.14    c-0.1-0.04-0.2-0.09-0.31-0.11c-0.43-0.14-0.89-0.18-1.35-0.14l-0.17,0.02l-0.17,0.03c-0.11,0.02-0.23,0.04-0.34,0.08l-0.16,0.05    c-0.06,0.02-0.1,0.03-0.17,0.06c-0.06,0.03-0.12,0.05-0.17,0.08c-0.06,0.03-0.11,0.06-0.16,0.09c-0.42,0.25-0.76,0.58-1.03,0.95    c-0.13,0.19-0.26,0.38-0.35,0.58c-0.05,0.1-0.11,0.2-0.14,0.3c-0.04,0.1-0.08,0.2-0.11,0.31c-0.29,1.03-0.35,1.92-0.35,2.55    c0,0.47,0.03,0.8,0.03,0.94c0.12,0.54,0.29,1.02,0.47,1.42c0.01,0.05,0.03,0.1,0.04,0.15c0.06,0.16,0.11,0.31,0.16,0.46    c0.01,0.02,0.01,0.03,0.02,0.05c0.04,0.11,0.08,0.21,0.13,0.31c0.01,0.02,0.02,0.05,0.03,0.07c0.06,0.14,0.12,0.28,0.19,0.4    c0.54,1.05,1.28,1.71,1.85,2.02c0.01,0.01,0.02,0.01,0.04,0.02c-0.17,0.03-0.27,0.05-0.28,0.09c0,0.03,0.06,0.06,0.18,0.08    c0.12,0.02,0.29,0.06,0.5,0.06c0.42,0.03,1.02-0.01,1.66-0.17c0.37-0.1,0.71-0.23,1-0.37c0.2-0.1,0.38-0.2,0.53-0.3    c0.35-0.24,0.53-0.46,0.48-0.5c-0.04-0.04-0.26,0.08-0.63,0.25c-0.37,0.17-0.89,0.37-1.49,0.53c-0.6,0.16-1.16,0.23-1.56,0.28    c-0.09-0.05-0.19-0.11-0.29-0.18c-0.49-0.35-1.12-1.01-1.57-2.01c-0.06-0.12-0.11-0.25-0.16-0.39c-0.05-0.13-0.11-0.27-0.15-0.41    c-0.05-0.14-0.09-0.29-0.14-0.44c-0.04-0.15-0.07-0.31-0.11-0.46c-0.04-0.16-0.07-0.32-0.1-0.49c-0.02-0.16-0.06-0.33-0.08-0.5    c-0.02-0.17-0.04-0.34-0.05-0.52c-0.01-0.09-0.02-0.18-0.02-0.27c0-0.09,0-0.18,0-0.27c-0.02-0.72,0.04-1.48,0.29-2.2    c0.03-0.09,0.07-0.18,0.1-0.26c0.03-0.09,0.08-0.17,0.12-0.26c0.08-0.17,0.19-0.33,0.3-0.49c0.23-0.31,0.51-0.58,0.84-0.78    c0.04-0.02,0.08-0.05,0.12-0.07c0.04-0.02,0.08-0.04,0.12-0.06c0.03-0.01,0.09-0.03,0.13-0.04l0.14-0.05    c0.09-0.03,0.19-0.05,0.28-0.07l0.14-0.03l0.14-0.01c0.37-0.04,0.75,0,1.1,0.11c0.09,0.02,0.17,0.06,0.26,0.09    c0.08,0.03,0.17,0.06,0.25,0.11c0.08,0.05,0.16,0.09,0.24,0.13c0.07,0.05,0.15,0.1,0.22,0.16c0.08,0.05,0.14,0.11,0.21,0.17    c0.07,0.06,0.14,0.12,0.2,0.18c0.06,0.07,0.12,0.13,0.18,0.19c0.03,0.03,0.06,0.06,0.09,0.1l0.08,0.1    c0.44,0.55,0.73,1.18,0.94,1.78c0.21,0.61,0.35,1.21,0.45,1.75c0.2,1.09,0.21,2,0.16,2.62c-0.04,0.62-0.13,0.96-0.09,0.97    c0.04,0.02,0.19-0.26,0.32-0.82c0.01-0.04,0.02-0.08,0.03-0.12c0.12-0.63,0.2-1.58,0.04-2.72c-0.07-0.57-0.18-1.19-0.39-1.85    c-0.05-0.17-0.12-0.35-0.18-0.53c-0.19-0.49-0.44-0.99-0.8-1.45L51.18,52.55z"></path>			<line class="st9" x1="65.29" y1="67.05" x2="65.29" y2="67.06"></line>			<path class="st2" d="M33.73,37.19c0.28,0.03,0.47,0.3,0.67,0.48c0.2,0.2,0.38,0.4,0.57,0.61c0.36,0.42,0.7,0.86,1.04,1.3    c0.67,0.88,1.29,1.8,1.91,2.71c0.59,0.94,1.18,1.87,1.72,2.84c0.26,0.49,0.53,0.98,0.77,1.48c0.12,0.25,0.23,0.51,0.33,0.76    c0.08,0.25,0.25,0.53,0.17,0.8c0.05-0.13-0.05-0.26-0.1-0.38c-0.06-0.12-0.12-0.24-0.19-0.36c-0.14-0.24-0.28-0.47-0.43-0.7    c-0.29-0.47-0.58-0.93-0.89-1.39l-1.81-2.76l-1.8-2.77c-0.3-0.46-0.6-0.92-0.92-1.37c-0.15-0.23-0.31-0.46-0.47-0.68    c-0.08-0.11-0.16-0.22-0.25-0.32C33.94,37.34,33.86,37.2,33.73,37.19"></path>			<path class="st2" d="M36.28,35.52c0.69,0.87,1.34,1.76,1.98,2.67c0.64,0.9,1.24,1.83,1.87,2.74c0.59,0.93,1.19,1.86,1.76,2.81    c0.57,0.95,1.13,1.9,1.65,2.88c-0.69-0.87-1.34-1.76-1.98-2.67c-0.64-0.9-1.24-1.83-1.86-2.74c-0.59-0.94-1.19-1.86-1.76-2.81    C37.36,37.46,36.8,36.5,36.28,35.52"></path>			<path class="st2" d="M31.17,38.86c0.28,0,0.47,0.26,0.67,0.42c0.2,0.18,0.39,0.38,0.58,0.57c0.36,0.4,0.71,0.81,1.05,1.23    c0.69,0.83,1.32,1.7,1.93,2.58c0.61,0.89,1.2,1.79,1.73,2.72c0.27,0.47,0.53,0.94,0.77,1.42c0.12,0.24,0.23,0.49,0.33,0.74    c0.08,0.25,0.25,0.52,0.15,0.78c0.06-0.12-0.04-0.25-0.09-0.37c-0.06-0.12-0.12-0.23-0.19-0.35c-0.14-0.23-0.28-0.45-0.43-0.67    c-0.29-0.45-0.58-0.89-0.89-1.33l-1.82-2.64l-1.82-2.64c-0.3-0.44-0.61-0.88-0.93-1.31c-0.15-0.22-0.31-0.43-0.48-0.64    c-0.08-0.1-0.17-0.21-0.26-0.3C31.39,38.99,31.3,38.85,31.17,38.86"></path>			<path class="st2" d="M41.4,32.18c-0.07,0.12,0.01,0.25,0.05,0.37c0.05,0.12,0.11,0.24,0.17,0.36c0.12,0.23,0.26,0.46,0.4,0.69    c0.27,0.46,0.55,0.91,0.84,1.35l1.73,2.67l1.75,2.66c0.29,0.44,0.59,0.88,0.9,1.31c0.15,0.22,0.31,0.43,0.47,0.64    c0.08,0.1,0.17,0.2,0.26,0.3c0.09,0.09,0.18,0.22,0.32,0.2c-0.28,0.02-0.48-0.24-0.68-0.4c-0.2-0.18-0.39-0.38-0.57-0.57    c-0.36-0.4-0.69-0.82-1.03-1.24c-0.67-0.84-1.27-1.72-1.86-2.61c-0.58-0.9-1.14-1.81-1.64-2.75c-0.25-0.47-0.49-0.95-0.72-1.44    c-0.11-0.25-0.21-0.5-0.3-0.75C41.43,32.71,41.26,32.42,41.4,32.18"></path>			<path class="st2" d="M38.84,33.85c0,0.26,0.21,0.49,0.33,0.73c0.14,0.23,0.29,0.46,0.44,0.69l0.9,1.38l1.82,2.76l1.8,2.77    c0.3,0.46,0.6,0.92,0.9,1.38c0.15,0.23,0.3,0.46,0.46,0.69c0.17,0.2,0.3,0.49,0.54,0.59c-0.27-0.06-0.45-0.32-0.65-0.51    c-0.19-0.2-0.38-0.41-0.56-0.62c-0.35-0.43-0.69-0.86-1.03-1.3c-0.67-0.88-1.28-1.8-1.9-2.72c-0.59-0.94-1.18-1.87-1.72-2.83    c-0.27-0.48-0.53-0.97-0.78-1.47c-0.12-0.25-0.24-0.5-0.35-0.76C38.96,34.39,38.79,34.12,38.84,33.85"></path>			<path class="st2" d="M44.01,30.46c-0.09,0.23,0.09,0.46,0.17,0.68c0.11,0.22,0.23,0.43,0.35,0.64c0.24,0.42,0.5,0.84,0.76,1.25    l1.59,2.46l1.62,2.45c0.27,0.41,0.55,0.81,0.84,1.2c0.14,0.2,0.29,0.4,0.44,0.58c0.16,0.16,0.31,0.42,0.55,0.43    c-0.26,0.05-0.46-0.19-0.65-0.33c-0.19-0.16-0.37-0.34-0.54-0.51c-0.34-0.36-0.65-0.74-0.97-1.13c-0.62-0.77-1.19-1.58-1.73-2.4    c-0.53-0.83-1.05-1.67-1.5-2.55c-0.23-0.44-0.45-0.88-0.64-1.34c-0.09-0.23-0.18-0.46-0.25-0.7C44,30.96,43.86,30.69,44.01,30.46    "></path>			<path class="st2" d="M49.78,24.05c-0.89,1.02-1.93,1.86-3.02,2.63c-0.55,0.38-1.12,0.74-1.72,1.04c-0.59,0.31-1.23,0.58-1.9,0.7    c0.58-0.35,1.1-0.74,1.64-1.12l1.62-1.14C47.49,25.42,48.58,24.68,49.78,24.05"></path>			<path class="st2" d="M31.65,36.18c-0.89,1.02-1.93,1.86-3.02,2.63c-0.55,0.38-1.12,0.74-1.72,1.04c-0.59,0.31-1.23,0.58-1.9,0.71    c0.58-0.35,1.1-0.75,1.64-1.12l1.62-1.14C29.36,37.55,30.46,36.81,31.65,36.18"></path>							<radialGradient id="SVGID_1_" cx="62.0572" cy="-186.1732" r="3.5751" gradientTransform="matrix(0.9288 -0.3705 0.2872 0.72 44.1222 222.6794)" gradientUnits="userSpaceOnUse">				<stop offset="0" style="stop-color:#E77773;stop-opacity:0.5"></stop>				<stop offset="0.2307" style="stop-color:#E87A70;stop-opacity:0.3962"></stop>				<stop offset="0.4147" style="stop-color:#EA8166;stop-opacity:0.3134"></stop>				<stop offset="0.5826" style="stop-color:#ED8F55;stop-opacity:0.2378"></stop>				<stop offset="0.7409" style="stop-color:#F3A23D;stop-opacity:0.1666"></stop>				<stop offset="0.891" style="stop-color:#F9BA1F;stop-opacity:0.099"></stop>				<stop offset="1" style="stop-color:#FFCF04;stop-opacity:0.05"></stop>			</radialGradient>			<path class="st10" d="M51.89,63.99c0.72,1.57-0.31,3.59-2.3,4.5c-1.99,0.91-4.19,0.38-4.91-1.2c-0.72-1.57,0.31-3.59,2.3-4.5    C48.97,61.88,51.17,62.42,51.89,63.99z"></path>							<radialGradient id="SVGID_00000013872353464710827290000006694411053601419919_" cx="111.2444" cy="-419.6189" r="3.5751" gradientTransform="matrix(0.8902 -0.4556 0.3532 0.69 111.1284 399.8058)" gradientUnits="userSpaceOnUse">				<stop offset="0" style="stop-color:#E77773;stop-opacity:0.5"></stop>				<stop offset="0.2307" style="stop-color:#E87A70;stop-opacity:0.3962"></stop>				<stop offset="0.4147" style="stop-color:#EA8166;stop-opacity:0.3134"></stop>				<stop offset="0.5826" style="stop-color:#ED8F55;stop-opacity:0.2378"></stop>				<stop offset="0.7409" style="stop-color:#F3A23D;stop-opacity:0.1666"></stop>				<stop offset="0.891" style="stop-color:#F9BA1F;stop-opacity:0.099"></stop>				<stop offset="1" style="stop-color:#FFCF04;stop-opacity:0.05"></stop>			</radialGradient>			<path style="fill:url(#SVGID_00000013872353464710827290000006694411053601419919_);" d="M65.39,57.59    c0.87,1.5,0.03,3.6-1.87,4.7c-1.9,1.1-4.14,0.77-5-0.73s-0.03-3.6,1.87-4.7C62.29,55.76,64.53,56.09,65.39,57.59z"></path>			<ellipse class="st12" cx="46.02" cy="65.49" rx="0.56" ry="0.29"></ellipse>			<ellipse class="st12" cx="48.29" cy="65.07" rx="0.56" ry="0.29"></ellipse>			<ellipse class="st12" cx="48.98" cy="63.52" rx="0.56" ry="0.29"></ellipse>			<ellipse class="st12" cx="46.89" cy="63.81" rx="0.56" ry="0.29"></ellipse>			<ellipse class="st12" cx="62.07" cy="59.57" rx="0.56" ry="0.29"></ellipse>			<ellipse class="st12" cx="62.76" cy="58.02" rx="0.56" ry="0.29"></ellipse>			<ellipse class="st12" cx="60.67" cy="58.31" rx="0.56" ry="0.29"></ellipse>			<path class="st2" d="M52.05,61.19c-0.08,0.05,0.13,0.4,0.34,0.97c0.1,0.29,0.21,0.63,0.24,1.02c0.04,0.38,0,0.8-0.16,1.22    c-0.12,0.34,0.38,0.37,0.56,0.37c0.04,0,0.07,0,0.07,0c0.33,0.25,0.7,0.49,1.1,0.71c0.23,0.13,0.48,0.25,0.74,0.36    c0.26,0.11,0.53,0.2,0.81,0.28c0.57,0.15,1.18,0.23,1.81,0.16c0.09,0,0.18-0.02,0.27-0.03c0.09-0.01,0.18-0.03,0.26-0.05    c0.07-0.02,0.15-0.03,0.22-0.05c0.01,0,0.02-0.01,0.04-0.01c0.16-0.05,0.31-0.09,0.46-0.14c0.01-0.38,0.03-0.75,0.04-1.11    c0.01-0.29,0.02-0.57,0.04-0.85c0.02-0.49,0.05-0.96,0.09-1.41c0-0.05,0.01-0.11,0.01-0.16c0.01,0,0.02,0,0.02-0.01    c0.03-0.01,0.06-0.02,0.09-0.03c0.53-0.16,1.06-0.36,1.58-0.64c0.13-0.08,0.27-0.15,0.41-0.23l0.2-0.13    c0.07-0.04,0.13-0.09,0.19-0.14l0.19-0.15c0.11-0.08,0.21-0.2,0.32-0.3l0.32-0.31l-0.37-0.25l-0.18-0.11l-0.18-0.11l-0.19-0.11    c-0.12-0.07-0.25-0.15-0.38-0.22c-0.25-0.14-0.51-0.27-0.77-0.4c-0.51-0.25-1.04-0.47-1.57-0.64c-0.3-0.09-0.6-0.17-0.9-0.23    c-0.06-0.01-0.12-0.03-0.18-0.04c-0.09-0.06-0.2-0.14-0.32-0.24c-0.26-0.21-0.54-0.56-0.8-1.02c0.47,0.56,1.03,0.85,1.58,0.76    c0.88-0.15,1.47-1.27,1.5-2.69l-2.1-0.8l1.89-0.9c-0.44-1.63-1.48-2.76-2.48-2.58c-0.55,0.09-0.98,0.56-1.23,1.23    c0.03-0.17,0.06-0.35,0.11-0.52c0.09-0.29,0.19-0.58,0.35-0.84c0.16-0.26,0.35-0.49,0.59-0.67l0.09-0.06    c0.03-0.02,0.06-0.04,0.09-0.05c0.04-0.02,0.13-0.05,0.19-0.07c0.07-0.03,0.14-0.04,0.21-0.06c0.04-0.01,0.07-0.02,0.11-0.02    l0.11-0.01c0.28-0.02,0.57,0.02,0.83,0.13c0.26,0.1,0.5,0.27,0.71,0.46c0.05,0.05,0.1,0.1,0.15,0.15    c0.05,0.05,0.09,0.11,0.14,0.16c0.09,0.1,0.17,0.23,0.25,0.34c0.62,0.95,0.81,2.03,0.98,2.9c0.02,0.11,0.04,0.22,0.05,0.32    c0.02,0.1,0.04,0.21,0.04,0.31c0.02,0.2,0.04,0.39,0.05,0.56c0.01,0.18,0.01,0.34,0.02,0.5c0,0.08,0,0.15,0,0.22    c0,0.07,0,0.14-0.01,0.2c-0.01,0.25-0.02,0.44-0.03,0.58c-0.27,0.19-0.64,0.46-1.08,0.71c-0.84,0.5-1.6,0.75-1.58,0.86    c0.01,0.06,0.23,0.07,0.56,0c0.05-0.01,0.1-0.03,0.16-0.04c0.14-0.04,0.29-0.09,0.45-0.15c0.2-0.08,0.42-0.18,0.63-0.31    c0.41-0.23,0.73-0.51,0.96-0.75c0.02-0.03,0.05-0.06,0.08-0.08c0.12-0.12,0.19-0.24,0.24-0.32c0.05-0.08,0.06-0.14,0.04-0.16    c-0.03-0.02-0.1,0.01-0.21,0.08c-0.02,0.01-0.03,0.02-0.05,0.03c0.03-0.1,0.06-0.23,0.09-0.38c0-0.01,0-0.02,0.01-0.04    c0.01-0.06,0.02-0.13,0.04-0.2c0.01-0.07,0.02-0.15,0.03-0.22c0.01-0.16,0.03-0.33,0.04-0.51c0-0.19,0-0.38,0-0.59    c0-0.11-0.01-0.21-0.02-0.32c-0.01-0.11-0.02-0.22-0.03-0.34c-0.01-0.11-0.02-0.23-0.04-0.36c-0.02-0.12-0.04-0.24-0.07-0.37    c-0.02-0.12-0.05-0.25-0.07-0.38c-0.01-0.06-0.02-0.13-0.04-0.2c-0.02-0.07-0.03-0.13-0.05-0.2c-0.13-0.54-0.33-1.11-0.67-1.66    c-0.04-0.05-0.07-0.11-0.1-0.16c-0.02-0.04-0.04-0.07-0.06-0.11c-0.02-0.04-0.08-0.1-0.15-0.18c-0.17-0.18-0.46-0.44-0.75-0.66    c-0.16-0.12-0.31-0.22-0.45-0.28c-0.34-0.16-0.73-0.21-1.12-0.18l-0.15,0.01c-0.05,0.01-0.1,0.02-0.14,0.03    c-0.1,0.02-0.19,0.04-0.28,0.07c-0.09,0.04-0.17,0.05-0.29,0.11c-0.05,0.02-0.09,0.05-0.14,0.08l-0.13,0.09    c-0.32,0.24-0.58,0.54-0.77,0.86c-0.2,0.32-0.31,0.67-0.41,1c-0.17,0.68-0.2,1.35-0.16,1.97c0,0.08,0.01,0.15,0.01,0.23    c0.01,0.08,0.02,0.15,0.03,0.23c0.02,0.15,0.04,0.3,0.06,0.44c0.02,0.14,0.05,0.28,0.08,0.42c0,0.02,0.01,0.03,0.01,0.05    c0.02,0.12,0.05,0.24,0.08,0.36c0.04,0.13,0.07,0.26,0.1,0.39c0.04,0.13,0.08,0.25,0.12,0.37c0.02,0.06,0.04,0.12,0.06,0.18    l0.07,0.17c0.05,0.11,0.09,0.23,0.14,0.33c0.39,0.85,0.92,1.44,1.38,1.72c-0.02,0-0.04,0-0.06,0c-0.28-0.01-0.57,0.01-0.85,0.07    l-0.22,0.06c-0.02,0.01-0.06,0.03-0.07,0.03l-0.05,0.02l-0.09,0.05c-0.12,0.07-0.23,0.14-0.34,0.21    c-0.44,0.29-0.83,0.63-1.15,1.02c-0.16,0.19-0.3,0.41-0.42,0.62c-0.11,0.19-0.22,0.38-0.34,0.56c-0.22,0.32-0.45,0.62-0.71,0.86    C52.47,61.38,52.13,61.14,52.05,61.19 M56.15,59.12l0.04-0.02c0.01-0.01,0,0,0.01,0l0.15-0.04c0.21-0.05,0.45-0.06,0.69-0.05    c0.48,0.02,0.98,0.14,1.47,0.3c0.5,0.16,0.99,0.38,1.48,0.62c0.25,0.12,0.49,0.25,0.74,0.38c0.12,0.07,0.24,0.14,0.36,0.21    l0.18,0.11l0.01,0c0,0,0.01,0-0.01,0.01l-0.16,0.13c-0.05,0.04-0.11,0.09-0.17,0.12L60.76,61c-0.12,0.08-0.24,0.14-0.36,0.21    c-0.19,0.1-0.38,0.19-0.58,0.27c-0.32,0.14-0.65,0.25-0.97,0.35c-1.06,0.32-2.13,0.51-3.15,0.63c-0.87,0.11-1.71,0.16-2.5,0.19    c-0.04-0.11-0.08-0.22-0.13-0.32c0.35-0.28,0.64-0.63,0.9-1c0.13-0.19,0.26-0.38,0.38-0.58c0.12-0.18,0.23-0.36,0.38-0.53    c0.15-0.18,0.32-0.34,0.51-0.5c0.17-0.14,0.34-0.27,0.53-0.39c0.1-0.06,0.2-0.12,0.3-0.18L56.15,59.12z M58.23,64.84    c-0.01,0.14-0.02,0.29-0.02,0.44c0,0.07-0.01,0.14-0.01,0.21l-0.01,0c-0.07,0.03-0.15,0.04-0.22,0.05    c-0.07,0.02-0.15,0.03-0.23,0.04c-0.08,0.01-0.15,0.03-0.23,0.03c-0.14,0.01-0.27,0.02-0.4,0.02c-0.4,0-0.8-0.06-1.18-0.15    c-0.25-0.07-0.5-0.15-0.74-0.24c-0.24-0.1-0.47-0.2-0.69-0.31c-0.44-0.22-0.83-0.48-1.2-0.74c0.08-0.35,0.08-0.69,0.03-0.99    c0.14,0,0.27-0.01,0.41-0.01c0.08,0.11,0.17,0.23,0.28,0.36c0.29,0.33,0.68,0.7,1.18,1.01c0.21,0.13,0.44,0.25,0.69,0.35    c0.35,0.15,0.72,0.26,1.12,0.33c0.31,0.04,0.62,0.07,0.92,0.11c-0.01-0.15-0.01-0.29-0.01-0.44c0-0.07,0-0.14-0.01-0.22l0-0.14    c0-0.14,0-0.28,0-0.41c0-0.24,0-0.46,0.01-0.68c0-0.03,0-0.06,0-0.09c0.01-0.23,0.02-0.44,0.03-0.64    c0.16-0.04,0.31-0.07,0.47-0.11c-0.02,0.23-0.05,0.47-0.07,0.71c-0.02,0.22-0.04,0.44-0.05,0.66    C58.27,64.26,58.25,64.55,58.23,64.84 M57.26,64.55v0.05v0.01c0,0-0.01,0-0.02,0l-0.13-0.01c-0.17-0.03-0.34-0.07-0.5-0.11    c-0.01-0.2-0.05-0.4-0.11-0.61c-0.06-0.18-0.13-0.36-0.23-0.52c-0.07-0.11-0.15-0.22-0.24-0.32c0.44-0.05,0.9-0.11,1.35-0.2    c-0.02,0.16-0.05,0.32-0.07,0.49c-0.02,0.25-0.05,0.52-0.06,0.8C57.26,64.26,57.26,64.4,57.26,64.55 M54.35,63.23    c-0.02-0.02-0.04-0.04-0.06-0.05c0.43-0.02,0.86-0.05,1.31-0.1c0.03,0.03,0.07,0.06,0.1,0.1c0.2,0.21,0.36,0.48,0.46,0.8    c0.04,0.13,0.06,0.26,0.08,0.39c-0.26-0.09-0.51-0.2-0.73-0.33C55.04,63.79,54.65,63.5,54.35,63.23"></path>		</g>		<g>			<path class="st13" d="M75.18,71.68l-2.07-1.42c-0.1-0.07-0.21-0.11-0.33-0.12l-0.11-0.07c-0.32-0.22-0.76-0.14-0.98,0.18    l-0.86,1.24l-0.65-1.02c-0.11-0.17-0.28-0.28-0.47-0.32c-0.02,0-0.04-0.01-0.07-0.01c-0.1-0.1-0.23-0.16-0.37-0.19    c-0.19-0.03-0.4,0.02-0.55,0.14l-0.99,0.77l-0.64-0.75c-0.12-0.14-0.3-0.23-0.48-0.25c-0.14-0.13-0.33-0.21-0.51-0.2    c-0.22,0.01-0.42,0.12-0.54,0.29l-0.2,0.27c-0.03-0.01-0.05-0.01-0.08-0.01c-0.01-0.01-0.01-0.01-0.02-0.02    c-0.15-0.14-0.35-0.2-0.55-0.18l-2.47,0.3c-0.34,0.04-0.59,0.32-0.61,0.66c-0.15-0.13-0.31-0.24-0.46-0.34    c-0.24-0.14-0.49-0.27-0.77-0.37c-0.32-0.16-0.59-0.27-0.84-0.33c-0.39-0.09-0.76-0.13-1.1-0.09c-0.31,0.03-0.59,0.08-0.83,0.15    c-0.24,0.07-0.5,0.18-0.82,0.36c-0.32,0.21-0.63,0.49-0.92,0.82c-0.04,0.04-0.07,0.09-0.1,0.14l0.02-0.37    c0.01-0.21-0.07-0.41-0.22-0.55c-0.12-0.11-0.27-0.18-0.43-0.19c0,0,0,0-0.01-0.01c-0.15-0.14-0.36-0.21-0.56-0.18l-2.48,0.3    c0,0,0,0,0,0c-0.09-0.06-0.19-0.1-0.3-0.11c-0.14-0.13-0.32-0.21-0.52-0.2l-2.41,0.12c-0.16,0.01-0.3,0.07-0.41,0.16    c-0.04-0.01-0.08-0.02-0.12-0.02c-0.15-0.14-0.34-0.21-0.55-0.19l-2.47,0.24c-0.31,0.03-0.55,0.26-0.61,0.55    c-0.11-0.08-0.22-0.16-0.33-0.23c-0.24-0.14-0.49-0.27-0.77-0.37c-0.32-0.16-0.59-0.27-0.84-0.33c-0.39-0.09-0.76-0.13-1.1-0.09    c-0.31,0.03-0.59,0.08-0.83,0.15c-0.24,0.07-0.5,0.18-0.82,0.36c-0.32,0.21-0.63,0.49-0.92,0.82c-0.29,0.33-0.55,0.71-0.76,1.13    c-0.21,0.41-0.38,0.86-0.5,1.33c-0.12,0.49-0.16,0.99-0.11,1.49c0.05,0.5,0.2,1,0.44,1.47c0.25,0.48,0.63,0.93,1.14,1.32    c0.26,0.2,0.56,0.36,0.9,0.49c0.26,0.14,0.5,0.24,0.74,0.3c0.36,0.09,0.72,0.14,1.09,0.14c0.06,0,0.11,0,0.17,0    c0.41-0.02,0.81-0.08,1.21-0.18c0.39-0.1,0.75-0.24,1.07-0.4c0.21-0.1,0.39-0.21,0.57-0.33c0.08,0.27,0.32,0.48,0.61,0.5    c0.13,0.12,0.3,0.2,0.49,0.2c0,0,0.01,0,0.01,0l2.1-0.04c0.22,0,0.42-0.11,0.55-0.28c0.12,0.06,0.25,0.08,0.39,0.06l1.96-0.24    c0.11-0.01,0.21-0.06,0.3-0.12c0.04,0.12,0.09,0.23,0.19,0.31c0.12,0.11,0.26,0.17,0.42,0.18c0,0,0.01,0.01,0.02,0.01    c0.13,0.12,0.3,0.18,0.47,0.18c0.03,0,0.05,0,0.08,0l2.22-0.25c0.34-0.04,0.61-0.32,0.62-0.66l0.02-0.43    c0.18,0.2,0.38,0.39,0.61,0.57c0.26,0.2,0.56,0.36,0.9,0.49c0.26,0.14,0.5,0.24,0.74,0.3c0.36,0.09,0.72,0.14,1.09,0.14    c0.06,0,0.11,0,0.17,0c0.41-0.02,0.81-0.08,1.21-0.18c0.39-0.1,0.75-0.24,1.07-0.4c0.19-0.09,0.36-0.19,0.53-0.3    c0.03,0.14,0.1,0.28,0.21,0.38c0.12,0.1,0.26,0.16,0.41,0.17c0.01,0.01,0.02,0.02,0.02,0.02c0.15,0.13,0.35,0.19,0.54,0.17    l2.21-0.25c0.15-0.02,0.28-0.08,0.38-0.17l0.28,0.26c0.12,0.11,0.27,0.18,0.43,0.19l0,0c0.13,0.12,0.3,0.19,0.48,0.19    c0.03,0,0.05,0,0.08,0c0.21-0.02,0.39-0.14,0.51-0.31l1.18-1.77c0.2-0.3,0.14-0.7-0.13-0.93l-1.47-1.24l0.86-0.8l0.99,1.38v2.26    c0,0.35,0.26,0.65,0.61,0.7l0.04,0.01c0.1,0.1,0.24,0.17,0.39,0.19l2.27,0.3c0.2,0.03,0.4-0.03,0.55-0.17    c0.15-0.13,0.24-0.32,0.24-0.52l0.02-2.2l2.43-3.14c0.12-0.15,0.17-0.35,0.14-0.54C75.45,71.96,75.34,71.79,75.18,71.68z     M59.45,74.32c-0.3,0.27-0.51,0.39-0.63,0.45c0-0.01,0-0.01,0-0.02l-0.01-0.07c0.04-0.14,0.07-0.26,0.11-0.35    c0.04-0.1,0.11-0.2,0.19-0.34c0.09,0.08,0.19,0.17,0.29,0.28C59.41,74.29,59.43,74.31,59.45,74.32z M61,74.44    c-0.02-0.02-0.04-0.04-0.06-0.06l0.73-0.9l0.03,1.71L61,74.44z M42.64,74.32c-0.3,0.27-0.51,0.39-0.63,0.45c0-0.01,0-0.01,0-0.02    L42,74.69c0.04-0.14,0.07-0.26,0.11-0.35c0.04-0.1,0.11-0.2,0.19-0.34c0.09,0.08,0.19,0.17,0.29,0.28    C42.61,74.29,42.63,74.31,42.64,74.32z M44.2,74.44c-0.02-0.02-0.04-0.04-0.06-0.06l0.65-0.8l0.08,1.57L44.2,74.44z"></path>			<g>				<path class="st14" d="M45.08,72.2l-1.48,1.82c-0.3-0.32-0.57-0.53-0.8-0.62c-0.23-0.09-0.42-0.11-0.59-0.06     c-0.17,0.05-0.31,0.15-0.42,0.3c-0.11,0.15-0.2,0.3-0.27,0.46c-0.07,0.16-0.13,0.36-0.19,0.6c0,0.01,0.01,0.08,0.04,0.22     c0.03,0.14,0.08,0.29,0.18,0.45c0.09,0.17,0.22,0.29,0.4,0.37c0.17,0.08,0.41,0.07,0.7-0.03c0.3-0.1,0.66-0.35,1.09-0.75     l1.65,1.76c-0.08,0.16-0.23,0.33-0.44,0.5c-0.21,0.17-0.46,0.32-0.74,0.46c-0.29,0.14-0.6,0.26-0.95,0.35     c-0.34,0.09-0.69,0.15-1.05,0.16c-0.36,0.01-0.71-0.02-1.06-0.11c-0.35-0.09-0.67-0.25-0.96-0.47     c-0.42-0.33-0.73-0.69-0.94-1.08c-0.2-0.39-0.32-0.8-0.36-1.22c-0.04-0.42-0.01-0.83,0.1-1.25c0.1-0.42,0.25-0.81,0.44-1.17     c0.19-0.37,0.41-0.7,0.67-0.99c0.26-0.29,0.52-0.53,0.78-0.7c0.22-0.12,0.44-0.22,0.63-0.27s0.43-0.1,0.7-0.13     c0.27-0.03,0.56,0,0.87,0.08c0.31,0.08,0.64,0.22,0.98,0.43C44.4,71.49,44.74,71.8,45.08,72.2z"></path>				<path class="st14" d="M45.87,71.25l2.47-0.24l-0.3,3.1l1.25-0.09l0.1-2.95l2.41-0.12l-0.68,6.52l-1.96,0.24l0.11-1.86     l-0.89,0.13l-0.08,1.94l-2.1,0.04L45.87,71.25z"></path>				<path class="st14" d="M55.15,70.95l-0.35,6.83l-2.22,0.25l0.08-6.79L55.15,70.95z"></path>				<path class="st14" d="M61.88,72.2l-1.48,1.82c-0.3-0.32-0.57-0.53-0.8-0.62s-0.42-0.11-0.59-0.06c-0.17,0.05-0.31,0.15-0.42,0.3     c-0.11,0.15-0.2,0.3-0.27,0.46c-0.07,0.16-0.13,0.36-0.19,0.6c0,0.01,0.01,0.08,0.04,0.22c0.03,0.14,0.08,0.29,0.18,0.45     c0.09,0.17,0.22,0.29,0.4,0.37c0.17,0.08,0.41,0.07,0.7-0.03c0.3-0.1,0.66-0.35,1.09-0.75l1.65,1.76     c-0.08,0.16-0.23,0.33-0.44,0.5c-0.21,0.17-0.46,0.32-0.74,0.46c-0.29,0.14-0.6,0.26-0.95,0.35c-0.34,0.09-0.69,0.15-1.05,0.16     c-0.36,0.01-0.71-0.02-1.06-0.11s-0.67-0.25-0.96-0.47c-0.42-0.33-0.73-0.69-0.94-1.08c-0.2-0.39-0.32-0.8-0.36-1.22     c-0.04-0.42-0.01-0.83,0.1-1.25c0.1-0.42,0.25-0.81,0.44-1.17c0.19-0.37,0.41-0.7,0.67-0.99c0.26-0.29,0.52-0.53,0.78-0.7     c0.22-0.12,0.44-0.22,0.63-0.27c0.2-0.06,0.43-0.1,0.7-0.13c0.27-0.03,0.56,0,0.87,0.08c0.31,0.08,0.64,0.22,0.98,0.43     C61.21,71.49,61.54,71.8,61.88,72.2z"></path>				<path class="st14" d="M68.28,72.55l-2.36,2.19L68,76.48l-1.18,1.77l-1.64-1.54l-0.02,1.07l-2.21,0.25l-0.14-6.79l2.47-0.3     l-0.03,1.53l1.36-1.88L68.28,72.55z"></path>				<path class="st14" d="M69.66,70.87l1.49,2.35l1.62-2.35l2.07,1.42l-2.57,3.33l-0.03,2.43l-2.27-0.3v-2.48l-2.13-2.97     L69.66,70.87z"></path>			</g>			<g>				<g>					<path class="st15" d="M44.65,72.01l-1.48,1.82c-0.3-0.32-0.57-0.53-0.8-0.62c-0.23-0.09-0.42-0.11-0.59-0.06      c-0.17,0.05-0.31,0.15-0.42,0.3c-0.11,0.15-0.2,0.3-0.27,0.46c-0.07,0.16-0.13,0.36-0.19,0.6c0,0.01,0.01,0.08,0.04,0.22      c0.03,0.14,0.08,0.29,0.18,0.45c0.09,0.17,0.22,0.29,0.4,0.37c0.17,0.08,0.41,0.07,0.7-0.03c0.3-0.1,0.66-0.35,1.09-0.75      l1.65,1.76c-0.08,0.16-0.23,0.33-0.44,0.5c-0.21,0.17-0.46,0.32-0.74,0.46c-0.29,0.14-0.6,0.26-0.95,0.35      c-0.34,0.09-0.69,0.15-1.05,0.16c-0.36,0.01-0.71-0.02-1.06-0.11s-0.67-0.25-0.96-0.47c-0.42-0.33-0.73-0.69-0.94-1.08      c-0.2-0.39-0.32-0.8-0.36-1.22c-0.04-0.42-0.01-0.83,0.1-1.25c0.1-0.42,0.25-0.81,0.44-1.17c0.19-0.37,0.41-0.7,0.67-0.99      c0.26-0.29,0.52-0.53,0.78-0.7c0.22-0.12,0.44-0.22,0.63-0.27c0.2-0.06,0.43-0.1,0.7-0.13c0.27-0.03,0.56,0,0.87,0.08      c0.31,0.08,0.64,0.22,0.98,0.43C43.97,71.3,44.31,71.6,44.65,72.01z"></path>					<path class="st1" d="M41.64,78.07c-0.32,0-0.63-0.04-0.94-0.12c-0.36-0.09-0.69-0.26-0.99-0.49c-0.43-0.33-0.75-0.71-0.96-1.11      c-0.21-0.4-0.33-0.82-0.37-1.25c-0.04-0.42-0.01-0.85,0.1-1.28c0.11-0.42,0.26-0.82,0.45-1.19c0.19-0.37,0.42-0.71,0.68-1.01      c0.26-0.3,0.53-0.54,0.8-0.72c0.24-0.13,0.45-0.22,0.66-0.29c0.2-0.06,0.44-0.1,0.71-0.13c0.27-0.03,0.58,0,0.9,0.08      c0.32,0.08,0.66,0.22,1,0.44c0.35,0.21,0.7,0.53,1.04,0.94l0.05,0.06l-1.59,1.95l-0.07-0.07c-0.29-0.31-0.55-0.51-0.77-0.6      c-0.21-0.08-0.39-0.1-0.53-0.06c-0.15,0.04-0.27,0.13-0.37,0.26c-0.11,0.14-0.2,0.29-0.26,0.44c-0.06,0.15-0.12,0.34-0.18,0.57      c0,0.03,0.02,0.09,0.04,0.2c0.02,0.13,0.08,0.27,0.17,0.42c0.08,0.15,0.2,0.26,0.36,0.33c0.15,0.07,0.36,0.06,0.64-0.04      c0.28-0.1,0.64-0.34,1.06-0.73l0.06-0.06l1.75,1.86l-0.03,0.05c-0.09,0.17-0.24,0.35-0.46,0.53c-0.21,0.17-0.47,0.33-0.76,0.47      c-0.29,0.14-0.61,0.26-0.96,0.36c-0.35,0.09-0.71,0.15-1.07,0.16C41.73,78.07,41.69,78.07,41.64,78.07z M41.98,70.66      c-0.07,0-0.13,0-0.2,0.01c-0.26,0.02-0.49,0.07-0.68,0.12c-0.19,0.06-0.4,0.15-0.62,0.27c-0.25,0.16-0.51,0.4-0.76,0.68      c-0.25,0.29-0.47,0.61-0.65,0.97c-0.18,0.36-0.33,0.75-0.43,1.15c-0.1,0.4-0.13,0.81-0.09,1.22c0.04,0.4,0.16,0.8,0.35,1.18      c0.2,0.38,0.5,0.74,0.91,1.05c0.28,0.22,0.6,0.37,0.93,0.46c0.34,0.09,0.68,0.13,1.03,0.11c0.35-0.01,0.7-0.07,1.03-0.16      s0.65-0.21,0.93-0.34c0.28-0.14,0.52-0.29,0.73-0.45c0.18-0.14,0.31-0.28,0.39-0.42l-1.54-1.65c-0.42,0.38-0.77,0.61-1.06,0.71      c-0.32,0.11-0.57,0.12-0.77,0.03c-0.19-0.09-0.33-0.22-0.44-0.4c-0.1-0.17-0.16-0.33-0.19-0.48c-0.04-0.21-0.04-0.22-0.04-0.24      c0.06-0.27,0.12-0.48,0.19-0.64c0.07-0.16,0.16-0.32,0.28-0.47c0.12-0.16,0.28-0.27,0.46-0.33c0.18-0.05,0.4-0.03,0.65,0.07      c0.22,0.09,0.47,0.27,0.76,0.57l1.37-1.68c-0.32-0.37-0.63-0.65-0.95-0.85c-0.33-0.2-0.65-0.34-0.95-0.42      C42.4,70.69,42.18,70.66,41.98,70.66z"></path>				</g>				<g>					<path class="st15" d="M45.43,71.05l2.47-0.24l-0.3,3.1l1.25-0.09l0.1-2.95l2.41-0.12l-0.68,6.52l-1.96,0.24l0.11-1.86      l-0.89,0.13l-0.08,1.94l-2.1,0.04L45.43,71.05z"></path>					<path class="st1" d="M45.67,77.86l-0.33-6.88l0.08-0.01l2.57-0.25l-0.3,3.1l1.07-0.08l0.1-2.95l2.59-0.13l-0.01,0.1l-0.69,6.59      l-2.13,0.26l0.11-1.86l-0.71,0.1l-0.08,1.95L45.67,77.86z M45.52,71.13l0.31,6.54l1.93-0.04l0.08-1.93l1.07-0.15l-0.11,1.86      l1.78-0.22l0.67-6.35l-2.22,0.11l-0.1,2.95l-1.43,0.11l0.01-0.1l0.29-2.99L45.52,71.13z"></path>				</g>				<g>					<path class="st15" d="M54.72,70.76l-0.35,6.83l-2.22,0.25l0.08-6.79L54.72,70.76z"></path>					<path class="st1" d="M52.06,77.94l0.09-6.97l2.66-0.32l-0.01,0.1l-0.35,6.91L52.06,77.94z M52.32,71.13l-0.08,6.61l2.05-0.23      l0.34-6.65L52.32,71.13z"></path>				</g>				<g>					<path class="st15" d="M61.45,72.01l-1.48,1.82c-0.3-0.32-0.57-0.53-0.8-0.62s-0.42-0.11-0.59-0.06      c-0.17,0.05-0.31,0.15-0.42,0.3c-0.11,0.15-0.2,0.3-0.27,0.46c-0.07,0.16-0.13,0.36-0.19,0.6c0,0.01,0.01,0.08,0.04,0.22      c0.03,0.14,0.08,0.29,0.18,0.45c0.09,0.17,0.22,0.29,0.4,0.37c0.17,0.08,0.41,0.07,0.7-0.03c0.3-0.1,0.66-0.35,1.09-0.75      l1.65,1.76c-0.08,0.16-0.23,0.33-0.44,0.5c-0.21,0.17-0.46,0.32-0.74,0.46c-0.29,0.14-0.6,0.26-0.95,0.35      c-0.34,0.09-0.69,0.15-1.05,0.16c-0.36,0.01-0.71-0.02-1.06-0.11s-0.67-0.25-0.96-0.47c-0.42-0.33-0.73-0.69-0.94-1.08      c-0.2-0.39-0.32-0.8-0.36-1.22c-0.04-0.42-0.01-0.83,0.1-1.25c0.1-0.42,0.25-0.81,0.44-1.17c0.19-0.37,0.41-0.7,0.67-0.99      s0.52-0.53,0.78-0.7c0.22-0.12,0.44-0.22,0.63-0.27c0.2-0.06,0.43-0.1,0.7-0.13c0.27-0.03,0.56,0,0.87,0.08      c0.31,0.08,0.64,0.22,0.98,0.43C60.77,71.3,61.11,71.6,61.45,72.01z"></path>					<path class="st1" d="M58.44,78.07c-0.32,0-0.63-0.04-0.94-0.12c-0.36-0.09-0.69-0.26-0.99-0.49c-0.43-0.33-0.75-0.71-0.96-1.11      c-0.21-0.4-0.33-0.82-0.37-1.25c-0.04-0.42-0.01-0.85,0.1-1.28c0.11-0.42,0.26-0.82,0.45-1.19c0.19-0.37,0.42-0.71,0.68-1.01      c0.26-0.3,0.53-0.54,0.8-0.72c0.24-0.13,0.45-0.22,0.66-0.29c0.2-0.06,0.44-0.1,0.71-0.13c0.28-0.03,0.58,0,0.9,0.08      c0.32,0.08,0.66,0.22,1,0.44c0.35,0.21,0.7,0.53,1.04,0.94l0.05,0.06l-1.59,1.95l-0.07-0.07c-0.29-0.31-0.55-0.51-0.77-0.6      c-0.21-0.08-0.39-0.1-0.53-0.06c-0.15,0.04-0.27,0.13-0.37,0.26c-0.11,0.14-0.2,0.29-0.26,0.44c-0.06,0.15-0.12,0.34-0.18,0.57      c0,0.03,0.02,0.09,0.04,0.2c0.02,0.13,0.08,0.27,0.17,0.42c0.08,0.15,0.2,0.26,0.36,0.33c0.15,0.07,0.36,0.06,0.64-0.04      c0.28-0.1,0.64-0.34,1.06-0.73l0.06-0.06l1.75,1.86l-0.03,0.05c-0.09,0.17-0.24,0.35-0.46,0.53c-0.21,0.17-0.47,0.33-0.76,0.47      c-0.29,0.14-0.61,0.26-0.96,0.36c-0.35,0.09-0.71,0.15-1.07,0.16C58.54,78.07,58.49,78.07,58.44,78.07z M58.79,70.66      c-0.07,0-0.13,0-0.2,0.01c-0.26,0.02-0.49,0.07-0.68,0.12c-0.19,0.06-0.4,0.15-0.62,0.27c-0.25,0.16-0.51,0.4-0.76,0.68      c-0.25,0.29-0.47,0.61-0.65,0.97c-0.18,0.36-0.33,0.75-0.43,1.15c-0.1,0.4-0.13,0.81-0.09,1.22c0.04,0.4,0.16,0.8,0.35,1.18      c0.2,0.38,0.5,0.74,0.91,1.05c0.28,0.22,0.6,0.37,0.93,0.46c0.34,0.09,0.68,0.13,1.03,0.11c0.35-0.01,0.7-0.07,1.03-0.16      s0.65-0.21,0.93-0.34c0.28-0.14,0.52-0.29,0.73-0.45c0.18-0.14,0.31-0.28,0.39-0.42l-1.54-1.65c-0.42,0.38-0.77,0.61-1.06,0.71      c-0.32,0.11-0.57,0.12-0.77,0.03c-0.19-0.09-0.33-0.22-0.44-0.4c-0.1-0.17-0.16-0.33-0.19-0.48c-0.04-0.21-0.04-0.22-0.04-0.24      c0.06-0.27,0.12-0.48,0.19-0.64c0.07-0.16,0.16-0.32,0.28-0.47c0.12-0.16,0.28-0.27,0.46-0.33c0.18-0.05,0.4-0.03,0.65,0.07      c0.22,0.09,0.47,0.27,0.76,0.57l1.37-1.68c-0.32-0.37-0.63-0.65-0.95-0.85c-0.33-0.2-0.65-0.34-0.95-0.42      C59.2,70.69,58.99,70.66,58.79,70.66z"></path>				</g>				<g>					<path class="st15" d="M67.85,72.35l-2.36,2.19l2.08,1.75l-1.18,1.77l-1.64-1.54l-0.02,1.07l-2.21,0.25l-0.14-6.79l2.47-0.3      l-0.03,1.53l1.36-1.88L67.85,72.35z"></path>					<path class="st1" d="M66.4,78.2l-1.57-1.48l-0.02,0.95l-2.38,0.27l-0.14-6.97l2.65-0.32l-0.02,1.35l1.26-1.75l1.78,2.1      l-2.34,2.18l2.06,1.74L66.4,78.2z M64.67,76.32l1.71,1.61l1.08-1.62l-2.09-1.76l2.37-2.2l-1.53-1.8l-1.46,2.02l0.03-1.71      l-2.3,0.27l0.13,6.61l2.04-0.23L64.67,76.32z"></path>				</g>				<g>					<path class="st15" d="M69.23,70.67l1.49,2.35l1.62-2.35l2.07,1.42l-2.57,3.33l-0.03,2.43l-2.27-0.3v-2.48l-2.13-2.97      L69.23,70.67z"></path>					<path class="st1" d="M71.9,77.95l-2.45-0.33v-2.53l-2.16-3.02l1.96-1.53l1.48,2.32l1.6-2.31l2.22,1.52l-2.61,3.38L71.9,77.95z       M69.63,77.47l2.1,0.28l0.02-2.36l0.02-0.02l2.52-3.25l-1.92-1.32l-1.65,2.38L69.2,70.8l-1.67,1.31l2.09,2.93V77.47z"></path>				</g>			</g>		</g>		<g>			<g>				<g>					<g>						<path class="st13" d="M34.37,84.66c-0.02-0.15-0.1-0.19-0.24-0.14l-0.03,0.01l-0.04-0.21c-0.02-0.15-0.1-0.19-0.24-0.14       l-0.14,0.05l0.03-0.79c0-0.16-0.07-0.23-0.2-0.22l-0.11,0.01l0.01-0.13c0-0.16-0.07-0.23-0.2-0.22l-0.35,0.04       c-0.14,0.01-0.21,0.1-0.22,0.25l-0.07,1.48l-0.69,0.27l0.03-0.79c0.01-0.16-0.06-0.23-0.2-0.22l-0.11,0.01l0.01-0.13       c0.01-0.16-0.06-0.23-0.2-0.22l-0.35,0.04c-0.14,0.01-0.21,0.1-0.22,0.25l-0.06,1.48l-0.66,0.25       c-0.14,0.05-0.19,0.15-0.16,0.3l0.06,0.32c0.02,0.15,0.11,0.2,0.25,0.15l0.03-0.01l0.04,0.2c0.02,0.15,0.11,0.2,0.25,0.15       l0.13-0.05l-0.04,0.92l-0.66,0.26c-0.14,0.05-0.19,0.15-0.17,0.31l0.06,0.32c0.03,0.14,0.12,0.19,0.25,0.14l0.02-0.01       l0.04,0.21c0.03,0.14,0.12,0.19,0.25,0.14l0.14-0.05l-0.03,0.76c-0.01,0.16,0.06,0.23,0.21,0.2l0.11-0.01l-0.01,0.14       c-0.01,0.16,0.06,0.23,0.21,0.2l0.34-0.03c0.15-0.01,0.22-0.1,0.22-0.26l0.07-1.44l0.7-0.27l-0.03,0.76       c-0.01,0.16,0.05,0.23,0.2,0.21l0.12-0.01l-0.01,0.14c-0.01,0.16,0.05,0.23,0.2,0.21l0.35-0.03c0.14-0.01,0.21-0.1,0.22-0.26       l0.07-1.44l0.66-0.25c0.14-0.05,0.19-0.15,0.16-0.3l-0.06-0.32c-0.02-0.15-0.11-0.2-0.25-0.15l-0.03,0.01l-0.04-0.2       c-0.02-0.15-0.11-0.2-0.25-0.15l-0.13,0.05l0.04-0.92l0.66-0.26c0.14-0.05,0.19-0.16,0.16-0.3L34.37,84.66z M32.45,86.89       l-0.7,0.27l0.04-0.92l0.69-0.27L32.45,86.89z"></path>					</g>					<g>						<path class="st13" d="M31.01,91.23c-0.3,0-0.58-0.1-0.8-0.3c-0.06-0.06-0.14-0.14-0.21-0.25c-0.04-0.03-0.07-0.05-0.11-0.09       c-0.15-0.14-0.4-0.44-0.39-0.94c-0.06-0.06-0.12-0.13-0.16-0.21c-0.24-0.17-0.41-0.43-0.48-0.75c0-0.01,0-0.02-0.01-0.03       l-0.06-0.32c0-0.01,0-0.03-0.01-0.04c-0.08-0.5,0.11-0.97,0.49-1.25c-0.13-0.14-0.25-0.35-0.3-0.64l-0.06-0.3       c-0.13-0.64,0.2-1.24,0.81-1.47l0.02-0.01l0.03-0.8c0-0.01,0-0.02,0-0.02c0.04-0.67,0.51-1.16,1.16-1.22l0.33-0.04       c0.16-0.02,0.32-0.01,0.46,0.03c0.19-0.39,0.56-0.65,1.02-0.69l0.33-0.04c0.38-0.04,0.72,0.07,0.97,0.31       c0.06,0.05,0.13,0.13,0.2,0.24c0.04,0.03,0.08,0.06,0.12,0.09c0.15,0.14,0.4,0.44,0.39,0.96c0.06,0.06,0.12,0.13,0.16,0.21       c0.26,0.18,0.43,0.46,0.49,0.8l0.06,0.29c0.11,0.51-0.08,1-0.47,1.3c0.13,0.14,0.25,0.35,0.3,0.64l0.06,0.3       c0.13,0.63-0.2,1.24-0.81,1.47l-0.02,0.01l-0.04,0.77c-0.03,0.67-0.51,1.18-1.16,1.24l-0.34,0.03       c-0.16,0.02-0.31,0.01-0.45-0.02c-0.19,0.4-0.57,0.66-1.05,0.69l-0.31,0.03C31.11,91.23,31.06,91.23,31.01,91.23z M33.7,89.37       C33.7,89.37,33.7,89.37,33.7,89.37C33.7,89.37,33.7,89.37,33.7,89.37z M33.39,89.03C33.39,89.03,33.39,89.03,33.39,89.03       C33.39,89.03,33.39,89.03,33.39,89.03z M30.06,87.97C30.06,87.97,30.06,87.97,30.06,87.97L30.06,87.97z M34.38,87.71       L34.38,87.71C34.38,87.71,34.38,87.71,34.38,87.71z M29.74,87.64C29.74,87.64,29.74,87.64,29.74,87.64       C29.74,87.64,29.74,87.64,29.74,87.64z M30.46,86.59L30.46,86.59C30.45,86.59,30.46,86.59,30.46,86.59z M34.5,85.48       L34.5,85.48C34.5,85.48,34.5,85.48,34.5,85.48z M29.86,85.41C29.86,85.42,29.86,85.42,29.86,85.41L29.86,85.41z M30.85,84.1       C30.85,84.11,30.85,84.11,30.85,84.1L30.85,84.1z M30.54,83.77C30.54,83.77,30.54,83.77,30.54,83.77L30.54,83.77z"></path>					</g>				</g>				<g>					<g>						<path class="st13" d="M39.89,81.98c-0.04-0.14-0.09-0.28-0.16-0.42c-0.15-0.3-0.35-0.54-0.61-0.72       c-0.26-0.18-0.57-0.29-0.93-0.32c-0.06-0.01-0.12-0.01-0.18-0.01h0c-0.31,0-0.66,0.07-1.04,0.21       c-0.89,0.32-1.83,0.67-2.79,1.03l-0.15,0.06l0.04,0.15l1.68,6.08l0.04,0.15l0.15-0.02l0.23-0.03l0.05,0.2l1.94-0.28       l-0.33-1.42c0.42-0.19,0.78-0.44,1.08-0.73c0.3-0.29,0.55-0.61,0.73-0.94c0.19-0.34,0.32-0.69,0.4-1.05       c0.08-0.36,0.1-0.71,0.07-1.03C40.1,82.55,40.02,82.25,39.89,81.98z M37.57,83.45c-0.03,0.08-0.07,0.17-0.14,0.27       c-0.06,0.1-0.15,0.2-0.26,0.31c-0.04,0.04-0.09,0.07-0.13,0.11l-0.12-0.62c0.23-0.16,0.41-0.26,0.56-0.3       c0.04-0.01,0.07-0.02,0.1-0.02c0,0.01,0.01,0.03,0.01,0.03c0,0.03,0.01,0.06,0.01,0.08C37.6,83.32,37.59,83.36,37.57,83.45z"></path>					</g>					<g>						<path class="st13" d="M36.23,89.37c-0.19,0-0.37-0.05-0.53-0.14c-0.42-0.04-0.79-0.33-0.91-0.76l-1.76-6.38       c-0.14-0.52,0.13-1.06,0.63-1.25l0.15-0.06c0.96-0.37,1.91-0.72,2.81-1.04c0.58-0.22,1.15-0.3,1.66-0.26       c0.54,0.05,1.03,0.22,1.43,0.5c0.4,0.28,0.72,0.65,0.94,1.11c0.08,0.16,0.14,0.32,0.2,0.5c0.17,0.37,0.27,0.76,0.31,1.19       c0.04,0.43,0.01,0.88-0.09,1.33c-0.1,0.46-0.27,0.91-0.5,1.34c-0.24,0.43-0.55,0.83-0.92,1.19c-0.19,0.18-0.39,0.35-0.61,0.5       l0.15,0.67c0.06,0.28,0.01,0.58-0.15,0.82c-0.16,0.24-0.42,0.4-0.71,0.44l-1.94,0.28C36.33,89.37,36.28,89.37,36.23,89.37z        M36.59,87.18c0.03,0.01,0.05,0.02,0.08,0.04l0.24-0.04l-0.07-0.32c-0.11-0.48,0.13-0.97,0.57-1.17       c0.31-0.15,0.58-0.32,0.8-0.53c0.23-0.22,0.41-0.45,0.55-0.7c0.14-0.25,0.23-0.5,0.29-0.76c0.05-0.26,0.07-0.51,0.05-0.73       c-0.02-0.2-0.06-0.37-0.14-0.53c-0.03-0.05-0.05-0.11-0.07-0.17c-0.03-0.09-0.06-0.18-0.09-0.25       c-0.07-0.14-0.16-0.25-0.28-0.33c-0.11-0.07-0.25-0.12-0.43-0.14c-0.2-0.02-0.46,0.03-0.76,0.14       c-0.66,0.24-1.35,0.49-2.04,0.75L36.59,87.18z M37.04,85.17c-0.13,0-0.26-0.02-0.38-0.07c-0.33-0.13-0.57-0.42-0.64-0.77       l-0.12-0.62c-0.07-0.4,0.09-0.8,0.41-1.03c0.34-0.24,0.62-0.39,0.89-0.46c0.07-0.02,0.13-0.03,0.19-0.04       c0.51-0.09,1.01,0.21,1.17,0.7c0.02,0.06,0.04,0.12,0.05,0.21l0.01,0.04c0.01,0.08,0.02,0.16,0.01,0.24       c-0.01,0.13-0.04,0.26-0.09,0.41c0,0,0,0,0,0c-0.05,0.16-0.13,0.32-0.24,0.5c-0.11,0.17-0.25,0.34-0.42,0.5       c-0.07,0.07-0.14,0.13-0.23,0.2C37.47,85.11,37.26,85.17,37.04,85.17z"></path>					</g>				</g>				<g>					<g>						<polygon class="st13" points="42.27,82.16 42.21,81.78 42.18,81.61 42.2,81.6 42.04,80.19 41.94,80.21 41.9,79.83        41.87,79.64 41.69,79.68 39.88,80.09 39.72,80.13 39.75,80.29 40,81.74 40.04,81.92 40.22,81.88 40.45,81.82 40.49,82.04        40.25,82.1 40.09,82.14 40.12,82.3 40.96,86.88 40.99,87.07 41.17,87.02 41.4,86.96 41.44,87.19 43.1,86.74 42.35,82.14              "></polygon>					</g>					<g>						<path class="st13" d="M41.44,88.23c-0.17,0-0.33-0.04-0.48-0.12c-0.18-0.01-0.36-0.06-0.52-0.16       c-0.25-0.16-0.42-0.41-0.47-0.69l-0.89-4.93c0-0.01,0-0.02-0.01-0.04c-0.02-0.06-0.04-0.13-0.05-0.19l-0.32-1.79       c-0.1-0.55,0.25-1.07,0.79-1.19l2.15-0.49c0.29-0.07,0.59,0,0.83,0.17c0.24,0.17,0.4,0.44,0.43,0.73l0.01,0.11       c0.08,0.13,0.13,0.28,0.15,0.43l0.16,1.42c0,0.04,0.01,0.07,0.01,0.11c0.07,0.11,0.12,0.24,0.14,0.38l0.75,4.6       c0.09,0.52-0.24,1.03-0.75,1.17l-1.66,0.45C41.62,88.21,41.53,88.23,41.44,88.23z M41.26,82.74L41.85,86l0.07-0.02l-0.53-3.27       c-0.02-0.03-0.03-0.06-0.05-0.09C41.32,82.66,41.29,82.7,41.26,82.74z M40.96,80.91c0.02,0.01,0.03,0.02,0.05,0.03       c0.03,0.02,0.05,0.03,0.07,0.05l-0.01-0.11L40.96,80.91z"></path>					</g>				</g>				<g>					<g>						<path class="st13" d="M47.74,82.33c-0.01-0.02-0.02-0.04-0.03-0.06c-0.03-0.12-0.07-0.24-0.12-0.35       c-0.09-0.2-0.22-0.38-0.37-0.52c-0.15-0.15-0.34-0.26-0.54-0.32c-0.14-0.05-0.29-0.07-0.45-0.07c-0.07,0-0.15,0-0.23,0.01       c-0.24,0.03-0.46,0.11-0.66,0.23c-0.11,0.07-0.21,0.16-0.3,0.27L45,81.32l-0.02-0.19l-0.18,0.04l-1.65,0.34l-0.16,0.03       l0.02,0.16l0.63,4.55l0.02,0.16l0.16-0.01l0.28-0.01l0.02,0.18l1.72-0.09l-0.39-2.89c-0.01-0.11,0.02-0.2,0.09-0.27       c0.06-0.06,0.13-0.09,0.21-0.11l0.33,2.88l0.02,0.19l0.19-0.04l0.25-0.05l0.03,0.22l1.71-0.36l-0.38-3.1       C47.88,82.72,47.82,82.52,47.74,82.33z"></path>					</g>					<g>						<path class="st13" d="M44.12,87.61c-0.2,0-0.39-0.06-0.55-0.16c-0.48-0.04-0.87-0.4-0.94-0.89l-0.67-4.87       c-0.07-0.54,0.28-1.05,0.82-1.16l1.99-0.41c0.17-0.03,0.34-0.03,0.5,0.02c0.19-0.07,0.39-0.12,0.6-0.14       c0.41-0.05,0.78-0.02,1.13,0.1c0.36,0.12,0.67,0.3,0.94,0.56c0.25,0.24,0.44,0.52,0.59,0.84c0.06,0.12,0.1,0.25,0.15,0.38       c0,0.01,0.01,0.02,0.01,0.02c0,0,0,0,0,0c0.13,0.28,0.22,0.59,0.26,0.92l0.38,3.1c0.07,0.54-0.29,1.03-0.82,1.14l-1.71,0.36       c-0.16,0.03-0.32,0.03-0.48-0.01c-0.13,0.06-0.27,0.1-0.41,0.11l-1.72,0.09C44.16,87.61,44.14,87.61,44.12,87.61z        M44.58,85.47c0.02,0.01,0.04,0.02,0.05,0.03l0.03,0l-0.24-1.77c-0.06-0.44,0.09-0.86,0.41-1.16       c0.01-0.01,0.02-0.02,0.03-0.03c-0.04-0.01-0.09-0.02-0.13-0.03c-0.14-0.04-0.26-0.11-0.36-0.19l-0.22,0.05L44.58,85.47z        M45.83,82.18c0.18,0.01,0.36,0.08,0.52,0.18c0.25,0.17,0.41,0.44,0.44,0.73l0.25,2.15l0.1-0.02l-0.27-2.15       c-0.01-0.1-0.04-0.19-0.07-0.27c-0.01-0.02-0.02-0.04-0.03-0.05c-0.03-0.07-0.06-0.14-0.08-0.21       c-0.02-0.07-0.04-0.13-0.06-0.18c-0.04-0.08-0.09-0.16-0.14-0.21c-0.04-0.04-0.09-0.07-0.14-0.08       c-0.06-0.02-0.14-0.02-0.23-0.01c-0.09,0.01-0.17,0.04-0.24,0.08l0,0C45.88,82.14,45.86,82.15,45.83,82.18z M46.84,82.85       L46.84,82.85L46.84,82.85z"></path>					</g>				</g>				<g>					<g>						<path class="st13" d="M52.99,80.96l-0.01-0.36l-0.01-0.19l-0.19,0.03l-1.84,0.25l-0.16,0.02l0.01,0.16l0.22,2.84       c0.01,0.07,0,0.12-0.02,0.14c-0.03,0.03-0.08,0.05-0.15,0.05c-0.01,0-0.03,0-0.04,0c-0.01,0-0.03,0-0.04,0l-0.12-2.82       l-0.12,0.02l-0.02-0.36l-0.01-0.19l-0.19,0.03l-1.79,0.25l-0.16,0.02l0.01,0.16l0.2,3.38c0.03,0.5,0.2,0.89,0.5,1.14       c0.16,0.13,0.34,0.22,0.54,0.28c0.24,0.17,0.54,0.24,0.89,0.22c0.31-0.02,0.57-0.1,0.79-0.23c0.03-0.02,0.06-0.04,0.08-0.06       l0.15-0.02l0.28-0.03l0.01,0.19l1.48-0.15l-0.16-4.8L52.99,80.96z"></path>					</g>					<g>						<path class="st13" d="M50.38,87.09c-0.44,0-0.85-0.11-1.21-0.31c-0.29-0.1-0.55-0.25-0.77-0.44c-0.36-0.31-0.8-0.88-0.86-1.87       l-0.21-3.54c-0.03-0.54,0.36-1.01,0.89-1.09l2.14-0.3c0.22-0.03,0.44,0.01,0.63,0.11l1.86-0.26c0.29-0.04,0.59,0.04,0.81,0.23       c0.22,0.19,0.36,0.46,0.37,0.76l0,0.04c0.09,0.15,0.14,0.32,0.15,0.5l0.16,4.8c0.02,0.55-0.39,1.01-0.93,1.07l-1.48,0.15       c-0.15,0.02-0.3,0-0.44-0.05c-0.28,0.12-0.59,0.19-0.92,0.2C50.49,87.08,50.43,87.09,50.38,87.09z M49.45,81.75l0.15,2.59       c0.01,0.12,0.03,0.33,0.13,0.41c0.04,0.03,0.08,0.05,0.15,0.07c0.11,0.03,0.21,0.08,0.3,0.14c0.02,0.02,0.08,0.06,0.24,0.05       c0.11-0.01,0.21-0.03,0.28-0.06l0.01,0c-0.02,0-0.05,0-0.07-0.01c-0.51-0.06-0.9-0.48-0.92-0.99l-0.1-2.22L49.45,81.75z        M51.79,84.67c0.14,0,0.29,0.03,0.42,0.09l-0.11-3.18l-0.22,0.03l0.15,2.02c0.05,0.54-0.2,0.86-0.36,1       c-0.02,0.02-0.04,0.03-0.06,0.05l0.07-0.01C51.72,84.67,51.76,84.67,51.79,84.67z M49.98,83.82       C49.98,83.82,49.98,83.82,49.98,83.82C49.98,83.82,49.98,83.82,49.98,83.82z"></path>					</g>				</g>				<g>					<g>						<path class="st13" d="M65.13,80.53c-0.01-0.01-0.01-0.03-0.02-0.04c-0.04-0.12-0.08-0.25-0.13-0.36       c-0.09-0.2-0.22-0.39-0.4-0.59c-0.18-0.19-0.41-0.37-0.67-0.51c-0.27-0.14-0.57-0.25-0.9-0.31c-0.15-0.03-0.32-0.04-0.48-0.04       c-0.19,0-0.4,0.02-0.61,0.06c-0.41,0.08-0.8,0.21-1.17,0.38c-0.37,0.18-0.7,0.4-1.01,0.65c-0.3,0.26-0.57,0.55-0.79,0.88       c-0.22,0.33-0.4,0.68-0.51,1.06c-0.1,0.31-0.15,0.64-0.16,0.98l-0.14,0.03l-1.6,0.33l0.18-3.96l-0.16,0.02l0.02-0.35       l0.01-0.21l-0.21,0.03l-2.43,0.34l-0.15,0.02l0,0.15l0.06,6.49l0,0.19l0.19-0.02l0.29-0.03l0,0.19l4.24-0.43l-0.06-1.32       c0,0,0,0.01,0,0.01c0.14,0.39,0.35,0.72,0.61,0.98c0.26,0.26,0.55,0.46,0.87,0.6c0.05,0.02,0.09,0.04,0.14,0.05       c0.08,0.04,0.16,0.09,0.24,0.12c0.3,0.13,0.62,0.21,0.95,0.24c0.34,0.03,0.66,0.01,0.99-0.04c0.32-0.05,0.63-0.14,0.91-0.27       c0.29-0.13,0.53-0.28,0.74-0.46c0.42-0.38,0.74-0.78,0.97-1.21c0.23-0.43,0.38-0.86,0.45-1.29c0.07-0.43,0.08-0.85,0.03-1.26       C65.38,81.23,65.27,80.86,65.13,80.53z M62.74,82.3c-0.02,0.14-0.07,0.29-0.13,0.45c-0.07,0.16-0.17,0.34-0.31,0.53       c-0.09,0.12-0.2,0.22-0.32,0.3c-0.13,0.08-0.26,0.15-0.4,0.19c-0.09,0.03-0.19,0.04-0.28,0.04c-0.04,0-0.08,0-0.12-0.01       c-0.13-0.01-0.23-0.06-0.32-0.12c-0.04-0.03-0.08-0.07-0.12-0.13c-0.02-0.12-0.02-0.26-0.01-0.42       c0.02-0.27,0.08-0.52,0.19-0.74c0.11-0.22,0.24-0.4,0.4-0.55c0.16-0.15,0.32-0.26,0.51-0.34c0.18-0.08,0.36-0.11,0.53-0.11       c0.06,0,0.11,0.01,0.16,0.02c0.06,0.06,0.11,0.14,0.15,0.23c0.04,0.09,0.06,0.19,0.08,0.3C62.76,82.05,62.76,82.17,62.74,82.3       z"></path>					</g>					<g>						<path class="st13" d="M61.68,87.23c-0.14,0-0.28-0.01-0.42-0.02c-0.45-0.04-0.88-0.14-1.28-0.32       c-0.09-0.04-0.17-0.08-0.26-0.13c-0.04-0.01-0.08-0.03-0.12-0.05c-0.19-0.08-0.38-0.18-0.55-0.3       c-0.11,0.05-0.23,0.09-0.36,0.1l-4.24,0.43c-0.22,0.02-0.44-0.03-0.63-0.14c-0.24-0.01-0.47-0.1-0.65-0.26       c-0.22-0.19-0.34-0.47-0.35-0.76l-0.06-6.83c0-0.52,0.38-0.97,0.89-1.04l2.79-0.39c0.31-0.04,0.61,0.05,0.84,0.26       c0.22,0.2,0.35,0.49,0.34,0.8c0.09,0.17,0.14,0.36,0.13,0.55l-0.08,1.65c0.12-0.25,0.25-0.5,0.41-0.73       c0.28-0.4,0.6-0.77,0.98-1.08c0.37-0.31,0.78-0.58,1.23-0.79c0.45-0.21,0.92-0.37,1.42-0.47c0.53-0.1,1.02-0.1,1.47-0.02       c0.44,0.08,0.85,0.22,1.22,0.41c0.37,0.2,0.68,0.44,0.94,0.72c0.26,0.28,0.46,0.57,0.59,0.87c0.05,0.12,0.1,0.25,0.15,0.39       c0,0.01,0,0.01,0.01,0.02c0,0,0,0,0,0.01c0.18,0.42,0.31,0.89,0.38,1.39c0.07,0.52,0.06,1.05-0.03,1.58       c-0.09,0.54-0.28,1.08-0.56,1.6c-0.28,0.54-0.69,1.04-1.19,1.49c-0.3,0.26-0.63,0.47-1.01,0.64       c-0.36,0.16-0.75,0.28-1.16,0.34C62.23,87.21,61.96,87.23,61.68,87.23z M59.5,83.85c0.09,0.24,0.21,0.44,0.36,0.59       c0.16,0.16,0.35,0.29,0.55,0.38c0.02,0.01,0.03,0.01,0.05,0.02l0.05,0.02c0.05,0.02,0.1,0.04,0.14,0.07       c0.05,0.03,0.09,0.05,0.14,0.07c0.2,0.09,0.4,0.14,0.63,0.16c0.25,0.02,0.49,0.01,0.73-0.03c0.24-0.04,0.46-0.11,0.66-0.2       c0.19-0.08,0.35-0.18,0.48-0.29c0.32-0.28,0.57-0.59,0.74-0.92c0.18-0.33,0.29-0.66,0.35-0.98c0.06-0.32,0.06-0.64,0.02-0.95       c-0.04-0.3-0.11-0.58-0.21-0.82c-0.01-0.01-0.01-0.02-0.01-0.03c-0.02-0.04-0.04-0.09-0.05-0.13c-0.04-0.11-0.07-0.2-0.1-0.27       c-0.02-0.05-0.08-0.16-0.21-0.29c-0.1-0.11-0.24-0.21-0.41-0.3c-0.17-0.09-0.36-0.16-0.59-0.2c-0.21-0.04-0.46-0.03-0.73,0.02       c-0.31,0.06-0.61,0.16-0.9,0.3c-0.29,0.14-0.55,0.31-0.78,0.51c-0.23,0.2-0.44,0.42-0.61,0.67c-0.16,0.24-0.29,0.5-0.38,0.78       c-0.07,0.22-0.1,0.46-0.11,0.71c-0.01,0.22-0.08,0.42-0.21,0.59c0.18,0.12,0.32,0.29,0.39,0.5       C59.5,83.83,59.5,83.84,59.5,83.85z M54.84,79.85l0.04,4.97l2.61-0.26l-0.01-0.34c0-0.11,0.01-0.21,0.03-0.31l-0.78,0.16       c-0.31,0.07-0.64-0.02-0.88-0.23c-0.24-0.21-0.38-0.52-0.36-0.84l0.15-3.27L54.84,79.85z M61.29,84.84       c-0.08,0-0.16,0-0.24-0.01c-0.31-0.04-0.58-0.14-0.82-0.32c-0.13-0.1-0.25-0.22-0.35-0.36c-0.09-0.13-0.16-0.28-0.18-0.44       c-0.03-0.21-0.04-0.44-0.02-0.67c0.03-0.39,0.13-0.77,0.3-1.11c0.16-0.33,0.37-0.61,0.61-0.84c0.25-0.24,0.52-0.42,0.82-0.55       c0.31-0.13,0.63-0.19,0.94-0.19c0.11,0,0.22,0.01,0.34,0.03c0.2,0.04,0.39,0.13,0.54,0.27c0.17,0.16,0.3,0.36,0.4,0.59       c0.07,0.16,0.12,0.35,0.15,0.54c0.03,0.21,0.03,0.44-0.01,0.67c0,0,0,0,0,0c-0.03,0.22-0.1,0.45-0.2,0.69       c-0.1,0.24-0.25,0.49-0.44,0.74c-0.16,0.22-0.35,0.4-0.57,0.55c-0.22,0.15-0.45,0.26-0.7,0.33       C61.66,84.81,61.48,84.84,61.29,84.84z M62.74,82.3L62.74,82.3L62.74,82.3z"></path>					</g>				</g>				<g>					<g>						<polygon class="st13" points="72.24,81.5 72.28,81.45 72.39,81.32 72.26,81.21 70.44,79.76 70.3,79.64 70.19,79.79        68.67,81.97 68.12,79.78 68.07,79.8 67.97,79.4 67.93,79.21 67.74,79.28 65.26,80.28 65.11,80.34 65.17,80.5 67.56,86.9        67.67,87.18 67.86,86.95 67.92,86.87 68.04,87.17 72.46,81.68       "></polygon>					</g>					<g>						<path class="st13" d="M67.67,88.22c-0.05,0-0.11,0-0.17-0.01c-0.37-0.06-0.68-0.31-0.81-0.66l-2.56-6.84       c-0.2-0.53,0.06-1.12,0.58-1.33l2.82-1.13c0.28-0.11,0.59-0.1,0.86,0.04c0.27,0.14,0.46,0.38,0.54,0.67L69,79.23       c0.05,0.09,0.09,0.18,0.12,0.28l0.33-0.47c0.16-0.23,0.42-0.39,0.7-0.43c0.28-0.04,0.57,0.04,0.8,0.22l2.09,1.67       c0.22,0.17,0.35,0.42,0.38,0.7c0,0.03,0.01,0.07,0.01,0.1c0.03,0.08,0.05,0.17,0.06,0.26c0.03,0.27-0.05,0.55-0.22,0.76       l-4.42,5.5c-0.23,0.29-0.6,0.43-0.96,0.38C67.81,88.21,67.74,88.22,67.67,88.22z M66.43,80.93l1.68,4.49l3.03-3.77l-0.64-0.51       l-1,1.42c-0.23,0.33-0.64,0.5-1.04,0.42c-0.4-0.07-0.72-0.37-0.82-0.77l-0.41-1.62L66.43,80.93z"></path>					</g>				</g>				<g>					<g>						<polygon class="st13" points="76.38,85.88 76.45,85.62 76.5,85.43 76.3,85.4 75.77,85.32 76.25,84.03 76.02,83.99 76.1,83.76        76.14,83.65 76.89,83.8 77.62,81.88 77.38,81.84 77.47,81.61 77.54,81.41 77.34,81.37 72.93,80.63 72.77,80.61 72.73,80.77        71.29,86.89 71.25,87.06 71.43,87.1 71.79,87.17 71.77,87.26 76.02,88.06 76.59,85.91       "></polygon>					</g>					<g>						<path class="st13" d="M76.02,89.1c-0.06,0-0.13-0.01-0.19-0.02l-4.25-0.8c-0.15-0.03-0.29-0.09-0.41-0.18l-0.11-0.02       c-0.28-0.05-0.52-0.22-0.68-0.45c-0.15-0.24-0.2-0.53-0.14-0.8l1.52-6.46c0.13-0.53,0.64-0.88,1.18-0.78l4.77,0.8       c0.31,0.05,0.57,0.24,0.73,0.51c0.1,0.18,0.15,0.39,0.14,0.59c0.1,0.24,0.11,0.52,0.01,0.77l-0.73,1.92       c-0.1,0.28-0.32,0.48-0.57,0.59c0.03,0.03,0.05,0.06,0.07,0.1c0.12,0.18,0.18,0.4,0.17,0.61c0.1,0.22,0.12,0.47,0.06,0.7       l-0.57,2.15C76.9,88.79,76.48,89.1,76.02,89.1z M72.49,86.34l2.78,0.52l0.15-0.56c-0.23-0.08-0.42-0.24-0.54-0.45       c-0.16-0.27-0.19-0.6-0.08-0.89l0.24-0.63c-0.08-0.23-0.08-0.47,0.01-0.7l0.13-0.33c0.17-0.44,0.6-0.71,1.06-0.67l0.13-0.36       l-2.81-0.47L72.49,86.34z"></path>					</g>				</g>				<g>					<g>						<path class="st13" d="M83.32,84.55c-0.03-0.11-0.08-0.21-0.13-0.31c-0.01-0.02-0.01-0.05-0.01-0.07       c-0.09-0.32-0.28-0.62-0.58-0.88c-0.29-0.25-0.7-0.45-1.22-0.58c-0.92-0.24-1.89-0.49-2.88-0.73l-0.15-0.04l-0.05,0.15       l-2.07,5.96l-0.05,0.14l0.14,0.07l1.76,0.87l0.17,0.08l0-0.01l0.22,0.11l0.39-1l0.99,1.51l0.09,0.13l0.14-0.07l0.08-0.04       l0.15,0.23l1.66-0.89l-0.16-0.22l0.11-0.06l-0.12-0.16l-0.9-1.22c0.39-0.09,0.74-0.23,1.06-0.43       c0.35-0.21,0.64-0.46,0.87-0.74c0.23-0.28,0.39-0.58,0.48-0.89C83.39,85.14,83.4,84.84,83.32,84.55z M80.47,85.12       c-0.01,0.03-0.03,0.05-0.03,0.07c-0.01,0.02-0.04,0.05-0.11,0.1c-0.06,0.05-0.15,0.1-0.26,0.15c-0.1,0.04-0.22,0.08-0.36,0.1       l0.3-0.67c0.19,0,0.34,0.01,0.47,0.03c0.03,0.04,0.03,0.08,0.03,0.1C80.49,85.06,80.48,85.1,80.47,85.12z"></path>					</g>					<g>						<path class="st13" d="M80.31,91.1c-0.16,0-0.32-0.04-0.47-0.11c-0.3-0.03-0.59-0.19-0.77-0.46l-0.18-0.27       c-0.02,0.01-0.03,0.01-0.05,0.02c-0.27,0.11-0.57,0.09-0.83-0.04l-0.08-0.04c-0.05-0.01-0.09-0.03-0.14-0.06l-2.07-1.02       c-0.47-0.23-0.69-0.78-0.52-1.27l2.17-6.25c0.18-0.51,0.71-0.79,1.23-0.67l0.15,0.04c1,0.24,1.98,0.49,2.9,0.73       c0.67,0.17,1.22,0.44,1.64,0.81c0.45,0.39,0.74,0.85,0.89,1.37c0.07,0.13,0.11,0.27,0.15,0.4c0,0,0,0,0,0       c0.13,0.48,0.12,0.97-0.02,1.47c-0.13,0.45-0.36,0.87-0.67,1.26c-0.3,0.36-0.67,0.68-1.11,0.95l0.23,0.32       c0.12,0.16,0.19,0.36,0.2,0.55c0.06,0.18,0.07,0.38,0.03,0.57c-0.07,0.29-0.26,0.54-0.52,0.69l-1.66,0.89       C80.64,91.06,80.47,91.1,80.31,91.1z M78.86,87.27c0.35,0,0.67,0.17,0.87,0.47l0.71,1.08l0.1-0.05l-0.47-0.63       c-0.21-0.28-0.26-0.64-0.14-0.97c0.12-0.33,0.39-0.57,0.73-0.65c0.29-0.07,0.54-0.17,0.76-0.3c0.25-0.15,0.46-0.33,0.61-0.51       c0.14-0.17,0.23-0.34,0.28-0.52c0.05-0.17,0.03-0.28,0.01-0.35l0,0c0,0-0.01-0.02-0.04-0.08c-0.05-0.08-0.08-0.17-0.1-0.27       c0-0.02-0.01-0.04-0.01-0.06c-0.04-0.11-0.12-0.23-0.25-0.34c-0.11-0.1-0.34-0.24-0.79-0.36c-0.68-0.18-1.39-0.36-2.11-0.54       l-1.56,4.49l0.45,0.22c0.15-0.34,0.47-0.57,0.84-0.61C78.78,87.28,78.82,87.27,78.86,87.27z M79.71,86.58       c-0.32,0-0.62-0.14-0.82-0.4c-0.24-0.3-0.29-0.71-0.13-1.06l0.3-0.67c0.16-0.37,0.52-0.61,0.93-0.62       c0.25-0.01,0.47,0.01,0.67,0.04c0.3,0.05,0.56,0.23,0.72,0.49c0.14,0.23,0.19,0.49,0.16,0.74c-0.02,0.17-0.06,0.33-0.13,0.47       l-0.02,0.05c-0.03,0.07-0.07,0.14-0.12,0.2c-0.07,0.1-0.17,0.19-0.29,0.29c-0.14,0.11-0.3,0.2-0.49,0.28       c-0.17,0.07-0.36,0.13-0.58,0.17C79.83,86.58,79.77,86.58,79.71,86.58z M79.5,84.77c-0.02,0.06-0.03,0.1-0.03,0.11       c-0.02,0.19,0.02,0.39,0.11,0.55l0.09-0.06l-0.1-0.57L79.5,84.77z M79.54,84.67C79.54,84.67,79.54,84.67,79.54,84.67       C79.54,84.67,79.54,84.67,79.54,84.67z"></path>					</g>				</g>			</g>			<g>				<g>					<g>						<path class="st14" d="M33.46,84.47l0.47-0.18c0.14-0.05,0.22-0.01,0.24,0.14l0.06,0.32c0.03,0.15-0.02,0.25-0.16,0.3       l-0.66,0.26l-0.06,1.38l0.47-0.18c0.14-0.05,0.22-0.01,0.25,0.15l0.06,0.32c0.03,0.14-0.02,0.24-0.16,0.3l-0.66,0.25       l-0.07,1.44c-0.01,0.16-0.08,0.24-0.22,0.26l-0.35,0.03c-0.15,0.02-0.21-0.05-0.2-0.21l0.06-1.22l-1.03,0.4l-0.07,1.44       c0,0.16-0.07,0.25-0.22,0.26l-0.34,0.03c-0.15,0.02-0.22-0.05-0.21-0.2l0.06-1.22l-0.47,0.18c-0.14,0.05-0.22,0.01-0.25-0.14       l-0.06-0.32c-0.02-0.15,0.03-0.25,0.17-0.31l0.66-0.26l0.06-1.38l-0.46,0.18c-0.14,0.05-0.22,0.01-0.25-0.15l-0.06-0.32       c-0.03-0.14,0.02-0.24,0.16-0.3l0.66-0.25l0.06-1.48c0.01-0.15,0.08-0.24,0.22-0.25l0.35-0.04c0.14-0.02,0.21,0.06,0.2,0.22       l-0.05,1.25l1.02-0.39l0.07-1.48c0.01-0.15,0.08-0.24,0.22-0.25L33.31,83c0.14-0.01,0.21,0.06,0.2,0.22L33.46,84.47z        M31.54,87.39l1.03-0.4l0.06-1.38l-1.02,0.39L31.54,87.39z"></path>						<path class="st14" d="M30.82,90.14c-0.11,0-0.18-0.04-0.23-0.08c-0.08-0.07-0.11-0.18-0.11-0.31l0.04-0.95l-0.22,0.08       c-0.12,0.05-0.22,0.04-0.31,0c-0.09-0.05-0.15-0.14-0.18-0.26l-0.06-0.33c-0.04-0.24,0.06-0.42,0.28-0.51l0.55-0.21l0.04-0.99       l-0.21,0.08c-0.12,0.05-0.23,0.04-0.32-0.01c-0.09-0.05-0.15-0.15-0.17-0.28l-0.06-0.32c-0.05-0.22,0.05-0.41,0.27-0.5       l0.55-0.21l0.06-1.36c0.02-0.24,0.16-0.4,0.38-0.42l0.34-0.04c0.15-0.02,0.25,0.04,0.3,0.09c0.08,0.07,0.11,0.18,0.11,0.32       l-0.04,0.98l0.66-0.26l0.06-1.36c0.02-0.24,0.16-0.4,0.38-0.42l0.35-0.04c0.15-0.01,0.24,0.04,0.29,0.08       c0.08,0.07,0.11,0.18,0.11,0.31l-0.04,0.98l0.22-0.09c0.12-0.05,0.23-0.05,0.32,0.01c0.09,0.05,0.14,0.14,0.16,0.27l0.06,0.31       c0.05,0.23-0.05,0.42-0.27,0.5l-0.55,0.21l-0.05,0.99l0.21-0.08c0.12-0.05,0.23-0.04,0.32,0.01c0.09,0.05,0.15,0.15,0.17,0.28       l0.06,0.31c0.05,0.22-0.05,0.41-0.27,0.5l-0.55,0.21l-0.06,1.33c-0.01,0.25-0.15,0.41-0.38,0.43l-0.35,0.03       c-0.15,0.02-0.24-0.03-0.29-0.08c-0.08-0.07-0.11-0.18-0.1-0.32l0.04-0.95l-0.67,0.26l-0.06,1.33c0,0.25-0.15,0.41-0.39,0.43       l-0.34,0.03C30.86,90.14,30.84,90.14,30.82,90.14z M30.91,88.26l-0.07,1.5c0,0.01,0,0.02,0,0.02c0,0,0,0,0,0l0.36-0.03       c0.05,0,0.06,0,0.06-0.08l0.07-1.57l1.4-0.54l-0.07,1.5c0,0.01,0,0.02,0,0.02l0.36-0.03c0.04,0,0.05-0.01,0.06-0.09l0.07-1.56       l0.76-0.29c0.06-0.03,0.06-0.04,0.05-0.09l-0.06-0.33c0-0.01,0-0.01,0-0.02c0,0,0,0,0,0l-0.72,0.28l0.08-1.77l0.77-0.3       c0.05-0.02,0.07-0.03,0.05-0.1L34,84.46c0,0,0-0.01,0-0.01c0,0,0,0,0,0l-0.73,0.28l0.07-1.52c0-0.01,0-0.02,0-0.03       c0,0,0,0-0.01,0l-0.35,0.04c-0.04,0-0.06,0.01-0.07,0.08l-0.07,1.59l-1.39,0.53l0.07-1.52c0-0.01,0-0.02,0-0.03       c0,0,0,0-0.01,0l-0.35,0.04c-0.04,0-0.06,0.01-0.07,0.09l-0.07,1.59l-0.76,0.29c-0.06,0.02-0.06,0.04-0.05,0.09l0.06,0.33       c0,0.01,0,0.01,0,0.02c0,0,0,0,0,0L31,86.05l-0.07,1.77l-0.77,0.3c-0.05,0.02-0.07,0.03-0.06,0.11l0.06,0.32       c0,0,0,0.01,0,0.01c0,0,0.01,0,0.01,0L30.91,88.26z M32.66,89.12L32.66,89.12L32.66,89.12z M31.52,83.86L31.52,83.86       L31.52,83.86z M31.35,87.65l0.08-1.77l1.39-0.53l-0.07,1.77L31.35,87.65z M31.78,86.13l-0.05,0.99l0.67-0.26l0.04-0.99       L31.78,86.13z"></path>					</g>					<g>						<path class="st14" d="M38.3,80.8c0.33,0.03,0.61,0.13,0.85,0.29c0.23,0.16,0.42,0.38,0.55,0.66c0.14,0.27,0.22,0.57,0.25,0.9       c0.03,0.33,0,0.67-0.07,1.03c-0.08,0.36-0.21,0.71-0.4,1.05c-0.19,0.34-0.43,0.65-0.73,0.94c-0.3,0.29-0.66,0.53-1.08,0.73       l0.33,1.42l-1.94,0.28l-1.68-6.08c0.96-0.37,1.89-0.71,2.79-1.03C37.58,80.83,37.96,80.77,38.3,80.8z M37.9,83.39       c0-0.01-0.01-0.03-0.01-0.09c-0.01-0.05-0.03-0.11-0.07-0.18c-0.04-0.07-0.1-0.12-0.18-0.15c-0.08-0.03-0.19-0.03-0.34,0.01       c-0.15,0.04-0.33,0.14-0.56,0.3l0.24,1.27c0.18-0.09,0.32-0.19,0.44-0.3c0.12-0.11,0.21-0.23,0.28-0.34       c0.07-0.11,0.12-0.22,0.15-0.31C37.89,83.51,37.9,83.44,37.9,83.39z"></path>						<path class="st14" d="M35.92,88.3l-1.76-6.39l0.15-0.06c0.96-0.36,1.9-0.71,2.79-1.03c0.45-0.17,0.86-0.23,1.21-0.2l0,0       c0.36,0.03,0.68,0.14,0.93,0.32c0.26,0.18,0.46,0.42,0.61,0.72c0.15,0.29,0.23,0.62,0.26,0.97c0.03,0.34,0,0.71-0.07,1.09       c-0.08,0.38-0.22,0.75-0.41,1.1c-0.2,0.35-0.45,0.69-0.77,0.99c-0.28,0.27-0.62,0.51-1,0.7l0.34,1.47L35.92,88.3z        M34.59,82.13l1.59,5.77l1.6-0.23l-0.32-1.37l0.13-0.06c0.4-0.19,0.74-0.42,1.03-0.69c0.29-0.28,0.52-0.58,0.7-0.9       c0.18-0.32,0.31-0.66,0.38-1c0.07-0.34,0.09-0.67,0.07-0.98c-0.03-0.31-0.1-0.59-0.23-0.84c-0.12-0.25-0.29-0.44-0.5-0.59       c-0.21-0.14-0.46-0.23-0.76-0.26l0,0c-0.3-0.03-0.66,0.03-1.06,0.18C36.37,81.46,35.49,81.79,34.59,82.13z M36.84,84.82       l-0.3-1.62l0.09-0.07c0.25-0.18,0.45-0.29,0.62-0.33c0.19-0.05,0.34-0.05,0.46-0.01c0.12,0.05,0.21,0.12,0.27,0.23       c0.05,0.09,0.08,0.17,0.09,0.24c0.01,0.04,0.01,0.07,0.01,0.08l0.01,0.02l0,0.01c0,0.07-0.02,0.16-0.05,0.28       c-0.04,0.11-0.09,0.22-0.17,0.35c-0.08,0.12-0.18,0.25-0.31,0.37c-0.13,0.13-0.29,0.24-0.49,0.33L36.84,84.82z M36.93,83.37       l0.17,0.91c0.07-0.05,0.14-0.1,0.19-0.15c0.11-0.1,0.19-0.21,0.26-0.31c0.06-0.1,0.11-0.19,0.14-0.27       c0.03-0.08,0.03-0.13,0.04-0.15c0-0.02-0.01-0.04-0.01-0.08c0-0.02-0.01-0.06-0.05-0.12c-0.02-0.03-0.05-0.06-0.09-0.07       c-0.01-0.01-0.08-0.02-0.23,0.02C37.23,83.18,37.09,83.26,36.93,83.37z"></path>					</g>					<g>						<path class="st14" d="M40.05,80.37l1.8-0.41l0.16,1.42l-1.71,0.44L40.05,80.37z M40.42,82.37l1.75-0.46l0.75,4.6l-1.66,0.45       L40.42,82.37z"></path>						<path class="st14" d="M41.11,87.18l-0.9-4.94l2.09-0.56l0.8,4.95L41.11,87.18z M40.62,82.5l0.77,4.23l1.32-0.36l-0.69-4.25       L40.62,82.5z M40.16,82.03l-0.32-1.8L42,79.74l0.2,1.77L40.16,82.03z M40.25,80.5l0.19,1.09l1.37-0.35l-0.12-1.06L40.25,80.5z       "></path>					</g>					<g>						<path class="st14" d="M45.03,82.06l0.03,0c0.15-0.26,0.31-0.45,0.48-0.56c0.17-0.11,0.37-0.18,0.59-0.2       c0.22-0.03,0.43-0.01,0.61,0.05c0.18,0.06,0.34,0.15,0.47,0.28c0.14,0.13,0.25,0.29,0.33,0.47c0.09,0.18,0.14,0.39,0.17,0.61       l0.38,3.1l-1.71,0.36l-0.34-2.92c-0.01-0.1-0.05-0.17-0.14-0.23c-0.09-0.05-0.18-0.08-0.29-0.06       c-0.1,0.01-0.19,0.05-0.27,0.13c-0.08,0.07-0.11,0.16-0.09,0.27l0.39,2.89l-1.72,0.09l-0.63-4.55l1.65-0.34L45.03,82.06z"></path>						<path class="st14" d="M43.78,86.53l-0.68-4.88l2-0.42l0.05,0.38c0.09-0.11,0.19-0.2,0.29-0.26c0.19-0.12,0.42-0.2,0.66-0.23       c0.25-0.03,0.48-0.01,0.68,0.05c0.21,0.07,0.39,0.18,0.54,0.32c0.15,0.14,0.28,0.32,0.37,0.53c0.09,0.2,0.15,0.43,0.18,0.67       l0.41,3.26l-2.06,0.43l-0.36-3.11c0-0.04-0.01-0.07-0.06-0.1c-0.05-0.03-0.1-0.04-0.17-0.04c-0.06,0.01-0.12,0.03-0.16,0.08       c-0.03,0.03-0.05,0.07-0.04,0.12l0.42,3.08L43.78,86.53z M43.51,81.93l0.58,4.22l1.36-0.07l-0.37-2.7       c-0.02-0.17,0.03-0.31,0.15-0.42c0.1-0.1,0.23-0.16,0.37-0.17c0.15-0.02,0.29,0.01,0.41,0.09c0.13,0.09,0.21,0.21,0.22,0.36       l0.31,2.72l1.36-0.29l-0.36-2.94c-0.03-0.2-0.08-0.39-0.15-0.56c-0.08-0.16-0.17-0.3-0.29-0.42       c-0.12-0.11-0.25-0.19-0.41-0.24c-0.16-0.05-0.33-0.06-0.53-0.04c-0.19,0.02-0.37,0.08-0.52,0.18       c-0.15,0.09-0.29,0.26-0.42,0.49l-0.04,0.08l-0.3,0.04l-0.07-0.6L43.51,81.93z"></path>					</g>					<g>						<path class="st14" d="M51.57,84.92l-0.02,0c-0.09,0.3-0.25,0.52-0.47,0.66c-0.22,0.14-0.48,0.21-0.79,0.23       c-0.4,0.02-0.74-0.08-1-0.3c-0.26-0.22-0.41-0.56-0.44-1.02l-0.2-3.38l1.79-0.25l0.13,2.98c0,0.13,0.04,0.22,0.1,0.27       c0.07,0.05,0.16,0.08,0.29,0.07c0.11-0.01,0.19-0.04,0.26-0.1c0.06-0.06,0.09-0.15,0.08-0.28l-0.22-2.84l1.84-0.25l0.16,4.8       l-1.48,0.15L51.57,84.92z"></path>						<path class="st14" d="M50.19,86c-0.39,0-0.73-0.12-1-0.35c-0.3-0.26-0.47-0.64-0.5-1.15l-0.21-3.55l2.15-0.3l0.14,3.18       c0,0.09,0.02,0.13,0.04,0.14c0.03,0.02,0.09,0.03,0.17,0.03c0.07,0,0.11-0.02,0.15-0.05c0.02-0.02,0.02-0.07,0.02-0.13       l-0.23-3.01l2.21-0.3l0.18,5.17l-1.83,0.19l-0.02-0.33c-0.07,0.08-0.15,0.15-0.25,0.21c-0.25,0.15-0.54,0.24-0.87,0.26       C50.27,85.99,50.23,86,50.19,86z M48.85,81.26l0.19,3.22c0.02,0.41,0.15,0.7,0.37,0.9c0.23,0.2,0.52,0.28,0.87,0.26       c0.27-0.02,0.51-0.09,0.71-0.21c0.18-0.11,0.31-0.3,0.39-0.56l0.04-0.12l0.32-0.02l0.04,0.73l1.13-0.12l-0.15-4.44l-1.48,0.2       l0.2,2.67c0.02,0.18-0.03,0.33-0.14,0.43c-0.09,0.09-0.22,0.13-0.37,0.14c-0.17,0.01-0.31-0.03-0.41-0.11       c-0.11-0.09-0.16-0.23-0.17-0.41l-0.12-2.78L48.85,81.26z"></path>					</g>					<g>						<path class="st14" d="M54.09,79.2l2.43-0.34l-0.21,4.55L58.29,83l0.1,2.27l-4.24,0.43L54.09,79.2z"></path>						<path class="st14" d="M53.98,85.89l-0.06-6.84l2.8-0.39l-0.21,4.53l1.96-0.41l0.11,2.65L53.98,85.89z M54.27,79.36l0.06,6.14       l3.88-0.39l-0.08-1.89l-2,0.42l0.21-4.56L54.27,79.36z"></path>					</g>					<g>						<path class="st14" d="M63.79,85.18c-0.21,0.18-0.45,0.33-0.74,0.46c-0.29,0.13-0.59,0.22-0.91,0.27       c-0.32,0.05-0.65,0.07-0.99,0.04c-0.34-0.03-0.65-0.11-0.95-0.24c-0.3-0.13-0.57-0.32-0.82-0.56       c-0.24-0.24-0.43-0.55-0.57-0.92c-0.16-0.41-0.24-0.82-0.25-1.22c-0.01-0.4,0.04-0.78,0.15-1.14c0.11-0.36,0.27-0.7,0.49-1.02       c0.22-0.31,0.47-0.6,0.76-0.84c0.29-0.25,0.61-0.46,0.97-0.63c0.35-0.17,0.73-0.29,1.12-0.37c0.37-0.07,0.72-0.07,1.03-0.02       c0.32,0.06,0.6,0.15,0.85,0.29c0.25,0.14,0.46,0.29,0.63,0.48c0.17,0.18,0.29,0.36,0.37,0.54c0.14,0.33,0.25,0.71,0.3,1.12       c0.06,0.41,0.05,0.83-0.03,1.26c-0.07,0.43-0.23,0.86-0.45,1.29C64.53,84.4,64.21,84.8,63.79,85.18z M62.95,81.68       c-0.07-0.18-0.17-0.31-0.32-0.39c-0.14-0.08-0.3-0.13-0.47-0.13c-0.17,0-0.35,0.04-0.53,0.11c-0.18,0.08-0.35,0.19-0.51,0.34       c-0.16,0.15-0.29,0.33-0.4,0.55c-0.11,0.22-0.17,0.47-0.19,0.74c-0.02,0.26,0,0.47,0.07,0.64c0.07,0.17,0.16,0.29,0.27,0.38       c0.12,0.09,0.25,0.14,0.41,0.16s0.31,0.01,0.47-0.04c0.16-0.04,0.31-0.11,0.45-0.21c0.14-0.1,0.26-0.21,0.36-0.34       c0.15-0.2,0.26-0.39,0.33-0.56c0.07-0.18,0.12-0.34,0.15-0.49c0.02-0.15,0.03-0.29,0.01-0.41       C63.02,81.89,62.99,81.78,62.95,81.68z"></path>						<path class="st14" d="M61.49,86.14c-0.12,0-0.24,0-0.35-0.01c-0.35-0.03-0.69-0.11-1.01-0.25c-0.32-0.14-0.61-0.34-0.87-0.6       c-0.26-0.26-0.47-0.59-0.61-0.98c-0.16-0.43-0.25-0.86-0.26-1.28c-0.01-0.42,0.05-0.82,0.16-1.2       c0.12-0.38,0.29-0.74,0.51-1.06c0.22-0.33,0.49-0.62,0.79-0.88c0.3-0.26,0.64-0.48,1.01-0.65c0.37-0.18,0.76-0.31,1.16-0.38       c0.39-0.07,0.76-0.08,1.1-0.02c0.33,0.06,0.64,0.16,0.9,0.31c0.27,0.14,0.49,0.32,0.67,0.51c0.18,0.19,0.32,0.39,0.4,0.59       c0.15,0.35,0.26,0.74,0.32,1.17c0.06,0.43,0.05,0.87-0.03,1.32c-0.08,0.45-0.24,0.9-0.47,1.35c-0.24,0.45-0.58,0.87-1.01,1.26       l0,0c-0.22,0.19-0.48,0.36-0.78,0.49c-0.3,0.13-0.62,0.23-0.95,0.28C61.95,86.13,61.72,86.14,61.49,86.14z M62.64,79.14       c-0.18,0-0.36,0.02-0.55,0.05c-0.37,0.07-0.74,0.19-1.08,0.36c-0.34,0.16-0.65,0.37-0.93,0.6c-0.28,0.24-0.52,0.51-0.73,0.81       c-0.2,0.3-0.36,0.62-0.47,0.97c-0.1,0.34-0.15,0.71-0.15,1.09c0.01,0.38,0.09,0.77,0.23,1.16c0.13,0.35,0.31,0.63,0.53,0.86       c0.23,0.23,0.48,0.4,0.76,0.52c0.28,0.12,0.58,0.2,0.9,0.22c0.32,0.03,0.64,0.01,0.94-0.04c0.31-0.05,0.6-0.14,0.87-0.26       c0.27-0.12,0.5-0.26,0.69-0.43c0.4-0.36,0.71-0.75,0.93-1.16c0.22-0.41,0.37-0.83,0.44-1.24c0.07-0.41,0.08-0.82,0.03-1.21       c-0.05-0.39-0.15-0.75-0.29-1.07c-0.07-0.16-0.19-0.32-0.34-0.49c-0.15-0.17-0.35-0.31-0.58-0.44       c-0.23-0.13-0.5-0.22-0.8-0.27C62.93,79.15,62.79,79.14,62.64,79.14z M61.41,84.26c-0.05,0-0.11,0-0.16-0.01       c-0.19-0.02-0.35-0.09-0.49-0.19c-0.14-0.11-0.25-0.26-0.33-0.45c-0.08-0.19-0.1-0.43-0.08-0.72c0.02-0.29,0.09-0.56,0.21-0.8       c0.12-0.24,0.26-0.44,0.43-0.6c0.17-0.16,0.36-0.29,0.56-0.37c0.2-0.09,0.41-0.13,0.6-0.13c0.2,0,0.39,0.05,0.56,0.15       c0.18,0.11,0.31,0.27,0.39,0.48c0.05,0.11,0.08,0.24,0.1,0.38c0.02,0.14,0.02,0.3-0.01,0.47c-0.03,0.16-0.08,0.34-0.16,0.53       c-0.08,0.19-0.2,0.39-0.35,0.6c-0.11,0.15-0.25,0.28-0.41,0.39c-0.16,0.11-0.33,0.18-0.5,0.23       C61.67,84.24,61.54,84.26,61.41,84.26z M62.15,81.33c-0.15,0-0.3,0.03-0.46,0.1c-0.16,0.07-0.31,0.17-0.45,0.3       c-0.14,0.13-0.26,0.3-0.36,0.5c-0.1,0.2-0.16,0.42-0.17,0.67c-0.02,0.23,0,0.42,0.05,0.56c0.05,0.13,0.13,0.24,0.22,0.3       c0.09,0.07,0.2,0.11,0.32,0.12c0.13,0.02,0.27,0,0.4-0.03c0.14-0.04,0.27-0.1,0.39-0.18c0.12-0.08,0.23-0.19,0.32-0.3       c0.14-0.19,0.24-0.36,0.31-0.53c0.07-0.16,0.11-0.31,0.13-0.45c0.02-0.13,0.02-0.25,0.01-0.36c-0.02-0.11-0.04-0.21-0.08-0.29       l0,0c-0.05-0.14-0.13-0.24-0.24-0.31C62.42,81.37,62.3,81.33,62.15,81.33C62.16,81.33,62.15,81.33,62.15,81.33z"></path>					</g>					<g>						<path class="st14" d="M67.93,79.55l0.75,2.99L70.46,80l1.81,1.45l-4.42,5.5l-2.4-6.4L67.93,79.55z"></path>						<path class="st14" d="M67.79,87.3l-2.57-6.85l2.83-1.14l0.7,2.81l1.67-2.38l2.1,1.68L67.79,87.3z M65.68,80.65l2.23,5.94       l4.12-5.11l-1.53-1.22l-1.9,2.7l-0.79-3.17L65.68,80.65z"></path>					</g>					<g>						<path class="st14" d="M73.03,80.91l4.41,0.74l-0.73,1.92l-1.99-0.4l-0.1,0.37l1.45,0.25l-0.5,1.33l-1.33-0.22l-0.12,0.43       l2.29,0.34l-0.57,2.15l-4.25-0.8L73.03,80.91z"></path>						<path class="st14" d="M75.96,88.04l-4.6-0.87l1.52-6.46l4.79,0.8l-0.86,2.27l-0.51-0.1l-0.62,1.66l-1.32-0.22l-0.02,0.08       l2.29,0.34L75.96,88.04z M71.8,86.89l3.9,0.74l0.48-1.8l-2.3-0.34l0.22-0.78l1.35,0.22l0.37-0.99l-1.43-0.24l0.19-0.72l2,0.4       l0.6-1.58l-4.03-0.68L71.8,86.89z M74.84,83.41l0.9,0.15l-0.9-0.18L74.84,83.41z"></path>					</g>					<g>						<path class="st14" d="M81.78,88.94l-1.66,0.89l-1.34-2.04l-0.5,1.29l-1.76-0.87l2.07-5.96c1,0.24,1.96,0.49,2.88,0.73       c0.49,0.13,0.87,0.31,1.15,0.54c0.27,0.24,0.45,0.5,0.52,0.79c0.08,0.29,0.07,0.59-0.02,0.91c-0.09,0.31-0.25,0.61-0.48,0.89       c-0.23,0.28-0.52,0.53-0.87,0.74c-0.35,0.21-0.75,0.37-1.18,0.46L81.78,88.94z M79.82,84.64l-0.52,1.18       c0.2,0.03,0.38,0.03,0.54,0c0.16-0.03,0.3-0.07,0.43-0.12c0.12-0.05,0.22-0.11,0.3-0.17c0.08-0.06,0.13-0.11,0.16-0.15       c0,0,0.01-0.03,0.04-0.08c0.02-0.05,0.04-0.11,0.05-0.19c0.01-0.08-0.01-0.15-0.06-0.23c-0.05-0.07-0.15-0.13-0.29-0.18       C80.3,84.66,80.09,84.63,79.82,84.64z"></path>						<path class="st14" d="M80.06,90.06l-1.24-1.88l-0.45,1.15L76.3,88.3l2.17-6.26l0.16,0.04c0.99,0.24,1.96,0.49,2.88,0.73       c0.52,0.13,0.93,0.33,1.22,0.58c0.3,0.26,0.49,0.56,0.58,0.88c0.09,0.32,0.08,0.66-0.02,1c-0.1,0.34-0.27,0.66-0.51,0.95       c-0.24,0.29-0.55,0.56-0.92,0.78c-0.29,0.18-0.62,0.32-0.97,0.42L82.05,89L80.06,90.06z M78.74,87.41l1.44,2.19l1.34-0.72       l-1.24-1.68l0.27-0.06c0.41-0.09,0.79-0.23,1.12-0.44c0.33-0.2,0.61-0.44,0.83-0.7c0.21-0.26,0.36-0.54,0.45-0.83       c0.08-0.28,0.09-0.55,0.02-0.81c-0.07-0.25-0.23-0.49-0.47-0.71c-0.25-0.22-0.61-0.39-1.07-0.51       c-0.87-0.23-1.79-0.46-2.72-0.69l-1.96,5.66l1.45,0.71L78.74,87.41z M79.58,86.02c-0.1,0-0.2-0.01-0.31-0.02l-0.23-0.03       l0.67-1.5l0.11,0c0.3-0.01,0.53,0.02,0.69,0.08c0.18,0.06,0.3,0.15,0.38,0.25c0.08,0.11,0.11,0.23,0.09,0.35       c-0.01,0.1-0.03,0.18-0.07,0.25c-0.02,0.04-0.03,0.06-0.03,0.07l-0.02,0.03c-0.04,0.06-0.1,0.12-0.2,0.2       c-0.09,0.07-0.2,0.13-0.34,0.19c-0.14,0.06-0.29,0.1-0.47,0.13C79.77,86.01,79.68,86.02,79.58,86.02z M79.56,85.67       c0.09,0,0.17,0,0.24-0.02c0.15-0.02,0.28-0.06,0.39-0.11c0.11-0.05,0.19-0.09,0.26-0.15c0.07-0.05,0.1-0.09,0.11-0.1       c0.01-0.02,0.02-0.04,0.03-0.07c0.01-0.02,0.02-0.06,0.03-0.13c0-0.02,0-0.06-0.03-0.1c-0.01-0.02-0.06-0.07-0.2-0.12       c-0.1-0.04-0.26-0.05-0.45-0.06L79.56,85.67z"></path>					</g>				</g>				<g>					<g>						<g>							<path class="st7" d="M33.15,84.13l0.47-0.18c0.14-0.05,0.22-0.01,0.24,0.14l0.06,0.32c0.03,0.15-0.02,0.25-0.16,0.3        l-0.66,0.26l-0.06,1.38l0.47-0.18c0.14-0.05,0.22-0.01,0.25,0.15l0.06,0.32c0.03,0.14-0.02,0.24-0.16,0.3L33,87.19        l-0.07,1.44c-0.01,0.16-0.08,0.24-0.22,0.26l-0.35,0.03c-0.15,0.02-0.21-0.05-0.2-0.21l0.06-1.22l-1.03,0.4l-0.07,1.44        c0,0.16-0.07,0.25-0.22,0.26l-0.34,0.03c-0.15,0.02-0.22-0.05-0.21-0.2l0.06-1.22l-0.47,0.18c-0.14,0.05-0.22,0.01-0.25-0.14        l-0.06-0.32c-0.02-0.15,0.03-0.25,0.17-0.31l0.66-0.26l0.06-1.38l-0.46,0.18c-0.14,0.05-0.22,0.01-0.25-0.15l-0.06-0.32        c-0.03-0.14,0.02-0.24,0.16-0.3l0.66-0.25l0.06-1.48c0.01-0.15,0.08-0.24,0.22-0.25l0.35-0.04c0.14-0.02,0.21,0.06,0.2,0.22        l-0.05,1.25l1.02-0.39l0.07-1.48c0.01-0.15,0.08-0.24,0.22-0.25L33,82.67c0.14-0.01,0.21,0.06,0.2,0.22L33.15,84.13z         M31.23,87.05l1.03-0.4l0.06-1.38l-1.02,0.39L31.23,87.05z"></path>						</g>						<g>							<path class="st1" d="M30.51,89.71c-0.07,0-0.12-0.02-0.17-0.06c-0.06-0.05-0.08-0.13-0.08-0.24l0.05-1.09l-0.35,0.14        c-0.09,0.04-0.17,0.04-0.24,0c-0.07-0.03-0.11-0.1-0.13-0.2l-0.06-0.32c-0.03-0.19,0.05-0.34,0.22-0.4l0.61-0.24l0.05-1.19        l-0.34,0.13c-0.09,0.04-0.18,0.04-0.24,0c-0.07-0.04-0.11-0.11-0.12-0.21l-0.06-0.32c-0.04-0.18,0.04-0.32,0.22-0.39        l0.6-0.23l0.06-1.42c0.01-0.2,0.12-0.32,0.3-0.33l0.35-0.04c0.1-0.01,0.17,0.01,0.22,0.06c0.06,0.05,0.08,0.14,0.08,0.24        l-0.05,1.12l0.85-0.33l0.07-1.42c0.01-0.2,0.12-0.32,0.3-0.33l0.35-0.04c0.09-0.01,0.16,0.01,0.22,0.06        c0.06,0.05,0.08,0.13,0.08,0.24l-0.05,1.12l0.35-0.14c0.1-0.04,0.18-0.04,0.24,0c0.06,0.04,0.1,0.11,0.12,0.21l0.06,0.32        c0.04,0.19-0.03,0.33-0.21,0.4l-0.61,0.24l-0.06,1.19l0.34-0.13c0.09-0.04,0.18-0.04,0.24,0c0.07,0.04,0.11,0.11,0.12,0.21        l0.06,0.32c0.04,0.18-0.04,0.32-0.22,0.39l-0.6,0.23l-0.06,1.39c-0.01,0.2-0.12,0.32-0.3,0.34l-0.35,0.03        c-0.09,0.01-0.17,0-0.22-0.05c-0.06-0.05-0.08-0.14-0.07-0.25l0.05-1.09l-0.86,0.33l-0.06,1.39c0,0.2-0.11,0.33-0.3,0.34        l-0.34,0.03C30.54,89.71,30.52,89.71,30.51,89.71z M30.5,88.07l-0.06,1.36c0,0.05,0.01,0.09,0.02,0.11        c0.01,0.01,0.05,0.02,0.09,0.01l0.35-0.03c0.08-0.01,0.14-0.04,0.14-0.17l0.07-1.5l1.21-0.47l-0.06,1.36        c0,0.06,0,0.1,0.02,0.11c0.01,0.01,0.04,0.02,0.08,0.01l0.36-0.03c0.07-0.01,0.13-0.03,0.14-0.18l0.07-1.5l0.71-0.27        c0.1-0.04,0.13-0.1,0.11-0.2l-0.06-0.32c-0.01-0.05-0.02-0.08-0.04-0.09c-0.02-0.01-0.05-0.01-0.09,0.01l-0.59,0.23        l0.07-1.57l0.72-0.28c0.1-0.04,0.13-0.1,0.11-0.2l-0.06-0.32c-0.01-0.05-0.02-0.08-0.04-0.09c-0.02-0.01-0.05,0-0.09,0.01        l-0.6,0.23l0.06-1.38c0-0.05-0.01-0.09-0.03-0.11c-0.02-0.02-0.06-0.02-0.08-0.02l-0.35,0.04c-0.07,0.01-0.14,0.03-0.15,0.17        l-0.07,1.54l-1.2,0.46l0.06-1.38c0-0.06-0.01-0.09-0.02-0.11c-0.02-0.02-0.06-0.02-0.09-0.01l-0.35,0.04        c-0.07,0.01-0.14,0.03-0.15,0.17l-0.06,1.53l-0.71,0.27c-0.1,0.04-0.13,0.1-0.11,0.2l0.06,0.32        c0.01,0.05,0.02,0.08,0.04,0.09c0.02,0.01,0.05,0.01,0.09-0.01l0.58-0.22l-0.06,1.57l-0.72,0.28        c-0.1,0.04-0.13,0.1-0.11,0.21l0.06,0.32c0.01,0.04,0.03,0.07,0.04,0.08c0.02,0.01,0.05,0.01,0.09-0.01L30.5,88.07z         M31.14,87.18l0.07-1.57l1.2-0.46l-0.06,1.57L31.14,87.18z M31.38,85.73l-0.06,1.19l0.86-0.33l0.05-1.19L31.38,85.73z"></path>						</g>					</g>					<g>						<g>							<g>								<path class="st16" d="M33.95,81.63l0.07-0.03c0.95-0.36,1.89-0.71,2.79-1.03c0.37-0.14,0.71-0.2,1.01-0.2         c0.06,0,0.11,0,0.17,0.01c0.35,0.03,0.65,0.13,0.89,0.3c0.24,0.17,0.44,0.4,0.58,0.69c0.14,0.28,0.23,0.6,0.25,0.93         c0.03,0.34,0,0.69-0.07,1.06c-0.08,0.37-0.21,0.73-0.4,1.07c-0.19,0.35-0.44,0.67-0.75,0.96c-0.29,0.28-0.64,0.52-1.04,0.71         l0.33,1.44l-2.11,0.31L33.95,81.63z M36.72,84.09c0.12-0.07,0.23-0.15,0.32-0.23c0.11-0.11,0.2-0.22,0.27-0.32         c0.07-0.11,0.12-0.2,0.15-0.29c0.03-0.1,0.04-0.15,0.04-0.18c0,0-0.01-0.03-0.01-0.08c-0.01-0.04-0.03-0.09-0.06-0.15         c-0.03-0.05-0.07-0.09-0.14-0.11c-0.03-0.01-0.06-0.02-0.09-0.02c-0.05,0-0.12,0.01-0.19,0.03         c-0.13,0.03-0.29,0.12-0.49,0.26L36.72,84.09z"></path>							</g>						</g>						<g>							<g>								<path class="st1" d="M37.82,80.45c0.05,0,0.11,0,0.16,0.01c0.33,0.03,0.61,0.13,0.85,0.29c0.23,0.16,0.42,0.38,0.55,0.66         c0.14,0.27,0.22,0.57,0.25,0.9c0.03,0.33,0,0.67-0.07,1.03c-0.08,0.36-0.21,0.71-0.4,1.05c-0.19,0.34-0.43,0.65-0.73,0.94         c-0.3,0.29-0.66,0.53-1.08,0.73l0.33,1.42l-1.94,0.28l-1.68-6.08c0.96-0.37,1.89-0.71,2.79-1.03         C37.2,80.52,37.53,80.45,37.82,80.45 M36.66,84.22c0.18-0.09,0.32-0.19,0.44-0.3s0.21-0.23,0.28-0.34         c0.07-0.11,0.12-0.22,0.15-0.31c0.03-0.09,0.05-0.17,0.05-0.22c0-0.01-0.01-0.03-0.01-0.09c-0.01-0.05-0.03-0.11-0.07-0.18         c-0.04-0.07-0.1-0.12-0.18-0.15c-0.04-0.01-0.08-0.02-0.13-0.02c-0.06,0-0.13,0.01-0.22,0.03c-0.15,0.04-0.33,0.14-0.56,0.3         L36.66,84.22 M37.82,80.28L37.82,80.28c-0.31,0-0.66,0.07-1.04,0.21c-0.89,0.32-1.83,0.67-2.79,1.03l-0.15,0.06l0.04,0.15         l1.68,6.08l0.04,0.15l0.15-0.02l1.94-0.28l0.19-0.03l-0.04-0.18l-0.3-1.28c0.38-0.19,0.72-0.43,1-0.7         c0.31-0.3,0.57-0.63,0.77-0.98c0.2-0.35,0.34-0.72,0.41-1.1c0.08-0.38,0.1-0.74,0.07-1.08c-0.03-0.35-0.12-0.67-0.26-0.97         c-0.15-0.3-0.35-0.54-0.61-0.72c-0.26-0.18-0.57-0.29-0.93-0.32C37.94,80.28,37.88,80.28,37.82,80.28L37.82,80.28z          M36.61,83.03c0.17-0.11,0.31-0.19,0.41-0.22c0.07-0.02,0.12-0.03,0.17-0.03c0.03,0,0.05,0,0.06,0.01         c0.04,0.02,0.07,0.04,0.09,0.08c0.04,0.06,0.05,0.1,0.05,0.12c0,0.03,0.01,0.06,0.01,0.08c0,0.02-0.01,0.06-0.04,0.15         c-0.03,0.08-0.07,0.17-0.14,0.27c-0.06,0.1-0.15,0.2-0.26,0.31c-0.06,0.06-0.12,0.11-0.2,0.16L36.61,83.03L36.61,83.03z"></path>							</g>						</g>					</g>					<g>						<g>							<g>								<path class="st16" d="M40.01,81.98l1.91-0.51l0.77,4.77l-1.82,0.49L40.01,81.98z M39.63,79.97l1.98-0.45l0.18,1.59         l-1.87,0.48L39.63,79.97z"></path>							</g>						</g>						<g>							<g>								<path class="st1" d="M41.54,79.62l0.16,1.42l-1.71,0.44l-0.25-1.45L41.54,79.62 M41.85,81.58l0.75,4.6l-1.66,0.45         l-0.83-4.58L41.85,81.58 M41.69,79.41l-0.19,0.04l-1.8,0.41l-0.16,0.04l0.03,0.16l0.25,1.45l0.03,0.18l0.18-0.05l1.71-0.44         l0.15-0.04l-0.02-0.15l-0.16-1.42L41.69,79.41L41.69,79.41z M41.99,81.36l-0.18,0.05l-1.75,0.46l-0.15,0.04l0.03,0.16         l0.83,4.58l0.03,0.19l0.18-0.05l1.66-0.45l0.15-0.04l-0.02-0.15l-0.75-4.6L41.99,81.36L41.99,81.36z"></path>							</g>						</g>					</g>					<g>						<g>							<g>								<path class="st16" d="M42.9,81.39l1.82-0.38l0.06,0.5c0.13-0.19,0.26-0.33,0.41-0.42c0.18-0.11,0.39-0.19,0.62-0.22         c0.08-0.01,0.15-0.01,0.22-0.01c0.15,0,0.29,0.02,0.43,0.06c0.19,0.06,0.36,0.16,0.51,0.3c0.14,0.14,0.26,0.3,0.35,0.5         c0.09,0.19,0.15,0.41,0.18,0.64l0.39,3.18L46,85.95l-0.35-3.01c-0.01-0.07-0.04-0.12-0.1-0.16         c-0.05-0.04-0.11-0.05-0.18-0.05c-0.02,0-0.03,0-0.05,0c-0.08,0.01-0.15,0.04-0.22,0.1c-0.06,0.05-0.08,0.11-0.07,0.19         l0.4,2.98l-1.89,0.1L42.9,81.39z"></path>							</g>						</g>						<g>							<g>								<path class="st1" d="M46.03,80.95c0.14,0,0.28,0.02,0.4,0.06c0.18,0.06,0.34,0.15,0.47,0.28c0.14,0.13,0.25,0.29,0.33,0.47         c0.09,0.18,0.14,0.39,0.17,0.61l0.38,3.1l-1.71,0.36l-0.34-2.92c-0.01-0.1-0.05-0.17-0.14-0.23         c-0.07-0.04-0.14-0.07-0.23-0.07c-0.02,0-0.04,0-0.06,0c-0.1,0.01-0.19,0.05-0.27,0.13c-0.08,0.07-0.11,0.16-0.09,0.27         l0.39,2.89l-1.72,0.09l-0.63-4.55l1.65-0.34l0.08,0.62l0.03,0c0.15-0.26,0.31-0.45,0.48-0.56s0.37-0.18,0.59-0.2         C45.89,80.96,45.96,80.95,46.03,80.95 M46.03,80.78c-0.07,0-0.15,0-0.23,0.01c-0.24,0.03-0.46,0.11-0.66,0.23         c-0.11,0.07-0.21,0.16-0.3,0.27l-0.02-0.2l-0.02-0.19l-0.18,0.04l-1.65,0.34l-0.16,0.03l0.02,0.16l0.63,4.55l0.02,0.16         l0.16-0.01l1.72-0.09l0.19-0.01l-0.03-0.19L45.13,83c-0.01-0.05,0.01-0.09,0.04-0.12c0.05-0.05,0.1-0.07,0.17-0.08         c0.01,0,0.03,0,0.04,0c0.05,0,0.09,0.01,0.13,0.04c0.05,0.03,0.06,0.06,0.06,0.09l0.34,2.93l0.02,0.19l0.19-0.04l1.71-0.36         l0.16-0.03l-0.02-0.16l-0.38-3.1c-0.03-0.24-0.09-0.46-0.18-0.66c-0.09-0.2-0.22-0.38-0.37-0.52         c-0.15-0.15-0.34-0.26-0.54-0.32C46.34,80.8,46.19,80.78,46.03,80.78L46.03,80.78z"></path>							</g>						</g>					</g>					<g>						<g>							<g>								<path class="st16" d="M49.87,85.57c-0.37,0-0.69-0.11-0.94-0.32c-0.28-0.24-0.44-0.6-0.47-1.08l-0.2-3.46l1.96-0.28         l0.13,3.08c0,0.1,0.03,0.17,0.07,0.21c0.04,0.03,0.1,0.05,0.19,0.05c0.01,0,0.03,0,0.04,0c0.09-0.01,0.15-0.03,0.2-0.07         c0.04-0.04,0.06-0.11,0.05-0.21l-0.22-2.93l2.02-0.28l0.17,4.98l-1.65,0.17l-0.03-0.49c-0.09,0.17-0.22,0.3-0.37,0.39         c-0.23,0.14-0.51,0.23-0.83,0.25C49.95,85.57,49.91,85.57,49.87,85.57z"></path>							</g>						</g>						<g>							<g>								<path class="st1" d="M52.62,80.38l0.16,4.8l-1.48,0.15l-0.04-0.74l-0.02,0c-0.09,0.3-0.25,0.52-0.47,0.66         c-0.22,0.14-0.48,0.21-0.79,0.23c-0.04,0-0.08,0-0.11,0c-0.35,0-0.65-0.1-0.89-0.3c-0.26-0.22-0.41-0.56-0.44-1.02         l-0.2-3.38l1.79-0.25l0.13,2.98c0,0.13,0.04,0.22,0.1,0.27c0.06,0.05,0.14,0.07,0.24,0.07c0.02,0,0.03,0,0.05,0         c0.11-0.01,0.19-0.04,0.26-0.1c0.06-0.06,0.09-0.15,0.08-0.28l-0.22-2.84L52.62,80.38 M52.79,80.18L52.6,80.2l-1.84,0.25         l-0.16,0.02l0.01,0.16l0.22,2.84c0.01,0.07,0,0.12-0.02,0.14c-0.03,0.03-0.08,0.05-0.15,0.05c-0.01,0-0.03,0-0.04,0         c-0.06,0-0.11-0.01-0.13-0.03c-0.02-0.02-0.04-0.07-0.04-0.14l-0.13-2.99l-0.01-0.19l-0.19,0.03l-1.79,0.25l-0.16,0.02         l0.01,0.16l0.2,3.38c0.03,0.5,0.2,0.89,0.5,1.14c0.27,0.23,0.61,0.35,1,0.35c0.04,0,0.08,0,0.12,0         c0.33-0.02,0.63-0.11,0.87-0.26c0.09-0.06,0.18-0.13,0.25-0.21l0.01,0.16l0.01,0.18l0.18-0.02l1.48-0.15l0.16-0.02         l-0.01-0.16l-0.16-4.8L52.79,80.18L52.79,80.18z"></path>							</g>						</g>					</g>					<g>						<g>							<g>								<polygon class="st16" points="53.69,78.8 56.3,78.43 56.09,82.97 58.06,82.56 58.17,85.01 53.75,85.46         "></polygon>							</g>						</g>						<g>							<g>								<path class="st1" d="M56.21,78.53L56,83.08l1.98-0.41l0.1,2.27l-4.24,0.43l-0.06-6.49L56.21,78.53 M56.39,78.33l-0.21,0.03         l-2.43,0.34l-0.15,0.02l0,0.15l0.06,6.49l0,0.19l0.19-0.02l4.24-0.43l0.16-0.02l-0.01-0.16l-0.1-2.27l-0.01-0.2l-0.2,0.04         l-1.76,0.37l0.2-4.32L56.39,78.33L56.39,78.33z"></path>							</g>						</g>					</g>					<g>						<g>							<g>								<path class="st16" d="M61.18,85.72c-0.11,0-0.23,0-0.35-0.01c-0.34-0.03-0.67-0.11-0.98-0.24         c-0.31-0.13-0.59-0.33-0.84-0.58c-0.25-0.25-0.45-0.57-0.59-0.95c-0.16-0.42-0.24-0.84-0.25-1.25         c-0.01-0.41,0.04-0.8,0.16-1.17c0.11-0.37,0.28-0.72,0.5-1.04c0.22-0.32,0.48-0.61,0.78-0.86c0.3-0.25,0.63-0.47,0.99-0.64         c0.36-0.17,0.74-0.3,1.14-0.38c0.21-0.04,0.41-0.06,0.6-0.06c0.16,0,0.32,0.01,0.47,0.04c0.32,0.06,0.62,0.16,0.88,0.3         c0.26,0.14,0.48,0.31,0.65,0.49c0.17,0.19,0.3,0.38,0.39,0.56c0.15,0.34,0.25,0.72,0.31,1.14c0.06,0.42,0.05,0.85-0.03,1.29         c-0.08,0.44-0.23,0.88-0.46,1.32c-0.23,0.44-0.57,0.85-0.99,1.23c-0.21,0.19-0.47,0.35-0.76,0.48         c-0.29,0.13-0.6,0.22-0.93,0.28C61.62,85.7,61.4,85.72,61.18,85.72z M61.84,80.91c-0.16,0-0.33,0.04-0.5,0.11         c-0.17,0.07-0.33,0.18-0.48,0.32c-0.15,0.14-0.28,0.32-0.38,0.53c-0.1,0.21-0.16,0.45-0.18,0.71c-0.02,0.24,0,0.44,0.06,0.6         c0.06,0.15,0.14,0.27,0.25,0.34c0.1,0.08,0.23,0.12,0.36,0.14c0.04,0.01,0.09,0.01,0.13,0.01h0c0.1,0,0.2-0.01,0.31-0.04         c0.15-0.04,0.29-0.11,0.42-0.2c0.13-0.09,0.25-0.2,0.34-0.32c0.14-0.19,0.25-0.38,0.32-0.55c0.07-0.17,0.12-0.33,0.14-0.47         c0.02-0.14,0.02-0.27,0.01-0.39c-0.02-0.12-0.05-0.23-0.08-0.32c-0.06-0.16-0.16-0.28-0.28-0.35         C62.15,80.95,62,80.91,61.84,80.91v-0.09V80.91z"></path>							</g>						</g>						<g>							<g>								<path class="st1" d="M62.33,78.62c0.16,0,0.31,0.01,0.45,0.04c0.32,0.06,0.6,0.15,0.85,0.29c0.25,0.14,0.46,0.29,0.63,0.48         c0.17,0.18,0.29,0.36,0.37,0.54c0.14,0.33,0.25,0.71,0.3,1.12c0.06,0.41,0.05,0.83-0.03,1.26         c-0.07,0.43-0.23,0.86-0.45,1.29c-0.23,0.43-0.55,0.83-0.97,1.21c-0.21,0.18-0.45,0.33-0.74,0.46         c-0.29,0.13-0.59,0.22-0.91,0.27c-0.21,0.04-0.43,0.05-0.65,0.05c-0.11,0-0.23,0-0.34-0.01c-0.34-0.03-0.65-0.11-0.95-0.24         c-0.3-0.13-0.57-0.32-0.82-0.56c-0.24-0.24-0.43-0.55-0.57-0.92c-0.16-0.41-0.24-0.82-0.25-1.22         c-0.01-0.4,0.04-0.78,0.15-1.14c0.11-0.36,0.27-0.7,0.49-1.02c0.22-0.31,0.47-0.6,0.76-0.84c0.29-0.25,0.61-0.46,0.97-0.63         c0.35-0.17,0.73-0.29,1.12-0.37C61.95,78.64,62.14,78.62,62.33,78.62 M61.1,83.74c0.11,0,0.22-0.02,0.33-0.05         c0.16-0.04,0.31-0.11,0.45-0.21c0.14-0.1,0.26-0.21,0.36-0.34c0.15-0.2,0.26-0.39,0.33-0.56c0.07-0.18,0.12-0.34,0.15-0.49         c0.02-0.15,0.03-0.29,0.01-0.41c-0.02-0.13-0.05-0.24-0.09-0.34c-0.07-0.18-0.17-0.31-0.32-0.39         c-0.14-0.08-0.3-0.13-0.47-0.13c0,0,0,0,0,0c-0.17,0-0.35,0.04-0.53,0.11c-0.18,0.08-0.35,0.19-0.51,0.34         c-0.16,0.15-0.29,0.33-0.4,0.55c-0.11,0.22-0.17,0.47-0.19,0.74c-0.02,0.26,0,0.47,0.07,0.64c0.07,0.17,0.16,0.29,0.27,0.38         c0.12,0.09,0.25,0.14,0.41,0.16C61.01,83.74,61.06,83.74,61.1,83.74 M62.33,78.45c-0.19,0-0.4,0.02-0.61,0.06         c-0.41,0.08-0.8,0.21-1.17,0.38c-0.37,0.18-0.7,0.4-1.01,0.65c-0.3,0.26-0.57,0.55-0.79,0.88c-0.22,0.33-0.4,0.68-0.51,1.06         c-0.12,0.38-0.17,0.78-0.16,1.2c0.01,0.42,0.1,0.85,0.26,1.28c0.14,0.39,0.35,0.72,0.61,0.98c0.26,0.26,0.55,0.46,0.87,0.6         c0.32,0.14,0.66,0.22,1.01,0.25c0.12,0.01,0.24,0.01,0.35,0.01c0.23,0,0.45-0.02,0.67-0.06c0.34-0.06,0.66-0.15,0.95-0.28         c0.3-0.13,0.56-0.3,0.78-0.49c0.43-0.39,0.77-0.81,1.01-1.26c0.24-0.44,0.39-0.9,0.47-1.34c0.08-0.45,0.09-0.89,0.03-1.32         c-0.06-0.42-0.16-0.82-0.31-1.16c-0.09-0.2-0.22-0.39-0.4-0.59c-0.18-0.19-0.41-0.37-0.67-0.51         c-0.27-0.14-0.57-0.25-0.9-0.31C62.65,78.47,62.49,78.45,62.33,78.45L62.33,78.45z M61.1,83.57c-0.04,0-0.08,0-0.12-0.01         c-0.13-0.01-0.23-0.06-0.32-0.12c-0.09-0.07-0.16-0.17-0.22-0.3c-0.06-0.14-0.07-0.33-0.05-0.56         c0.02-0.25,0.08-0.48,0.17-0.68c0.1-0.2,0.22-0.37,0.36-0.5c0.14-0.13,0.29-0.24,0.46-0.3c0.16-0.07,0.31-0.1,0.46-0.1         c0.15,0,0.27,0.03,0.39,0.1c0.11,0.07,0.19,0.17,0.24,0.31c0.04,0.09,0.06,0.19,0.08,0.3c0.02,0.11,0.01,0.23-0.01,0.36         c-0.02,0.14-0.07,0.29-0.13,0.45c-0.07,0.16-0.17,0.34-0.31,0.53c-0.09,0.12-0.2,0.22-0.32,0.3         c-0.13,0.08-0.26,0.15-0.4,0.19C61.29,83.56,61.19,83.57,61.1,83.57L61.1,83.57z"></path>							</g>						</g>					</g>					<g>						<g>							<g>								<polygon class="st16" points="65.03,80.16 67.68,79.1 68.4,82 70.13,79.54 72.08,81.1 67.51,86.78         "></polygon>							</g>						</g>						<g>							<g>								<path class="st1" d="M67.62,79.21l0.75,2.99l1.78-2.54l1.81,1.45l-4.42,5.5l-2.4-6.4L67.62,79.21 M67.74,78.98l-0.18,0.07         l-2.48,1l-0.16,0.06l0.06,0.16l2.4,6.4l0.11,0.28l0.19-0.24l4.42-5.5l0.11-0.14l-0.14-0.11l-1.81-1.45l-0.14-0.12         l-0.11,0.15l-1.56,2.23l-0.66-2.62L67.74,78.98L67.74,78.98z"></path>							</g>						</g>					</g>					<g>						<g>							<g>								<polygon class="st16" points="71.17,86.76 72.65,80.48 77.24,81.25 76.45,83.34 74.46,82.94 74.41,83.15 75.87,83.4          75.31,84.89 73.98,84.67 73.91,84.93 76.2,85.27 75.58,87.6         "></polygon>							</g>						</g>						<g>							<g>								<path class="st1" d="M72.71,80.57l4.41,0.74l-0.73,1.92l-1.99-0.4l-0.1,0.37l1.45,0.25l-0.5,1.33l-1.33-0.22L73.8,85         l2.29,0.34l-0.57,2.15l-4.25-0.8L72.71,80.57 M72.58,80.38l-0.04,0.16l-1.44,6.12l-0.04,0.18l0.18,0.03l4.25,0.8l0.16,0.03         l0.04-0.16l0.57-2.15l0.05-0.19l-0.19-0.03l-2.1-0.31l0.03-0.09l1.18,0.19l0.14,0.02l0.05-0.13l0.5-1.33l0.07-0.19         l0.37,0.07l0.14,0.03l0.05-0.14l0.73-1.92l0.07-0.2l-0.21-0.03l-4.41-0.74L72.58,80.38L72.58,80.38z M74.52,83.08l0.01-0.03         l1.27,0.25l-0.01,0L74.52,83.08L74.52,83.08z"></path>							</g>						</g>					</g>					<g>						<g>							<g>								<path class="st16" d="M78.49,87.65l-0.47,1.22l-1.92-0.94l2.12-6.11l0.08,0.02c0.99,0.24,1.96,0.49,2.88,0.73         c0.5,0.13,0.9,0.32,1.18,0.56c0.28,0.25,0.47,0.53,0.55,0.83c0.08,0.3,0.08,0.63-0.02,0.95c-0.09,0.32-0.26,0.63-0.5,0.92         c-0.23,0.29-0.54,0.54-0.89,0.76c-0.32,0.2-0.68,0.34-1.08,0.44l1.18,1.6l-1.82,0.98L78.49,87.65z M79.11,85.42         c0.05,0,0.11,0.01,0.16,0.01c0,0,0,0,0,0c0.08,0,0.16-0.01,0.24-0.02c0.15-0.03,0.29-0.06,0.41-0.11         c0.12-0.05,0.21-0.1,0.28-0.16c0.08-0.06,0.12-0.11,0.14-0.13c0,0,0.01-0.03,0.03-0.07c0.02-0.04,0.03-0.09,0.04-0.16         c0.01-0.06-0.01-0.11-0.05-0.17c-0.04-0.06-0.12-0.11-0.25-0.15c-0.12-0.04-0.29-0.06-0.51-0.06l-0.03,0L79.11,85.42z"></path>							</g>						</g>						<g>							<g>								<path class="st1" d="M78.27,81.92c1,0.24,1.96,0.49,2.88,0.73c0.49,0.13,0.87,0.31,1.15,0.54c0.27,0.24,0.45,0.5,0.52,0.79         c0.08,0.29,0.07,0.59-0.02,0.91c-0.09,0.31-0.25,0.61-0.48,0.89c-0.23,0.28-0.52,0.53-0.87,0.74         c-0.35,0.21-0.75,0.37-1.18,0.46l1.2,1.62l-1.66,0.89l-1.34-2.04l-0.5,1.29l-1.76-0.87L78.27,81.92 M79.26,85.51         c0.09,0,0.17-0.01,0.25-0.02c0.16-0.03,0.3-0.07,0.43-0.12c0.12-0.05,0.22-0.11,0.3-0.17c0.08-0.06,0.13-0.11,0.16-0.15         c0,0,0.01-0.03,0.04-0.08c0.02-0.05,0.04-0.11,0.05-0.19c0.01-0.08-0.01-0.15-0.06-0.23c-0.05-0.07-0.15-0.13-0.29-0.18         c-0.13-0.04-0.31-0.07-0.54-0.07c-0.03,0-0.06,0-0.09,0l-0.52,1.18C79.08,85.5,79.17,85.51,79.26,85.51 M78.16,81.72         l-0.05,0.15l-2.07,5.96l-0.05,0.14l0.14,0.07l1.76,0.87l0.17,0.08l0.07-0.18l0.38-0.97l1.15,1.76l0.09,0.13l0.14-0.07         l1.66-0.89l0.18-0.09l-0.12-0.16l-1.04-1.41c0.35-0.1,0.68-0.24,0.98-0.42c0.37-0.22,0.68-0.49,0.92-0.78         c0.24-0.3,0.42-0.62,0.51-0.95c0.1-0.34,0.1-0.68,0.02-1c-0.09-0.32-0.28-0.62-0.58-0.88c-0.29-0.25-0.7-0.45-1.22-0.58         c-0.92-0.24-1.89-0.49-2.88-0.73L78.16,81.72L78.16,81.72z M79.24,85.34l0.38-0.86c0.2,0,0.36,0.02,0.46,0.06         c0.14,0.05,0.19,0.1,0.2,0.12c0.03,0.05,0.04,0.09,0.03,0.11c-0.01,0.07-0.02,0.11-0.03,0.13         c-0.01,0.03-0.03,0.05-0.03,0.07c-0.01,0.02-0.04,0.05-0.11,0.1c-0.06,0.05-0.15,0.1-0.26,0.15         c-0.11,0.05-0.24,0.08-0.39,0.11c-0.07,0.01-0.15,0.02-0.22,0.02C79.26,85.34,79.25,85.34,79.24,85.34L79.24,85.34z"></path>							</g>						</g>					</g>				</g>			</g>		</g>	</g></g><g></g><g></g><g></g><g></g><g></g><g></g><g></g><g></g><g></g><g></g><g></g><g></g><g></g><g></g><g></g></svg>