<svg xmlns="http://www.w3.org/2000/svg" xmlns:xlink="http://www.w3.org/1999/xlink" id="Capa_1" x="0px" y="0px" viewBox="0 0 911 154.8" style="enable-background:new 0 0 911 154.8;" xml:space="preserve"><style type="text/css">	.st0{fill:none;stroke:#000000;stroke-width:3;}	.st1{fill:#FF0000;}</style><g>	<g>		<g>			<path class="st0" d="M284.9,68.5c2.1,1,4.3,2,6.5,3.3c2.2,1.2,4.2,2.7,6,4.5c1.8,1.8,3.3,3.9,4.5,6.4c1.2,2.5,1.9,5.4,2,8.9    c0.2,4.9-0.6,9.1-2.4,12.9c-1.8,3.7-4.3,6.9-7.5,9.4c-3.2,2.6-7.1,4.5-11.6,5.9c-4.5,1.4-9.4,2.2-14.6,2.4    c-2.4,0.1-4.9-0.1-7.4-0.4c-2.5-0.3-5-0.8-7.5-1.4c-2.5-0.6-4.9-1.3-7.2-2.2c-2.3-0.9-4.5-1.8-6.6-2.7l7.8-21.9    c1,0.4,2.3,0.9,3.7,1.6c1.4,0.7,3,1.2,4.6,1.8c1.6,0.5,3.3,1,5.1,1.4c1.8,0.4,3.5,0.6,5.2,0.5c2.5-0.1,4.7-0.6,6.4-1.3    c1.7-0.8,2.6-2,2.5-3.8c-0.1-1.2-0.7-2-1.8-2.7c-1.1-0.6-2.5-1.2-4-1.8c-1-0.3-2.4-0.6-4-1.1c-1.7-0.5-3.5-1.1-5.4-1.9    c-1.9-0.8-3.8-1.8-5.8-3c-1.9-1.2-3.7-2.6-5.3-4.2c-1.6-1.6-2.9-3.5-4-5.7c-1.1-2.2-1.6-4.6-1.7-7.4c-0.1-4.8,0.7-9,2.5-12.8    c1.8-3.7,4.2-6.9,7.3-9.5c3.1-2.6,6.7-4.6,10.8-6c4.1-1.4,8.5-2.2,13.1-2.4c4.3-0.2,8.6,0,12.8,0.7c4.2,0.6,8.2,1.7,11.9,3.2    l-6,23.7c-2.7-1.2-5.2-2.1-7.5-2.9c-2.3-0.8-4.9-1.4-7.9-1.8c-0.9-0.1-2.1-0.2-3.6-0.2c-1.4,0-2.9,0.2-4.3,0.5    c-1.4,0.3-2.6,0.8-3.6,1.5c-1,0.7-1.6,1.6-1.6,2.9c0,0.5,0.3,1,0.8,1.3c0.5,0.3,1.1,0.5,1.8,0.7c0.7,0.2,1.5,0.3,2.2,0.4    c0.8,0.1,1.4,0.2,1.8,0.3c2,0.4,4.1,0.9,6.4,1.4C281.3,67.1,283.2,67.7,284.9,68.5z"></path>			<path class="st0" d="M307.5,36.4l39.1,32.5l0.9-33.9l30.5,2l-4.7,78.2l-39.3-19.6l1.4,24.2l-29.4,1.8L307.5,36.4z"></path>			<path class="st0" d="M420.8,30.5l51.8,78.7l-32.2,12.2l-8.6-14.3l-21.5,0.7l-4.2,15.4l-30.8-10L420.8,30.5z M415.6,91.4l12.2-2.2    l-5.1-13.9L415.6,91.4z"></path>			<path class="st0" d="M541,50.9l-17.9,22c-3.7-3.9-6.9-6.4-9.7-7.5c-2.8-1.1-5.2-1.3-7.2-0.8c-2,0.6-3.7,1.8-5.1,3.6    c-1.4,1.8-2.5,3.7-3.3,5.5c-0.8,1.9-1.6,4.3-2.3,7.3c0,0.1,0.2,1,0.5,2.7c0.3,1.6,1,3.5,2.2,5.5c1.1,2,2.7,3.5,4.8,4.5    c2.1,1,4.9,0.8,8.5-0.4s8-4.3,13.3-9.1l20,21.3c-1,2-2.8,4-5.3,6c-2.5,2-5.5,3.9-9,5.6c-3.5,1.7-7.3,3.1-11.5,4.3    c-4.2,1.1-8.4,1.8-12.8,1.9c-4.3,0.2-8.6-0.3-12.8-1.4c-4.2-1.1-8.1-3-11.6-5.7c-5.1-4-8.9-8.3-11.4-13.1    c-2.5-4.8-3.9-9.7-4.4-14.8c-0.5-5.1-0.1-10.1,1.2-15.2c1.3-5.1,3-9.8,5.3-14.2c2.3-4.4,5-8.4,8.1-12c3.1-3.6,6.3-6.4,9.5-8.5    c2.7-1.5,5.3-2.6,7.7-3.3c2.4-0.7,5.2-1.2,8.5-1.5c3.2-0.3,6.8,0,10.6,0.9c3.8,0.9,7.8,2.6,11.9,5.2    C532.8,42.2,536.9,45.9,541,50.9z"></path>			<path class="st0" d="M613.6,55.1L585,81.6l25.2,21.2l-14.3,21.5L576,105.6l-0.2,13l-26.9,3.1l-1.6-82.4l30-3.6L577,54.2    l16.5-22.9L613.6,55.1z"></path>			<path class="st0" d="M652.5,68.5c2.1,1,4.3,2,6.5,3.3c2.2,1.2,4.2,2.7,6,4.5c1.8,1.8,3.3,3.9,4.5,6.4c1.2,2.5,1.9,5.4,2,8.9    c0.2,4.9-0.6,9.1-2.4,12.9c-1.8,3.7-4.3,6.9-7.5,9.4c-3.2,2.6-7.1,4.5-11.6,5.9c-4.5,1.4-9.4,2.2-14.6,2.4    c-2.4,0.1-4.9-0.1-7.4-0.4c-2.5-0.3-5-0.8-7.5-1.4c-2.5-0.6-4.9-1.3-7.2-2.2c-2.3-0.9-4.5-1.8-6.6-2.7l7.8-21.9    c1,0.4,2.3,0.9,3.7,1.6c1.4,0.7,3,1.2,4.6,1.8c1.6,0.5,3.3,1,5.1,1.4c1.8,0.4,3.5,0.6,5.2,0.5c2.5-0.1,4.7-0.6,6.4-1.3    c1.7-0.8,2.6-2,2.5-3.8c-0.1-1.2-0.7-2-1.8-2.7c-1.1-0.6-2.5-1.2-4-1.8c-1-0.3-2.4-0.6-4-1.1c-1.7-0.5-3.5-1.1-5.4-1.9    c-1.9-0.8-3.8-1.8-5.8-3c-1.9-1.2-3.7-2.6-5.3-4.2c-1.6-1.6-2.9-3.5-4-5.7c-1.1-2.2-1.6-4.6-1.7-7.4c-0.1-4.8,0.7-9,2.5-12.8    c1.8-3.7,4.2-6.9,7.3-9.5c3.1-2.6,6.7-4.6,10.8-6c4.1-1.4,8.5-2.2,13.1-2.4c4.3-0.2,8.6,0,12.8,0.7c4.2,0.6,8.2,1.7,11.9,3.2    l-6,23.7c-2.7-1.2-5.2-2.1-7.5-2.9c-2.3-0.8-4.9-1.4-7.9-1.8c-0.9-0.1-2.1-0.2-3.6-0.2c-1.4,0-2.9,0.2-4.3,0.5    c-1.4,0.3-2.6,0.8-3.6,1.5c-1,0.7-1.6,1.6-1.6,2.9c0,0.5,0.3,1,0.8,1.3c0.5,0.3,1.1,0.5,1.8,0.7c0.7,0.2,1.5,0.3,2.2,0.4    c0.8,0.1,1.4,0.2,1.8,0.3c2,0.4,4.1,0.9,6.4,1.4C648.9,67.1,650.8,67.7,652.5,68.5z"></path>		</g>	</g>	<g>		<g>			<path class="st1" d="M284.9,68.5c2.1,1,4.3,2,6.5,3.3c2.2,1.2,4.2,2.7,6,4.5c1.8,1.8,3.3,3.9,4.5,6.4c1.2,2.5,1.9,5.4,2,8.9    c0.2,4.9-0.6,9.1-2.4,12.9c-1.8,3.7-4.3,6.9-7.5,9.4c-3.2,2.6-7.1,4.5-11.6,5.9c-4.5,1.4-9.4,2.2-14.6,2.4    c-2.4,0.1-4.9-0.1-7.4-0.4c-2.5-0.3-5-0.8-7.5-1.4c-2.5-0.6-4.9-1.3-7.2-2.2c-2.3-0.9-4.5-1.8-6.6-2.7l7.8-21.9    c1,0.4,2.3,0.9,3.7,1.6c1.4,0.7,3,1.2,4.6,1.8c1.6,0.5,3.3,1,5.1,1.4c1.8,0.4,3.5,0.6,5.2,0.5c2.5-0.1,4.7-0.6,6.4-1.3    c1.7-0.8,2.6-2,2.5-3.8c-0.1-1.2-0.7-2-1.8-2.7c-1.1-0.6-2.5-1.2-4-1.8c-1-0.3-2.4-0.6-4-1.1c-1.7-0.5-3.5-1.1-5.4-1.9    c-1.9-0.8-3.8-1.8-5.8-3c-1.9-1.2-3.7-2.6-5.3-4.2c-1.6-1.6-2.9-3.5-4-5.7c-1.1-2.2-1.6-4.6-1.7-7.4c-0.1-4.8,0.7-9,2.5-12.8    c1.8-3.7,4.2-6.9,7.3-9.5c3.1-2.6,6.7-4.6,10.8-6c4.1-1.4,8.5-2.2,13.1-2.4c4.3-0.2,8.6,0,12.8,0.7c4.2,0.6,8.2,1.7,11.9,3.2    l-6,23.7c-2.7-1.2-5.2-2.1-7.5-2.9c-2.3-0.8-4.9-1.4-7.9-1.8c-0.9-0.1-2.1-0.2-3.6-0.2c-1.4,0-2.9,0.2-4.3,0.5    c-1.4,0.3-2.6,0.8-3.6,1.5c-1,0.7-1.6,1.6-1.6,2.9c0,0.5,0.3,1,0.8,1.3c0.5,0.3,1.1,0.5,1.8,0.7c0.7,0.2,1.5,0.3,2.2,0.4    c0.8,0.1,1.4,0.2,1.8,0.3c2,0.4,4.1,0.9,6.4,1.4C281.3,67.1,283.2,67.7,284.9,68.5z"></path>			<path class="st1" d="M307.5,36.4l39.1,32.5l0.9-33.9l30.5,2l-4.7,78.2l-39.3-19.6l1.4,24.2l-29.4,1.8L307.5,36.4z"></path>			<path class="st1" d="M420.8,30.5l51.8,78.7l-32.2,12.2l-8.6-14.3l-21.5,0.7l-4.2,15.4l-30.8-10L420.8,30.5z M415.6,91.4l12.2-2.2    l-5.1-13.9L415.6,91.4z"></path>			<path class="st1" d="M541,50.9l-17.9,22c-3.7-3.9-6.9-6.4-9.7-7.5c-2.8-1.1-5.2-1.3-7.2-0.8c-2,0.6-3.7,1.8-5.1,3.6    c-1.4,1.8-2.5,3.7-3.3,5.5c-0.8,1.9-1.6,4.3-2.3,7.3c0,0.1,0.2,1,0.5,2.7c0.3,1.6,1,3.5,2.2,5.5c1.1,2,2.7,3.5,4.8,4.5    c2.1,1,4.9,0.8,8.5-0.4s8-4.3,13.3-9.1l20,21.3c-1,2-2.8,4-5.3,6c-2.5,2-5.5,3.9-9,5.6c-3.5,1.7-7.3,3.1-11.5,4.3    c-4.2,1.1-8.4,1.8-12.8,1.9c-4.3,0.2-8.6-0.3-12.8-1.4c-4.2-1.1-8.1-3-11.6-5.7c-5.1-4-8.9-8.3-11.4-13.1    c-2.5-4.8-3.9-9.7-4.4-14.8c-0.5-5.1-0.1-10.1,1.2-15.2c1.3-5.1,3-9.8,5.3-14.2c2.3-4.4,5-8.4,8.1-12c3.1-3.6,6.3-6.4,9.5-8.5    c2.7-1.5,5.3-2.6,7.7-3.3c2.4-0.7,5.2-1.2,8.5-1.5c3.2-0.3,6.8,0,10.6,0.9c3.8,0.9,7.8,2.6,11.9,5.2    C532.8,42.2,536.9,45.9,541,50.9z"></path>			<path class="st1" d="M613.6,55.1L585,81.6l25.2,21.2l-14.3,21.5L576,105.6l-0.2,13l-26.9,3.1l-1.6-82.4l30-3.6L577,54.2    l16.5-22.9L613.6,55.1z"></path>			<path class="st1" d="M652.5,68.5c2.1,1,4.3,2,6.5,3.3c2.2,1.2,4.2,2.7,6,4.5c1.8,1.8,3.3,3.9,4.5,6.4c1.2,2.5,1.9,5.4,2,8.9    c0.2,4.9-0.6,9.1-2.4,12.9c-1.8,3.7-4.3,6.9-7.5,9.4c-3.2,2.6-7.1,4.5-11.6,5.9c-4.5,1.4-9.4,2.2-14.6,2.4    c-2.4,0.1-4.9-0.1-7.4-0.4c-2.5-0.3-5-0.8-7.5-1.4c-2.5-0.6-4.9-1.3-7.2-2.2c-2.3-0.9-4.5-1.8-6.6-2.7l7.8-21.9    c1,0.4,2.3,0.9,3.7,1.6c1.4,0.7,3,1.2,4.6,1.8c1.6,0.5,3.3,1,5.1,1.4c1.8,0.4,3.5,0.6,5.2,0.5c2.5-0.1,4.7-0.6,6.4-1.3    c1.7-0.8,2.6-2,2.5-3.8c-0.1-1.2-0.7-2-1.8-2.7c-1.1-0.6-2.5-1.2-4-1.8c-1-0.3-2.4-0.6-4-1.1c-1.7-0.5-3.5-1.1-5.4-1.9    c-1.9-0.8-3.8-1.8-5.8-3c-1.9-1.2-3.7-2.6-5.3-4.2c-1.6-1.6-2.9-3.5-4-5.7c-1.1-2.2-1.6-4.6-1.7-7.4c-0.1-4.8,0.7-9,2.5-12.8    c1.8-3.7,4.2-6.9,7.3-9.5c3.1-2.6,6.7-4.6,10.8-6c4.1-1.4,8.5-2.2,13.1-2.4c4.3-0.2,8.6,0,12.8,0.7c4.2,0.6,8.2,1.7,11.9,3.2    l-6,23.7c-2.7-1.2-5.2-2.1-7.5-2.9c-2.3-0.8-4.9-1.4-7.9-1.8c-0.9-0.1-2.1-0.2-3.6-0.2c-1.4,0-2.9,0.2-4.3,0.5    c-1.4,0.3-2.6,0.8-3.6,1.5c-1,0.7-1.6,1.6-1.6,2.9c0,0.5,0.3,1,0.8,1.3c0.5,0.3,1.1,0.5,1.8,0.7c0.7,0.2,1.5,0.3,2.2,0.4    c0.8,0.1,1.4,0.2,1.8,0.3c2,0.4,4.1,0.9,6.4,1.4C648.9,67.1,650.8,67.7,652.5,68.5z"></path>		</g>	</g></g></svg>