<svg xmlns="http://www.w3.org/2000/svg" xmlns:xlink="http://www.w3.org/1999/xlink" id="Capa_1" x="0px" y="0px" viewBox="0 0 1173.96 129.86" style="enable-background:new 0 0 1173.96 129.86;" xml:space="preserve"><style type="text/css">	.st0{fill:#FFFFFF;}	.st1{fill:none;stroke:#000000;stroke-width:4.2857;}	.st2{fill:#FF0000;}</style><g>	<g>		<path class="st0" d="M80.88,41.86l-15,18.43c-3.09-3.26-5.79-5.34-8.1-6.26c-2.31-0.91-4.31-1.13-6-0.64   c-1.69,0.49-3.1,1.49-4.24,3c-1.14,1.52-2.06,3.06-2.74,4.63c-0.69,1.57-1.31,3.61-1.89,6.13c0,0.12,0.13,0.86,0.39,2.23   c0.26,1.37,0.86,2.9,1.8,4.59c0.94,1.69,2.28,2.93,4.03,3.73c1.74,0.8,4.11,0.69,7.11-0.34c3-1.03,6.7-3.57,11.1-7.63l16.71,17.83   c-0.86,1.66-2.34,3.34-4.46,5.06c-2.11,1.71-4.63,3.29-7.54,4.71c-2.91,1.43-6.12,2.61-9.6,3.56c-3.49,0.94-7.04,1.49-10.67,1.63   c-3.63,0.14-7.2-0.24-10.71-1.16c-3.51-0.91-6.76-2.51-9.73-4.8c-4.29-3.31-7.46-6.97-9.51-10.97c-2.06-4-3.29-8.11-3.69-12.34   c-0.4-4.23-0.07-8.46,0.99-12.69c1.06-4.23,2.54-8.2,4.46-11.91c1.91-3.71,4.17-7.06,6.77-10.03c2.6-2.97,5.24-5.34,7.93-7.11   c2.28-1.26,4.43-2.19,6.43-2.79c2-0.6,4.36-1.03,7.07-1.29c2.71-0.26,5.66,0,8.83,0.77c3.17,0.77,6.48,2.21,9.94,4.33   C74.01,34.63,77.46,37.75,80.88,41.86z"></path>		<path class="st0" d="M136.86,70.15c0.57,3.94,0.39,7.62-0.56,11.01c-0.94,3.4-2.46,6.4-4.54,9c-2.09,2.6-4.69,4.74-7.8,6.43   c-3.12,1.69-6.59,2.79-10.41,3.3c-3.83,0.51-7.49,0.4-10.97-0.34c-3.49-0.74-6.6-2.07-9.34-3.99c-2.74-1.91-5.03-4.37-6.86-7.37   c-1.83-3-3-6.47-3.51-10.41c-0.57-3.94-0.39-7.61,0.56-11.01c0.94-3.4,2.46-6.41,4.54-9.04c2.09-2.63,4.69-4.79,7.8-6.47   c3.11-1.69,6.59-2.79,10.41-3.3c3.83-0.51,7.47-0.4,10.93,0.34c3.46,0.74,6.56,2.07,9.3,3.99c2.74,1.92,5.03,4.39,6.86,7.41   C135.08,62.72,136.28,66.21,136.86,70.15z M100.86,77.43c0.97,2.23,2.51,3.69,4.63,4.37c2.11,0.69,4.51,0.46,7.2-0.69   c2.63-1.14,4.44-2.7,5.44-4.67c1-1.97,1.04-4.07,0.13-6.3c-0.97-2.17-2.52-3.61-4.63-4.33c-2.11-0.71-4.49-0.5-7.11,0.64   c-2.69,1.14-4.53,2.71-5.53,4.71C99.98,73.18,99.94,75.26,100.86,77.43z"></path>		<path class="st0" d="M156.57,55.58h0.34c1.89-2.57,3.81-4.31,5.79-5.23c1.97-0.91,4.13-1.37,6.47-1.37c2.4,0,4.51,0.43,6.34,1.29   c1.83,0.86,3.37,2.06,4.63,3.6c1.26,1.54,2.21,3.34,2.87,5.4c0.66,2.06,0.99,4.29,0.99,6.69v33.17l-18.51,1.54l0.26-31.2   c0.06-1.03-0.33-1.89-1.16-2.57c-0.83-0.69-1.81-1.03-2.96-1.03c-1.09,0-2.07,0.33-2.96,0.99c-0.89,0.66-1.33,1.56-1.33,2.7   l0.34,30.94l-18.26-1.29l-0.69-48.77l17.83-1.46V55.58z"></path>		<path class="st0" d="M240.4,70.15c0.57,3.94,0.39,7.62-0.56,11.01c-0.94,3.4-2.46,6.4-4.54,9c-2.09,2.6-4.69,4.74-7.8,6.43   c-3.12,1.69-6.59,2.79-10.41,3.3c-3.83,0.51-7.49,0.4-10.97-0.34c-3.49-0.74-6.6-2.07-9.34-3.99c-2.74-1.91-5.03-4.37-6.86-7.37   c-1.83-3-3-6.47-3.51-10.41c-0.57-3.94-0.39-7.61,0.56-11.01c0.94-3.4,2.46-6.41,4.54-9.04c2.09-2.63,4.69-4.79,7.8-6.47   c3.11-1.69,6.59-2.79,10.41-3.3c3.83-0.51,7.47-0.4,10.93,0.34c3.46,0.74,6.56,2.07,9.3,3.99c2.74,1.92,5.03,4.39,6.86,7.41   C238.62,62.72,239.82,66.21,240.4,70.15z M204.4,77.43c0.97,2.23,2.51,3.69,4.63,4.37c2.11,0.69,4.51,0.46,7.2-0.69   c2.63-1.14,4.44-2.7,5.44-4.67c1-1.97,1.04-4.07,0.13-6.3c-0.97-2.17-2.52-3.61-4.63-4.33c-2.11-0.71-4.49-0.5-7.11,0.64   c-2.69,1.14-4.53,2.71-5.53,4.71C203.52,73.18,203.48,75.26,204.4,77.43z"></path>		<path class="st0" d="M281.75,96.68c-1.63,0.83-3.3,1.5-5.01,2.01c-1.71,0.51-3.46,0.87-5.23,1.07c-1.77,0.2-3.49,0.3-5.14,0.3   c-3.89,0-7.47-0.66-10.76-1.97c-3.29-1.31-6.14-3.13-8.57-5.44c-2.43-2.31-4.33-5.03-5.7-8.14c-1.37-3.11-2.06-6.47-2.06-10.07   c0-4.17,0.71-7.93,2.14-11.27c1.43-3.34,3.41-6.17,5.96-8.49c2.54-2.31,5.56-4.08,9.04-5.31c3.48-1.23,7.26-1.84,11.31-1.84   c4.06,0,7.59,0.66,10.59,1.97c3,1.32,5.53,2.66,7.59,4.03L274.6,68.35c-0.8-0.63-1.73-1.14-2.79-1.54   c-1.06-0.4-2.13-0.69-3.21-0.86c-1.09-0.17-2.13-0.23-3.13-0.17c-1,0.06-1.81,0.26-2.44,0.6c-1.09,0.57-2.01,1.24-2.79,2.01   c-0.77,0.77-1.37,1.62-1.8,2.53c-0.43,0.91-0.63,1.9-0.6,2.96c0.03,1.06,0.33,2.13,0.9,3.21c1.14,2.29,2.77,3.69,4.89,4.2   c2.11,0.51,4.34,0.2,6.69-0.94l4.37-2.23l11.66,15.43C284.91,94.81,283.38,95.85,281.75,96.68z"></path>		<path class="st0" d="M334,93.29c-3.49,2.52-7.06,4.33-10.71,5.44c-3.66,1.11-7.86,1.67-12.6,1.67c-3.89,0-7.44-0.67-10.67-2.01   c-3.23-1.34-6.01-3.16-8.36-5.44c-2.34-2.29-4.17-4.96-5.49-8.01c-1.31-3.06-1.97-6.3-1.97-9.73c0-4.29,0.69-8.11,2.06-11.49   c1.37-3.37,3.23-6.23,5.57-8.57c2.34-2.34,5.07-4.13,8.19-5.36c3.11-1.23,6.44-1.84,9.99-1.84c5.71,0,10.67,1.46,14.87,4.37   c4.2,2.91,7.33,6.8,9.39,11.66l-25.63,19.29c0.63,0.34,1.46,0.57,2.49,0.69c1.03,0.11,1.97,0.17,2.83,0.17   c2.63,0,4.84-0.47,6.64-1.41c1.8-0.94,3.44-2.07,4.93-3.39L334,93.29z M315.65,65.18c-0.8-0.97-1.67-1.63-2.61-1.97   s-2.01-0.51-3.21-0.51c-1.14,0-2.19,0.24-3.13,0.73c-0.94,0.49-1.76,1.14-2.44,1.97c-0.69,0.83-1.21,1.76-1.59,2.79   c-0.37,1.03-0.56,2.09-0.56,3.17c0,1.03,0.07,1.76,0.21,2.19c0.14,0.43,0.33,0.87,0.56,1.33L315.65,65.18z"></path>		<path class="st0" d="M380.11,55.58h0.34c1.89-2.57,3.81-4.31,5.79-5.23c1.97-0.91,4.13-1.37,6.47-1.37c2.4,0,4.51,0.43,6.34,1.29   c1.83,0.86,3.37,2.06,4.63,3.6c1.26,1.54,2.21,3.34,2.87,5.4c0.66,2.06,0.99,4.29,0.99,6.69v33.17l-18.51,1.54l0.26-31.2   c0.06-1.03-0.33-1.89-1.16-2.57c-0.83-0.69-1.81-1.03-2.96-1.03c-1.09,0-2.07,0.33-2.96,0.99c-0.89,0.66-1.33,1.56-1.33,2.7   l0.34,30.94l-18.26-1.29l-0.69-48.77l17.83-1.46V55.58z"></path>		<path class="st0" d="M441.57,92.09h-0.17c-1.14,3.14-2.93,5.37-5.36,6.69c-2.43,1.31-5.27,1.97-8.53,1.97   c-4.29,0-7.76-1.27-10.41-3.81c-2.66-2.54-3.99-6.24-3.99-11.1v-36l19.11-1.54l-0.51,31.71c-0.06,1.37,0.24,2.36,0.9,2.96   c0.66,0.6,1.67,0.9,3.04,0.9c1.14,0,2.07-0.29,2.79-0.86c0.71-0.57,1.04-1.54,0.99-2.91l-0.51-30.26l19.71-1.54l-1.29,51   l-15.77,0.69V92.09z"></path>		<path class="st0" d="M510.05,93.29c-3.49,2.52-7.06,4.33-10.71,5.44c-3.66,1.11-7.86,1.67-12.6,1.67c-3.89,0-7.44-0.67-10.67-2.01   c-3.23-1.34-6.01-3.16-8.36-5.44c-2.34-2.29-4.17-4.96-5.49-8.01c-1.31-3.06-1.97-6.3-1.97-9.73c0-4.29,0.69-8.11,2.06-11.49   c1.37-3.37,3.23-6.23,5.57-8.57c2.34-2.34,5.07-4.13,8.19-5.36c3.11-1.23,6.44-1.84,9.99-1.84c5.71,0,10.67,1.46,14.87,4.37   c4.2,2.91,7.33,6.8,9.39,11.66l-25.63,19.29c0.63,0.34,1.46,0.57,2.49,0.69c1.03,0.11,1.97,0.17,2.83,0.17   c2.63,0,4.84-0.47,6.64-1.41c1.8-0.94,3.44-2.07,4.93-3.39L510.05,93.29z M491.71,65.18c-0.8-0.97-1.67-1.63-2.61-1.97   s-2.01-0.51-3.21-0.51c-1.14,0-2.19,0.24-3.13,0.73c-0.94,0.49-1.76,1.14-2.44,1.97c-0.69,0.83-1.21,1.76-1.59,2.79   c-0.37,1.03-0.56,2.09-0.56,3.17c0,1.03,0.07,1.76,0.21,2.19c0.14,0.43,0.33,0.87,0.56,1.33L491.71,65.18z"></path>		<path class="st0" d="M516.09,83.78c1.57,0.29,3.27,0.43,5.1,0.43c0.8,0,1.64-0.01,2.53-0.04c0.89-0.03,1.68-0.11,2.4-0.26   c0.71-0.14,1.31-0.39,1.8-0.73c0.48-0.34,0.73-0.86,0.73-1.54c0-0.86-0.44-1.5-1.33-1.93s-1.97-0.84-3.26-1.24   c-1.29-0.4-2.7-0.87-4.24-1.41c-1.54-0.54-2.96-1.34-4.24-2.4c-1.29-1.06-2.37-2.47-3.26-4.24c-0.89-1.77-1.33-4.08-1.33-6.94   c0-1.89,0.37-3.74,1.11-5.57c0.74-1.83,1.94-3.48,3.6-4.97c1.66-1.49,3.8-2.69,6.43-3.6c2.63-0.91,5.8-1.37,9.51-1.37   c1.43,0,2.86,0.06,4.29,0.17c1.43,0.12,2.79,0.27,4.07,0.47c1.29,0.2,2.47,0.4,3.56,0.6c1.08,0.2,2,0.39,2.74,0.56v15.09   c-1.43-0.34-2.83-0.63-4.2-0.86c-1.37-0.23-2.86-0.34-4.46-0.34c-0.34,0-0.89,0.01-1.63,0.04c-0.74,0.03-1.49,0.11-2.23,0.26   c-0.74,0.14-1.4,0.39-1.97,0.73s-0.86,0.8-0.86,1.37c0,0.91,0.46,1.6,1.37,2.06c0.91,0.46,2.04,0.89,3.39,1.29   c1.34,0.4,2.81,0.89,4.41,1.46c1.6,0.57,3.07,1.39,4.42,2.44c1.34,1.06,2.47,2.47,3.39,4.24c0.91,1.77,1.37,4.09,1.37,6.94   c0,3.09-0.67,5.66-2.01,7.71c-1.34,2.06-3.12,3.7-5.31,4.93c-2.2,1.23-4.73,2.1-7.58,2.61c-2.86,0.51-5.83,0.77-8.92,0.77   c-2.4,0-4.76-0.14-7.07-0.43c-2.31-0.29-4.64-0.74-6.99-1.37V82.66C512.96,83.12,514.52,83.49,516.09,83.78z"></path>		<path class="st0" d="M574.03,100.45c-0.83,0.03-1.73,0.04-2.7,0.04c-5.49,0-9.76-1.24-12.81-3.73c-3.06-2.49-4.59-6.53-4.59-12.13   V64.32l-4.71,0.09l0.51-14.83h4.03v-5.66l18.6-8.4v14.06l6.94-1.03l-0.94,15.77h-5.83v15c0,1.71,0.24,2.86,0.73,3.43   c0.48,0.57,1.59,0.86,3.3,0.86c0.74,0,1.34-0.03,1.8-0.09c0.46-0.06,0.89-0.14,1.29-0.26l-3,16.97   C575.73,100.35,574.86,100.42,574.03,100.45z"></path>		<path class="st0" d="M599.96,48.38v9.51h0.17c1.49-6.34,5.77-9.51,12.86-9.51c1.54,0,3,0.09,4.37,0.26l-4.46,18.26   c-0.4-0.06-0.83-0.09-1.29-0.09c-0.4,0-0.97,0-1.71,0c-2.4,0-4.47,0.79-6.21,2.36c-1.74,1.57-2.61,4.04-2.61,7.41v22.03l-18,1.54   l-0.51-50.23L599.96,48.38z"></path>		<path class="st0" d="M645.99,93.81h-0.17c-1.54,2.17-3.5,3.69-5.87,4.54c-2.37,0.86-4.93,1.29-7.67,1.29   c-2.29,0-4.46-0.41-6.51-1.24c-2.06-0.83-3.86-2.01-5.4-3.56c-1.54-1.54-2.77-3.4-3.69-5.57c-0.91-2.17-1.37-4.6-1.37-7.29   c0-2.34,0.46-4.5,1.37-6.47c0.91-1.97,2.16-3.69,3.73-5.14c1.57-1.46,3.43-2.6,5.57-3.43c2.14-0.83,4.47-1.24,6.99-1.24   c2.63,0,4.84,0.39,6.64,1.16c1.8,0.77,3.33,1.64,4.59,2.61v-2.57c0-2.63-0.86-4.37-2.57-5.23c-1.71-0.86-3.94-1.29-6.69-1.29   c-2.52,0-4.86,0.26-7.03,0.77s-4.37,1.11-6.6,1.8l3.34-13.63c2.74-0.8,5.6-1.36,8.57-1.67c2.97-0.31,6-0.47,9.09-0.47   c2.8,0,5.54,0.33,8.23,0.99c2.69,0.66,5.04,1.73,7.07,3.21c2.03,1.49,3.64,3.4,4.84,5.74c1.2,2.34,1.77,5.23,1.71,8.66l-0.94,32.4   l-17.23,1.46V93.81z M635.11,77.95c-1.94,0.29-3.54,0.96-4.8,2.01c-1.26,1.06-1.8,2.24-1.63,3.56c0.23,1.31,1.04,2.3,2.44,2.96   c1.4,0.66,3.21,0.81,5.44,0.47c2.23-0.34,3.89-1.06,4.97-2.14c1.08-1.08,1.51-2.26,1.29-3.51c-0.17-1.08-0.9-2.01-2.19-2.79   C639.35,77.73,637.51,77.55,635.11,77.95z"></path>		<path class="st0" d="M673.63,83.78c1.57,0.29,3.27,0.43,5.1,0.43c0.8,0,1.64-0.01,2.53-0.04c0.89-0.03,1.68-0.11,2.4-0.26   c0.71-0.14,1.31-0.39,1.8-0.73c0.48-0.34,0.73-0.86,0.73-1.54c0-0.86-0.44-1.5-1.33-1.93s-1.97-0.84-3.26-1.24   c-1.29-0.4-2.7-0.87-4.24-1.41c-1.54-0.54-2.96-1.34-4.24-2.4c-1.29-1.06-2.37-2.47-3.26-4.24c-0.89-1.77-1.33-4.08-1.33-6.94   c0-1.89,0.37-3.74,1.11-5.57c0.74-1.83,1.94-3.48,3.6-4.97c1.66-1.49,3.8-2.69,6.43-3.6c2.63-0.91,5.8-1.37,9.51-1.37   c1.43,0,2.86,0.06,4.29,0.17c1.43,0.12,2.79,0.27,4.07,0.47c1.29,0.2,2.47,0.4,3.56,0.6c1.08,0.2,2,0.39,2.74,0.56v15.09   c-1.43-0.34-2.83-0.63-4.2-0.86c-1.37-0.23-2.86-0.34-4.46-0.34c-0.34,0-0.89,0.01-1.63,0.04c-0.74,0.03-1.49,0.11-2.23,0.26   c-0.74,0.14-1.4,0.39-1.97,0.73s-0.86,0.8-0.86,1.37c0,0.91,0.46,1.6,1.37,2.06c0.91,0.46,2.04,0.89,3.39,1.29   c1.34,0.4,2.81,0.89,4.41,1.46c1.6,0.57,3.07,1.39,4.42,2.44c1.34,1.06,2.47,2.47,3.39,4.24c0.91,1.77,1.37,4.09,1.37,6.94   c0,3.09-0.67,5.66-2.01,7.71c-1.34,2.06-3.12,3.7-5.31,4.93c-2.2,1.23-4.73,2.1-7.58,2.61c-2.86,0.51-5.83,0.77-8.92,0.77   c-2.4,0-4.76-0.14-7.07-0.43c-2.31-0.29-4.64-0.74-6.99-1.37V82.66C670.51,83.12,672.06,83.49,673.63,83.78z"></path>		<path class="st0" d="M737.57,83.78c1.57,0.29,3.27,0.43,5.1,0.43c0.8,0,1.64-0.01,2.53-0.04c0.89-0.03,1.68-0.11,2.4-0.26   c0.71-0.14,1.31-0.39,1.8-0.73c0.48-0.34,0.73-0.86,0.73-1.54c0-0.86-0.44-1.5-1.33-1.93s-1.97-0.84-3.26-1.24   c-1.29-0.4-2.7-0.87-4.24-1.41c-1.54-0.54-2.96-1.34-4.24-2.4c-1.29-1.06-2.37-2.47-3.26-4.24c-0.89-1.77-1.33-4.08-1.33-6.94   c0-1.89,0.37-3.74,1.11-5.57c0.74-1.83,1.94-3.48,3.6-4.97c1.66-1.49,3.8-2.69,6.43-3.6c2.63-0.91,5.8-1.37,9.51-1.37   c1.43,0,2.86,0.06,4.29,0.17c1.43,0.12,2.79,0.27,4.07,0.47c1.29,0.2,2.47,0.4,3.56,0.6c1.08,0.2,2,0.39,2.74,0.56v15.09   c-1.43-0.34-2.83-0.63-4.2-0.86c-1.37-0.23-2.86-0.34-4.46-0.34c-0.34,0-0.89,0.01-1.63,0.04c-0.74,0.03-1.49,0.11-2.23,0.26   c-0.74,0.14-1.4,0.39-1.97,0.73s-0.86,0.8-0.86,1.37c0,0.91,0.46,1.6,1.37,2.06c0.91,0.46,2.04,0.89,3.39,1.29   c1.34,0.4,2.81,0.89,4.41,1.46c1.6,0.57,3.07,1.39,4.42,2.44c1.34,1.06,2.47,2.47,3.39,4.24c0.91,1.77,1.37,4.09,1.37,6.94   c0,3.09-0.67,5.66-2.01,7.71c-1.34,2.06-3.12,3.7-5.31,4.93c-2.2,1.23-4.73,2.1-7.58,2.61c-2.86,0.51-5.83,0.77-8.92,0.77   c-2.4,0-4.76-0.14-7.07-0.43c-2.31-0.29-4.64-0.74-6.99-1.37V82.66C734.45,83.12,736,83.49,737.57,83.78z"></path>		<path class="st0" d="M800.96,92.09h-0.17c-1.14,3.14-2.93,5.37-5.36,6.69c-2.43,1.31-5.27,1.97-8.53,1.97   c-4.29,0-7.76-1.27-10.41-3.81c-2.66-2.54-3.99-6.24-3.99-11.1v-36l19.11-1.54l-0.51,31.71c-0.06,1.37,0.24,2.36,0.9,2.96   c0.66,0.6,1.67,0.9,3.04,0.9c1.14,0,2.07-0.29,2.79-0.86c0.71-0.57,1.04-1.54,0.99-2.91l-0.51-30.26l19.71-1.54l-1.29,51   l-15.77,0.69V92.09z"></path>		<path class="st0" d="M862.46,96.68c-1.63,0.83-3.3,1.5-5.01,2.01c-1.71,0.51-3.46,0.87-5.23,1.07c-1.77,0.2-3.49,0.3-5.14,0.3   c-3.89,0-7.47-0.66-10.76-1.97c-3.29-1.31-6.14-3.13-8.57-5.44c-2.43-2.31-4.33-5.03-5.7-8.14c-1.37-3.11-2.06-6.47-2.06-10.07   c0-4.17,0.71-7.93,2.14-11.27c1.43-3.34,3.41-6.17,5.96-8.49c2.54-2.31,5.56-4.08,9.04-5.31c3.48-1.23,7.26-1.84,11.31-1.84   c4.06,0,7.59,0.66,10.59,1.97c3,1.32,5.53,2.66,7.58,4.03L855.3,68.35c-0.8-0.63-1.73-1.14-2.79-1.54   c-1.06-0.4-2.13-0.69-3.21-0.86c-1.09-0.17-2.13-0.23-3.13-0.17c-1,0.06-1.81,0.26-2.44,0.6c-1.09,0.57-2.01,1.24-2.79,2.01   c-0.77,0.77-1.37,1.62-1.8,2.53c-0.43,0.91-0.63,1.9-0.6,2.96c0.03,1.06,0.33,2.13,0.9,3.21c1.14,2.29,2.77,3.69,4.89,4.2   c2.11,0.51,4.34,0.2,6.69-0.94l4.37-2.23l11.66,15.43C865.62,94.81,864.09,95.85,862.46,96.68z"></path>		<path class="st0" d="M896.87,92.09h-0.17c-1.14,3.14-2.93,5.37-5.36,6.69c-2.43,1.31-5.27,1.97-8.53,1.97   c-4.29,0-7.76-1.27-10.41-3.81c-2.66-2.54-3.99-6.24-3.99-11.1v-36l19.11-1.54l-0.51,31.71c-0.06,1.37,0.24,2.36,0.9,2.96   c0.66,0.6,1.67,0.9,3.04,0.9c1.14,0,2.07-0.29,2.79-0.86c0.71-0.57,1.04-1.54,0.99-2.91l-0.51-30.26l19.71-1.54l-1.29,51   l-15.77,0.69V92.09z"></path>		<path class="st0" d="M936.22,48.38v9.51h0.17c1.49-6.34,5.77-9.51,12.86-9.51c1.54,0,3,0.09,4.37,0.26l-4.46,18.26   c-0.4-0.06-0.83-0.09-1.29-0.09c-0.4,0-0.97,0-1.71,0c-2.4,0-4.47,0.79-6.21,2.36c-1.74,1.57-2.61,4.04-2.61,7.41v22.03l-18,1.54   l-0.51-50.23L936.22,48.38z"></path>		<path class="st0" d="M958.2,83.78c1.57,0.29,3.27,0.43,5.1,0.43c0.8,0,1.64-0.01,2.53-0.04c0.89-0.03,1.68-0.11,2.4-0.26   c0.71-0.14,1.31-0.39,1.8-0.73c0.48-0.34,0.73-0.86,0.73-1.54c0-0.86-0.44-1.5-1.33-1.93s-1.97-0.84-3.26-1.24   c-1.29-0.4-2.7-0.87-4.24-1.41c-1.54-0.54-2.96-1.34-4.24-2.4c-1.29-1.06-2.37-2.47-3.26-4.24c-0.89-1.77-1.33-4.08-1.33-6.94   c0-1.89,0.37-3.74,1.11-5.57c0.74-1.83,1.94-3.48,3.6-4.97c1.66-1.49,3.8-2.69,6.43-3.6c2.63-0.91,5.8-1.37,9.51-1.37   c1.43,0,2.86,0.06,4.29,0.17c1.43,0.12,2.79,0.27,4.07,0.47c1.29,0.2,2.47,0.4,3.56,0.6c1.08,0.2,2,0.39,2.74,0.56v15.09   c-1.43-0.34-2.83-0.63-4.2-0.86c-1.37-0.23-2.86-0.34-4.46-0.34c-0.34,0-0.89,0.01-1.63,0.04c-0.74,0.03-1.49,0.11-2.23,0.26   c-0.74,0.14-1.4,0.39-1.97,0.73s-0.86,0.8-0.86,1.37c0,0.91,0.46,1.6,1.37,2.06c0.91,0.46,2.04,0.89,3.39,1.29   c1.34,0.4,2.81,0.89,4.41,1.46c1.6,0.57,3.07,1.39,4.42,2.44c1.34,1.06,2.47,2.47,3.39,4.24c0.91,1.77,1.37,4.09,1.37,6.94   c0,3.09-0.67,5.66-2.01,7.71c-1.34,2.06-3.12,3.7-5.31,4.93c-2.2,1.23-4.73,2.1-7.58,2.61c-2.86,0.51-5.83,0.77-8.92,0.77   c-2.4,0-4.76-0.14-7.07-0.43c-2.31-0.29-4.64-0.74-6.99-1.37V82.66C955.07,83.12,956.63,83.49,958.2,83.78z"></path>		<path class="st0" d="M1020.47,93.81h-0.17c-1.54,2.17-3.5,3.69-5.87,4.54c-2.37,0.86-4.93,1.29-7.67,1.29   c-2.29,0-4.46-0.41-6.51-1.24c-2.06-0.83-3.86-2.01-5.4-3.56c-1.54-1.54-2.77-3.4-3.69-5.57c-0.91-2.17-1.37-4.6-1.37-7.29   c0-2.34,0.46-4.5,1.37-6.47c0.91-1.97,2.16-3.69,3.73-5.14c1.57-1.46,3.43-2.6,5.57-3.43c2.14-0.83,4.47-1.24,6.99-1.24   c2.63,0,4.84,0.39,6.64,1.16c1.8,0.77,3.33,1.64,4.59,2.61v-2.57c0-2.63-0.86-4.37-2.57-5.23c-1.71-0.86-3.94-1.29-6.69-1.29   c-2.52,0-4.86,0.26-7.03,0.77s-4.37,1.11-6.6,1.8l3.34-13.63c2.74-0.8,5.6-1.36,8.57-1.67c2.97-0.31,6-0.47,9.09-0.47   c2.8,0,5.54,0.33,8.23,0.99c2.69,0.66,5.04,1.73,7.07,3.21c2.03,1.49,3.64,3.4,4.84,5.74c1.2,2.34,1.77,5.23,1.71,8.66l-0.94,32.4   l-17.23,1.46V93.81z M1009.59,77.95c-1.94,0.29-3.54,0.96-4.8,2.01c-1.26,1.06-1.8,2.24-1.63,3.56c0.23,1.31,1.04,2.3,2.44,2.96   c1.4,0.66,3.21,0.81,5.44,0.47c2.23-0.34,3.89-1.06,4.97-2.14c1.08-1.08,1.51-2.26,1.29-3.51c-0.17-1.08-0.9-2.01-2.19-2.79   C1013.83,77.73,1011.99,77.55,1009.59,77.95z"></path>		<path class="st0" d="M1045.24,31.49l19.37-1.54l-0.77,69l-18,1.54L1045.24,31.49z"></path>		<path class="st0" d="M1116.73,93.29c-3.49,2.52-7.06,4.33-10.71,5.44c-3.66,1.11-7.86,1.67-12.6,1.67   c-3.89,0-7.44-0.67-10.67-2.01s-6.01-3.16-8.36-5.44c-2.34-2.29-4.17-4.96-5.49-8.01c-1.31-3.06-1.97-6.3-1.97-9.73   c0-4.29,0.69-8.11,2.06-11.49c1.37-3.37,3.23-6.23,5.57-8.57c2.34-2.34,5.07-4.13,8.19-5.36c3.11-1.23,6.44-1.84,9.99-1.84   c5.71,0,10.67,1.46,14.87,4.37c4.2,2.91,7.33,6.8,9.39,11.66l-25.63,19.29c0.63,0.34,1.46,0.57,2.49,0.69   c1.03,0.11,1.97,0.17,2.83,0.17c2.63,0,4.84-0.47,6.64-1.41c1.8-0.94,3.44-2.07,4.93-3.39L1116.73,93.29z M1098.39,65.18   c-0.8-0.97-1.67-1.63-2.61-1.97c-0.94-0.34-2.01-0.51-3.21-0.51c-1.14,0-2.19,0.24-3.13,0.73c-0.94,0.49-1.76,1.14-2.44,1.97   c-0.69,0.83-1.21,1.76-1.59,2.79c-0.37,1.03-0.56,2.09-0.56,3.17c0,1.03,0.07,1.76,0.21,2.19c0.14,0.43,0.33,0.87,0.56,1.33   L1098.39,65.18z"></path>		<path class="st0" d="M1122.77,83.78c1.57,0.29,3.27,0.43,5.1,0.43c0.8,0,1.64-0.01,2.53-0.04c0.89-0.03,1.68-0.11,2.4-0.26   c0.71-0.14,1.31-0.39,1.8-0.73c0.48-0.34,0.73-0.86,0.73-1.54c0-0.86-0.44-1.5-1.33-1.93s-1.97-0.84-3.26-1.24   c-1.29-0.4-2.7-0.87-4.24-1.41c-1.54-0.54-2.96-1.34-4.24-2.4c-1.29-1.06-2.37-2.47-3.26-4.24c-0.89-1.77-1.33-4.08-1.33-6.94   c0-1.89,0.37-3.74,1.11-5.57c0.74-1.83,1.94-3.48,3.6-4.97c1.66-1.49,3.8-2.69,6.43-3.6c2.63-0.91,5.8-1.37,9.51-1.37   c1.43,0,2.86,0.06,4.29,0.17c1.43,0.12,2.79,0.27,4.07,0.47c1.29,0.2,2.47,0.4,3.56,0.6c1.08,0.2,2,0.39,2.74,0.56v15.09   c-1.43-0.34-2.83-0.63-4.2-0.86c-1.37-0.23-2.86-0.34-4.46-0.34c-0.34,0-0.89,0.01-1.63,0.04c-0.74,0.03-1.49,0.11-2.23,0.26   c-0.74,0.14-1.4,0.39-1.97,0.73s-0.86,0.8-0.86,1.37c0,0.91,0.46,1.6,1.37,2.06c0.91,0.46,2.04,0.89,3.39,1.29   c1.34,0.4,2.81,0.89,4.41,1.46c1.6,0.57,3.07,1.39,4.42,2.44c1.34,1.06,2.47,2.47,3.39,4.24c0.91,1.77,1.37,4.09,1.37,6.94   c0,3.09-0.67,5.66-2.01,7.71c-1.34,2.06-3.12,3.7-5.31,4.93c-2.2,1.23-4.73,2.1-7.58,2.61c-2.86,0.51-5.83,0.77-8.92,0.77   c-2.4,0-4.76-0.14-7.07-0.43c-2.31-0.29-4.64-0.74-6.99-1.37V82.66C1119.64,83.12,1121.2,83.49,1122.77,83.78z"></path>	</g>	<g>		<path class="st1" d="M80.88,41.86l-15,18.43c-3.09-3.26-5.79-5.34-8.1-6.26c-2.31-0.91-4.31-1.13-6-0.64   c-1.69,0.49-3.1,1.49-4.24,3c-1.14,1.52-2.06,3.06-2.74,4.63c-0.69,1.57-1.31,3.61-1.89,6.13c0,0.12,0.13,0.86,0.39,2.23   c0.26,1.37,0.86,2.9,1.8,4.59c0.94,1.69,2.28,2.93,4.03,3.73c1.74,0.8,4.11,0.69,7.11-0.34c3-1.03,6.7-3.57,11.1-7.63l16.71,17.83   c-0.86,1.66-2.34,3.34-4.46,5.06c-2.11,1.71-4.63,3.29-7.54,4.71c-2.91,1.43-6.12,2.61-9.6,3.56c-3.49,0.94-7.04,1.49-10.67,1.63   c-3.63,0.14-7.2-0.24-10.71-1.16c-3.51-0.91-6.76-2.51-9.73-4.8c-4.29-3.31-7.46-6.97-9.51-10.97c-2.06-4-3.29-8.11-3.69-12.34   c-0.4-4.23-0.07-8.46,0.99-12.69c1.06-4.23,2.54-8.2,4.46-11.91c1.91-3.71,4.17-7.06,6.77-10.03c2.6-2.97,5.24-5.34,7.93-7.11   c2.28-1.26,4.43-2.19,6.43-2.79c2-0.6,4.36-1.03,7.07-1.29c2.71-0.26,5.66,0,8.83,0.77c3.17,0.77,6.48,2.21,9.94,4.33   C74.01,34.63,77.46,37.75,80.88,41.86z"></path>		<path class="st1" d="M136.86,70.15c0.57,3.94,0.39,7.62-0.56,11.01c-0.94,3.4-2.46,6.4-4.54,9c-2.09,2.6-4.69,4.74-7.8,6.43   c-3.12,1.69-6.59,2.79-10.41,3.3c-3.83,0.51-7.49,0.4-10.97-0.34c-3.49-0.74-6.6-2.07-9.34-3.99c-2.74-1.91-5.03-4.37-6.86-7.37   c-1.83-3-3-6.47-3.51-10.41c-0.57-3.94-0.39-7.61,0.56-11.01c0.94-3.4,2.46-6.41,4.54-9.04c2.09-2.63,4.69-4.79,7.8-6.47   c3.11-1.69,6.59-2.79,10.41-3.3c3.83-0.51,7.47-0.4,10.93,0.34c3.46,0.74,6.56,2.07,9.3,3.99c2.74,1.92,5.03,4.39,6.86,7.41   C135.08,62.72,136.28,66.21,136.86,70.15z M100.86,77.43c0.97,2.23,2.51,3.69,4.63,4.37c2.11,0.69,4.51,0.46,7.2-0.69   c2.63-1.14,4.44-2.7,5.44-4.67c1-1.97,1.04-4.07,0.13-6.3c-0.97-2.17-2.52-3.61-4.63-4.33c-2.11-0.71-4.49-0.5-7.11,0.64   c-2.69,1.14-4.53,2.71-5.53,4.71C99.98,73.18,99.94,75.26,100.86,77.43z"></path>		<path class="st1" d="M156.57,55.58h0.34c1.89-2.57,3.81-4.31,5.79-5.23c1.97-0.91,4.13-1.37,6.47-1.37c2.4,0,4.51,0.43,6.34,1.29   c1.83,0.86,3.37,2.06,4.63,3.6c1.26,1.54,2.21,3.34,2.87,5.4c0.66,2.06,0.99,4.29,0.99,6.69v33.17l-18.51,1.54l0.26-31.2   c0.06-1.03-0.33-1.89-1.16-2.57c-0.83-0.69-1.81-1.03-2.96-1.03c-1.09,0-2.07,0.33-2.96,0.99c-0.89,0.66-1.33,1.56-1.33,2.7   l0.34,30.94l-18.26-1.29l-0.69-48.77l17.83-1.46V55.58z"></path>		<path class="st1" d="M240.4,70.15c0.57,3.94,0.39,7.62-0.56,11.01c-0.94,3.4-2.46,6.4-4.54,9c-2.09,2.6-4.69,4.74-7.8,6.43   c-3.12,1.69-6.59,2.79-10.41,3.3c-3.83,0.51-7.49,0.4-10.97-0.34c-3.49-0.74-6.6-2.07-9.34-3.99c-2.74-1.91-5.03-4.37-6.86-7.37   c-1.83-3-3-6.47-3.51-10.41c-0.57-3.94-0.39-7.61,0.56-11.01c0.94-3.4,2.46-6.41,4.54-9.04c2.09-2.63,4.69-4.79,7.8-6.47   c3.11-1.69,6.59-2.79,10.41-3.3c3.83-0.51,7.47-0.4,10.93,0.34c3.46,0.74,6.56,2.07,9.3,3.99c2.74,1.92,5.03,4.39,6.86,7.41   C238.62,62.72,239.82,66.21,240.4,70.15z M204.4,77.43c0.97,2.23,2.51,3.69,4.63,4.37c2.11,0.69,4.51,0.46,7.2-0.69   c2.63-1.14,4.44-2.7,5.44-4.67c1-1.97,1.04-4.07,0.13-6.3c-0.97-2.17-2.52-3.61-4.63-4.33c-2.11-0.71-4.49-0.5-7.11,0.64   c-2.69,1.14-4.53,2.71-5.53,4.71C203.52,73.18,203.48,75.26,204.4,77.43z"></path>		<path class="st1" d="M281.75,96.68c-1.63,0.83-3.3,1.5-5.01,2.01c-1.71,0.51-3.46,0.87-5.23,1.07c-1.77,0.2-3.49,0.3-5.14,0.3   c-3.89,0-7.47-0.66-10.76-1.97c-3.29-1.31-6.14-3.13-8.57-5.44c-2.43-2.31-4.33-5.03-5.7-8.14c-1.37-3.11-2.06-6.47-2.06-10.07   c0-4.17,0.71-7.93,2.14-11.27c1.43-3.34,3.41-6.17,5.96-8.49c2.54-2.31,5.56-4.08,9.04-5.31c3.48-1.23,7.26-1.84,11.31-1.84   c4.06,0,7.59,0.66,10.59,1.97c3,1.32,5.53,2.66,7.59,4.03L274.6,68.35c-0.8-0.63-1.73-1.14-2.79-1.54   c-1.06-0.4-2.13-0.69-3.21-0.86c-1.09-0.17-2.13-0.23-3.13-0.17c-1,0.06-1.81,0.26-2.44,0.6c-1.09,0.57-2.01,1.24-2.79,2.01   c-0.77,0.77-1.37,1.62-1.8,2.53c-0.43,0.91-0.63,1.9-0.6,2.96c0.03,1.06,0.33,2.13,0.9,3.21c1.14,2.29,2.77,3.69,4.89,4.2   c2.11,0.51,4.34,0.2,6.69-0.94l4.37-2.23l11.66,15.43C284.91,94.81,283.38,95.85,281.75,96.68z"></path>		<path class="st1" d="M334,93.29c-3.49,2.52-7.06,4.33-10.71,5.44c-3.66,1.11-7.86,1.67-12.6,1.67c-3.89,0-7.44-0.67-10.67-2.01   c-3.23-1.34-6.01-3.16-8.36-5.44c-2.34-2.29-4.17-4.96-5.49-8.01c-1.31-3.06-1.97-6.3-1.97-9.73c0-4.29,0.69-8.11,2.06-11.49   c1.37-3.37,3.23-6.23,5.57-8.57c2.34-2.34,5.07-4.13,8.19-5.36c3.11-1.23,6.44-1.84,9.99-1.84c5.71,0,10.67,1.46,14.87,4.37   c4.2,2.91,7.33,6.8,9.39,11.66l-25.63,19.29c0.63,0.34,1.46,0.57,2.49,0.69c1.03,0.11,1.97,0.17,2.83,0.17   c2.63,0,4.84-0.47,6.64-1.41c1.8-0.94,3.44-2.07,4.93-3.39L334,93.29z M315.65,65.18c-0.8-0.97-1.67-1.63-2.61-1.97   s-2.01-0.51-3.21-0.51c-1.14,0-2.19,0.24-3.13,0.73c-0.94,0.49-1.76,1.14-2.44,1.97c-0.69,0.83-1.21,1.76-1.59,2.79   c-0.37,1.03-0.56,2.09-0.56,3.17c0,1.03,0.07,1.76,0.21,2.19c0.14,0.43,0.33,0.87,0.56,1.33L315.65,65.18z"></path>		<path class="st1" d="M380.11,55.58h0.34c1.89-2.57,3.81-4.31,5.79-5.23c1.97-0.91,4.13-1.37,6.47-1.37c2.4,0,4.51,0.43,6.34,1.29   c1.83,0.86,3.37,2.06,4.63,3.6c1.26,1.54,2.21,3.34,2.87,5.4c0.66,2.06,0.99,4.29,0.99,6.69v33.17l-18.51,1.54l0.26-31.2   c0.06-1.03-0.33-1.89-1.16-2.57c-0.83-0.69-1.81-1.03-2.96-1.03c-1.09,0-2.07,0.33-2.96,0.99c-0.89,0.66-1.33,1.56-1.33,2.7   l0.34,30.94l-18.26-1.29l-0.69-48.77l17.83-1.46V55.58z"></path>		<path class="st1" d="M441.57,92.09h-0.17c-1.14,3.14-2.93,5.37-5.36,6.69c-2.43,1.31-5.27,1.97-8.53,1.97   c-4.29,0-7.76-1.27-10.41-3.81c-2.66-2.54-3.99-6.24-3.99-11.1v-36l19.11-1.54l-0.51,31.71c-0.06,1.37,0.24,2.36,0.9,2.96   c0.66,0.6,1.67,0.9,3.04,0.9c1.14,0,2.07-0.29,2.79-0.86c0.71-0.57,1.04-1.54,0.99-2.91l-0.51-30.26l19.71-1.54l-1.29,51   l-15.77,0.69V92.09z"></path>		<path class="st1" d="M510.05,93.29c-3.49,2.52-7.06,4.33-10.71,5.44c-3.66,1.11-7.86,1.67-12.6,1.67c-3.89,0-7.44-0.67-10.67-2.01   c-3.23-1.34-6.01-3.16-8.36-5.44c-2.34-2.29-4.17-4.96-5.49-8.01c-1.31-3.06-1.97-6.3-1.97-9.73c0-4.29,0.69-8.11,2.06-11.49   c1.37-3.37,3.23-6.23,5.57-8.57c2.34-2.34,5.07-4.13,8.19-5.36c3.11-1.23,6.44-1.84,9.99-1.84c5.71,0,10.67,1.46,14.87,4.37   c4.2,2.91,7.33,6.8,9.39,11.66l-25.63,19.29c0.63,0.34,1.46,0.57,2.49,0.69c1.03,0.11,1.97,0.17,2.83,0.17   c2.63,0,4.84-0.47,6.64-1.41c1.8-0.94,3.44-2.07,4.93-3.39L510.05,93.29z M491.71,65.18c-0.8-0.97-1.67-1.63-2.61-1.97   s-2.01-0.51-3.21-0.51c-1.14,0-2.19,0.24-3.13,0.73c-0.94,0.49-1.76,1.14-2.44,1.97c-0.69,0.83-1.21,1.76-1.59,2.79   c-0.37,1.03-0.56,2.09-0.56,3.17c0,1.03,0.07,1.76,0.21,2.19c0.14,0.43,0.33,0.87,0.56,1.33L491.71,65.18z"></path>		<path class="st1" d="M516.09,83.78c1.57,0.29,3.27,0.43,5.1,0.43c0.8,0,1.64-0.01,2.53-0.04c0.89-0.03,1.68-0.11,2.4-0.26   c0.71-0.14,1.31-0.39,1.8-0.73c0.48-0.34,0.73-0.86,0.73-1.54c0-0.86-0.44-1.5-1.33-1.93s-1.97-0.84-3.26-1.24   c-1.29-0.4-2.7-0.87-4.24-1.41c-1.54-0.54-2.96-1.34-4.24-2.4c-1.29-1.06-2.37-2.47-3.26-4.24c-0.89-1.77-1.33-4.08-1.33-6.94   c0-1.89,0.37-3.74,1.11-5.57c0.74-1.83,1.94-3.48,3.6-4.97c1.66-1.49,3.8-2.69,6.43-3.6c2.63-0.91,5.8-1.37,9.51-1.37   c1.43,0,2.86,0.06,4.29,0.17c1.43,0.12,2.79,0.27,4.07,0.47c1.29,0.2,2.47,0.4,3.56,0.6c1.08,0.2,2,0.39,2.74,0.56v15.09   c-1.43-0.34-2.83-0.63-4.2-0.86c-1.37-0.23-2.86-0.34-4.46-0.34c-0.34,0-0.89,0.01-1.63,0.04c-0.74,0.03-1.49,0.11-2.23,0.26   c-0.74,0.14-1.4,0.39-1.97,0.73s-0.86,0.8-0.86,1.37c0,0.91,0.46,1.6,1.37,2.06c0.91,0.46,2.04,0.89,3.39,1.29   c1.34,0.4,2.81,0.89,4.41,1.46c1.6,0.57,3.07,1.39,4.42,2.44c1.34,1.06,2.47,2.47,3.39,4.24c0.91,1.77,1.37,4.09,1.37,6.94   c0,3.09-0.67,5.66-2.01,7.71c-1.34,2.06-3.12,3.7-5.31,4.93c-2.2,1.23-4.73,2.1-7.58,2.61c-2.86,0.51-5.83,0.77-8.92,0.77   c-2.4,0-4.76-0.14-7.07-0.43c-2.31-0.29-4.64-0.74-6.99-1.37V82.66C512.96,83.12,514.52,83.49,516.09,83.78z"></path>		<path class="st1" d="M574.03,100.45c-0.83,0.03-1.73,0.04-2.7,0.04c-5.49,0-9.76-1.24-12.81-3.73c-3.06-2.49-4.59-6.53-4.59-12.13   V64.32l-4.71,0.09l0.51-14.83h4.03v-5.66l18.6-8.4v14.06l6.94-1.03l-0.94,15.77h-5.83v15c0,1.71,0.24,2.86,0.73,3.43   c0.48,0.57,1.59,0.86,3.3,0.86c0.74,0,1.34-0.03,1.8-0.09c0.46-0.06,0.89-0.14,1.29-0.26l-3,16.97   C575.73,100.35,574.86,100.42,574.03,100.45z"></path>		<path class="st1" d="M599.96,48.38v9.51h0.17c1.49-6.34,5.77-9.51,12.86-9.51c1.54,0,3,0.09,4.37,0.26l-4.46,18.26   c-0.4-0.06-0.83-0.09-1.29-0.09c-0.4,0-0.97,0-1.71,0c-2.4,0-4.47,0.79-6.21,2.36c-1.74,1.57-2.61,4.04-2.61,7.41v22.03l-18,1.54   l-0.51-50.23L599.96,48.38z"></path>		<path class="st1" d="M645.99,93.81h-0.17c-1.54,2.17-3.5,3.69-5.87,4.54c-2.37,0.86-4.93,1.29-7.67,1.29   c-2.29,0-4.46-0.41-6.51-1.24c-2.06-0.83-3.86-2.01-5.4-3.56c-1.54-1.54-2.77-3.4-3.69-5.57c-0.91-2.17-1.37-4.6-1.37-7.29   c0-2.34,0.46-4.5,1.37-6.47c0.91-1.97,2.16-3.69,3.73-5.14c1.57-1.46,3.43-2.6,5.57-3.43c2.14-0.83,4.47-1.24,6.99-1.24   c2.63,0,4.84,0.39,6.64,1.16c1.8,0.77,3.33,1.64,4.59,2.61v-2.57c0-2.63-0.86-4.37-2.57-5.23c-1.71-0.86-3.94-1.29-6.69-1.29   c-2.52,0-4.86,0.26-7.03,0.77s-4.37,1.11-6.6,1.8l3.34-13.63c2.74-0.8,5.6-1.36,8.57-1.67c2.97-0.31,6-0.47,9.09-0.47   c2.8,0,5.54,0.33,8.23,0.99c2.69,0.66,5.04,1.73,7.07,3.21c2.03,1.49,3.64,3.4,4.84,5.74c1.2,2.34,1.77,5.23,1.71,8.66l-0.94,32.4   l-17.23,1.46V93.81z M635.11,77.95c-1.94,0.29-3.54,0.96-4.8,2.01c-1.26,1.06-1.8,2.24-1.63,3.56c0.23,1.31,1.04,2.3,2.44,2.96   c1.4,0.66,3.21,0.81,5.44,0.47c2.23-0.34,3.89-1.06,4.97-2.14c1.08-1.08,1.51-2.26,1.29-3.51c-0.17-1.08-0.9-2.01-2.19-2.79   C639.35,77.73,637.51,77.55,635.11,77.95z"></path>		<path class="st1" d="M673.63,83.78c1.57,0.29,3.27,0.43,5.1,0.43c0.8,0,1.64-0.01,2.53-0.04c0.89-0.03,1.68-0.11,2.4-0.26   c0.71-0.14,1.31-0.39,1.8-0.73c0.48-0.34,0.73-0.86,0.73-1.54c0-0.86-0.44-1.5-1.33-1.93s-1.97-0.84-3.26-1.24   c-1.29-0.4-2.7-0.87-4.24-1.41c-1.54-0.54-2.96-1.34-4.24-2.4c-1.29-1.06-2.37-2.47-3.26-4.24c-0.89-1.77-1.33-4.08-1.33-6.94   c0-1.89,0.37-3.74,1.11-5.57c0.74-1.83,1.94-3.48,3.6-4.97c1.66-1.49,3.8-2.69,6.43-3.6c2.63-0.91,5.8-1.37,9.51-1.37   c1.43,0,2.86,0.06,4.29,0.17c1.43,0.12,2.79,0.27,4.07,0.47c1.29,0.2,2.47,0.4,3.56,0.6c1.08,0.2,2,0.39,2.74,0.56v15.09   c-1.43-0.34-2.83-0.63-4.2-0.86c-1.37-0.23-2.86-0.34-4.46-0.34c-0.34,0-0.89,0.01-1.63,0.04c-0.74,0.03-1.49,0.11-2.23,0.26   c-0.74,0.14-1.4,0.39-1.97,0.73s-0.86,0.8-0.86,1.37c0,0.91,0.46,1.6,1.37,2.06c0.91,0.46,2.04,0.89,3.39,1.29   c1.34,0.4,2.81,0.89,4.41,1.46c1.6,0.57,3.07,1.39,4.42,2.44c1.34,1.06,2.47,2.47,3.39,4.24c0.91,1.77,1.37,4.09,1.37,6.94   c0,3.09-0.67,5.66-2.01,7.71c-1.34,2.06-3.12,3.7-5.31,4.93c-2.2,1.23-4.73,2.1-7.58,2.61c-2.86,0.51-5.83,0.77-8.92,0.77   c-2.4,0-4.76-0.14-7.07-0.43c-2.31-0.29-4.64-0.74-6.99-1.37V82.66C670.51,83.12,672.06,83.49,673.63,83.78z"></path>		<path class="st1" d="M737.57,83.78c1.57,0.29,3.27,0.43,5.1,0.43c0.8,0,1.64-0.01,2.53-0.04c0.89-0.03,1.68-0.11,2.4-0.26   c0.71-0.14,1.31-0.39,1.8-0.73c0.48-0.34,0.73-0.86,0.73-1.54c0-0.86-0.44-1.5-1.33-1.93s-1.97-0.84-3.26-1.24   c-1.29-0.4-2.7-0.87-4.24-1.41c-1.54-0.54-2.96-1.34-4.24-2.4c-1.29-1.06-2.37-2.47-3.26-4.24c-0.89-1.77-1.33-4.08-1.33-6.94   c0-1.89,0.37-3.74,1.11-5.57c0.74-1.83,1.94-3.48,3.6-4.97c1.66-1.49,3.8-2.69,6.43-3.6c2.63-0.91,5.8-1.37,9.51-1.37   c1.43,0,2.86,0.06,4.29,0.17c1.43,0.12,2.79,0.27,4.07,0.47c1.29,0.2,2.47,0.4,3.56,0.6c1.08,0.2,2,0.39,2.74,0.56v15.09   c-1.43-0.34-2.83-0.63-4.2-0.86c-1.37-0.23-2.86-0.34-4.46-0.34c-0.34,0-0.89,0.01-1.63,0.04c-0.74,0.03-1.49,0.11-2.23,0.26   c-0.74,0.14-1.4,0.39-1.97,0.73s-0.86,0.8-0.86,1.37c0,0.91,0.46,1.6,1.37,2.06c0.91,0.46,2.04,0.89,3.39,1.29   c1.34,0.4,2.81,0.89,4.41,1.46c1.6,0.57,3.07,1.39,4.42,2.44c1.34,1.06,2.47,2.47,3.39,4.24c0.91,1.77,1.37,4.09,1.37,6.94   c0,3.09-0.67,5.66-2.01,7.71c-1.34,2.06-3.12,3.7-5.31,4.93c-2.2,1.23-4.73,2.1-7.58,2.61c-2.86,0.51-5.83,0.77-8.92,0.77   c-2.4,0-4.76-0.14-7.07-0.43c-2.31-0.29-4.64-0.74-6.99-1.37V82.66C734.45,83.12,736,83.49,737.57,83.78z"></path>		<path class="st1" d="M800.96,92.09h-0.17c-1.14,3.14-2.93,5.37-5.36,6.69c-2.43,1.31-5.27,1.97-8.53,1.97   c-4.29,0-7.76-1.27-10.41-3.81c-2.66-2.54-3.99-6.24-3.99-11.1v-36l19.11-1.54l-0.51,31.71c-0.06,1.37,0.24,2.36,0.9,2.96   c0.66,0.6,1.67,0.9,3.04,0.9c1.14,0,2.07-0.29,2.79-0.86c0.71-0.57,1.04-1.54,0.99-2.91l-0.51-30.26l19.71-1.54l-1.29,51   l-15.77,0.69V92.09z"></path>		<path class="st1" d="M862.46,96.68c-1.63,0.83-3.3,1.5-5.01,2.01c-1.71,0.51-3.46,0.87-5.23,1.07c-1.77,0.2-3.49,0.3-5.14,0.3   c-3.89,0-7.47-0.66-10.76-1.97c-3.29-1.31-6.14-3.13-8.57-5.44c-2.43-2.31-4.33-5.03-5.7-8.14c-1.37-3.11-2.06-6.47-2.06-10.07   c0-4.17,0.71-7.93,2.14-11.27c1.43-3.34,3.41-6.17,5.96-8.49c2.54-2.31,5.56-4.08,9.04-5.31c3.48-1.23,7.26-1.84,11.31-1.84   c4.06,0,7.59,0.66,10.59,1.97c3,1.32,5.53,2.66,7.58,4.03L855.3,68.35c-0.8-0.63-1.73-1.14-2.79-1.54   c-1.06-0.4-2.13-0.69-3.21-0.86c-1.09-0.17-2.13-0.23-3.13-0.17c-1,0.06-1.81,0.26-2.44,0.6c-1.09,0.57-2.01,1.24-2.79,2.01   c-0.77,0.77-1.37,1.62-1.8,2.53c-0.43,0.91-0.63,1.9-0.6,2.96c0.03,1.06,0.33,2.13,0.9,3.21c1.14,2.29,2.77,3.69,4.89,4.2   c2.11,0.51,4.34,0.2,6.69-0.94l4.37-2.23l11.66,15.43C865.62,94.81,864.09,95.85,862.46,96.68z"></path>		<path class="st1" d="M896.87,92.09h-0.17c-1.14,3.14-2.93,5.37-5.36,6.69c-2.43,1.31-5.27,1.97-8.53,1.97   c-4.29,0-7.76-1.27-10.41-3.81c-2.66-2.54-3.99-6.24-3.99-11.1v-36l19.11-1.54l-0.51,31.71c-0.06,1.37,0.24,2.36,0.9,2.96   c0.66,0.6,1.67,0.9,3.04,0.9c1.14,0,2.07-0.29,2.79-0.86c0.71-0.57,1.04-1.54,0.99-2.91l-0.51-30.26l19.71-1.54l-1.29,51   l-15.77,0.69V92.09z"></path>		<path class="st1" d="M936.22,48.38v9.51h0.17c1.49-6.34,5.77-9.51,12.86-9.51c1.54,0,3,0.09,4.37,0.26l-4.46,18.26   c-0.4-0.06-0.83-0.09-1.29-0.09c-0.4,0-0.97,0-1.71,0c-2.4,0-4.47,0.79-6.21,2.36c-1.74,1.57-2.61,4.04-2.61,7.41v22.03l-18,1.54   l-0.51-50.23L936.22,48.38z"></path>		<path class="st1" d="M958.2,83.78c1.57,0.29,3.27,0.43,5.1,0.43c0.8,0,1.64-0.01,2.53-0.04c0.89-0.03,1.68-0.11,2.4-0.26   c0.71-0.14,1.31-0.39,1.8-0.73c0.48-0.34,0.73-0.86,0.73-1.54c0-0.86-0.44-1.5-1.33-1.93s-1.97-0.84-3.26-1.24   c-1.29-0.4-2.7-0.87-4.24-1.41c-1.54-0.54-2.96-1.34-4.24-2.4c-1.29-1.06-2.37-2.47-3.26-4.24c-0.89-1.77-1.33-4.08-1.33-6.94   c0-1.89,0.37-3.74,1.11-5.57c0.74-1.83,1.94-3.48,3.6-4.97c1.66-1.49,3.8-2.69,6.43-3.6c2.63-0.91,5.8-1.37,9.51-1.37   c1.43,0,2.86,0.06,4.29,0.17c1.43,0.12,2.79,0.27,4.07,0.47c1.29,0.2,2.47,0.4,3.56,0.6c1.08,0.2,2,0.39,2.74,0.56v15.09   c-1.43-0.34-2.83-0.63-4.2-0.86c-1.37-0.23-2.86-0.34-4.46-0.34c-0.34,0-0.89,0.01-1.63,0.04c-0.74,0.03-1.49,0.11-2.23,0.26   c-0.74,0.14-1.4,0.39-1.97,0.73s-0.86,0.8-0.86,1.37c0,0.91,0.46,1.6,1.37,2.06c0.91,0.46,2.04,0.89,3.39,1.29   c1.34,0.4,2.81,0.89,4.41,1.46c1.6,0.57,3.07,1.39,4.42,2.44c1.34,1.06,2.47,2.47,3.39,4.24c0.91,1.77,1.37,4.09,1.37,6.94   c0,3.09-0.67,5.66-2.01,7.71c-1.34,2.06-3.12,3.7-5.31,4.93c-2.2,1.23-4.73,2.1-7.58,2.61c-2.86,0.51-5.83,0.77-8.92,0.77   c-2.4,0-4.76-0.14-7.07-0.43c-2.31-0.29-4.64-0.74-6.99-1.37V82.66C955.07,83.12,956.63,83.49,958.2,83.78z"></path>		<path class="st1" d="M1020.47,93.81h-0.17c-1.54,2.17-3.5,3.69-5.87,4.54c-2.37,0.86-4.93,1.29-7.67,1.29   c-2.29,0-4.46-0.41-6.51-1.24c-2.06-0.83-3.86-2.01-5.4-3.56c-1.54-1.54-2.77-3.4-3.69-5.57c-0.91-2.17-1.37-4.6-1.37-7.29   c0-2.34,0.46-4.5,1.37-6.47c0.91-1.97,2.16-3.69,3.73-5.14c1.57-1.46,3.43-2.6,5.57-3.43c2.14-0.83,4.47-1.24,6.99-1.24   c2.63,0,4.84,0.39,6.64,1.16c1.8,0.77,3.33,1.64,4.59,2.61v-2.57c0-2.63-0.86-4.37-2.57-5.23c-1.71-0.86-3.94-1.29-6.69-1.29   c-2.52,0-4.86,0.26-7.03,0.77s-4.37,1.11-6.6,1.8l3.34-13.63c2.74-0.8,5.6-1.36,8.57-1.67c2.97-0.31,6-0.47,9.09-0.47   c2.8,0,5.54,0.33,8.23,0.99c2.69,0.66,5.04,1.73,7.07,3.21c2.03,1.49,3.64,3.4,4.84,5.74c1.2,2.34,1.77,5.23,1.71,8.66l-0.94,32.4   l-17.23,1.46V93.81z M1009.59,77.95c-1.94,0.29-3.54,0.96-4.8,2.01c-1.26,1.06-1.8,2.24-1.63,3.56c0.23,1.31,1.04,2.3,2.44,2.96   c1.4,0.66,3.21,0.81,5.44,0.47c2.23-0.34,3.89-1.06,4.97-2.14c1.08-1.08,1.51-2.26,1.29-3.51c-0.17-1.08-0.9-2.01-2.19-2.79   C1013.83,77.73,1011.99,77.55,1009.59,77.95z"></path>		<path class="st1" d="M1045.24,31.49l19.37-1.54l-0.77,69l-18,1.54L1045.24,31.49z"></path>		<path class="st1" d="M1116.73,93.29c-3.49,2.52-7.06,4.33-10.71,5.44c-3.66,1.11-7.86,1.67-12.6,1.67   c-3.89,0-7.44-0.67-10.67-2.01s-6.01-3.16-8.36-5.44c-2.34-2.29-4.17-4.96-5.49-8.01c-1.31-3.06-1.97-6.3-1.97-9.73   c0-4.29,0.69-8.11,2.06-11.49c1.37-3.37,3.23-6.23,5.57-8.57c2.34-2.34,5.07-4.13,8.19-5.36c3.11-1.23,6.44-1.84,9.99-1.84   c5.71,0,10.67,1.46,14.87,4.37c4.2,2.91,7.33,6.8,9.39,11.66l-25.63,19.29c0.63,0.34,1.46,0.57,2.49,0.69   c1.03,0.11,1.97,0.17,2.83,0.17c2.63,0,4.84-0.47,6.64-1.41c1.8-0.94,3.44-2.07,4.93-3.39L1116.73,93.29z M1098.39,65.18   c-0.8-0.97-1.67-1.63-2.61-1.97c-0.94-0.34-2.01-0.51-3.21-0.51c-1.14,0-2.19,0.24-3.13,0.73c-0.94,0.49-1.76,1.14-2.44,1.97   c-0.69,0.83-1.21,1.76-1.59,2.79c-0.37,1.03-0.56,2.09-0.56,3.17c0,1.03,0.07,1.76,0.21,2.19c0.14,0.43,0.33,0.87,0.56,1.33   L1098.39,65.18z"></path>		<path class="st1" d="M1122.77,83.78c1.57,0.29,3.27,0.43,5.1,0.43c0.8,0,1.64-0.01,2.53-0.04c0.89-0.03,1.68-0.11,2.4-0.26   c0.71-0.14,1.31-0.39,1.8-0.73c0.48-0.34,0.73-0.86,0.73-1.54c0-0.86-0.44-1.5-1.33-1.93s-1.97-0.84-3.26-1.24   c-1.29-0.4-2.7-0.87-4.24-1.41c-1.54-0.54-2.96-1.34-4.24-2.4c-1.29-1.06-2.37-2.47-3.26-4.24c-0.89-1.77-1.33-4.08-1.33-6.94   c0-1.89,0.37-3.74,1.11-5.57c0.74-1.83,1.94-3.48,3.6-4.97c1.66-1.49,3.8-2.69,6.43-3.6c2.63-0.91,5.8-1.37,9.51-1.37   c1.43,0,2.86,0.06,4.29,0.17c1.43,0.12,2.79,0.27,4.07,0.47c1.29,0.2,2.47,0.4,3.56,0.6c1.08,0.2,2,0.39,2.74,0.56v15.09   c-1.43-0.34-2.83-0.63-4.2-0.86c-1.37-0.23-2.86-0.34-4.46-0.34c-0.34,0-0.89,0.01-1.63,0.04c-0.74,0.03-1.49,0.11-2.23,0.26   c-0.74,0.14-1.4,0.39-1.97,0.73s-0.86,0.8-0.86,1.37c0,0.91,0.46,1.6,1.37,2.06c0.91,0.46,2.04,0.89,3.39,1.29   c1.34,0.4,2.81,0.89,4.41,1.46c1.6,0.57,3.07,1.39,4.42,2.44c1.34,1.06,2.47,2.47,3.39,4.24c0.91,1.77,1.37,4.09,1.37,6.94   c0,3.09-0.67,5.66-2.01,7.71c-1.34,2.06-3.12,3.7-5.31,4.93c-2.2,1.23-4.73,2.1-7.58,2.61c-2.86,0.51-5.83,0.77-8.92,0.77   c-2.4,0-4.76-0.14-7.07-0.43c-2.31-0.29-4.64-0.74-6.99-1.37V82.66C1119.64,83.12,1121.2,83.49,1122.77,83.78z"></path>	</g>	<g>		<path class="st2" d="M80.88,41.86l-15,18.43c-3.09-3.26-5.79-5.34-8.1-6.26c-2.31-0.91-4.31-1.13-6-0.64   c-1.69,0.49-3.1,1.49-4.24,3c-1.14,1.52-2.06,3.06-2.74,4.63c-0.69,1.57-1.31,3.61-1.89,6.13c0,0.12,0.13,0.86,0.39,2.23   c0.26,1.37,0.86,2.9,1.8,4.59c0.94,1.69,2.28,2.93,4.03,3.73c1.74,0.8,4.11,0.69,7.11-0.34c3-1.03,6.7-3.57,11.1-7.63l16.71,17.83   c-0.86,1.66-2.34,3.34-4.46,5.06c-2.11,1.71-4.63,3.29-7.54,4.71c-2.91,1.43-6.12,2.61-9.6,3.56c-3.49,0.94-7.04,1.49-10.67,1.63   c-3.63,0.14-7.2-0.24-10.71-1.16c-3.51-0.91-6.76-2.51-9.73-4.8c-4.29-3.31-7.46-6.97-9.51-10.97c-2.06-4-3.29-8.11-3.69-12.34   c-0.4-4.23-0.07-8.46,0.99-12.69c1.06-4.23,2.54-8.2,4.46-11.91c1.91-3.71,4.17-7.06,6.77-10.03c2.6-2.97,5.24-5.34,7.93-7.11   c2.28-1.26,4.43-2.19,6.43-2.79c2-0.6,4.36-1.03,7.07-1.29c2.71-0.26,5.66,0,8.83,0.77c3.17,0.77,6.48,2.21,9.94,4.33   C74.01,34.63,77.46,37.75,80.88,41.86z"></path>		<path class="st2" d="M136.86,70.15c0.57,3.94,0.39,7.62-0.56,11.01c-0.94,3.4-2.46,6.4-4.54,9c-2.09,2.6-4.69,4.74-7.8,6.43   c-3.12,1.69-6.59,2.79-10.41,3.3c-3.83,0.51-7.49,0.4-10.97-0.34c-3.49-0.74-6.6-2.07-9.34-3.99c-2.74-1.91-5.03-4.37-6.86-7.37   c-1.83-3-3-6.47-3.51-10.41c-0.57-3.94-0.39-7.61,0.56-11.01c0.94-3.4,2.46-6.41,4.54-9.04c2.09-2.63,4.69-4.79,7.8-6.47   c3.11-1.69,6.59-2.79,10.41-3.3c3.83-0.51,7.47-0.4,10.93,0.34c3.46,0.74,6.56,2.07,9.3,3.99c2.74,1.92,5.03,4.39,6.86,7.41   C135.08,62.72,136.28,66.21,136.86,70.15z M100.86,77.43c0.97,2.23,2.51,3.69,4.63,4.37c2.11,0.69,4.51,0.46,7.2-0.69   c2.63-1.14,4.44-2.7,5.44-4.67c1-1.97,1.04-4.07,0.13-6.3c-0.97-2.17-2.52-3.61-4.63-4.33c-2.11-0.71-4.49-0.5-7.11,0.64   c-2.69,1.14-4.53,2.71-5.53,4.71C99.98,73.18,99.94,75.26,100.86,77.43z"></path>		<path class="st2" d="M156.57,55.58h0.34c1.89-2.57,3.81-4.31,5.79-5.23c1.97-0.91,4.13-1.37,6.47-1.37c2.4,0,4.51,0.43,6.34,1.29   c1.83,0.86,3.37,2.06,4.63,3.6c1.26,1.54,2.21,3.34,2.87,5.4c0.66,2.06,0.99,4.29,0.99,6.69v33.17l-18.51,1.54l0.26-31.2   c0.06-1.03-0.33-1.89-1.16-2.57c-0.83-0.69-1.81-1.03-2.96-1.03c-1.09,0-2.07,0.33-2.96,0.99c-0.89,0.66-1.33,1.56-1.33,2.7   l0.34,30.94l-18.26-1.29l-0.69-48.77l17.83-1.46V55.58z"></path>		<path class="st2" d="M240.4,70.15c0.57,3.94,0.39,7.62-0.56,11.01c-0.94,3.4-2.46,6.4-4.54,9c-2.09,2.6-4.69,4.74-7.8,6.43   c-3.12,1.69-6.59,2.79-10.41,3.3c-3.83,0.51-7.49,0.4-10.97-0.34c-3.49-0.74-6.6-2.07-9.34-3.99c-2.74-1.91-5.03-4.37-6.86-7.37   c-1.83-3-3-6.47-3.51-10.41c-0.57-3.94-0.39-7.61,0.56-11.01c0.94-3.4,2.46-6.41,4.54-9.04c2.09-2.63,4.69-4.79,7.8-6.47   c3.11-1.69,6.59-2.79,10.41-3.3c3.83-0.51,7.47-0.4,10.93,0.34c3.46,0.74,6.56,2.07,9.3,3.99c2.74,1.92,5.03,4.39,6.86,7.41   C238.62,62.72,239.82,66.21,240.4,70.15z M204.4,77.43c0.97,2.23,2.51,3.69,4.63,4.37c2.11,0.69,4.51,0.46,7.2-0.69   c2.63-1.14,4.44-2.7,5.44-4.67c1-1.97,1.04-4.07,0.13-6.3c-0.97-2.17-2.52-3.61-4.63-4.33c-2.11-0.71-4.49-0.5-7.11,0.64   c-2.69,1.14-4.53,2.71-5.53,4.71C203.52,73.18,203.48,75.26,204.4,77.43z"></path>		<path class="st2" d="M281.75,96.68c-1.63,0.83-3.3,1.5-5.01,2.01c-1.71,0.51-3.46,0.87-5.23,1.07c-1.77,0.2-3.49,0.3-5.14,0.3   c-3.89,0-7.47-0.66-10.76-1.97c-3.29-1.31-6.14-3.13-8.57-5.44c-2.43-2.31-4.33-5.03-5.7-8.14c-1.37-3.11-2.06-6.47-2.06-10.07   c0-4.17,0.71-7.93,2.14-11.27c1.43-3.34,3.41-6.17,5.96-8.49c2.54-2.31,5.56-4.08,9.04-5.31c3.48-1.23,7.26-1.84,11.31-1.84   c4.06,0,7.59,0.66,10.59,1.97c3,1.32,5.53,2.66,7.59,4.03L274.6,68.35c-0.8-0.63-1.73-1.14-2.79-1.54   c-1.06-0.4-2.13-0.69-3.21-0.86c-1.09-0.17-2.13-0.23-3.13-0.17c-1,0.06-1.81,0.26-2.44,0.6c-1.09,0.57-2.01,1.24-2.79,2.01   c-0.77,0.77-1.37,1.62-1.8,2.53c-0.43,0.91-0.63,1.9-0.6,2.96c0.03,1.06,0.33,2.13,0.9,3.21c1.14,2.29,2.77,3.69,4.89,4.2   c2.11,0.51,4.34,0.2,6.69-0.94l4.37-2.23l11.66,15.43C284.91,94.81,283.38,95.85,281.75,96.68z"></path>		<path class="st2" d="M334,93.29c-3.49,2.52-7.06,4.33-10.71,5.44c-3.66,1.11-7.86,1.67-12.6,1.67c-3.89,0-7.44-0.67-10.67-2.01   c-3.23-1.34-6.01-3.16-8.36-5.44c-2.34-2.29-4.17-4.96-5.49-8.01c-1.31-3.06-1.97-6.3-1.97-9.73c0-4.29,0.69-8.11,2.06-11.49   c1.37-3.37,3.23-6.23,5.57-8.57c2.34-2.34,5.07-4.13,8.19-5.36c3.11-1.23,6.44-1.84,9.99-1.84c5.71,0,10.67,1.46,14.87,4.37   c4.2,2.91,7.33,6.8,9.39,11.66l-25.63,19.29c0.63,0.34,1.46,0.57,2.49,0.69c1.03,0.11,1.97,0.17,2.83,0.17   c2.63,0,4.84-0.47,6.64-1.41c1.8-0.94,3.44-2.07,4.93-3.39L334,93.29z M315.65,65.18c-0.8-0.97-1.67-1.63-2.61-1.97   s-2.01-0.51-3.21-0.51c-1.14,0-2.19,0.24-3.13,0.73c-0.94,0.49-1.76,1.14-2.44,1.97c-0.69,0.83-1.21,1.76-1.59,2.79   c-0.37,1.03-0.56,2.09-0.56,3.17c0,1.03,0.07,1.76,0.21,2.19c0.14,0.43,0.33,0.87,0.56,1.33L315.65,65.18z"></path>		<path class="st2" d="M380.11,55.58h0.34c1.89-2.57,3.81-4.31,5.79-5.23c1.97-0.91,4.13-1.37,6.47-1.37c2.4,0,4.51,0.43,6.34,1.29   c1.83,0.86,3.37,2.06,4.63,3.6c1.26,1.54,2.21,3.34,2.87,5.4c0.66,2.06,0.99,4.29,0.99,6.69v33.17l-18.51,1.54l0.26-31.2   c0.06-1.03-0.33-1.89-1.16-2.57c-0.83-0.69-1.81-1.03-2.96-1.03c-1.09,0-2.07,0.33-2.96,0.99c-0.89,0.66-1.33,1.56-1.33,2.7   l0.34,30.94l-18.26-1.29l-0.69-48.77l17.83-1.46V55.58z"></path>		<path class="st2" d="M441.57,92.09h-0.17c-1.14,3.14-2.93,5.37-5.36,6.69c-2.43,1.31-5.27,1.97-8.53,1.97   c-4.29,0-7.76-1.27-10.41-3.81c-2.66-2.54-3.99-6.24-3.99-11.1v-36l19.11-1.54l-0.51,31.71c-0.06,1.37,0.24,2.36,0.9,2.96   c0.66,0.6,1.67,0.9,3.04,0.9c1.14,0,2.07-0.29,2.79-0.86c0.71-0.57,1.04-1.54,0.99-2.91l-0.51-30.26l19.71-1.54l-1.29,51   l-15.77,0.69V92.09z"></path>		<path class="st2" d="M510.05,93.29c-3.49,2.52-7.06,4.33-10.71,5.44c-3.66,1.11-7.86,1.67-12.6,1.67c-3.89,0-7.44-0.67-10.67-2.01   c-3.23-1.34-6.01-3.16-8.36-5.44c-2.34-2.29-4.17-4.96-5.49-8.01c-1.31-3.06-1.97-6.3-1.97-9.73c0-4.29,0.69-8.11,2.06-11.49   c1.37-3.37,3.23-6.23,5.57-8.57c2.34-2.34,5.07-4.13,8.19-5.36c3.11-1.23,6.44-1.84,9.99-1.84c5.71,0,10.67,1.46,14.87,4.37   c4.2,2.91,7.33,6.8,9.39,11.66l-25.63,19.29c0.63,0.34,1.46,0.57,2.49,0.69c1.03,0.11,1.97,0.17,2.83,0.17   c2.63,0,4.84-0.47,6.64-1.41c1.8-0.94,3.44-2.07,4.93-3.39L510.05,93.29z M491.71,65.18c-0.8-0.97-1.67-1.63-2.61-1.97   s-2.01-0.51-3.21-0.51c-1.14,0-2.19,0.24-3.13,0.73c-0.94,0.49-1.76,1.14-2.44,1.97c-0.69,0.83-1.21,1.76-1.59,2.79   c-0.37,1.03-0.56,2.09-0.56,3.17c0,1.03,0.07,1.76,0.21,2.19c0.14,0.43,0.33,0.87,0.56,1.33L491.71,65.18z"></path>		<path class="st2" d="M516.09,83.78c1.57,0.29,3.27,0.43,5.1,0.43c0.8,0,1.64-0.01,2.53-0.04c0.89-0.03,1.68-0.11,2.4-0.26   c0.71-0.14,1.31-0.39,1.8-0.73c0.48-0.34,0.73-0.86,0.73-1.54c0-0.86-0.44-1.5-1.33-1.93s-1.97-0.84-3.26-1.24   c-1.29-0.4-2.7-0.87-4.24-1.41c-1.54-0.54-2.96-1.34-4.24-2.4c-1.29-1.06-2.37-2.47-3.26-4.24c-0.89-1.77-1.33-4.08-1.33-6.94   c0-1.89,0.37-3.74,1.11-5.57c0.74-1.83,1.94-3.48,3.6-4.97c1.66-1.49,3.8-2.69,6.43-3.6c2.63-0.91,5.8-1.37,9.51-1.37   c1.43,0,2.86,0.06,4.29,0.17c1.43,0.12,2.79,0.27,4.07,0.47c1.29,0.2,2.47,0.4,3.56,0.6c1.08,0.2,2,0.39,2.74,0.56v15.09   c-1.43-0.34-2.83-0.63-4.2-0.86c-1.37-0.23-2.86-0.34-4.46-0.34c-0.34,0-0.89,0.01-1.63,0.04c-0.74,0.03-1.49,0.11-2.23,0.26   c-0.74,0.14-1.4,0.39-1.97,0.73s-0.86,0.8-0.86,1.37c0,0.91,0.46,1.6,1.37,2.06c0.91,0.46,2.04,0.89,3.39,1.29   c1.34,0.4,2.81,0.89,4.41,1.46c1.6,0.57,3.07,1.39,4.42,2.44c1.34,1.06,2.47,2.47,3.39,4.24c0.91,1.77,1.37,4.09,1.37,6.94   c0,3.09-0.67,5.66-2.01,7.71c-1.34,2.06-3.12,3.7-5.31,4.93c-2.2,1.23-4.73,2.1-7.58,2.61c-2.86,0.51-5.83,0.77-8.92,0.77   c-2.4,0-4.76-0.14-7.07-0.43c-2.31-0.29-4.64-0.74-6.99-1.37V82.66C512.96,83.12,514.52,83.49,516.09,83.78z"></path>		<path class="st2" d="M574.03,100.45c-0.83,0.03-1.73,0.04-2.7,0.04c-5.49,0-9.76-1.24-12.81-3.73c-3.06-2.49-4.59-6.53-4.59-12.13   V64.32l-4.71,0.09l0.51-14.83h4.03v-5.66l18.6-8.4v14.06l6.94-1.03l-0.94,15.77h-5.83v15c0,1.71,0.24,2.86,0.73,3.43   c0.48,0.57,1.59,0.86,3.3,0.86c0.74,0,1.34-0.03,1.8-0.09c0.46-0.06,0.89-0.14,1.29-0.26l-3,16.97   C575.73,100.35,574.86,100.42,574.03,100.45z"></path>		<path class="st2" d="M599.96,48.38v9.51h0.17c1.49-6.34,5.77-9.51,12.86-9.51c1.54,0,3,0.09,4.37,0.26l-4.46,18.26   c-0.4-0.06-0.83-0.09-1.29-0.09c-0.4,0-0.97,0-1.71,0c-2.4,0-4.47,0.79-6.21,2.36c-1.74,1.57-2.61,4.04-2.61,7.41v22.03l-18,1.54   l-0.51-50.23L599.96,48.38z"></path>		<path class="st2" d="M645.99,93.81h-0.17c-1.54,2.17-3.5,3.69-5.87,4.54c-2.37,0.86-4.93,1.29-7.67,1.29   c-2.29,0-4.46-0.41-6.51-1.24c-2.06-0.83-3.86-2.01-5.4-3.56c-1.54-1.54-2.77-3.4-3.69-5.57c-0.91-2.17-1.37-4.6-1.37-7.29   c0-2.34,0.46-4.5,1.37-6.47c0.91-1.97,2.16-3.69,3.73-5.14c1.57-1.46,3.43-2.6,5.57-3.43c2.14-0.83,4.47-1.24,6.99-1.24   c2.63,0,4.84,0.39,6.64,1.16c1.8,0.77,3.33,1.64,4.59,2.61v-2.57c0-2.63-0.86-4.37-2.57-5.23c-1.71-0.86-3.94-1.29-6.69-1.29   c-2.52,0-4.86,0.26-7.03,0.77s-4.37,1.11-6.6,1.8l3.34-13.63c2.74-0.8,5.6-1.36,8.57-1.67c2.97-0.31,6-0.47,9.09-0.47   c2.8,0,5.54,0.33,8.23,0.99c2.69,0.66,5.04,1.73,7.07,3.21c2.03,1.49,3.64,3.4,4.84,5.74c1.2,2.34,1.77,5.23,1.71,8.66l-0.94,32.4   l-17.23,1.46V93.81z M635.11,77.95c-1.94,0.29-3.54,0.96-4.8,2.01c-1.26,1.06-1.8,2.24-1.63,3.56c0.23,1.31,1.04,2.3,2.44,2.96   c1.4,0.66,3.21,0.81,5.44,0.47c2.23-0.34,3.89-1.06,4.97-2.14c1.08-1.08,1.51-2.26,1.29-3.51c-0.17-1.08-0.9-2.01-2.19-2.79   C639.35,77.73,637.51,77.55,635.11,77.95z"></path>		<path class="st2" d="M673.63,83.78c1.57,0.29,3.27,0.43,5.1,0.43c0.8,0,1.64-0.01,2.53-0.04c0.89-0.03,1.68-0.11,2.4-0.26   c0.71-0.14,1.31-0.39,1.8-0.73c0.48-0.34,0.73-0.86,0.73-1.54c0-0.86-0.44-1.5-1.33-1.93s-1.97-0.84-3.26-1.24   c-1.29-0.4-2.7-0.87-4.24-1.41c-1.54-0.54-2.96-1.34-4.24-2.4c-1.29-1.06-2.37-2.47-3.26-4.24c-0.89-1.77-1.33-4.08-1.33-6.94   c0-1.89,0.37-3.74,1.11-5.57c0.74-1.83,1.94-3.48,3.6-4.97c1.66-1.49,3.8-2.69,6.43-3.6c2.63-0.91,5.8-1.37,9.51-1.37   c1.43,0,2.86,0.06,4.29,0.17c1.43,0.12,2.79,0.27,4.07,0.47c1.29,0.2,2.47,0.4,3.56,0.6c1.08,0.2,2,0.39,2.74,0.56v15.09   c-1.43-0.34-2.83-0.63-4.2-0.86c-1.37-0.23-2.86-0.34-4.46-0.34c-0.34,0-0.89,0.01-1.63,0.04c-0.74,0.03-1.49,0.11-2.23,0.26   c-0.74,0.14-1.4,0.39-1.97,0.73s-0.86,0.8-0.86,1.37c0,0.91,0.46,1.6,1.37,2.06c0.91,0.46,2.04,0.89,3.39,1.29   c1.34,0.4,2.81,0.89,4.41,1.46c1.6,0.57,3.07,1.39,4.42,2.44c1.34,1.06,2.47,2.47,3.39,4.24c0.91,1.77,1.37,4.09,1.37,6.94   c0,3.09-0.67,5.66-2.01,7.71c-1.34,2.06-3.12,3.7-5.31,4.93c-2.2,1.23-4.73,2.1-7.58,2.61c-2.86,0.51-5.83,0.77-8.92,0.77   c-2.4,0-4.76-0.14-7.07-0.43c-2.31-0.29-4.64-0.74-6.99-1.37V82.66C670.51,83.12,672.06,83.49,673.63,83.78z"></path>		<path class="st2" d="M737.57,83.78c1.57,0.29,3.27,0.43,5.1,0.43c0.8,0,1.64-0.01,2.53-0.04c0.89-0.03,1.68-0.11,2.4-0.26   c0.71-0.14,1.31-0.39,1.8-0.73c0.48-0.34,0.73-0.86,0.73-1.54c0-0.86-0.44-1.5-1.33-1.93s-1.97-0.84-3.26-1.24   c-1.29-0.4-2.7-0.87-4.24-1.41c-1.54-0.54-2.96-1.34-4.24-2.4c-1.29-1.06-2.37-2.47-3.26-4.24c-0.89-1.77-1.33-4.08-1.33-6.94   c0-1.89,0.37-3.74,1.11-5.57c0.74-1.83,1.94-3.48,3.6-4.97c1.66-1.49,3.8-2.69,6.43-3.6c2.63-0.91,5.8-1.37,9.51-1.37   c1.43,0,2.86,0.06,4.29,0.17c1.43,0.12,2.79,0.27,4.07,0.47c1.29,0.2,2.47,0.4,3.56,0.6c1.08,0.2,2,0.39,2.74,0.56v15.09   c-1.43-0.34-2.83-0.63-4.2-0.86c-1.37-0.23-2.86-0.34-4.46-0.34c-0.34,0-0.89,0.01-1.63,0.04c-0.74,0.03-1.49,0.11-2.23,0.26   c-0.74,0.14-1.4,0.39-1.97,0.73s-0.86,0.8-0.86,1.37c0,0.91,0.46,1.6,1.37,2.06c0.91,0.46,2.04,0.89,3.39,1.29   c1.34,0.4,2.81,0.89,4.41,1.46c1.6,0.57,3.07,1.39,4.42,2.44c1.34,1.06,2.47,2.47,3.39,4.24c0.91,1.77,1.37,4.09,1.37,6.94   c0,3.09-0.67,5.66-2.01,7.71c-1.34,2.06-3.12,3.7-5.31,4.93c-2.2,1.23-4.73,2.1-7.58,2.61c-2.86,0.51-5.83,0.77-8.92,0.77   c-2.4,0-4.76-0.14-7.07-0.43c-2.31-0.29-4.64-0.74-6.99-1.37V82.66C734.45,83.12,736,83.49,737.57,83.78z"></path>		<path class="st2" d="M800.96,92.09h-0.17c-1.14,3.14-2.93,5.37-5.36,6.69c-2.43,1.31-5.27,1.97-8.53,1.97   c-4.29,0-7.76-1.27-10.41-3.81c-2.66-2.54-3.99-6.24-3.99-11.1v-36l19.11-1.54l-0.51,31.71c-0.06,1.37,0.24,2.36,0.9,2.96   c0.66,0.6,1.67,0.9,3.04,0.9c1.14,0,2.07-0.29,2.79-0.86c0.71-0.57,1.04-1.54,0.99-2.91l-0.51-30.26l19.71-1.54l-1.29,51   l-15.77,0.69V92.09z"></path>		<path class="st2" d="M862.46,96.68c-1.63,0.83-3.3,1.5-5.01,2.01c-1.71,0.51-3.46,0.87-5.23,1.07c-1.77,0.2-3.49,0.3-5.14,0.3   c-3.89,0-7.47-0.66-10.76-1.97c-3.29-1.31-6.14-3.13-8.57-5.44c-2.43-2.31-4.33-5.03-5.7-8.14c-1.37-3.11-2.06-6.47-2.06-10.07   c0-4.17,0.71-7.93,2.14-11.27c1.43-3.34,3.41-6.17,5.96-8.49c2.54-2.31,5.56-4.08,9.04-5.31c3.48-1.23,7.26-1.84,11.31-1.84   c4.06,0,7.59,0.66,10.59,1.97c3,1.32,5.53,2.66,7.58,4.03L855.3,68.35c-0.8-0.63-1.73-1.14-2.79-1.54   c-1.06-0.4-2.13-0.69-3.21-0.86c-1.09-0.17-2.13-0.23-3.13-0.17c-1,0.06-1.81,0.26-2.44,0.6c-1.09,0.57-2.01,1.24-2.79,2.01   c-0.77,0.77-1.37,1.62-1.8,2.53c-0.43,0.91-0.63,1.9-0.6,2.96c0.03,1.06,0.33,2.13,0.9,3.21c1.14,2.29,2.77,3.69,4.89,4.2   c2.11,0.51,4.34,0.2,6.69-0.94l4.37-2.23l11.66,15.43C865.62,94.81,864.09,95.85,862.46,96.68z"></path>		<path class="st2" d="M896.87,92.09h-0.17c-1.14,3.14-2.93,5.37-5.36,6.69c-2.43,1.31-5.27,1.97-8.53,1.97   c-4.29,0-7.76-1.27-10.41-3.81c-2.66-2.54-3.99-6.24-3.99-11.1v-36l19.11-1.54l-0.51,31.71c-0.06,1.37,0.24,2.36,0.9,2.96   c0.66,0.6,1.67,0.9,3.04,0.9c1.14,0,2.07-0.29,2.79-0.86c0.71-0.57,1.04-1.54,0.99-2.91l-0.51-30.26l19.71-1.54l-1.29,51   l-15.77,0.69V92.09z"></path>		<path class="st2" d="M936.22,48.38v9.51h0.17c1.49-6.34,5.77-9.51,12.86-9.51c1.54,0,3,0.09,4.37,0.26l-4.46,18.26   c-0.4-0.06-0.83-0.09-1.29-0.09c-0.4,0-0.97,0-1.71,0c-2.4,0-4.47,0.79-6.21,2.36c-1.74,1.57-2.61,4.04-2.61,7.41v22.03l-18,1.54   l-0.51-50.23L936.22,48.38z"></path>		<path class="st2" d="M958.2,83.78c1.57,0.29,3.27,0.43,5.1,0.43c0.8,0,1.64-0.01,2.53-0.04c0.89-0.03,1.68-0.11,2.4-0.26   c0.71-0.14,1.31-0.39,1.8-0.73c0.48-0.34,0.73-0.86,0.73-1.54c0-0.86-0.44-1.5-1.33-1.93s-1.97-0.84-3.26-1.24   c-1.29-0.4-2.7-0.87-4.24-1.41c-1.54-0.54-2.96-1.34-4.24-2.4c-1.29-1.06-2.37-2.47-3.26-4.24c-0.89-1.77-1.33-4.08-1.33-6.94   c0-1.89,0.37-3.74,1.11-5.57c0.74-1.83,1.94-3.48,3.6-4.97c1.66-1.49,3.8-2.69,6.43-3.6c2.63-0.91,5.8-1.37,9.51-1.37   c1.43,0,2.86,0.06,4.29,0.17c1.43,0.12,2.79,0.27,4.07,0.47c1.29,0.2,2.47,0.4,3.56,0.6c1.08,0.2,2,0.39,2.74,0.56v15.09   c-1.43-0.34-2.83-0.63-4.2-0.86c-1.37-0.23-2.86-0.34-4.46-0.34c-0.34,0-0.89,0.01-1.63,0.04c-0.74,0.03-1.49,0.11-2.23,0.26   c-0.74,0.14-1.4,0.39-1.97,0.73s-0.86,0.8-0.86,1.37c0,0.91,0.46,1.6,1.37,2.06c0.91,0.46,2.04,0.89,3.39,1.29   c1.34,0.4,2.81,0.89,4.41,1.46c1.6,0.57,3.07,1.39,4.42,2.44c1.34,1.06,2.47,2.47,3.39,4.24c0.91,1.77,1.37,4.09,1.37,6.94   c0,3.09-0.67,5.66-2.01,7.71c-1.34,2.06-3.12,3.7-5.31,4.93c-2.2,1.23-4.73,2.1-7.58,2.61c-2.86,0.51-5.83,0.77-8.92,0.77   c-2.4,0-4.76-0.14-7.07-0.43c-2.31-0.29-4.64-0.74-6.99-1.37V82.66C955.07,83.12,956.63,83.49,958.2,83.78z"></path>		<path class="st2" d="M1020.47,93.81h-0.17c-1.54,2.17-3.5,3.69-5.87,4.54c-2.37,0.86-4.93,1.29-7.67,1.29   c-2.29,0-4.46-0.41-6.51-1.24c-2.06-0.83-3.86-2.01-5.4-3.56c-1.54-1.54-2.77-3.4-3.69-5.57c-0.91-2.17-1.37-4.6-1.37-7.29   c0-2.34,0.46-4.5,1.37-6.47c0.91-1.97,2.16-3.69,3.73-5.14c1.57-1.46,3.43-2.6,5.57-3.43c2.14-0.83,4.47-1.24,6.99-1.24   c2.63,0,4.84,0.39,6.64,1.16c1.8,0.77,3.33,1.64,4.59,2.61v-2.57c0-2.63-0.86-4.37-2.57-5.23c-1.71-0.86-3.94-1.29-6.69-1.29   c-2.52,0-4.86,0.26-7.03,0.77s-4.37,1.11-6.6,1.8l3.34-13.63c2.74-0.8,5.6-1.36,8.57-1.67c2.97-0.31,6-0.47,9.09-0.47   c2.8,0,5.54,0.33,8.23,0.99c2.69,0.66,5.04,1.73,7.07,3.21c2.03,1.49,3.64,3.4,4.84,5.74c1.2,2.34,1.77,5.23,1.71,8.66l-0.94,32.4   l-17.23,1.46V93.81z M1009.59,77.95c-1.94,0.29-3.54,0.96-4.8,2.01c-1.26,1.06-1.8,2.24-1.63,3.56c0.23,1.31,1.04,2.3,2.44,2.96   c1.4,0.66,3.21,0.81,5.44,0.47c2.23-0.34,3.89-1.06,4.97-2.14c1.08-1.08,1.51-2.26,1.29-3.51c-0.17-1.08-0.9-2.01-2.19-2.79   C1013.83,77.73,1011.99,77.55,1009.59,77.95z"></path>		<path class="st2" d="M1045.24,31.49l19.37-1.54l-0.77,69l-18,1.54L1045.24,31.49z"></path>		<path class="st2" d="M1116.73,93.29c-3.49,2.52-7.06,4.33-10.71,5.44c-3.66,1.11-7.86,1.67-12.6,1.67   c-3.89,0-7.44-0.67-10.67-2.01s-6.01-3.16-8.36-5.44c-2.34-2.29-4.17-4.96-5.49-8.01c-1.31-3.06-1.97-6.3-1.97-9.73   c0-4.29,0.69-8.11,2.06-11.49c1.37-3.37,3.23-6.23,5.57-8.57c2.34-2.34,5.07-4.13,8.19-5.36c3.11-1.23,6.44-1.84,9.99-1.84   c5.71,0,10.67,1.46,14.87,4.37c4.2,2.91,7.33,6.8,9.39,11.66l-25.63,19.29c0.63,0.34,1.46,0.57,2.49,0.69   c1.03,0.11,1.97,0.17,2.83,0.17c2.63,0,4.84-0.47,6.64-1.41c1.8-0.94,3.44-2.07,4.93-3.39L1116.73,93.29z M1098.39,65.18   c-0.8-0.97-1.67-1.63-2.61-1.97c-0.94-0.34-2.01-0.51-3.21-0.51c-1.14,0-2.19,0.24-3.13,0.73c-0.94,0.49-1.76,1.14-2.44,1.97   c-0.69,0.83-1.21,1.76-1.59,2.79c-0.37,1.03-0.56,2.09-0.56,3.17c0,1.03,0.07,1.76,0.21,2.19c0.14,0.43,0.33,0.87,0.56,1.33   L1098.39,65.18z"></path>		<path class="st2" d="M1122.77,83.78c1.57,0.29,3.27,0.43,5.1,0.43c0.8,0,1.64-0.01,2.53-0.04c0.89-0.03,1.68-0.11,2.4-0.26   c0.71-0.14,1.31-0.39,1.8-0.73c0.48-0.34,0.73-0.86,0.73-1.54c0-0.86-0.44-1.5-1.33-1.93s-1.97-0.84-3.26-1.24   c-1.29-0.4-2.7-0.87-4.24-1.41c-1.54-0.54-2.96-1.34-4.24-2.4c-1.29-1.06-2.37-2.47-3.26-4.24c-0.89-1.77-1.33-4.08-1.33-6.94   c0-1.89,0.37-3.74,1.11-5.57c0.74-1.83,1.94-3.48,3.6-4.97c1.66-1.49,3.8-2.69,6.43-3.6c2.63-0.91,5.8-1.37,9.51-1.37   c1.43,0,2.86,0.06,4.29,0.17c1.43,0.12,2.79,0.27,4.07,0.47c1.29,0.2,2.47,0.4,3.56,0.6c1.08,0.2,2,0.39,2.74,0.56v15.09   c-1.43-0.34-2.83-0.63-4.2-0.86c-1.37-0.23-2.86-0.34-4.46-0.34c-0.34,0-0.89,0.01-1.63,0.04c-0.74,0.03-1.49,0.11-2.23,0.26   c-0.74,0.14-1.4,0.39-1.97,0.73s-0.86,0.8-0.86,1.37c0,0.91,0.46,1.6,1.37,2.06c0.91,0.46,2.04,0.89,3.39,1.29   c1.34,0.4,2.81,0.89,4.41,1.46c1.6,0.57,3.07,1.39,4.42,2.44c1.34,1.06,2.47,2.47,3.39,4.24c0.91,1.77,1.37,4.09,1.37,6.94   c0,3.09-0.67,5.66-2.01,7.71c-1.34,2.06-3.12,3.7-5.31,4.93c-2.2,1.23-4.73,2.1-7.58,2.61c-2.86,0.51-5.83,0.77-8.92,0.77   c-2.4,0-4.76-0.14-7.07-0.43c-2.31-0.29-4.64-0.74-6.99-1.37V82.66C1119.64,83.12,1121.2,83.49,1122.77,83.78z"></path>	</g></g></svg>